<?xml version="1.0" encoding="utf-8" standalone="no"?>
<!DOCTYPE svg PUBLIC "-//W3C//DTD SVG 1.1//EN"
  "http://www.w3.org/Graphics/SVG/1.1/DTD/svg11.dtd">
<!-- Created with matplotlib (http://matplotlib.org/) -->
<svg height="335.586719pt" version="1.1" viewBox="0 0 694.930781 335.586719" width="694.930781pt" xmlns="http://www.w3.org/2000/svg" xmlns:xlink="http://www.w3.org/1999/xlink">
 <defs>
  <style type="text/css">
*{stroke-linecap:butt;stroke-linejoin:round;}
  </style>
 </defs>
 <g id="figure_1">
  <g id="patch_1">
   <path d="M 0 335.586719 
L 694.930781 335.586719 
L 694.930781 0 
L 0 0 
z
" style="fill:#ffffff;"/>
  </g>
  <g id="axes_1">
   <g id="patch_2">
    <path d="M 64.360781 281.497187 
L 321.598281 281.497187 
L 321.598281 26.877187 
L 64.360781 26.877187 
z
" style="fill:#ffffff;"/>
   </g>
   <g id="matplotlib.axis_1">
    <g id="xtick_1">
     <g id="text_1">
      <!-- 1 -->
      <defs>
       <path d="M 12.40625 8.296875 
L 28.515625 8.296875 
L 28.515625 63.921875 
L 10.984375 60.40625 
L 10.984375 69.390625 
L 28.421875 72.90625 
L 38.28125 72.90625 
L 38.28125 8.296875 
L 54.390625 8.296875 
L 54.390625 0 
L 12.40625 0 
z
" id="DejaVuSans-31"/>
      </defs>
      <g style="fill:#262626;" transform="translate(101.984635 303.534609)scale(0.165 -0.165)">
       <use xlink:href="#DejaVuSans-31"/>
      </g>
     </g>
    </g>
    <g id="xtick_2">
     <g id="text_2">
      <!-- 2 -->
      <defs>
       <path d="M 19.1875 8.296875 
L 53.609375 8.296875 
L 53.609375 0 
L 7.328125 0 
L 7.328125 8.296875 
Q 12.9375 14.109375 22.625 23.890625 
Q 32.328125 33.6875 34.8125 36.53125 
Q 39.546875 41.84375 41.421875 45.53125 
Q 43.3125 49.21875 43.3125 52.78125 
Q 43.3125 58.59375 39.234375 62.25 
Q 35.15625 65.921875 28.609375 65.921875 
Q 23.96875 65.921875 18.8125 64.3125 
Q 13.671875 62.703125 7.8125 59.421875 
L 7.8125 69.390625 
Q 13.765625 71.78125 18.9375 73 
Q 24.125 74.21875 28.421875 74.21875 
Q 39.75 74.21875 46.484375 68.546875 
Q 53.21875 62.890625 53.21875 53.421875 
Q 53.21875 48.921875 51.53125 44.890625 
Q 49.859375 40.875 45.40625 35.40625 
Q 44.1875 33.984375 37.640625 27.21875 
Q 31.109375 20.453125 19.1875 8.296875 
z
" id="DejaVuSans-32"/>
      </defs>
      <g style="fill:#262626;" transform="translate(187.730469 303.534609)scale(0.165 -0.165)">
       <use xlink:href="#DejaVuSans-32"/>
      </g>
     </g>
    </g>
    <g id="xtick_3">
     <g id="text_3">
      <!-- 3 -->
      <defs>
       <path d="M 40.578125 39.3125 
Q 47.65625 37.796875 51.625 33 
Q 55.609375 28.21875 55.609375 21.1875 
Q 55.609375 10.40625 48.1875 4.484375 
Q 40.765625 -1.421875 27.09375 -1.421875 
Q 22.515625 -1.421875 17.65625 -0.515625 
Q 12.796875 0.390625 7.625 2.203125 
L 7.625 11.71875 
Q 11.71875 9.328125 16.59375 8.109375 
Q 21.484375 6.890625 26.8125 6.890625 
Q 36.078125 6.890625 40.9375 10.546875 
Q 45.796875 14.203125 45.796875 21.1875 
Q 45.796875 27.640625 41.28125 31.265625 
Q 36.765625 34.90625 28.71875 34.90625 
L 20.21875 34.90625 
L 20.21875 43.015625 
L 29.109375 43.015625 
Q 36.375 43.015625 40.234375 45.921875 
Q 44.09375 48.828125 44.09375 54.296875 
Q 44.09375 59.90625 40.109375 62.90625 
Q 36.140625 65.921875 28.71875 65.921875 
Q 24.65625 65.921875 20.015625 65.03125 
Q 15.375 64.15625 9.8125 62.3125 
L 9.8125 71.09375 
Q 15.4375 72.65625 20.34375 73.4375 
Q 25.25 74.21875 29.59375 74.21875 
Q 40.828125 74.21875 47.359375 69.109375 
Q 53.90625 64.015625 53.90625 55.328125 
Q 53.90625 49.265625 50.4375 45.09375 
Q 46.96875 40.921875 40.578125 39.3125 
z
" id="DejaVuSans-33"/>
      </defs>
      <g style="fill:#262626;" transform="translate(273.476302 303.534609)scale(0.165 -0.165)">
       <use xlink:href="#DejaVuSans-33"/>
      </g>
     </g>
    </g>
    <g id="text_4">
     <!-- Hydra Cluster -->
     <defs>
      <path d="M 9.8125 72.90625 
L 19.671875 72.90625 
L 19.671875 43.015625 
L 55.515625 43.015625 
L 55.515625 72.90625 
L 65.375 72.90625 
L 65.375 0 
L 55.515625 0 
L 55.515625 34.71875 
L 19.671875 34.71875 
L 19.671875 0 
L 9.8125 0 
z
" id="DejaVuSans-48"/>
      <path d="M 32.171875 -5.078125 
Q 28.375 -14.84375 24.75 -17.8125 
Q 21.140625 -20.796875 15.09375 -20.796875 
L 7.90625 -20.796875 
L 7.90625 -13.28125 
L 13.1875 -13.28125 
Q 16.890625 -13.28125 18.9375 -11.515625 
Q 21 -9.765625 23.484375 -3.21875 
L 25.09375 0.875 
L 2.984375 54.6875 
L 12.5 54.6875 
L 29.59375 11.921875 
L 46.6875 54.6875 
L 56.203125 54.6875 
z
" id="DejaVuSans-79"/>
      <path d="M 45.40625 46.390625 
L 45.40625 75.984375 
L 54.390625 75.984375 
L 54.390625 0 
L 45.40625 0 
L 45.40625 8.203125 
Q 42.578125 3.328125 38.25 0.953125 
Q 33.9375 -1.421875 27.875 -1.421875 
Q 17.96875 -1.421875 11.734375 6.484375 
Q 5.515625 14.40625 5.515625 27.296875 
Q 5.515625 40.1875 11.734375 48.09375 
Q 17.96875 56 27.875 56 
Q 33.9375 56 38.25 53.625 
Q 42.578125 51.265625 45.40625 46.390625 
z
M 14.796875 27.296875 
Q 14.796875 17.390625 18.875 11.75 
Q 22.953125 6.109375 30.078125 6.109375 
Q 37.203125 6.109375 41.296875 11.75 
Q 45.40625 17.390625 45.40625 27.296875 
Q 45.40625 37.203125 41.296875 42.84375 
Q 37.203125 48.484375 30.078125 48.484375 
Q 22.953125 48.484375 18.875 42.84375 
Q 14.796875 37.203125 14.796875 27.296875 
z
" id="DejaVuSans-64"/>
      <path d="M 41.109375 46.296875 
Q 39.59375 47.171875 37.8125 47.578125 
Q 36.03125 48 33.890625 48 
Q 26.265625 48 22.1875 43.046875 
Q 18.109375 38.09375 18.109375 28.8125 
L 18.109375 0 
L 9.078125 0 
L 9.078125 54.6875 
L 18.109375 54.6875 
L 18.109375 46.1875 
Q 20.953125 51.171875 25.484375 53.578125 
Q 30.03125 56 36.53125 56 
Q 37.453125 56 38.578125 55.875 
Q 39.703125 55.765625 41.0625 55.515625 
z
" id="DejaVuSans-72"/>
      <path d="M 34.28125 27.484375 
Q 23.390625 27.484375 19.1875 25 
Q 14.984375 22.515625 14.984375 16.5 
Q 14.984375 11.71875 18.140625 8.90625 
Q 21.296875 6.109375 26.703125 6.109375 
Q 34.1875 6.109375 38.703125 11.40625 
Q 43.21875 16.703125 43.21875 25.484375 
L 43.21875 27.484375 
z
M 52.203125 31.203125 
L 52.203125 0 
L 43.21875 0 
L 43.21875 8.296875 
Q 40.140625 3.328125 35.546875 0.953125 
Q 30.953125 -1.421875 24.3125 -1.421875 
Q 15.921875 -1.421875 10.953125 3.296875 
Q 6 8.015625 6 15.921875 
Q 6 25.140625 12.171875 29.828125 
Q 18.359375 34.515625 30.609375 34.515625 
L 43.21875 34.515625 
L 43.21875 35.40625 
Q 43.21875 41.609375 39.140625 45 
Q 35.0625 48.390625 27.6875 48.390625 
Q 23 48.390625 18.546875 47.265625 
Q 14.109375 46.140625 10.015625 43.890625 
L 10.015625 52.203125 
Q 14.9375 54.109375 19.578125 55.046875 
Q 24.21875 56 28.609375 56 
Q 40.484375 56 46.34375 49.84375 
Q 52.203125 43.703125 52.203125 31.203125 
z
" id="DejaVuSans-61"/>
      <path id="DejaVuSans-20"/>
      <path d="M 64.40625 67.28125 
L 64.40625 56.890625 
Q 59.421875 61.53125 53.78125 63.8125 
Q 48.140625 66.109375 41.796875 66.109375 
Q 29.296875 66.109375 22.65625 58.46875 
Q 16.015625 50.828125 16.015625 36.375 
Q 16.015625 21.96875 22.65625 14.328125 
Q 29.296875 6.6875 41.796875 6.6875 
Q 48.140625 6.6875 53.78125 8.984375 
Q 59.421875 11.28125 64.40625 15.921875 
L 64.40625 5.609375 
Q 59.234375 2.09375 53.4375 0.328125 
Q 47.65625 -1.421875 41.21875 -1.421875 
Q 24.65625 -1.421875 15.125 8.703125 
Q 5.609375 18.84375 5.609375 36.375 
Q 5.609375 53.953125 15.125 64.078125 
Q 24.65625 74.21875 41.21875 74.21875 
Q 47.75 74.21875 53.53125 72.484375 
Q 59.328125 70.75 64.40625 67.28125 
z
" id="DejaVuSans-43"/>
      <path d="M 9.421875 75.984375 
L 18.40625 75.984375 
L 18.40625 0 
L 9.421875 0 
z
" id="DejaVuSans-6c"/>
      <path d="M 8.5 21.578125 
L 8.5 54.6875 
L 17.484375 54.6875 
L 17.484375 21.921875 
Q 17.484375 14.15625 20.5 10.265625 
Q 23.53125 6.390625 29.59375 6.390625 
Q 36.859375 6.390625 41.078125 11.03125 
Q 45.3125 15.671875 45.3125 23.6875 
L 45.3125 54.6875 
L 54.296875 54.6875 
L 54.296875 0 
L 45.3125 0 
L 45.3125 8.40625 
Q 42.046875 3.421875 37.71875 1 
Q 33.40625 -1.421875 27.6875 -1.421875 
Q 18.265625 -1.421875 13.375 4.4375 
Q 8.5 10.296875 8.5 21.578125 
z
M 31.109375 56 
z
" id="DejaVuSans-75"/>
      <path d="M 44.28125 53.078125 
L 44.28125 44.578125 
Q 40.484375 46.53125 36.375 47.5 
Q 32.28125 48.484375 27.875 48.484375 
Q 21.1875 48.484375 17.84375 46.4375 
Q 14.5 44.390625 14.5 40.28125 
Q 14.5 37.15625 16.890625 35.375 
Q 19.28125 33.59375 26.515625 31.984375 
L 29.59375 31.296875 
Q 39.15625 29.25 43.1875 25.515625 
Q 47.21875 21.78125 47.21875 15.09375 
Q 47.21875 7.46875 41.1875 3.015625 
Q 35.15625 -1.421875 24.609375 -1.421875 
Q 20.21875 -1.421875 15.453125 -0.5625 
Q 10.6875 0.296875 5.421875 2 
L 5.421875 11.28125 
Q 10.40625 8.6875 15.234375 7.390625 
Q 20.0625 6.109375 24.8125 6.109375 
Q 31.15625 6.109375 34.5625 8.28125 
Q 37.984375 10.453125 37.984375 14.40625 
Q 37.984375 18.0625 35.515625 20.015625 
Q 33.0625 21.96875 24.703125 23.78125 
L 21.578125 24.515625 
Q 13.234375 26.265625 9.515625 29.90625 
Q 5.8125 33.546875 5.8125 39.890625 
Q 5.8125 47.609375 11.28125 51.796875 
Q 16.75 56 26.8125 56 
Q 31.78125 56 36.171875 55.265625 
Q 40.578125 54.546875 44.28125 53.078125 
z
" id="DejaVuSans-73"/>
      <path d="M 18.3125 70.21875 
L 18.3125 54.6875 
L 36.8125 54.6875 
L 36.8125 47.703125 
L 18.3125 47.703125 
L 18.3125 18.015625 
Q 18.3125 11.328125 20.140625 9.421875 
Q 21.96875 7.515625 27.59375 7.515625 
L 36.8125 7.515625 
L 36.8125 0 
L 27.59375 0 
Q 17.1875 0 13.234375 3.875 
Q 9.28125 7.765625 9.28125 18.015625 
L 9.28125 47.703125 
L 2.6875 47.703125 
L 2.6875 54.6875 
L 9.28125 54.6875 
L 9.28125 70.21875 
z
" id="DejaVuSans-74"/>
      <path d="M 56.203125 29.59375 
L 56.203125 25.203125 
L 14.890625 25.203125 
Q 15.484375 15.921875 20.484375 11.0625 
Q 25.484375 6.203125 34.421875 6.203125 
Q 39.59375 6.203125 44.453125 7.46875 
Q 49.3125 8.734375 54.109375 11.28125 
L 54.109375 2.78125 
Q 49.265625 0.734375 44.1875 -0.34375 
Q 39.109375 -1.421875 33.890625 -1.421875 
Q 20.796875 -1.421875 13.15625 6.1875 
Q 5.515625 13.8125 5.515625 26.8125 
Q 5.515625 40.234375 12.765625 48.109375 
Q 20.015625 56 32.328125 56 
Q 43.359375 56 49.78125 48.890625 
Q 56.203125 41.796875 56.203125 29.59375 
z
M 47.21875 32.234375 
Q 47.125 39.59375 43.09375 43.984375 
Q 39.0625 48.390625 32.421875 48.390625 
Q 24.90625 48.390625 20.390625 44.140625 
Q 15.875 39.890625 15.1875 32.171875 
z
" id="DejaVuSans-65"/>
     </defs>
     <g style="fill:#262626;" transform="translate(131.152344 324.643281)scale(0.18 -0.18)">
      <use xlink:href="#DejaVuSans-48"/>
      <use x="75.195312" xlink:href="#DejaVuSans-79"/>
      <use x="134.375" xlink:href="#DejaVuSans-64"/>
      <use x="197.851562" xlink:href="#DejaVuSans-72"/>
      <use x="238.964844" xlink:href="#DejaVuSans-61"/>
      <use x="300.244141" xlink:href="#DejaVuSans-20"/>
      <use x="332.03125" xlink:href="#DejaVuSans-43"/>
      <use x="401.855469" xlink:href="#DejaVuSans-6c"/>
      <use x="429.638672" xlink:href="#DejaVuSans-75"/>
      <use x="493.017578" xlink:href="#DejaVuSans-73"/>
      <use x="545.117188" xlink:href="#DejaVuSans-74"/>
      <use x="584.326172" xlink:href="#DejaVuSans-65"/>
      <use x="645.849609" xlink:href="#DejaVuSans-72"/>
     </g>
    </g>
   </g>
   <g id="matplotlib.axis_2">
    <g id="ytick_1">
     <g id="text_5">
      <!-- 0.8 -->
      <defs>
       <path d="M 31.78125 66.40625 
Q 24.171875 66.40625 20.328125 58.90625 
Q 16.5 51.421875 16.5 36.375 
Q 16.5 21.390625 20.328125 13.890625 
Q 24.171875 6.390625 31.78125 6.390625 
Q 39.453125 6.390625 43.28125 13.890625 
Q 47.125 21.390625 47.125 36.375 
Q 47.125 51.421875 43.28125 58.90625 
Q 39.453125 66.40625 31.78125 66.40625 
z
M 31.78125 74.21875 
Q 44.046875 74.21875 50.515625 64.515625 
Q 56.984375 54.828125 56.984375 36.375 
Q 56.984375 17.96875 50.515625 8.265625 
Q 44.046875 -1.421875 31.78125 -1.421875 
Q 19.53125 -1.421875 13.0625 8.265625 
Q 6.59375 17.96875 6.59375 36.375 
Q 6.59375 54.828125 13.0625 64.515625 
Q 19.53125 74.21875 31.78125 74.21875 
z
" id="DejaVuSans-30"/>
       <path d="M 10.6875 12.40625 
L 21 12.40625 
L 21 0 
L 10.6875 0 
z
" id="DejaVuSans-2e"/>
       <path d="M 31.78125 34.625 
Q 24.75 34.625 20.71875 30.859375 
Q 16.703125 27.09375 16.703125 20.515625 
Q 16.703125 13.921875 20.71875 10.15625 
Q 24.75 6.390625 31.78125 6.390625 
Q 38.8125 6.390625 42.859375 10.171875 
Q 46.921875 13.96875 46.921875 20.515625 
Q 46.921875 27.09375 42.890625 30.859375 
Q 38.875 34.625 31.78125 34.625 
z
M 21.921875 38.8125 
Q 15.578125 40.375 12.03125 44.71875 
Q 8.5 49.078125 8.5 55.328125 
Q 8.5 64.0625 14.71875 69.140625 
Q 20.953125 74.21875 31.78125 74.21875 
Q 42.671875 74.21875 48.875 69.140625 
Q 55.078125 64.0625 55.078125 55.328125 
Q 55.078125 49.078125 51.53125 44.71875 
Q 48 40.375 41.703125 38.8125 
Q 48.828125 37.15625 52.796875 32.3125 
Q 56.78125 27.484375 56.78125 20.515625 
Q 56.78125 9.90625 50.3125 4.234375 
Q 43.84375 -1.421875 31.78125 -1.421875 
Q 19.734375 -1.421875 13.25 4.234375 
Q 6.78125 9.90625 6.78125 20.515625 
Q 6.78125 27.484375 10.78125 32.3125 
Q 14.796875 37.15625 21.921875 38.8125 
z
M 18.3125 54.390625 
Q 18.3125 48.734375 21.84375 45.5625 
Q 25.390625 42.390625 31.78125 42.390625 
Q 38.140625 42.390625 41.71875 45.5625 
Q 45.3125 48.734375 45.3125 54.390625 
Q 45.3125 60.0625 41.71875 63.234375 
Q 38.140625 66.40625 31.78125 66.40625 
Q 25.390625 66.40625 21.84375 63.234375 
Q 18.3125 60.0625 18.3125 54.390625 
z
" id="DejaVuSans-38"/>
      </defs>
      <g style="fill:#262626;" transform="translate(28.620625 230.281495)scale(0.165 -0.165)">
       <use xlink:href="#DejaVuSans-30"/>
       <use x="63.623047" xlink:href="#DejaVuSans-2e"/>
       <use x="95.410156" xlink:href="#DejaVuSans-38"/>
      </g>
     </g>
    </g>
    <g id="ytick_2">
     <g id="text_6">
      <!-- 1.6 -->
      <defs>
       <path d="M 33.015625 40.375 
Q 26.375 40.375 22.484375 35.828125 
Q 18.609375 31.296875 18.609375 23.390625 
Q 18.609375 15.53125 22.484375 10.953125 
Q 26.375 6.390625 33.015625 6.390625 
Q 39.65625 6.390625 43.53125 10.953125 
Q 47.40625 15.53125 47.40625 23.390625 
Q 47.40625 31.296875 43.53125 35.828125 
Q 39.65625 40.375 33.015625 40.375 
z
M 52.59375 71.296875 
L 52.59375 62.3125 
Q 48.875 64.0625 45.09375 64.984375 
Q 41.3125 65.921875 37.59375 65.921875 
Q 27.828125 65.921875 22.671875 59.328125 
Q 17.53125 52.734375 16.796875 39.40625 
Q 19.671875 43.65625 24.015625 45.921875 
Q 28.375 48.1875 33.59375 48.1875 
Q 44.578125 48.1875 50.953125 41.515625 
Q 57.328125 34.859375 57.328125 23.390625 
Q 57.328125 12.15625 50.6875 5.359375 
Q 44.046875 -1.421875 33.015625 -1.421875 
Q 20.359375 -1.421875 13.671875 8.265625 
Q 6.984375 17.96875 6.984375 36.375 
Q 6.984375 53.65625 15.1875 63.9375 
Q 23.390625 74.21875 37.203125 74.21875 
Q 40.921875 74.21875 44.703125 73.484375 
Q 48.484375 72.75 52.59375 71.296875 
z
" id="DejaVuSans-36"/>
      </defs>
      <g style="fill:#262626;" transform="translate(28.620625 172.194797)scale(0.165 -0.165)">
       <use xlink:href="#DejaVuSans-31"/>
       <use x="63.623047" xlink:href="#DejaVuSans-2e"/>
       <use x="95.410156" xlink:href="#DejaVuSans-36"/>
      </g>
     </g>
    </g>
    <g id="ytick_3">
     <g id="text_7">
      <!-- 2.4 -->
      <defs>
       <path d="M 37.796875 64.3125 
L 12.890625 25.390625 
L 37.796875 25.390625 
z
M 35.203125 72.90625 
L 47.609375 72.90625 
L 47.609375 25.390625 
L 58.015625 25.390625 
L 58.015625 17.1875 
L 47.609375 17.1875 
L 47.609375 0 
L 37.796875 0 
L 37.796875 17.1875 
L 4.890625 17.1875 
L 4.890625 26.703125 
z
" id="DejaVuSans-34"/>
      </defs>
      <g style="fill:#262626;" transform="translate(28.620625 114.108099)scale(0.165 -0.165)">
       <use xlink:href="#DejaVuSans-32"/>
       <use x="63.623047" xlink:href="#DejaVuSans-2e"/>
       <use x="95.410156" xlink:href="#DejaVuSans-34"/>
      </g>
     </g>
    </g>
    <g id="ytick_4">
     <g id="text_8">
      <!-- 3.2 -->
      <g style="fill:#262626;" transform="translate(28.620625 56.0214)scale(0.165 -0.165)">
       <use xlink:href="#DejaVuSans-33"/>
       <use x="63.623047" xlink:href="#DejaVuSans-2e"/>
       <use x="95.410156" xlink:href="#DejaVuSans-32"/>
      </g>
     </g>
    </g>
    <g id="text_9">
     <!-- Expression (log2(TPM + 1)) -->
     <defs>
      <path d="M 9.8125 72.90625 
L 55.90625 72.90625 
L 55.90625 64.59375 
L 19.671875 64.59375 
L 19.671875 43.015625 
L 54.390625 43.015625 
L 54.390625 34.71875 
L 19.671875 34.71875 
L 19.671875 8.296875 
L 56.78125 8.296875 
L 56.78125 0 
L 9.8125 0 
z
" id="DejaVuSans-45"/>
      <path d="M 54.890625 54.6875 
L 35.109375 28.078125 
L 55.90625 0 
L 45.3125 0 
L 29.390625 21.484375 
L 13.484375 0 
L 2.875 0 
L 24.125 28.609375 
L 4.6875 54.6875 
L 15.28125 54.6875 
L 29.78125 35.203125 
L 44.28125 54.6875 
z
" id="DejaVuSans-78"/>
      <path d="M 18.109375 8.203125 
L 18.109375 -20.796875 
L 9.078125 -20.796875 
L 9.078125 54.6875 
L 18.109375 54.6875 
L 18.109375 46.390625 
Q 20.953125 51.265625 25.265625 53.625 
Q 29.59375 56 35.59375 56 
Q 45.5625 56 51.78125 48.09375 
Q 58.015625 40.1875 58.015625 27.296875 
Q 58.015625 14.40625 51.78125 6.484375 
Q 45.5625 -1.421875 35.59375 -1.421875 
Q 29.59375 -1.421875 25.265625 0.953125 
Q 20.953125 3.328125 18.109375 8.203125 
z
M 48.6875 27.296875 
Q 48.6875 37.203125 44.609375 42.84375 
Q 40.53125 48.484375 33.40625 48.484375 
Q 26.265625 48.484375 22.1875 42.84375 
Q 18.109375 37.203125 18.109375 27.296875 
Q 18.109375 17.390625 22.1875 11.75 
Q 26.265625 6.109375 33.40625 6.109375 
Q 40.53125 6.109375 44.609375 11.75 
Q 48.6875 17.390625 48.6875 27.296875 
z
" id="DejaVuSans-70"/>
      <path d="M 9.421875 54.6875 
L 18.40625 54.6875 
L 18.40625 0 
L 9.421875 0 
z
M 9.421875 75.984375 
L 18.40625 75.984375 
L 18.40625 64.59375 
L 9.421875 64.59375 
z
" id="DejaVuSans-69"/>
      <path d="M 30.609375 48.390625 
Q 23.390625 48.390625 19.1875 42.75 
Q 14.984375 37.109375 14.984375 27.296875 
Q 14.984375 17.484375 19.15625 11.84375 
Q 23.34375 6.203125 30.609375 6.203125 
Q 37.796875 6.203125 41.984375 11.859375 
Q 46.1875 17.53125 46.1875 27.296875 
Q 46.1875 37.015625 41.984375 42.703125 
Q 37.796875 48.390625 30.609375 48.390625 
z
M 30.609375 56 
Q 42.328125 56 49.015625 48.375 
Q 55.71875 40.765625 55.71875 27.296875 
Q 55.71875 13.875 49.015625 6.21875 
Q 42.328125 -1.421875 30.609375 -1.421875 
Q 18.84375 -1.421875 12.171875 6.21875 
Q 5.515625 13.875 5.515625 27.296875 
Q 5.515625 40.765625 12.171875 48.375 
Q 18.84375 56 30.609375 56 
z
" id="DejaVuSans-6f"/>
      <path d="M 54.890625 33.015625 
L 54.890625 0 
L 45.90625 0 
L 45.90625 32.71875 
Q 45.90625 40.484375 42.875 44.328125 
Q 39.84375 48.1875 33.796875 48.1875 
Q 26.515625 48.1875 22.3125 43.546875 
Q 18.109375 38.921875 18.109375 30.90625 
L 18.109375 0 
L 9.078125 0 
L 9.078125 54.6875 
L 18.109375 54.6875 
L 18.109375 46.1875 
Q 21.34375 51.125 25.703125 53.5625 
Q 30.078125 56 35.796875 56 
Q 45.21875 56 50.046875 50.171875 
Q 54.890625 44.34375 54.890625 33.015625 
z
" id="DejaVuSans-6e"/>
      <path d="M 31 75.875 
Q 24.46875 64.65625 21.28125 53.65625 
Q 18.109375 42.671875 18.109375 31.390625 
Q 18.109375 20.125 21.3125 9.0625 
Q 24.515625 -2 31 -13.1875 
L 23.1875 -13.1875 
Q 15.875 -1.703125 12.234375 9.375 
Q 8.59375 20.453125 8.59375 31.390625 
Q 8.59375 42.28125 12.203125 53.3125 
Q 15.828125 64.359375 23.1875 75.875 
z
" id="DejaVuSans-28"/>
      <path d="M 45.40625 27.984375 
Q 45.40625 37.75 41.375 43.109375 
Q 37.359375 48.484375 30.078125 48.484375 
Q 22.859375 48.484375 18.828125 43.109375 
Q 14.796875 37.75 14.796875 27.984375 
Q 14.796875 18.265625 18.828125 12.890625 
Q 22.859375 7.515625 30.078125 7.515625 
Q 37.359375 7.515625 41.375 12.890625 
Q 45.40625 18.265625 45.40625 27.984375 
z
M 54.390625 6.78125 
Q 54.390625 -7.171875 48.1875 -13.984375 
Q 42 -20.796875 29.203125 -20.796875 
Q 24.46875 -20.796875 20.265625 -20.09375 
Q 16.0625 -19.390625 12.109375 -17.921875 
L 12.109375 -9.1875 
Q 16.0625 -11.328125 19.921875 -12.34375 
Q 23.78125 -13.375 27.78125 -13.375 
Q 36.625 -13.375 41.015625 -8.765625 
Q 45.40625 -4.15625 45.40625 5.171875 
L 45.40625 9.625 
Q 42.625 4.78125 38.28125 2.390625 
Q 33.9375 0 27.875 0 
Q 17.828125 0 11.671875 7.65625 
Q 5.515625 15.328125 5.515625 27.984375 
Q 5.515625 40.671875 11.671875 48.328125 
Q 17.828125 56 27.875 56 
Q 33.9375 56 38.28125 53.609375 
Q 42.625 51.21875 45.40625 46.390625 
L 45.40625 54.6875 
L 54.390625 54.6875 
z
" id="DejaVuSans-67"/>
      <path d="M -0.296875 72.90625 
L 61.375 72.90625 
L 61.375 64.59375 
L 35.5 64.59375 
L 35.5 0 
L 25.59375 0 
L 25.59375 64.59375 
L -0.296875 64.59375 
z
" id="DejaVuSans-54"/>
      <path d="M 19.671875 64.796875 
L 19.671875 37.40625 
L 32.078125 37.40625 
Q 38.96875 37.40625 42.71875 40.96875 
Q 46.484375 44.53125 46.484375 51.125 
Q 46.484375 57.671875 42.71875 61.234375 
Q 38.96875 64.796875 32.078125 64.796875 
z
M 9.8125 72.90625 
L 32.078125 72.90625 
Q 44.34375 72.90625 50.609375 67.359375 
Q 56.890625 61.8125 56.890625 51.125 
Q 56.890625 40.328125 50.609375 34.8125 
Q 44.34375 29.296875 32.078125 29.296875 
L 19.671875 29.296875 
L 19.671875 0 
L 9.8125 0 
z
" id="DejaVuSans-50"/>
      <path d="M 9.8125 72.90625 
L 24.515625 72.90625 
L 43.109375 23.296875 
L 61.8125 72.90625 
L 76.515625 72.90625 
L 76.515625 0 
L 66.890625 0 
L 66.890625 64.015625 
L 48.09375 14.015625 
L 38.1875 14.015625 
L 19.390625 64.015625 
L 19.390625 0 
L 9.8125 0 
z
" id="DejaVuSans-4d"/>
      <path d="M 46 62.703125 
L 46 35.5 
L 73.1875 35.5 
L 73.1875 27.203125 
L 46 27.203125 
L 46 0 
L 37.796875 0 
L 37.796875 27.203125 
L 10.59375 27.203125 
L 10.59375 35.5 
L 37.796875 35.5 
L 37.796875 62.703125 
z
" id="DejaVuSans-2b"/>
      <path d="M 8.015625 75.875 
L 15.828125 75.875 
Q 23.140625 64.359375 26.78125 53.3125 
Q 30.421875 42.28125 30.421875 31.390625 
Q 30.421875 20.453125 26.78125 9.375 
Q 23.140625 -1.703125 15.828125 -13.1875 
L 8.015625 -13.1875 
Q 14.5 -2 17.703125 9.0625 
Q 20.90625 20.125 20.90625 31.390625 
Q 20.90625 42.671875 17.703125 53.65625 
Q 14.5 64.65625 8.015625 75.875 
z
" id="DejaVuSans-29"/>
     </defs>
     <g style="fill:#262626;" transform="translate(20.877187 277.267812)rotate(-90)scale(0.18 -0.18)">
      <use xlink:href="#DejaVuSans-45"/>
      <use x="63.183594" xlink:href="#DejaVuSans-78"/>
      <use x="122.363281" xlink:href="#DejaVuSans-70"/>
      <use x="185.839844" xlink:href="#DejaVuSans-72"/>
      <use x="226.921875" xlink:href="#DejaVuSans-65"/>
      <use x="288.445312" xlink:href="#DejaVuSans-73"/>
      <use x="340.544922" xlink:href="#DejaVuSans-73"/>
      <use x="392.644531" xlink:href="#DejaVuSans-69"/>
      <use x="420.427734" xlink:href="#DejaVuSans-6f"/>
      <use x="481.609375" xlink:href="#DejaVuSans-6e"/>
      <use x="544.988281" xlink:href="#DejaVuSans-20"/>
      <use x="576.775391" xlink:href="#DejaVuSans-28"/>
      <use x="615.789062" xlink:href="#DejaVuSans-6c"/>
      <use x="643.572266" xlink:href="#DejaVuSans-6f"/>
      <use x="704.753906" xlink:href="#DejaVuSans-67"/>
      <use x="768.230469" xlink:href="#DejaVuSans-32"/>
      <use x="831.853516" xlink:href="#DejaVuSans-28"/>
      <use x="870.867188" xlink:href="#DejaVuSans-54"/>
      <use x="931.951172" xlink:href="#DejaVuSans-50"/>
      <use x="992.253906" xlink:href="#DejaVuSans-4d"/>
      <use x="1078.533203" xlink:href="#DejaVuSans-20"/>
      <use x="1110.320312" xlink:href="#DejaVuSans-2b"/>
      <use x="1194.109375" xlink:href="#DejaVuSans-20"/>
      <use x="1225.896484" xlink:href="#DejaVuSans-31"/>
      <use x="1289.519531" xlink:href="#DejaVuSans-29"/>
      <use x="1328.533203" xlink:href="#DejaVuSans-29"/>
     </g>
    </g>
   </g>
   <g id="patch_3">
    <path clip-path="url(#pfe8635f14e)" d="M 72.935365 208.186664 
L 141.532031 208.186664 
L 141.532031 156.089779 
L 72.935365 156.089779 
L 72.935365 208.186664 
z
" style="fill:#ffffff;stroke:#999999;stroke-linejoin:miter;stroke-width:1.5;"/>
   </g>
   <g id="patch_4">
    <path clip-path="url(#pfe8635f14e)" d="M 158.681198 246.474064 
L 227.277865 246.474064 
L 227.277865 217.937637 
L 158.681198 217.937637 
L 158.681198 246.474064 
z
" style="fill:#ffffff;stroke:#999999;stroke-linejoin:miter;stroke-width:1.5;"/>
   </g>
   <g id="patch_5">
    <path clip-path="url(#pfe8635f14e)" d="M 244.427031 209.4874 
L 313.023698 209.4874 
L 313.023698 149.973758 
L 244.427031 149.973758 
L 244.427031 209.4874 
z
" style="fill:#ffffff;stroke:#999999;stroke-linejoin:miter;stroke-width:1.5;"/>
   </g>
   <g id="line2d_1">
    <path clip-path="url(#pfe8635f14e)" d="M 107.233698 208.186664 
L 107.233698 246.100651 
" style="fill:none;stroke:#999999;stroke-linecap:round;stroke-width:1.5;"/>
   </g>
   <g id="line2d_2">
    <path clip-path="url(#pfe8635f14e)" d="M 107.233698 156.089779 
L 107.233698 126.186311 
" style="fill:none;stroke:#999999;stroke-linecap:round;stroke-width:1.5;"/>
   </g>
   <g id="line2d_3">
    <path clip-path="url(#pfe8635f14e)" d="M 90.084531 246.100651 
L 124.382865 246.100651 
" style="fill:none;stroke:#999999;stroke-linecap:round;stroke-width:1.5;"/>
   </g>
   <g id="line2d_4">
    <path clip-path="url(#pfe8635f14e)" d="M 90.084531 126.186311 
L 124.382865 126.186311 
" style="fill:none;stroke:#999999;stroke-linecap:round;stroke-width:1.5;"/>
   </g>
   <g id="line2d_5">
    <defs>
     <path d="M -0 3.535534 
L 2.12132 0 
L -0 -3.535534 
L -2.12132 -0 
z
" id="m99c0e220b5" style="stroke:#999999;stroke-linejoin:miter;"/>
    </defs>
    <g clip-path="url(#pfe8635f14e)">
     <use style="fill:#999999;stroke:#999999;stroke-linejoin:miter;" x="107.233698" xlink:href="#m99c0e220b5" y="66.256703"/>
     <use style="fill:#999999;stroke:#999999;stroke-linejoin:miter;" x="107.233698" xlink:href="#m99c0e220b5" y="40.897684"/>
    </g>
   </g>
   <g id="line2d_6">
    <path clip-path="url(#pfe8635f14e)" d="M 192.979531 246.474064 
L 192.979531 267.450264 
" style="fill:none;stroke:#999999;stroke-linecap:round;stroke-width:1.5;"/>
   </g>
   <g id="line2d_7">
    <path clip-path="url(#pfe8635f14e)" d="M 192.979531 217.937637 
L 192.979531 182.409131 
" style="fill:none;stroke:#999999;stroke-linecap:round;stroke-width:1.5;"/>
   </g>
   <g id="line2d_8">
    <path clip-path="url(#pfe8635f14e)" d="M 175.830365 267.450264 
L 210.128698 267.450264 
" style="fill:none;stroke:#999999;stroke-linecap:round;stroke-width:1.5;"/>
   </g>
   <g id="line2d_9">
    <path clip-path="url(#pfe8635f14e)" d="M 175.830365 182.409131 
L 210.128698 182.409131 
" style="fill:none;stroke:#999999;stroke-linecap:round;stroke-width:1.5;"/>
   </g>
   <g id="line2d_10">
    <g clip-path="url(#pfe8635f14e)">
     <use style="fill:#999999;stroke:#999999;stroke-linejoin:miter;" x="192.979531" xlink:href="#m99c0e220b5" y="158.628393"/>
     <use style="fill:#999999;stroke:#999999;stroke-linejoin:miter;" x="192.979531" xlink:href="#m99c0e220b5" y="146.183441"/>
     <use style="fill:#999999;stroke:#999999;stroke-linejoin:miter;" x="192.979531" xlink:href="#m99c0e220b5" y="140.882035"/>
     <use style="fill:#999999;stroke:#999999;stroke-linejoin:miter;" x="192.979531" xlink:href="#m99c0e220b5" y="94.584293"/>
    </g>
   </g>
   <g id="line2d_11">
    <path clip-path="url(#pfe8635f14e)" d="M 278.725365 209.4874 
L 278.725365 258.715835 
" style="fill:none;stroke:#999999;stroke-linecap:round;stroke-width:1.5;"/>
   </g>
   <g id="line2d_12">
    <path clip-path="url(#pfe8635f14e)" d="M 278.725365 149.973758 
L 278.725365 113.085139 
" style="fill:none;stroke:#999999;stroke-linecap:round;stroke-width:1.5;"/>
   </g>
   <g id="line2d_13">
    <path clip-path="url(#pfe8635f14e)" d="M 261.576198 258.715835 
L 295.874531 258.715835 
" style="fill:none;stroke:#999999;stroke-linecap:round;stroke-width:1.5;"/>
   </g>
   <g id="line2d_14">
    <path clip-path="url(#pfe8635f14e)" d="M 261.576198 113.085139 
L 295.874531 113.085139 
" style="fill:none;stroke:#999999;stroke-linecap:round;stroke-width:1.5;"/>
   </g>
   <g id="line2d_15"/>
   <g id="line2d_16">
    <path clip-path="url(#pfe8635f14e)" d="M 72.935365 185.694253 
L 141.532031 185.694253 
" style="fill:none;stroke:#999999;stroke-linecap:round;stroke-width:1.5;"/>
   </g>
   <g id="line2d_17">
    <path clip-path="url(#pfe8635f14e)" d="M 158.681198 231.882454 
L 227.277865 231.882454 
" style="fill:none;stroke:#999999;stroke-linecap:round;stroke-width:1.5;"/>
   </g>
   <g id="line2d_18">
    <path clip-path="url(#pfe8635f14e)" d="M 244.427031 176.511058 
L 313.023698 176.511058 
" style="fill:none;stroke:#999999;stroke-linecap:round;stroke-width:1.5;"/>
   </g>
   <g id="patch_6">
    <path d="M 64.360781 281.497187 
L 64.360781 26.877187 
" style="fill:none;stroke:#262626;stroke-linecap:square;stroke-linejoin:miter;stroke-width:1.25;"/>
   </g>
   <g id="patch_7">
    <path d="M 64.360781 281.497187 
L 321.598281 281.497187 
" style="fill:none;stroke:#262626;stroke-linecap:square;stroke-linejoin:miter;stroke-width:1.25;"/>
   </g>
   <g id="PathCollection_1">
    <defs>
     <path d="M 0 2.5 
C 0.663008 2.5 1.29895 2.236584 1.767767 1.767767 
C 2.236584 1.29895 2.5 0.663008 2.5 0 
C 2.5 -0.663008 2.236584 -1.29895 1.767767 -1.767767 
C 1.29895 -2.236584 0.663008 -2.5 0 -2.5 
C -0.663008 -2.5 -1.29895 -2.236584 -1.767767 -1.767767 
C -2.236584 -1.29895 -2.5 -0.663008 -2.5 0 
C -2.5 0.663008 -2.236584 1.29895 -1.767767 1.767767 
C -1.29895 2.236584 -0.663008 2.5 0 2.5 
z
" id="C0_0_8f76ffc493"/>
    </defs>
    <g clip-path="url(#pfe8635f14e)">
     <use style="fill:#1a1a1a;" x="107.233698" xlink:href="#C0_0_8f76ffc493" y="246.100651"/>
    </g>
    <g clip-path="url(#pfe8635f14e)">
     <use style="fill:#1a1a1a;" x="107.233698" xlink:href="#C0_0_8f76ffc493" y="228.373597"/>
    </g>
    <g clip-path="url(#pfe8635f14e)">
     <use style="fill:#1a1a1a;" x="102.415348" xlink:href="#C0_0_8f76ffc493" y="227.749487"/>
    </g>
    <g clip-path="url(#pfe8635f14e)">
     <use style="fill:#1a1a1a;" x="107.233698" xlink:href="#C0_0_8f76ffc493" y="221.692167"/>
    </g>
    <g clip-path="url(#pfe8635f14e)">
     <use style="fill:#1a1a1a;" x="102.512432" xlink:href="#C0_0_8f76ffc493" y="220.521157"/>
    </g>
    <g clip-path="url(#pfe8635f14e)">
     <use style="fill:#1a1a1a;" x="107.233698" xlink:href="#C0_0_8f76ffc493" y="215.967566"/>
    </g>
    <g clip-path="url(#pfe8635f14e)">
     <use style="fill:#1a1a1a;" x="107.233698" xlink:href="#C0_0_8f76ffc493" y="209.4874"/>
    </g>
    <g clip-path="url(#pfe8635f14e)">
     <use style="fill:#1a1a1a;" x="102.404169" xlink:href="#C0_0_8f76ffc493" y="208.962826"/>
    </g>
    <g clip-path="url(#pfe8635f14e)">
     <use style="fill:#1a1a1a;" x="111.65125" xlink:href="#C0_0_8f76ffc493" y="207.410502"/>
    </g>
    <g clip-path="url(#pfe8635f14e)">
     <use style="fill:#1a1a1a;" x="99.020405" xlink:href="#C0_0_8f76ffc493" y="205.376372"/>
    </g>
    <g clip-path="url(#pfe8635f14e)">
     <use style="fill:#1a1a1a;" x="116.087535" xlink:href="#C0_0_8f76ffc493" y="205.376372"/>
    </g>
    <g clip-path="url(#pfe8635f14e)">
     <use style="fill:#1a1a1a;" x="107.233698" xlink:href="#C0_0_8f76ffc493" y="202.889426"/>
    </g>
    <g clip-path="url(#pfe8635f14e)">
     <use style="fill:#1a1a1a;" x="104.816112" xlink:href="#C0_0_8f76ffc493" y="198.553029"/>
    </g>
    <g clip-path="url(#pfe8635f14e)">
     <use style="fill:#1a1a1a;" x="107.233698" xlink:href="#C0_0_8f76ffc493" y="193.040601"/>
    </g>
    <g clip-path="url(#pfe8635f14e)">
     <use style="fill:#1a1a1a;" x="104.259474" xlink:href="#C0_0_8f76ffc493" y="189.088026"/>
    </g>
    <g clip-path="url(#pfe8635f14e)">
     <use style="fill:#1a1a1a;" x="107.825793" xlink:href="#C0_0_8f76ffc493" y="185.694253"/>
    </g>
    <g clip-path="url(#pfe8635f14e)">
     <use style="fill:#1a1a1a;" x="104.164755" xlink:href="#C0_0_8f76ffc493" y="182.409131"/>
    </g>
    <g clip-path="url(#pfe8635f14e)">
     <use style="fill:#1a1a1a;" x="111.101273" xlink:href="#C0_0_8f76ffc493" y="182.002771"/>
    </g>
    <g clip-path="url(#pfe8635f14e)">
     <use style="fill:#1a1a1a;" x="107.233698" xlink:href="#C0_0_8f76ffc493" y="170.929732"/>
    </g>
    <g clip-path="url(#pfe8635f14e)">
     <use style="fill:#1a1a1a;" x="103.512964" xlink:href="#C0_0_8f76ffc493" y="167.716492"/>
    </g>
    <g clip-path="url(#pfe8635f14e)">
     <use style="fill:#1a1a1a;" x="107.233698" xlink:href="#C0_0_8f76ffc493" y="164.256616"/>
    </g>
    <g clip-path="url(#pfe8635f14e)">
     <use style="fill:#1a1a1a;" x="103.625271" xlink:href="#C0_0_8f76ffc493" y="160.910358"/>
    </g>
    <g clip-path="url(#pfe8635f14e)">
     <use style="fill:#1a1a1a;" x="107.233698" xlink:href="#C0_0_8f76ffc493" y="157.347625"/>
    </g>
    <g clip-path="url(#pfe8635f14e)">
     <use style="fill:#1a1a1a;" x="103.036829" xlink:href="#C0_0_8f76ffc493" y="154.831933"/>
    </g>
    <g clip-path="url(#pfe8635f14e)">
     <use style="fill:#1a1a1a;" x="110.07079" xlink:href="#C0_0_8f76ffc493" y="153.289593"/>
    </g>
    <g clip-path="url(#pfe8635f14e)">
     <use style="fill:#1a1a1a;" x="107.233698" xlink:href="#C0_0_8f76ffc493" y="146.758238"/>
    </g>
    <g clip-path="url(#pfe8635f14e)">
     <use style="fill:#1a1a1a;" x="107.233698" xlink:href="#C0_0_8f76ffc493" y="141.156124"/>
    </g>
    <g clip-path="url(#pfe8635f14e)">
     <use style="fill:#1a1a1a;" x="107.233698" xlink:href="#C0_0_8f76ffc493" y="135.063331"/>
    </g>
    <g clip-path="url(#pfe8635f14e)">
     <use style="fill:#1a1a1a;" x="107.233698" xlink:href="#C0_0_8f76ffc493" y="126.186311"/>
    </g>
    <g clip-path="url(#pfe8635f14e)">
     <use style="fill:#1a1a1a;" x="107.233698" xlink:href="#C0_0_8f76ffc493" y="66.256703"/>
    </g>
    <g clip-path="url(#pfe8635f14e)">
     <use style="fill:#1a1a1a;" x="107.233698" xlink:href="#C0_0_8f76ffc493" y="40.897684"/>
    </g>
   </g>
   <g id="PathCollection_2">
    <defs>
     <path d="M 0 2.5 
C 0.663008 2.5 1.29895 2.236584 1.767767 1.767767 
C 2.236584 1.29895 2.5 0.663008 2.5 0 
C 2.5 -0.663008 2.236584 -1.29895 1.767767 -1.767767 
C 1.29895 -2.236584 0.663008 -2.5 0 -2.5 
C -0.663008 -2.5 -1.29895 -2.236584 -1.767767 -1.767767 
C -2.236584 -1.29895 -2.5 -0.663008 -2.5 0 
C -2.5 0.663008 -2.236584 1.29895 -1.767767 1.767767 
C -1.29895 2.236584 -0.663008 2.5 0 2.5 
z
" id="C1_0_5a03c70580"/>
    </defs>
    <g clip-path="url(#pfe8635f14e)">
     <use style="fill:#1a1a1a;" x="192.979531" xlink:href="#C1_0_5a03c70580" y="267.450264"/>
    </g>
    <g clip-path="url(#pfe8635f14e)">
     <use style="fill:#1a1a1a;" x="188.890889" xlink:href="#C1_0_5a03c70580" y="264.752253"/>
    </g>
    <g clip-path="url(#pfe8635f14e)">
     <use style="fill:#1a1a1a;" x="196.368766" xlink:href="#C1_0_5a03c70580" y="263.86929"/>
    </g>
    <g clip-path="url(#pfe8635f14e)">
     <use style="fill:#1a1a1a;" x="192.979531" xlink:href="#C1_0_5a03c70580" y="258.715835"/>
    </g>
    <g clip-path="url(#pfe8635f14e)">
     <use style="fill:#1a1a1a;" x="188.191184" xlink:href="#C1_0_5a03c70580" y="257.882141"/>
    </g>
    <g clip-path="url(#pfe8635f14e)">
     <use style="fill:#1a1a1a;" x="192.979531" xlink:href="#C1_0_5a03c70580" y="252.218674"/>
    </g>
    <g clip-path="url(#pfe8635f14e)">
     <use style="fill:#1a1a1a;" x="192.979531" xlink:href="#C1_0_5a03c70580" y="246.845412"/>
    </g>
    <g clip-path="url(#pfe8635f14e)">
     <use style="fill:#1a1a1a;" x="188.34245" xlink:href="#C1_0_5a03c70580" y="245.360019"/>
    </g>
    <g clip-path="url(#pfe8635f14e)">
     <use style="fill:#1a1a1a;" x="197.330379" xlink:href="#C1_0_5a03c70580" y="244.624261"/>
    </g>
    <g clip-path="url(#pfe8635f14e)">
     <use style="fill:#1a1a1a;" x="192.979531" xlink:href="#C1_0_5a03c70580" y="241.025522"/>
    </g>
    <g clip-path="url(#pfe8635f14e)">
     <use style="fill:#1a1a1a;" x="188.171812" xlink:href="#C1_0_5a03c70580" y="240.319841"/>
    </g>
    <g clip-path="url(#pfe8635f14e)">
     <use style="fill:#1a1a1a;" x="192.979531" xlink:href="#C1_0_5a03c70580" y="234.177078"/>
    </g>
    <g clip-path="url(#pfe8635f14e)">
     <use style="fill:#1a1a1a;" x="188.515711" xlink:href="#C1_0_5a03c70580" y="232.207837"/>
    </g>
    <g clip-path="url(#pfe8635f14e)">
     <use style="fill:#1a1a1a;" x="197.115752" xlink:href="#C1_0_5a03c70580" y="231.55707"/>
    </g>
    <g clip-path="url(#pfe8635f14e)">
     <use style="fill:#1a1a1a;" x="192.979531" xlink:href="#C1_0_5a03c70580" y="226.50868"/>
    </g>
    <g clip-path="url(#pfe8635f14e)">
     <use style="fill:#1a1a1a;" x="188.159871" xlink:href="#C1_0_5a03c70580" y="225.895392"/>
    </g>
    <g clip-path="url(#pfe8635f14e)">
     <use style="fill:#1a1a1a;" x="192.979531" xlink:href="#C1_0_5a03c70580" y="221.107121"/>
    </g>
    <g clip-path="url(#pfe8635f14e)">
     <use style="fill:#1a1a1a;" x="188.428214" xlink:href="#C1_0_5a03c70580" y="219.36306"/>
    </g>
    <g clip-path="url(#pfe8635f14e)">
     <use style="fill:#1a1a1a;" x="197.283553" xlink:href="#C1_0_5a03c70580" y="218.79128"/>
    </g>
    <g clip-path="url(#pfe8635f14e)">
     <use style="fill:#1a1a1a;" x="202.012384" xlink:href="#C1_0_5a03c70580" y="217.65309"/>
    </g>
    <g clip-path="url(#pfe8635f14e)">
     <use style="fill:#1a1a1a;" x="192.979531" xlink:href="#C1_0_5a03c70580" y="204.375821"/>
    </g>
    <g clip-path="url(#pfe8635f14e)">
     <use style="fill:#1a1a1a;" x="192.979531" xlink:href="#C1_0_5a03c70580" y="182.409131"/>
    </g>
    <g clip-path="url(#pfe8635f14e)">
     <use style="fill:#1a1a1a;" x="192.979531" xlink:href="#C1_0_5a03c70580" y="158.628393"/>
    </g>
    <g clip-path="url(#pfe8635f14e)">
     <use style="fill:#1a1a1a;" x="192.979531" xlink:href="#C1_0_5a03c70580" y="146.183441"/>
    </g>
    <g clip-path="url(#pfe8635f14e)">
     <use style="fill:#1a1a1a;" x="192.979531" xlink:href="#C1_0_5a03c70580" y="140.882035"/>
    </g>
    <g clip-path="url(#pfe8635f14e)">
     <use style="fill:#1a1a1a;" x="192.979531" xlink:href="#C1_0_5a03c70580" y="94.584293"/>
    </g>
   </g>
   <g id="PathCollection_3">
    <defs>
     <path d="M 0 2.5 
C 0.663008 2.5 1.29895 2.236584 1.767767 1.767767 
C 2.236584 1.29895 2.5 0.663008 2.5 0 
C 2.5 -0.663008 2.236584 -1.29895 1.767767 -1.767767 
C 1.29895 -2.236584 0.663008 -2.5 0 -2.5 
C -0.663008 -2.5 -1.29895 -2.236584 -1.767767 -1.767767 
C -2.236584 -1.29895 -2.5 -0.663008 -2.5 0 
C -2.5 0.663008 -2.236584 1.29895 -1.767767 1.767767 
C -1.29895 2.236584 -0.663008 2.5 0 2.5 
z
" id="C2_0_f059f8b321"/>
    </defs>
    <g clip-path="url(#pfe8635f14e)">
     <use style="fill:#1a1a1a;" x="278.725365" xlink:href="#C2_0_f059f8b321" y="258.715835"/>
    </g>
    <g clip-path="url(#pfe8635f14e)">
     <use style="fill:#1a1a1a;" x="278.725365" xlink:href="#C2_0_f059f8b321" y="241.025522"/>
    </g>
    <g clip-path="url(#pfe8635f14e)">
     <use style="fill:#1a1a1a;" x="278.725365" xlink:href="#C2_0_f059f8b321" y="229.00379"/>
    </g>
    <g clip-path="url(#pfe8635f14e)">
     <use style="fill:#1a1a1a;" x="278.725365" xlink:href="#C2_0_f059f8b321" y="209.4874"/>
    </g>
    <g clip-path="url(#pfe8635f14e)">
     <use style="fill:#1a1a1a;" x="274.111266" xlink:href="#C2_0_f059f8b321" y="207.927982"/>
    </g>
    <g clip-path="url(#pfe8635f14e)">
     <use style="fill:#1a1a1a;" x="278.725365" xlink:href="#C2_0_f059f8b321" y="195.759872"/>
    </g>
    <g clip-path="url(#pfe8635f14e)">
     <use style="fill:#1a1a1a;" x="278.725365" xlink:href="#C2_0_f059f8b321" y="176.511058"/>
    </g>
    <g clip-path="url(#pfe8635f14e)">
     <use style="fill:#1a1a1a;" x="278.725365" xlink:href="#C2_0_f059f8b321" y="159.601962"/>
    </g>
    <g clip-path="url(#pfe8635f14e)">
     <use style="fill:#1a1a1a;" x="278.725365" xlink:href="#C2_0_f059f8b321" y="152.373065"/>
    </g>
    <g clip-path="url(#pfe8635f14e)">
     <use style="fill:#1a1a1a;" x="274.464691" xlink:href="#C2_0_f059f8b321" y="149.973758"/>
    </g>
    <g clip-path="url(#pfe8635f14e)">
     <use style="fill:#1a1a1a;" x="278.725365" xlink:href="#C2_0_f059f8b321" y="121.785031"/>
    </g>
    <g clip-path="url(#pfe8635f14e)">
     <use style="fill:#1a1a1a;" x="274.77454" xlink:href="#C2_0_f059f8b321" y="118.877494"/>
    </g>
    <g clip-path="url(#pfe8635f14e)">
     <use style="fill:#1a1a1a;" x="278.725365" xlink:href="#C2_0_f059f8b321" y="113.085139"/>
    </g>
   </g>
   <g id="text_10">
    <!-- gene = CD274 -->
    <defs>
     <path d="M 10.59375 45.40625 
L 73.1875 45.40625 
L 73.1875 37.203125 
L 10.59375 37.203125 
z
M 10.59375 25.484375 
L 73.1875 25.484375 
L 73.1875 17.1875 
L 10.59375 17.1875 
z
" id="DejaVuSans-3d"/>
     <path d="M 19.671875 64.796875 
L 19.671875 8.109375 
L 31.59375 8.109375 
Q 46.6875 8.109375 53.6875 14.9375 
Q 60.6875 21.78125 60.6875 36.53125 
Q 60.6875 51.171875 53.6875 57.984375 
Q 46.6875 64.796875 31.59375 64.796875 
z
M 9.8125 72.90625 
L 30.078125 72.90625 
Q 51.265625 72.90625 61.171875 64.09375 
Q 71.09375 55.28125 71.09375 36.53125 
Q 71.09375 17.671875 61.125 8.828125 
Q 51.171875 0 30.078125 0 
L 9.8125 0 
z
" id="DejaVuSans-44"/>
     <path d="M 8.203125 72.90625 
L 55.078125 72.90625 
L 55.078125 68.703125 
L 28.609375 0 
L 18.3125 0 
L 43.21875 64.59375 
L 8.203125 64.59375 
z
" id="DejaVuSans-37"/>
    </defs>
    <g style="fill:#262626;" transform="translate(126.830937 20.877187)scale(0.18 -0.18)">
     <use xlink:href="#DejaVuSans-67"/>
     <use x="63.476562" xlink:href="#DejaVuSans-65"/>
     <use x="125" xlink:href="#DejaVuSans-6e"/>
     <use x="188.378906" xlink:href="#DejaVuSans-65"/>
     <use x="249.902344" xlink:href="#DejaVuSans-20"/>
     <use x="281.689453" xlink:href="#DejaVuSans-3d"/>
     <use x="365.478516" xlink:href="#DejaVuSans-20"/>
     <use x="397.265625" xlink:href="#DejaVuSans-43"/>
     <use x="467.089844" xlink:href="#DejaVuSans-44"/>
     <use x="544.091797" xlink:href="#DejaVuSans-32"/>
     <use x="607.714844" xlink:href="#DejaVuSans-37"/>
     <use x="671.337891" xlink:href="#DejaVuSans-34"/>
    </g>
   </g>
  </g>
  <g id="axes_2">
   <g id="patch_8">
    <path d="M 424.493281 281.497187 
L 681.730781 281.497187 
L 681.730781 26.877187 
L 424.493281 26.877187 
z
" style="fill:#ffffff;"/>
   </g>
   <g id="matplotlib.axis_3">
    <g id="xtick_4">
     <g id="text_11">
      <!-- 1 -->
      <g style="fill:#262626;" transform="translate(462.117135 303.534609)scale(0.165 -0.165)">
       <use xlink:href="#DejaVuSans-31"/>
      </g>
     </g>
    </g>
    <g id="xtick_5">
     <g id="text_12">
      <!-- 2 -->
      <g style="fill:#262626;" transform="translate(547.862969 303.534609)scale(0.165 -0.165)">
       <use xlink:href="#DejaVuSans-32"/>
      </g>
     </g>
    </g>
    <g id="xtick_6">
     <g id="text_13">
      <!-- 3 -->
      <g style="fill:#262626;" transform="translate(633.608802 303.534609)scale(0.165 -0.165)">
       <use xlink:href="#DejaVuSans-33"/>
      </g>
     </g>
    </g>
    <g id="text_14">
     <!-- Hydra Cluster -->
     <g style="fill:#262626;" transform="translate(491.284844 324.643281)scale(0.18 -0.18)">
      <use xlink:href="#DejaVuSans-48"/>
      <use x="75.195312" xlink:href="#DejaVuSans-79"/>
      <use x="134.375" xlink:href="#DejaVuSans-64"/>
      <use x="197.851562" xlink:href="#DejaVuSans-72"/>
      <use x="238.964844" xlink:href="#DejaVuSans-61"/>
      <use x="300.244141" xlink:href="#DejaVuSans-20"/>
      <use x="332.03125" xlink:href="#DejaVuSans-43"/>
      <use x="401.855469" xlink:href="#DejaVuSans-6c"/>
      <use x="429.638672" xlink:href="#DejaVuSans-75"/>
      <use x="493.017578" xlink:href="#DejaVuSans-73"/>
      <use x="545.117188" xlink:href="#DejaVuSans-74"/>
      <use x="584.326172" xlink:href="#DejaVuSans-65"/>
      <use x="645.849609" xlink:href="#DejaVuSans-72"/>
     </g>
    </g>
   </g>
   <g id="matplotlib.axis_4">
    <g id="ytick_5">
     <g id="text_15">
      <!-- 0.0 -->
      <g style="fill:#262626;" transform="translate(388.753125 273.718975)scale(0.165 -0.165)">
       <use xlink:href="#DejaVuSans-30"/>
       <use x="63.623047" xlink:href="#DejaVuSans-2e"/>
       <use x="95.410156" xlink:href="#DejaVuSans-30"/>
      </g>
     </g>
    </g>
    <g id="ytick_6">
     <g id="text_16">
      <!-- 0.8 -->
      <g style="fill:#262626;" transform="translate(388.753125 213.839442)scale(0.165 -0.165)">
       <use xlink:href="#DejaVuSans-30"/>
       <use x="63.623047" xlink:href="#DejaVuSans-2e"/>
       <use x="95.410156" xlink:href="#DejaVuSans-38"/>
      </g>
     </g>
    </g>
    <g id="ytick_7">
     <g id="text_17">
      <!-- 1.6 -->
      <g style="fill:#262626;" transform="translate(388.753125 153.95991)scale(0.165 -0.165)">
       <use xlink:href="#DejaVuSans-31"/>
       <use x="63.623047" xlink:href="#DejaVuSans-2e"/>
       <use x="95.410156" xlink:href="#DejaVuSans-36"/>
      </g>
     </g>
    </g>
    <g id="ytick_8">
     <g id="text_18">
      <!-- 2.4 -->
      <g style="fill:#262626;" transform="translate(388.753125 94.080377)scale(0.165 -0.165)">
       <use xlink:href="#DejaVuSans-32"/>
       <use x="63.623047" xlink:href="#DejaVuSans-2e"/>
       <use x="95.410156" xlink:href="#DejaVuSans-34"/>
      </g>
     </g>
    </g>
    <g id="ytick_9">
     <g id="text_19">
      <!-- 3.2 -->
      <g style="fill:#262626;" transform="translate(388.753125 34.200845)scale(0.165 -0.165)">
       <use xlink:href="#DejaVuSans-33"/>
       <use x="63.623047" xlink:href="#DejaVuSans-2e"/>
       <use x="95.410156" xlink:href="#DejaVuSans-32"/>
      </g>
     </g>
    </g>
    <g id="text_20">
     <!-- Expression (log2(TPM + 1)) -->
     <g style="fill:#262626;" transform="translate(381.009688 277.267812)rotate(-90)scale(0.18 -0.18)">
      <use xlink:href="#DejaVuSans-45"/>
      <use x="63.183594" xlink:href="#DejaVuSans-78"/>
      <use x="122.363281" xlink:href="#DejaVuSans-70"/>
      <use x="185.839844" xlink:href="#DejaVuSans-72"/>
      <use x="226.921875" xlink:href="#DejaVuSans-65"/>
      <use x="288.445312" xlink:href="#DejaVuSans-73"/>
      <use x="340.544922" xlink:href="#DejaVuSans-73"/>
      <use x="392.644531" xlink:href="#DejaVuSans-69"/>
      <use x="420.427734" xlink:href="#DejaVuSans-6f"/>
      <use x="481.609375" xlink:href="#DejaVuSans-6e"/>
      <use x="544.988281" xlink:href="#DejaVuSans-20"/>
      <use x="576.775391" xlink:href="#DejaVuSans-28"/>
      <use x="615.789062" xlink:href="#DejaVuSans-6c"/>
      <use x="643.572266" xlink:href="#DejaVuSans-6f"/>
      <use x="704.753906" xlink:href="#DejaVuSans-67"/>
      <use x="768.230469" xlink:href="#DejaVuSans-32"/>
      <use x="831.853516" xlink:href="#DejaVuSans-28"/>
      <use x="870.867188" xlink:href="#DejaVuSans-54"/>
      <use x="931.951172" xlink:href="#DejaVuSans-50"/>
      <use x="992.253906" xlink:href="#DejaVuSans-4d"/>
      <use x="1078.533203" xlink:href="#DejaVuSans-20"/>
      <use x="1110.320312" xlink:href="#DejaVuSans-2b"/>
      <use x="1194.109375" xlink:href="#DejaVuSans-20"/>
      <use x="1225.896484" xlink:href="#DejaVuSans-31"/>
      <use x="1289.519531" xlink:href="#DejaVuSans-29"/>
      <use x="1328.533203" xlink:href="#DejaVuSans-29"/>
     </g>
    </g>
   </g>
   <g id="patch_9">
    <path clip-path="url(#pcc24c5d3f4)" d="M 433.067865 203.109081 
L 501.664531 203.109081 
L 501.664531 123.748918 
L 433.067865 123.748918 
L 433.067865 203.109081 
z
" style="fill:#ffffff;stroke:#999999;stroke-linejoin:miter;stroke-width:1.5;"/>
   </g>
   <g id="patch_10">
    <path clip-path="url(#pcc24c5d3f4)" d="M 518.813698 263.472856 
L 587.410365 263.472856 
L 587.410365 241.844605 
L 518.813698 241.844605 
L 518.813698 263.472856 
z
" style="fill:#ffffff;stroke:#999999;stroke-linejoin:miter;stroke-width:1.5;"/>
   </g>
   <g id="patch_11">
    <path clip-path="url(#pcc24c5d3f4)" d="M 604.559531 203.971335 
L 673.156198 203.971335 
L 673.156198 121.313853 
L 604.559531 121.313853 
L 604.559531 203.971335 
z
" style="fill:#ffffff;stroke:#999999;stroke-linejoin:miter;stroke-width:1.5;"/>
   </g>
   <g id="line2d_19">
    <path clip-path="url(#pcc24c5d3f4)" d="M 467.366198 203.109081 
L 467.366198 225.108563 
" style="fill:none;stroke:#999999;stroke-linecap:round;stroke-width:1.5;"/>
   </g>
   <g id="line2d_20">
    <path clip-path="url(#pcc24c5d3f4)" d="M 467.366198 123.748918 
L 467.366198 40.897684 
" style="fill:none;stroke:#999999;stroke-linecap:round;stroke-width:1.5;"/>
   </g>
   <g id="line2d_21">
    <path clip-path="url(#pcc24c5d3f4)" d="M 450.217031 225.108563 
L 484.515365 225.108563 
" style="fill:none;stroke:#999999;stroke-linecap:round;stroke-width:1.5;"/>
   </g>
   <g id="line2d_22">
    <path clip-path="url(#pcc24c5d3f4)" d="M 450.217031 40.897684 
L 484.515365 40.897684 
" style="fill:none;stroke:#999999;stroke-linecap:round;stroke-width:1.5;"/>
   </g>
   <g id="line2d_23"/>
   <g id="line2d_24">
    <path clip-path="url(#pcc24c5d3f4)" d="M 553.112031 263.472856 
L 553.112031 267.450264 
" style="fill:none;stroke:#999999;stroke-linecap:round;stroke-width:1.5;"/>
   </g>
   <g id="line2d_25">
    <path clip-path="url(#pcc24c5d3f4)" d="M 553.112031 241.844605 
L 553.112031 217.368048 
" style="fill:none;stroke:#999999;stroke-linecap:round;stroke-width:1.5;"/>
   </g>
   <g id="line2d_26">
    <path clip-path="url(#pcc24c5d3f4)" d="M 535.962865 267.450264 
L 570.261198 267.450264 
" style="fill:none;stroke:#999999;stroke-linecap:round;stroke-width:1.5;"/>
   </g>
   <g id="line2d_27">
    <path clip-path="url(#pcc24c5d3f4)" d="M 535.962865 217.368048 
L 570.261198 217.368048 
" style="fill:none;stroke:#999999;stroke-linecap:round;stroke-width:1.5;"/>
   </g>
   <g id="line2d_28">
    <g clip-path="url(#pcc24c5d3f4)">
     <use style="fill:#999999;stroke:#999999;stroke-linejoin:miter;" x="553.112031" xlink:href="#m99c0e220b5" y="196.440758"/>
    </g>
   </g>
   <g id="line2d_29">
    <path clip-path="url(#pcc24c5d3f4)" d="M 638.857865 203.971335 
L 638.857865 257.148575 
" style="fill:none;stroke:#999999;stroke-linecap:round;stroke-width:1.5;"/>
   </g>
   <g id="line2d_30">
    <path clip-path="url(#pcc24c5d3f4)" d="M 638.857865 121.313853 
L 638.857865 80.076099 
" style="fill:none;stroke:#999999;stroke-linecap:round;stroke-width:1.5;"/>
   </g>
   <g id="line2d_31">
    <path clip-path="url(#pcc24c5d3f4)" d="M 621.708698 257.148575 
L 656.007031 257.148575 
" style="fill:none;stroke:#999999;stroke-linecap:round;stroke-width:1.5;"/>
   </g>
   <g id="line2d_32">
    <path clip-path="url(#pcc24c5d3f4)" d="M 621.708698 80.076099 
L 656.007031 80.076099 
" style="fill:none;stroke:#999999;stroke-linecap:round;stroke-width:1.5;"/>
   </g>
   <g id="line2d_33"/>
   <g id="line2d_34">
    <path clip-path="url(#pcc24c5d3f4)" d="M 433.067865 147.381711 
L 501.664531 147.381711 
" style="fill:none;stroke:#999999;stroke-linecap:round;stroke-width:1.5;"/>
   </g>
   <g id="line2d_35">
    <path clip-path="url(#pcc24c5d3f4)" d="M 518.813698 254.723028 
L 587.410365 254.723028 
" style="fill:none;stroke:#999999;stroke-linecap:round;stroke-width:1.5;"/>
   </g>
   <g id="line2d_36">
    <path clip-path="url(#pcc24c5d3f4)" d="M 604.559531 146.677071 
L 673.156198 146.677071 
" style="fill:none;stroke:#999999;stroke-linecap:round;stroke-width:1.5;"/>
   </g>
   <g id="patch_12">
    <path d="M 424.493281 281.497187 
L 424.493281 26.877187 
" style="fill:none;stroke:#262626;stroke-linecap:square;stroke-linejoin:miter;stroke-width:1.25;"/>
   </g>
   <g id="patch_13">
    <path d="M 424.493281 281.497187 
L 681.730781 281.497187 
" style="fill:none;stroke:#262626;stroke-linecap:square;stroke-linejoin:miter;stroke-width:1.25;"/>
   </g>
   <g id="PathCollection_4">
    <defs>
     <path d="M 0 2.5 
C 0.663008 2.5 1.29895 2.236584 1.767767 1.767767 
C 2.236584 1.29895 2.5 0.663008 2.5 0 
C 2.5 -0.663008 2.236584 -1.29895 1.767767 -1.767767 
C 1.29895 -2.236584 0.663008 -2.5 0 -2.5 
C -0.663008 -2.5 -1.29895 -2.236584 -1.767767 -1.767767 
C -2.236584 -1.29895 -2.5 -0.663008 -2.5 0 
C -2.5 0.663008 -2.236584 1.29895 -1.767767 1.767767 
C -1.29895 2.236584 -0.663008 2.5 0 2.5 
z
" id="C3_0_69bce69fae"/>
    </defs>
    <g clip-path="url(#pcc24c5d3f4)">
     <use style="fill:#1a1a1a;" x="467.366198" xlink:href="#C3_0_69bce69fae" y="225.108563"/>
    </g>
    <g clip-path="url(#pcc24c5d3f4)">
     <use style="fill:#1a1a1a;" x="462.718572" xlink:href="#C3_0_69bce69fae" y="223.658525"/>
    </g>
    <g clip-path="url(#pcc24c5d3f4)">
     <use style="fill:#1a1a1a;" x="467.366198" xlink:href="#C3_0_69bce69fae" y="217.368048"/>
    </g>
    <g clip-path="url(#pcc24c5d3f4)">
     <use style="fill:#1a1a1a;" x="467.366198" xlink:href="#C3_0_69bce69fae" y="211.422767"/>
    </g>
    <g clip-path="url(#pcc24c5d3f4)">
     <use style="fill:#1a1a1a;" x="462.550184" xlink:href="#C3_0_69bce69fae" y="210.779833"/>
    </g>
    <g clip-path="url(#pcc24c5d3f4)">
     <use style="fill:#1a1a1a;" x="471.124783" xlink:href="#C3_0_69bce69fae" y="208.256569"/>
    </g>
    <g clip-path="url(#pcc24c5d3f4)">
     <use style="fill:#1a1a1a;" x="466.902098" xlink:href="#C3_0_69bce69fae" y="205.787096"/>
    </g>
    <g clip-path="url(#pcc24c5d3f4)">
     <use style="fill:#1a1a1a;" x="462.045768" xlink:href="#C3_0_69bce69fae" y="205.787096"/>
    </g>
    <g clip-path="url(#pcc24c5d3f4)">
     <use style="fill:#1a1a1a;" x="467.366198" xlink:href="#C3_0_69bce69fae" y="200.431066"/>
    </g>
    <g clip-path="url(#pcc24c5d3f4)">
     <use style="fill:#1a1a1a;" x="463.831489" xlink:href="#C3_0_69bce69fae" y="197.002416"/>
    </g>
    <g clip-path="url(#pcc24c5d3f4)">
     <use style="fill:#1a1a1a;" x="467.366198" xlink:href="#C3_0_69bce69fae" y="172.9065"/>
    </g>
    <g clip-path="url(#pcc24c5d3f4)">
     <use style="fill:#1a1a1a;" x="467.366198" xlink:href="#C3_0_69bce69fae" y="160.993849"/>
    </g>
    <g clip-path="url(#pcc24c5d3f4)">
     <use style="fill:#1a1a1a;" x="462.652062" xlink:href="#C3_0_69bce69fae" y="159.792777"/>
    </g>
    <g clip-path="url(#pcc24c5d3f4)">
     <use style="fill:#1a1a1a;" x="470.334484" xlink:href="#C3_0_69bce69fae" y="157.036545"/>
    </g>
    <g clip-path="url(#pcc24c5d3f4)">
     <use style="fill:#1a1a1a;" x="466.496809" xlink:href="#C3_0_69bce69fae" y="153.972569"/>
    </g>
    <g clip-path="url(#pcc24c5d3f4)">
     <use style="fill:#1a1a1a;" x="467.366198" xlink:href="#C3_0_69bce69fae" y="147.381711"/>
    </g>
    <g clip-path="url(#pcc24c5d3f4)">
     <use style="fill:#1a1a1a;" x="463.135929" xlink:href="#C3_0_69bce69fae" y="144.926037"/>
    </g>
    <g clip-path="url(#pcc24c5d3f4)">
     <use style="fill:#1a1a1a;" x="467.366198" xlink:href="#C3_0_69bce69fae" y="141.842076"/>
    </g>
    <g clip-path="url(#pcc24c5d3f4)">
     <use style="fill:#1a1a1a;" x="472.178705" xlink:href="#C3_0_69bce69fae" y="141.171882"/>
    </g>
    <g clip-path="url(#pcc24c5d3f4)">
     <use style="fill:#1a1a1a;" x="464.880378" xlink:href="#C3_0_69bce69fae" y="137.546768"/>
    </g>
    <g clip-path="url(#pcc24c5d3f4)">
     <use style="fill:#1a1a1a;" x="467.366198" xlink:href="#C3_0_69bce69fae" y="131.552228"/>
    </g>
    <g clip-path="url(#pcc24c5d3f4)">
     <use style="fill:#1a1a1a;" x="462.656538" xlink:href="#C3_0_69bce69fae" y="130.332684"/>
    </g>
    <g clip-path="url(#pcc24c5d3f4)">
     <use style="fill:#1a1a1a;" x="467.366198" xlink:href="#C3_0_69bce69fae" y="126.461734"/>
    </g>
    <g clip-path="url(#pcc24c5d3f4)">
     <use style="fill:#1a1a1a;" x="467.366198" xlink:href="#C3_0_69bce69fae" y="121.036102"/>
    </g>
    <g clip-path="url(#pcc24c5d3f4)">
     <use style="fill:#1a1a1a;" x="467.366198" xlink:href="#C3_0_69bce69fae" y="115.084263"/>
    </g>
    <g clip-path="url(#pcc24c5d3f4)">
     <use style="fill:#1a1a1a;" x="463.382443" xlink:href="#C3_0_69bce69fae" y="112.224754"/>
    </g>
    <g clip-path="url(#pcc24c5d3f4)">
     <use style="fill:#1a1a1a;" x="469.695991" xlink:href="#C3_0_69bce69fae" y="110.697219"/>
    </g>
    <g clip-path="url(#pcc24c5d3f4)">
     <use style="fill:#1a1a1a;" x="466.746732" xlink:href="#C3_0_69bce69fae" y="106.724864"/>
    </g>
    <g clip-path="url(#pcc24c5d3f4)">
     <use style="fill:#1a1a1a;" x="467.366198" xlink:href="#C3_0_69bce69fae" y="83.364062"/>
    </g>
    <g clip-path="url(#pcc24c5d3f4)">
     <use style="fill:#1a1a1a;" x="467.366198" xlink:href="#C3_0_69bce69fae" y="74.870412"/>
    </g>
    <g clip-path="url(#pcc24c5d3f4)">
     <use style="fill:#1a1a1a;" x="467.366198" xlink:href="#C3_0_69bce69fae" y="40.897684"/>
    </g>
   </g>
   <g id="PathCollection_5">
    <defs>
     <path d="M 0 2.5 
C 0.663008 2.5 1.29895 2.236584 1.767767 1.767767 
C 2.236584 1.29895 2.5 0.663008 2.5 0 
C 2.5 -0.663008 2.236584 -1.29895 1.767767 -1.767767 
C 1.29895 -2.236584 0.663008 -2.5 0 -2.5 
C -0.663008 -2.5 -1.29895 -2.236584 -1.767767 -1.767767 
C -2.236584 -1.29895 -2.5 -0.663008 -2.5 0 
C -2.5 0.663008 -2.236584 1.29895 -1.767767 1.767767 
C -1.29895 2.236584 -0.663008 2.5 0 2.5 
z
" id="C4_0_cc967a84de"/>
    </defs>
    <g clip-path="url(#pcc24c5d3f4)">
     <use style="fill:#1a1a1a;" x="553.112031" xlink:href="#C4_0_cc967a84de" y="267.450264"/>
    </g>
    <g clip-path="url(#pcc24c5d3f4)">
     <use style="fill:#1a1a1a;" x="548.255701" xlink:href="#C4_0_cc967a84de" y="267.450264"/>
    </g>
    <g clip-path="url(#pcc24c5d3f4)">
     <use style="fill:#1a1a1a;" x="557.968361" xlink:href="#C4_0_cc967a84de" y="267.450264"/>
    </g>
    <g clip-path="url(#pcc24c5d3f4)">
     <use style="fill:#1a1a1a;" x="543.399371" xlink:href="#C4_0_cc967a84de" y="267.450264"/>
    </g>
    <g clip-path="url(#pcc24c5d3f4)">
     <use style="fill:#1a1a1a;" x="562.824692" xlink:href="#C4_0_cc967a84de" y="267.450264"/>
    </g>
    <g clip-path="url(#pcc24c5d3f4)">
     <use style="fill:#1a1a1a;" x="538.543041" xlink:href="#C4_0_cc967a84de" y="267.450264"/>
    </g>
    <g clip-path="url(#pcc24c5d3f4)">
     <use style="fill:#1a1a1a;" x="566.554264" xlink:href="#C4_0_cc967a84de" y="264.247904"/>
    </g>
    <g clip-path="url(#pcc24c5d3f4)">
     <use style="fill:#1a1a1a;" x="553.112031" xlink:href="#C4_0_cc967a84de" y="261.147713"/>
    </g>
    <g clip-path="url(#pcc24c5d3f4)">
     <use style="fill:#1a1a1a;" x="549.236601" xlink:href="#C4_0_cc967a84de" y="258.134534"/>
    </g>
    <g clip-path="url(#pcc24c5d3f4)">
     <use style="fill:#1a1a1a;" x="556.026946" xlink:href="#C4_0_cc967a84de" y="257.148575"/>
    </g>
    <g clip-path="url(#pcc24c5d3f4)">
     <use style="fill:#1a1a1a;" x="560.883276" xlink:href="#C4_0_cc967a84de" y="257.148575"/>
    </g>
    <g clip-path="url(#pcc24c5d3f4)">
     <use style="fill:#1a1a1a;" x="544.770215" xlink:href="#C4_0_cc967a84de" y="256.171469"/>
    </g>
    <g clip-path="url(#pcc24c5d3f4)">
     <use style="fill:#1a1a1a;" x="565.356739" xlink:href="#C4_0_cc967a84de" y="255.202668"/>
    </g>
    <g clip-path="url(#pcc24c5d3f4)">
     <use style="fill:#1a1a1a;" x="540.289477" xlink:href="#C4_0_cc967a84de" y="254.243387"/>
    </g>
    <g clip-path="url(#pcc24c5d3f4)">
     <use style="fill:#1a1a1a;" x="552.936805" xlink:href="#C4_0_cc967a84de" y="253.291416"/>
    </g>
    <g clip-path="url(#pcc24c5d3f4)">
     <use style="fill:#1a1a1a;" x="557.706074" xlink:href="#C4_0_cc967a84de" y="252.348899"/>
    </g>
    <g clip-path="url(#pcc24c5d3f4)">
     <use style="fill:#1a1a1a;" x="551.113024" xlink:href="#C4_0_cc967a84de" y="248.657399"/>
    </g>
    <g clip-path="url(#pcc24c5d3f4)">
     <use style="fill:#1a1a1a;" x="553.337628" xlink:href="#C4_0_cc967a84de" y="244.212853"/>
    </g>
    <g clip-path="url(#pcc24c5d3f4)">
     <use style="fill:#1a1a1a;" x="548.780319" xlink:href="#C4_0_cc967a84de" y="242.485459"/>
    </g>
    <g clip-path="url(#pcc24c5d3f4)">
     <use style="fill:#1a1a1a;" x="557.496413" xlink:href="#C4_0_cc967a84de" y="241.630988"/>
    </g>
    <g clip-path="url(#pcc24c5d3f4)">
     <use style="fill:#1a1a1a;" x="553.112031" xlink:href="#C4_0_cc967a84de" y="233.447402"/>
    </g>
    <g clip-path="url(#pcc24c5d3f4)">
     <use style="fill:#1a1a1a;" x="553.112031" xlink:href="#C4_0_cc967a84de" y="223.658525"/>
    </g>
    <g clip-path="url(#pcc24c5d3f4)">
     <use style="fill:#1a1a1a;" x="549.11596" xlink:href="#C4_0_cc967a84de" y="220.817291"/>
    </g>
    <g clip-path="url(#pcc24c5d3f4)">
     <use style="fill:#1a1a1a;" x="553.94723" xlink:href="#C4_0_cc967a84de" y="218.733025"/>
    </g>
    <g clip-path="url(#pcc24c5d3f4)">
     <use style="fill:#1a1a1a;" x="558.619094" xlink:href="#C4_0_cc967a84de" y="217.368048"/>
    </g>
    <g clip-path="url(#pcc24c5d3f4)">
     <use style="fill:#1a1a1a;" x="553.112031" xlink:href="#C4_0_cc967a84de" y="196.440758"/>
    </g>
   </g>
   <g id="PathCollection_6">
    <defs>
     <path d="M 0 2.5 
C 0.663008 2.5 1.29895 2.236584 1.767767 1.767767 
C 2.236584 1.29895 2.5 0.663008 2.5 0 
C 2.5 -0.663008 2.236584 -1.29895 1.767767 -1.767767 
C 1.29895 -2.236584 0.663008 -2.5 0 -2.5 
C -0.663008 -2.5 -1.29895 -2.236584 -1.767767 -1.767767 
C -2.236584 -1.29895 -2.5 -0.663008 -2.5 0 
C -2.5 0.663008 -2.236584 1.29895 -1.767767 1.767767 
C -1.29895 2.236584 -0.663008 2.5 0 2.5 
z
" id="C5_0_12a281c3f0"/>
    </defs>
    <g clip-path="url(#pcc24c5d3f4)">
     <use style="fill:#1a1a1a;" x="638.857865" xlink:href="#C5_0_12a281c3f0" y="257.148575"/>
    </g>
    <g clip-path="url(#pcc24c5d3f4)">
     <use style="fill:#1a1a1a;" x="638.857865" xlink:href="#C5_0_12a281c3f0" y="242.485459"/>
    </g>
    <g clip-path="url(#pcc24c5d3f4)">
     <use style="fill:#1a1a1a;" x="638.857865" xlink:href="#C5_0_12a281c3f0" y="226.578369"/>
    </g>
    <g clip-path="url(#pcc24c5d3f4)">
     <use style="fill:#1a1a1a;" x="638.857865" xlink:href="#C5_0_12a281c3f0" y="203.971335"/>
    </g>
    <g clip-path="url(#pcc24c5d3f4)">
     <use style="fill:#1a1a1a;" x="635.428526" xlink:href="#C5_0_12a281c3f0" y="200.431066"/>
    </g>
    <g clip-path="url(#pcc24c5d3f4)">
     <use style="fill:#1a1a1a;" x="638.857865" xlink:href="#C5_0_12a281c3f0" y="188.359109"/>
    </g>
    <g clip-path="url(#pcc24c5d3f4)">
     <use style="fill:#1a1a1a;" x="638.857865" xlink:href="#C5_0_12a281c3f0" y="146.677071"/>
    </g>
    <g clip-path="url(#pcc24c5d3f4)">
     <use style="fill:#1a1a1a;" x="638.857865" xlink:href="#C5_0_12a281c3f0" y="132.47801"/>
    </g>
    <g clip-path="url(#pcc24c5d3f4)">
     <use style="fill:#1a1a1a;" x="636.29611" xlink:href="#C5_0_12a281c3f0" y="128.230261"/>
    </g>
    <g clip-path="url(#pcc24c5d3f4)">
     <use style="fill:#1a1a1a;" x="638.857865" xlink:href="#C5_0_12a281c3f0" y="121.313853"/>
    </g>
    <g clip-path="url(#pcc24c5d3f4)">
     <use style="fill:#1a1a1a;" x="638.857865" xlink:href="#C5_0_12a281c3f0" y="115.084263"/>
    </g>
    <g clip-path="url(#pcc24c5d3f4)">
     <use style="fill:#1a1a1a;" x="638.857865" xlink:href="#C5_0_12a281c3f0" y="82.38304"/>
    </g>
    <g clip-path="url(#pcc24c5d3f4)">
     <use style="fill:#1a1a1a;" x="634.549337" xlink:href="#C5_0_12a281c3f0" y="80.076099"/>
    </g>
   </g>
   <g id="text_21">
    <!-- gene = CTLA4 -->
    <defs>
     <path d="M 9.8125 72.90625 
L 19.671875 72.90625 
L 19.671875 8.296875 
L 55.171875 8.296875 
L 55.171875 0 
L 9.8125 0 
z
" id="DejaVuSans-4c"/>
     <path d="M 34.1875 63.1875 
L 20.796875 26.90625 
L 47.609375 26.90625 
z
M 28.609375 72.90625 
L 39.796875 72.90625 
L 67.578125 0 
L 57.328125 0 
L 50.6875 18.703125 
L 17.828125 18.703125 
L 11.1875 0 
L 0.78125 0 
z
" id="DejaVuSans-41"/>
    </defs>
    <g style="fill:#262626;" transform="translate(488.674844 20.877187)scale(0.18 -0.18)">
     <use xlink:href="#DejaVuSans-67"/>
     <use x="63.476562" xlink:href="#DejaVuSans-65"/>
     <use x="125" xlink:href="#DejaVuSans-6e"/>
     <use x="188.378906" xlink:href="#DejaVuSans-65"/>
     <use x="249.902344" xlink:href="#DejaVuSans-20"/>
     <use x="281.689453" xlink:href="#DejaVuSans-3d"/>
     <use x="365.478516" xlink:href="#DejaVuSans-20"/>
     <use x="397.265625" xlink:href="#DejaVuSans-43"/>
     <use x="467.089844" xlink:href="#DejaVuSans-54"/>
     <use x="528.173828" xlink:href="#DejaVuSans-4c"/>
     <use x="583.917969" xlink:href="#DejaVuSans-41"/>
     <use x="652.326172" xlink:href="#DejaVuSans-34"/>
    </g>
   </g>
  </g>
 </g>
 <defs>
  <clipPath id="pfe8635f14e">
   <rect height="254.62" width="257.2375" x="64.360781" y="26.877187"/>
  </clipPath>
  <clipPath id="pcc24c5d3f4">
   <rect height="254.62" width="257.2375" x="424.493281" y="26.877187"/>
  </clipPath>
 </defs>
</svg>
