<?xml version="1.0" encoding="utf-8" standalone="no"?>
<!DOCTYPE svg PUBLIC "-//W3C//DTD SVG 1.1//EN"
  "http://www.w3.org/Graphics/SVG/1.1/DTD/svg11.dtd">
<!-- Created with matplotlib (http://matplotlib.org/) -->
<svg height="305.289766pt" version="1.1" viewBox="0 0 312.489766 305.289766" width="312.489766pt" xmlns="http://www.w3.org/2000/svg" xmlns:xlink="http://www.w3.org/1999/xlink">
 <defs>
  <style type="text/css">
*{stroke-linecap:butt;stroke-linejoin:round;}
  </style>
 </defs>
 <g id="figure_1">
  <g id="patch_1">
   <path d="M 0 305.289766 
L 312.489766 305.289766 
L 312.489766 0 
L 0 0 
z
" style="fill:#ffffff;"/>
  </g>
  <g id="axes_1">
   <g id="patch_2">
    <path d="M 26.289766 279 
L 305.289766 279 
L 305.289766 7.2 
L 26.289766 7.2 
z
" style="fill:#ffffff;"/>
   </g>
   <g id="matplotlib.axis_1">
    <g id="text_1">
     <!-- Expression -->
     <defs>
      <path d="M 7.90625 0 
L 7.90625 71.578125 
L 59.671875 71.578125 
L 59.671875 63.140625 
L 17.390625 63.140625 
L 17.390625 41.21875 
L 56.984375 41.21875 
L 56.984375 32.8125 
L 17.390625 32.8125 
L 17.390625 8.453125 
L 61.328125 8.453125 
L 61.328125 0 
z
" id="ArialMT-45"/>
      <path d="M 0.734375 0 
L 19.671875 26.953125 
L 2.15625 51.859375 
L 13.140625 51.859375 
L 21.09375 39.703125 
Q 23.34375 36.234375 24.703125 33.890625 
Q 26.859375 37.109375 28.65625 39.59375 
L 37.40625 51.859375 
L 47.90625 51.859375 
L 29.984375 27.4375 
L 49.265625 0 
L 38.484375 0 
L 27.828125 16.109375 
L 25 20.453125 
L 11.375 0 
z
" id="ArialMT-78"/>
      <path d="M 6.59375 -19.875 
L 6.59375 51.859375 
L 14.59375 51.859375 
L 14.59375 45.125 
Q 17.4375 49.078125 21 51.046875 
Q 24.5625 53.03125 29.640625 53.03125 
Q 36.28125 53.03125 41.359375 49.609375 
Q 46.4375 46.1875 49.015625 39.953125 
Q 51.609375 33.734375 51.609375 26.3125 
Q 51.609375 18.359375 48.75 11.984375 
Q 45.90625 5.609375 40.453125 2.21875 
Q 35.015625 -1.171875 29 -1.171875 
Q 24.609375 -1.171875 21.109375 0.6875 
Q 17.625 2.546875 15.375 5.375 
L 15.375 -19.875 
z
M 14.546875 25.640625 
Q 14.546875 15.625 18.59375 10.84375 
Q 22.65625 6.0625 28.421875 6.0625 
Q 34.28125 6.0625 38.453125 11.015625 
Q 42.625 15.96875 42.625 26.375 
Q 42.625 36.28125 38.546875 41.203125 
Q 34.46875 46.140625 28.8125 46.140625 
Q 23.1875 46.140625 18.859375 40.890625 
Q 14.546875 35.640625 14.546875 25.640625 
z
" id="ArialMT-70"/>
      <path d="M 6.5 0 
L 6.5 51.859375 
L 14.40625 51.859375 
L 14.40625 44 
Q 17.4375 49.515625 20 51.265625 
Q 22.5625 53.03125 25.640625 53.03125 
Q 30.078125 53.03125 34.671875 50.203125 
L 31.640625 42.046875 
Q 28.421875 43.953125 25.203125 43.953125 
Q 22.3125 43.953125 20.015625 42.21875 
Q 17.71875 40.484375 16.75 37.40625 
Q 15.28125 32.71875 15.28125 27.15625 
L 15.28125 0 
z
" id="ArialMT-72"/>
      <path d="M 42.09375 16.703125 
L 51.171875 15.578125 
Q 49.03125 7.625 43.21875 3.21875 
Q 37.40625 -1.171875 28.375 -1.171875 
Q 17 -1.171875 10.328125 5.828125 
Q 3.65625 12.84375 3.65625 25.484375 
Q 3.65625 38.578125 10.390625 45.796875 
Q 17.140625 53.03125 27.875 53.03125 
Q 38.28125 53.03125 44.875 45.953125 
Q 51.46875 38.875 51.46875 26.03125 
Q 51.46875 25.25 51.421875 23.6875 
L 12.75 23.6875 
Q 13.234375 15.140625 17.578125 10.59375 
Q 21.921875 6.0625 28.421875 6.0625 
Q 33.25 6.0625 36.671875 8.59375 
Q 40.09375 11.140625 42.09375 16.703125 
z
M 13.234375 30.90625 
L 42.1875 30.90625 
Q 41.609375 37.453125 38.875 40.71875 
Q 34.671875 45.796875 27.984375 45.796875 
Q 21.921875 45.796875 17.796875 41.75 
Q 13.671875 37.703125 13.234375 30.90625 
z
" id="ArialMT-65"/>
      <path d="M 3.078125 15.484375 
L 11.765625 16.84375 
Q 12.5 11.625 15.84375 8.84375 
Q 19.1875 6.0625 25.203125 6.0625 
Q 31.25 6.0625 34.171875 8.515625 
Q 37.109375 10.984375 37.109375 14.3125 
Q 37.109375 17.28125 34.515625 19 
Q 32.71875 20.171875 25.53125 21.96875 
Q 15.875 24.421875 12.140625 26.203125 
Q 8.40625 27.984375 6.46875 31.125 
Q 4.546875 34.28125 4.546875 38.09375 
Q 4.546875 41.546875 6.125 44.5 
Q 7.71875 47.46875 10.453125 49.421875 
Q 12.5 50.921875 16.03125 51.96875 
Q 19.578125 53.03125 23.640625 53.03125 
Q 29.734375 53.03125 34.34375 51.265625 
Q 38.96875 49.515625 41.15625 46.5 
Q 43.359375 43.5 44.1875 38.484375 
L 35.59375 37.3125 
Q 35.015625 41.3125 32.203125 43.546875 
Q 29.390625 45.796875 24.265625 45.796875 
Q 18.21875 45.796875 15.625 43.796875 
Q 13.03125 41.796875 13.03125 39.109375 
Q 13.03125 37.40625 14.109375 36.03125 
Q 15.1875 34.625 17.484375 33.6875 
Q 18.796875 33.203125 25.25 31.453125 
Q 34.578125 28.953125 38.25 27.359375 
Q 41.9375 25.78125 44.03125 22.75 
Q 46.140625 19.734375 46.140625 15.234375 
Q 46.140625 10.84375 43.578125 6.953125 
Q 41.015625 3.078125 36.171875 0.953125 
Q 31.34375 -1.171875 25.25 -1.171875 
Q 15.140625 -1.171875 9.84375 3.03125 
Q 4.546875 7.234375 3.078125 15.484375 
z
" id="ArialMT-73"/>
      <path d="M 6.640625 61.46875 
L 6.640625 71.578125 
L 15.4375 71.578125 
L 15.4375 61.46875 
z
M 6.640625 0 
L 6.640625 51.859375 
L 15.4375 51.859375 
L 15.4375 0 
z
" id="ArialMT-69"/>
      <path d="M 3.328125 25.921875 
Q 3.328125 40.328125 11.328125 47.265625 
Q 18.015625 53.03125 27.640625 53.03125 
Q 38.328125 53.03125 45.109375 46.015625 
Q 51.90625 39.015625 51.90625 26.65625 
Q 51.90625 16.65625 48.90625 10.90625 
Q 45.90625 5.171875 40.15625 2 
Q 34.421875 -1.171875 27.640625 -1.171875 
Q 16.75 -1.171875 10.03125 5.8125 
Q 3.328125 12.796875 3.328125 25.921875 
z
M 12.359375 25.921875 
Q 12.359375 15.96875 16.703125 11.015625 
Q 21.046875 6.0625 27.640625 6.0625 
Q 34.1875 6.0625 38.53125 11.03125 
Q 42.875 16.015625 42.875 26.21875 
Q 42.875 35.84375 38.5 40.796875 
Q 34.125 45.75 27.640625 45.75 
Q 21.046875 45.75 16.703125 40.8125 
Q 12.359375 35.890625 12.359375 25.921875 
z
" id="ArialMT-6f"/>
      <path d="M 6.59375 0 
L 6.59375 51.859375 
L 14.5 51.859375 
L 14.5 44.484375 
Q 20.21875 53.03125 31 53.03125 
Q 35.6875 53.03125 39.625 51.34375 
Q 43.5625 49.65625 45.515625 46.921875 
Q 47.46875 44.1875 48.25 40.4375 
Q 48.734375 37.984375 48.734375 31.890625 
L 48.734375 0 
L 39.9375 0 
L 39.9375 31.546875 
Q 39.9375 36.921875 38.90625 39.578125 
Q 37.890625 42.234375 35.28125 43.8125 
Q 32.671875 45.40625 29.15625 45.40625 
Q 23.53125 45.40625 19.453125 41.84375 
Q 15.375 38.28125 15.375 28.328125 
L 15.375 0 
z
" id="ArialMT-6e"/>
     </defs>
     <g style="fill:#262626;" transform="translate(124.980625 294.810391)scale(0.165 -0.165)">
      <use xlink:href="#ArialMT-45"/>
      <use x="66.699219" xlink:href="#ArialMT-78"/>
      <use x="116.699219" xlink:href="#ArialMT-70"/>
      <use x="172.314453" xlink:href="#ArialMT-72"/>
      <use x="205.615234" xlink:href="#ArialMT-65"/>
      <use x="261.230469" xlink:href="#ArialMT-73"/>
      <use x="311.230469" xlink:href="#ArialMT-73"/>
      <use x="361.230469" xlink:href="#ArialMT-69"/>
      <use x="383.447266" xlink:href="#ArialMT-6f"/>
      <use x="439.0625" xlink:href="#ArialMT-6e"/>
     </g>
    </g>
   </g>
   <g id="matplotlib.axis_2">
    <g id="text_2">
     <!-- Covariate -->
     <defs>
      <path d="M 58.796875 25.09375 
L 68.265625 22.703125 
Q 65.28125 11.03125 57.546875 4.90625 
Q 49.8125 -1.21875 38.625 -1.21875 
Q 27.046875 -1.21875 19.796875 3.484375 
Q 12.546875 8.203125 8.765625 17.140625 
Q 4.984375 26.078125 4.984375 36.328125 
Q 4.984375 47.515625 9.25 55.828125 
Q 13.53125 64.15625 21.40625 68.46875 
Q 29.296875 72.796875 38.765625 72.796875 
Q 49.515625 72.796875 56.828125 67.328125 
Q 64.15625 61.859375 67.046875 51.953125 
L 57.71875 49.75 
Q 55.21875 57.5625 50.484375 61.125 
Q 45.75 64.703125 38.578125 64.703125 
Q 30.328125 64.703125 24.78125 60.734375 
Q 19.234375 56.78125 16.984375 50.109375 
Q 14.75 43.453125 14.75 36.375 
Q 14.75 27.25 17.40625 20.4375 
Q 20.0625 13.625 25.671875 10.25 
Q 31.296875 6.890625 37.84375 6.890625 
Q 45.796875 6.890625 51.3125 11.46875 
Q 56.84375 16.0625 58.796875 25.09375 
z
" id="ArialMT-43"/>
      <path d="M 21 0 
L 1.265625 51.859375 
L 10.546875 51.859375 
L 21.6875 20.796875 
Q 23.484375 15.765625 25 10.359375 
Q 26.171875 14.453125 28.265625 20.21875 
L 39.796875 51.859375 
L 48.828125 51.859375 
L 29.203125 0 
z
" id="ArialMT-76"/>
      <path d="M 40.4375 6.390625 
Q 35.546875 2.25 31.03125 0.53125 
Q 26.515625 -1.171875 21.34375 -1.171875 
Q 12.796875 -1.171875 8.203125 3 
Q 3.609375 7.171875 3.609375 13.671875 
Q 3.609375 17.484375 5.34375 20.625 
Q 7.078125 23.78125 9.890625 25.6875 
Q 12.703125 27.59375 16.21875 28.5625 
Q 18.796875 29.25 24.03125 29.890625 
Q 34.671875 31.15625 39.703125 32.90625 
Q 39.75 34.71875 39.75 35.203125 
Q 39.75 40.578125 37.25 42.78125 
Q 33.890625 45.75 27.25 45.75 
Q 21.046875 45.75 18.09375 43.578125 
Q 15.140625 41.40625 13.71875 35.890625 
L 5.125 37.0625 
Q 6.296875 42.578125 8.984375 45.96875 
Q 11.671875 49.359375 16.75 51.1875 
Q 21.828125 53.03125 28.515625 53.03125 
Q 35.15625 53.03125 39.296875 51.46875 
Q 43.453125 49.90625 45.40625 47.53125 
Q 47.359375 45.171875 48.140625 41.546875 
Q 48.578125 39.3125 48.578125 33.453125 
L 48.578125 21.734375 
Q 48.578125 9.46875 49.140625 6.21875 
Q 49.703125 2.984375 51.375 0 
L 42.1875 0 
Q 40.828125 2.734375 40.4375 6.390625 
z
M 39.703125 26.03125 
Q 34.90625 24.078125 25.34375 22.703125 
Q 19.921875 21.921875 17.671875 20.9375 
Q 15.4375 19.96875 14.203125 18.09375 
Q 12.984375 16.21875 12.984375 13.921875 
Q 12.984375 10.40625 15.640625 8.0625 
Q 18.3125 5.71875 23.4375 5.71875 
Q 28.515625 5.71875 32.46875 7.9375 
Q 36.421875 10.15625 38.28125 14.015625 
Q 39.703125 17 39.703125 22.796875 
z
" id="ArialMT-61"/>
      <path d="M 25.78125 7.859375 
L 27.046875 0.09375 
Q 23.34375 -0.6875 20.40625 -0.6875 
Q 15.625 -0.6875 12.984375 0.828125 
Q 10.359375 2.34375 9.28125 4.8125 
Q 8.203125 7.28125 8.203125 15.1875 
L 8.203125 45.015625 
L 1.765625 45.015625 
L 1.765625 51.859375 
L 8.203125 51.859375 
L 8.203125 64.703125 
L 16.9375 69.96875 
L 16.9375 51.859375 
L 25.78125 51.859375 
L 25.78125 45.015625 
L 16.9375 45.015625 
L 16.9375 14.703125 
Q 16.9375 10.9375 17.40625 9.859375 
Q 17.875 8.796875 18.921875 8.15625 
Q 19.96875 7.515625 21.921875 7.515625 
Q 23.390625 7.515625 25.78125 7.859375 
z
" id="ArialMT-74"/>
     </defs>
     <g style="fill:#262626;" transform="translate(19.010391 178.406133)rotate(-90)scale(0.165 -0.165)">
      <use xlink:href="#ArialMT-43"/>
      <use x="72.216797" xlink:href="#ArialMT-6f"/>
      <use x="127.832031" xlink:href="#ArialMT-76"/>
      <use x="177.832031" xlink:href="#ArialMT-61"/>
      <use x="233.447266" xlink:href="#ArialMT-72"/>
      <use x="266.748047" xlink:href="#ArialMT-69"/>
      <use x="288.964844" xlink:href="#ArialMT-61"/>
      <use x="344.580078" xlink:href="#ArialMT-74"/>
      <use x="372.363281" xlink:href="#ArialMT-65"/>
     </g>
    </g>
   </g>
   <g id="PathCollection_1">
    <defs>
     <path d="M 0 3.5 
C 0.928211 3.5 1.81853 3.131218 2.474874 2.474874 
C 3.131218 1.81853 3.5 0.928211 3.5 0 
C 3.5 -0.928211 3.131218 -1.81853 2.474874 -2.474874 
C 1.81853 -3.131218 0.928211 -3.5 0 -3.5 
C -0.928211 -3.5 -1.81853 -3.131218 -2.474874 -2.474874 
C -3.131218 -1.81853 -3.5 -0.928211 -3.5 0 
C -3.5 0.928211 -3.131218 1.81853 -2.474874 2.474874 
C -1.81853 3.131218 -0.928211 3.5 0 3.5 
z
" id="m8b31132600" style="stroke:#808080;stroke-width:0.3;"/>
    </defs>
    <g clip-path="url(#p90f6e9018d)">
     <use style="fill:#808080;stroke:#808080;stroke-width:0.3;" x="150.908733" xlink:href="#m8b31132600" y="205.685405"/>
     <use style="fill:#808080;stroke:#808080;stroke-width:0.3;" x="171.711965" xlink:href="#m8b31132600" y="132.407796"/>
     <use style="fill:#808080;stroke:#808080;stroke-width:0.3;" x="136.779616" xlink:href="#m8b31132600" y="94.441946"/>
     <use style="fill:#808080;stroke:#808080;stroke-width:0.3;" x="188.99583" xlink:href="#m8b31132600" y="138.641817"/>
     <use style="fill:#808080;stroke:#808080;stroke-width:0.3;" x="229.474611" xlink:href="#m8b31132600" y="129.273658"/>
     <use style="fill:#808080;stroke:#808080;stroke-width:0.3;" x="157.533482" xlink:href="#m8b31132600" y="168.231864"/>
     <use style="fill:#808080;stroke:#808080;stroke-width:0.3;" x="189.165842" xlink:href="#m8b31132600" y="138.926287"/>
     <use style="fill:#808080;stroke:#808080;stroke-width:0.3;" x="200.518257" xlink:href="#m8b31132600" y="192.416889"/>
     <use style="fill:#808080;stroke:#808080;stroke-width:0.3;" x="190.867756" xlink:href="#m8b31132600" y="158.292038"/>
     <use style="fill:#808080;stroke:#808080;stroke-width:0.3;" x="152.652511" xlink:href="#m8b31132600" y="91.278956"/>
     <use style="fill:#808080;stroke:#808080;stroke-width:0.3;" x="191.326189" xlink:href="#m8b31132600" y="199.150602"/>
     <use style="fill:#808080;stroke:#808080;stroke-width:0.3;" x="175.67377" xlink:href="#m8b31132600" y="129.878837"/>
     <use style="fill:#808080;stroke:#808080;stroke-width:0.3;" x="243.174903" xlink:href="#m8b31132600" y="119.920832"/>
     <use style="fill:#808080;stroke:#808080;stroke-width:0.3;" x="114.091124" xlink:href="#m8b31132600" y="132.27116"/>
     <use style="fill:#808080;stroke:#808080;stroke-width:0.3;" x="120.760528" xlink:href="#m8b31132600" y="88.109552"/>
     <use style="fill:#808080;stroke:#808080;stroke-width:0.3;" x="140.052917" xlink:href="#m8b31132600" y="178.686637"/>
     <use style="fill:#808080;stroke:#808080;stroke-width:0.3;" x="219.302589" xlink:href="#m8b31132600" y="92.709605"/>
     <use style="fill:#808080;stroke:#808080;stroke-width:0.3;" x="134.275614" xlink:href="#m8b31132600" y="95.722828"/>
     <use style="fill:#808080;stroke:#808080;stroke-width:0.3;" x="90.76669" xlink:href="#m8b31132600" y="191.979242"/>
     <use style="fill:#808080;stroke:#808080;stroke-width:0.3;" x="139.147386" xlink:href="#m8b31132600" y="130.364218"/>
     <use style="fill:#808080;stroke:#808080;stroke-width:0.3;" x="179.293769" xlink:href="#m8b31132600" y="196.975525"/>
     <use style="fill:#808080;stroke:#808080;stroke-width:0.3;" x="152.647278" xlink:href="#m8b31132600" y="195.81834"/>
     <use style="fill:#808080;stroke:#808080;stroke-width:0.3;" x="163.223367" xlink:href="#m8b31132600" y="148.119199"/>
     <use style="fill:#808080;stroke:#808080;stroke-width:0.3;" x="152.355214" xlink:href="#m8b31132600" y="177.523945"/>
     <use style="fill:#808080;stroke:#808080;stroke-width:0.3;" x="135.961607" xlink:href="#m8b31132600" y="180.017154"/>
     <use style="fill:#808080;stroke:#808080;stroke-width:0.3;" x="96.915438" xlink:href="#m8b31132600" y="70.27958"/>
     <use style="fill:#808080;stroke:#808080;stroke-width:0.3;" x="208.87149" xlink:href="#m8b31132600" y="145.529696"/>
     <use style="fill:#808080;stroke:#808080;stroke-width:0.3;" x="181.933248" xlink:href="#m8b31132600" y="91.667863"/>
     <use style="fill:#808080;stroke:#808080;stroke-width:0.3;" x="209.856391" xlink:href="#m8b31132600" y="136.636455"/>
     <use style="fill:#808080;stroke:#808080;stroke-width:0.3;" x="130.981253" xlink:href="#m8b31132600" y="131.129051"/>
     <use style="fill:#808080;stroke:#808080;stroke-width:0.3;" x="228.948181" xlink:href="#m8b31132600" y="155.224637"/>
     <use style="fill:#808080;stroke:#808080;stroke-width:0.3;" x="238.505723" xlink:href="#m8b31132600" y="189.184857"/>
     <use style="fill:#808080;stroke:#808080;stroke-width:0.3;" x="147.272284" xlink:href="#m8b31132600" y="138.254452"/>
     <use style="fill:#808080;stroke:#808080;stroke-width:0.3;" x="145.658769" xlink:href="#m8b31132600" y="131.010777"/>
     <use style="fill:#808080;stroke:#808080;stroke-width:0.3;" x="203.076803" xlink:href="#m8b31132600" y="181.631087"/>
     <use style="fill:#808080;stroke:#808080;stroke-width:0.3;" x="146.622615" xlink:href="#m8b31132600" y="148.42407"/>
     <use style="fill:#808080;stroke:#808080;stroke-width:0.3;" x="155.839341" xlink:href="#m8b31132600" y="128.192746"/>
     <use style="fill:#808080;stroke:#808080;stroke-width:0.3;" x="195.159416" xlink:href="#m8b31132600" y="173.448396"/>
     <use style="fill:#808080;stroke:#808080;stroke-width:0.3;" x="140.067589" xlink:href="#m8b31132600" y="191.033583"/>
     <use style="fill:#808080;stroke:#808080;stroke-width:0.3;" x="158.161259" xlink:href="#m8b31132600" y="224.992738"/>
     <use style="fill:#808080;stroke:#808080;stroke-width:0.3;" x="145.120022" xlink:href="#m8b31132600" y="129.949809"/>
     <use style="fill:#808080;stroke:#808080;stroke-width:0.3;" x="160.614198" xlink:href="#m8b31132600" y="157.360088"/>
     <use style="fill:#808080;stroke:#808080;stroke-width:0.3;" x="104.09832" xlink:href="#m8b31132600" y="163.615785"/>
     <use style="fill:#808080;stroke:#808080;stroke-width:0.3;" x="157.675537" xlink:href="#m8b31132600" y="96.11791"/>
     <use style="fill:#808080;stroke:#808080;stroke-width:0.3;" x="125.194751" xlink:href="#m8b31132600" y="169.330498"/>
     <use style="fill:#808080;stroke:#808080;stroke-width:0.3;" x="207.737052" xlink:href="#m8b31132600" y="160.84849"/>
     <use style="fill:#808080;stroke:#808080;stroke-width:0.3;" x="255.053422" xlink:href="#m8b31132600" y="184.146576"/>
     <use style="fill:#808080;stroke:#808080;stroke-width:0.3;" x="191.427689" xlink:href="#m8b31132600" y="155.986983"/>
     <use style="fill:#808080;stroke:#808080;stroke-width:0.3;" x="142.438869" xlink:href="#m8b31132600" y="139.976609"/>
     <use style="fill:#808080;stroke:#808080;stroke-width:0.3;" x="180.505517" xlink:href="#m8b31132600" y="166.520849"/>
     <use style="fill:#808080;stroke:#808080;stroke-width:0.3;" x="191.831745" xlink:href="#m8b31132600" y="134.38782"/>
     <use style="fill:#808080;stroke:#808080;stroke-width:0.3;" x="145.507108" xlink:href="#m8b31132600" y="188.515509"/>
     <use style="fill:#808080;stroke:#808080;stroke-width:0.3;" x="154.543385" xlink:href="#m8b31132600" y="36.967374"/>
     <use style="fill:#808080;stroke:#808080;stroke-width:0.3;" x="125.194889" xlink:href="#m8b31132600" y="116.947343"/>
     <use style="fill:#808080;stroke:#808080;stroke-width:0.3;" x="272.541746" xlink:href="#m8b31132600" y="99.09367"/>
     <use style="fill:#808080;stroke:#808080;stroke-width:0.3;" x="195.958272" xlink:href="#m8b31132600" y="170.55671"/>
     <use style="fill:#808080;stroke:#808080;stroke-width:0.3;" x="139.544962" xlink:href="#m8b31132600" y="239.832474"/>
     <use style="fill:#808080;stroke:#808080;stroke-width:0.3;" x="183.785502" xlink:href="#m8b31132600" y="152.770462"/>
     <use style="fill:#808080;stroke:#808080;stroke-width:0.3;" x="147.367471" xlink:href="#m8b31132600" y="110.186239"/>
     <use style="fill:#808080;stroke:#808080;stroke-width:0.3;" x="215.903824" xlink:href="#m8b31132600" y="177.324016"/>
     <use style="fill:#808080;stroke:#808080;stroke-width:0.3;" x="192.234759" xlink:href="#m8b31132600" y="165.933253"/>
     <use style="fill:#808080;stroke:#808080;stroke-width:0.3;" x="131.482888" xlink:href="#m8b31132600" y="166.898415"/>
     <use style="fill:#808080;stroke:#808080;stroke-width:0.3;" x="141.038178" xlink:href="#m8b31132600" y="187.273665"/>
     <use style="fill:#808080;stroke:#808080;stroke-width:0.3;" x="202.293678" xlink:href="#m8b31132600" y="188.131951"/>
     <use style="fill:#808080;stroke:#808080;stroke-width:0.3;" x="205.695034" xlink:href="#m8b31132600" y="143.513618"/>
     <use style="fill:#808080;stroke:#808080;stroke-width:0.3;" x="220.659976" xlink:href="#m8b31132600" y="126.84015"/>
     <use style="fill:#808080;stroke:#808080;stroke-width:0.3;" x="212.762921" xlink:href="#m8b31132600" y="164.296366"/>
     <use style="fill:#808080;stroke:#808080;stroke-width:0.3;" x="257.148662" xlink:href="#m8b31132600" y="120.10879"/>
     <use style="fill:#808080;stroke:#808080;stroke-width:0.3;" x="228.50293" xlink:href="#m8b31132600" y="106.29891"/>
     <use style="fill:#808080;stroke:#808080;stroke-width:0.3;" x="117.434012" xlink:href="#m8b31132600" y="176.671681"/>
     <use style="fill:#808080;stroke:#808080;stroke-width:0.3;" x="214.254822" xlink:href="#m8b31132600" y="194.845219"/>
     <use style="fill:#808080;stroke:#808080;stroke-width:0.3;" x="155.099779" xlink:href="#m8b31132600" y="193.075766"/>
     <use style="fill:#808080;stroke:#808080;stroke-width:0.3;" x="123.0906" xlink:href="#m8b31132600" y="153.090021"/>
     <use style="fill:#808080;stroke:#808080;stroke-width:0.3;" x="125.412906" xlink:href="#m8b31132600" y="235.904079"/>
     <use style="fill:#808080;stroke:#808080;stroke-width:0.3;" x="135.679534" xlink:href="#m8b31132600" y="130.393043"/>
     <use style="fill:#808080;stroke:#808080;stroke-width:0.3;" x="267.991941" xlink:href="#m8b31132600" y="160.569765"/>
     <use style="fill:#808080;stroke:#808080;stroke-width:0.3;" x="71.268766" xlink:href="#m8b31132600" y="145.018123"/>
     <use style="fill:#808080;stroke:#808080;stroke-width:0.3;" x="92.704452" xlink:href="#m8b31132600" y="165.587925"/>
     <use style="fill:#808080;stroke:#808080;stroke-width:0.3;" x="132.18787" xlink:href="#m8b31132600" y="144.627325"/>
     <use style="fill:#808080;stroke:#808080;stroke-width:0.3;" x="174.257774" xlink:href="#m8b31132600" y="101.245464"/>
     <use style="fill:#808080;stroke:#808080;stroke-width:0.3;" x="196.675101" xlink:href="#m8b31132600" y="110.574519"/>
     <use style="fill:#808080;stroke:#808080;stroke-width:0.3;" x="191.767851" xlink:href="#m8b31132600" y="168.292355"/>
     <use style="fill:#808080;stroke:#808080;stroke-width:0.3;" x="185.237957" xlink:href="#m8b31132600" y="141.502506"/>
     <use style="fill:#808080;stroke:#808080;stroke-width:0.3;" x="114.296417" xlink:href="#m8b31132600" y="124.781365"/>
     <use style="fill:#808080;stroke:#808080;stroke-width:0.3;" x="152.608418" xlink:href="#m8b31132600" y="129.322644"/>
     <use style="fill:#808080;stroke:#808080;stroke-width:0.3;" x="185.24734" xlink:href="#m8b31132600" y="97.962038"/>
     <use style="fill:#808080;stroke:#808080;stroke-width:0.3;" x="229.020277" xlink:href="#m8b31132600" y="139.685153"/>
     <use style="fill:#808080;stroke:#808080;stroke-width:0.3;" x="165.359086" xlink:href="#m8b31132600" y="160.471319"/>
     <use style="fill:#808080;stroke:#808080;stroke-width:0.3;" x="191.372709" xlink:href="#m8b31132600" y="117.377317"/>
     <use style="fill:#808080;stroke:#808080;stroke-width:0.3;" x="137.819225" xlink:href="#m8b31132600" y="108.083512"/>
     <use style="fill:#808080;stroke:#808080;stroke-width:0.3;" x="199.105288" xlink:href="#m8b31132600" y="95.705867"/>
     <use style="fill:#808080;stroke:#808080;stroke-width:0.3;" x="147.132586" xlink:href="#m8b31132600" y="170.592303"/>
     <use style="fill:#808080;stroke:#808080;stroke-width:0.3;" x="197.22133" xlink:href="#m8b31132600" y="143.559209"/>
     <use style="fill:#808080;stroke:#808080;stroke-width:0.3;" x="229.382672" xlink:href="#m8b31132600" y="194.939706"/>
     <use style="fill:#808080;stroke:#808080;stroke-width:0.3;" x="210.998042" xlink:href="#m8b31132600" y="131.125696"/>
     <use style="fill:#808080;stroke:#808080;stroke-width:0.3;" x="209.068493" xlink:href="#m8b31132600" y="104.421636"/>
     <use style="fill:#808080;stroke:#808080;stroke-width:0.3;" x="150.340346" xlink:href="#m8b31132600" y="107.571141"/>
     <use style="fill:#808080;stroke:#808080;stroke-width:0.3;" x="141.912429" xlink:href="#m8b31132600" y="158.514155"/>
     <use style="fill:#808080;stroke:#808080;stroke-width:0.3;" x="179.336731" xlink:href="#m8b31132600" y="107.124861"/>
     <use style="fill:#808080;stroke:#808080;stroke-width:0.3;" x="135.589108" xlink:href="#m8b31132600" y="136.860953"/>
    </g>
   </g>
   <g id="patch_3">
    <path d="M 26.289766 279 
L 26.289766 7.2 
" style="fill:none;stroke:#262626;stroke-linecap:square;stroke-linejoin:miter;stroke-width:1.25;"/>
   </g>
   <g id="patch_4">
    <path d="M 305.289766 279 
L 305.289766 7.2 
" style="fill:none;stroke:#262626;stroke-linecap:square;stroke-linejoin:miter;stroke-width:1.25;"/>
   </g>
   <g id="patch_5">
    <path d="M 26.289766 279 
L 305.289766 279 
" style="fill:none;stroke:#262626;stroke-linecap:square;stroke-linejoin:miter;stroke-width:1.25;"/>
   </g>
   <g id="patch_6">
    <path d="M 26.289766 7.2 
L 305.289766 7.2 
" style="fill:none;stroke:#262626;stroke-linecap:square;stroke-linejoin:miter;stroke-width:1.25;"/>
   </g>
  </g>
 </g>
 <defs>
  <clipPath id="p90f6e9018d">
   <rect height="271.8" width="279" x="26.289766" y="7.2"/>
  </clipPath>
 </defs>
</svg>
