<?xml version="1.0" encoding="utf-8" standalone="no"?>
<!DOCTYPE svg PUBLIC "-//W3C//DTD SVG 1.1//EN"
  "http://www.w3.org/Graphics/SVG/1.1/DTD/svg11.dtd">
<!-- Created with matplotlib (http://matplotlib.org/) -->
<svg height="363.930172pt" version="1.1" viewBox="0 0 730.939766 363.930172" width="730.939766pt" xmlns="http://www.w3.org/2000/svg" xmlns:xlink="http://www.w3.org/1999/xlink">
 <defs>
  <style type="text/css">
*{stroke-linecap:butt;stroke-linejoin:round;}
  </style>
 </defs>
 <g id="figure_1">
  <g id="patch_1">
   <path d="M 0 363.930172 
L 730.939766 363.930172 
L 730.939766 0 
L 0 0 
z
" style="fill:#ffffff;"/>
  </g>
  <g id="axes_1">
   <g id="patch_2">
    <path d="M 54.139766 316.922437 
L 358.503402 316.922437 
L 358.503402 45.122437 
L 54.139766 45.122437 
z
" style="fill:#ffffff;"/>
   </g>
   <g id="matplotlib.axis_1">
    <g id="xtick_1">
     <g id="line2d_1"/>
     <g id="text_1">
      <!-- 0.0 -->
      <defs>
       <path d="M 4.15625 35.296875 
Q 4.15625 48 6.765625 55.734375 
Q 9.375 63.484375 14.515625 67.671875 
Q 19.671875 71.875 27.484375 71.875 
Q 33.25 71.875 37.59375 69.546875 
Q 41.9375 67.234375 44.765625 62.859375 
Q 47.609375 58.5 49.21875 52.21875 
Q 50.828125 45.953125 50.828125 35.296875 
Q 50.828125 22.703125 48.234375 14.96875 
Q 45.65625 7.234375 40.5 3 
Q 35.359375 -1.21875 27.484375 -1.21875 
Q 17.140625 -1.21875 11.234375 6.203125 
Q 4.15625 15.140625 4.15625 35.296875 
z
M 13.1875 35.296875 
Q 13.1875 17.671875 17.3125 11.828125 
Q 21.4375 6 27.484375 6 
Q 33.546875 6 37.671875 11.859375 
Q 41.796875 17.71875 41.796875 35.296875 
Q 41.796875 52.984375 37.671875 58.78125 
Q 33.546875 64.59375 27.390625 64.59375 
Q 21.34375 64.59375 17.71875 59.46875 
Q 13.1875 52.9375 13.1875 35.296875 
z
" id="ArialMT-30"/>
       <path d="M 9.078125 0 
L 9.078125 10.015625 
L 19.09375 10.015625 
L 19.09375 0 
z
" id="ArialMT-2e"/>
      </defs>
      <g style="fill:#262626;" transform="translate(57.549476 334.659156)scale(0.15 -0.15)">
       <use xlink:href="#ArialMT-30"/>
       <use x="55.615234" xlink:href="#ArialMT-2e"/>
       <use x="83.398438" xlink:href="#ArialMT-30"/>
      </g>
     </g>
    </g>
    <g id="xtick_2">
     <g id="line2d_2"/>
     <g id="text_2">
      <!-- 0.2 -->
      <defs>
       <path d="M 50.34375 8.453125 
L 50.34375 0 
L 3.03125 0 
Q 2.9375 3.171875 4.046875 6.109375 
Q 5.859375 10.9375 9.828125 15.625 
Q 13.8125 20.3125 21.34375 26.46875 
Q 33.015625 36.03125 37.109375 41.625 
Q 41.21875 47.21875 41.21875 52.203125 
Q 41.21875 57.421875 37.46875 61 
Q 33.734375 64.59375 27.734375 64.59375 
Q 21.390625 64.59375 17.578125 60.78125 
Q 13.765625 56.984375 13.71875 50.25 
L 4.6875 51.171875 
Q 5.609375 61.28125 11.65625 66.578125 
Q 17.71875 71.875 27.9375 71.875 
Q 38.234375 71.875 44.234375 66.15625 
Q 50.25 60.453125 50.25 52 
Q 50.25 47.703125 48.484375 43.546875 
Q 46.734375 39.40625 42.65625 34.8125 
Q 38.578125 30.21875 29.109375 22.21875 
Q 21.1875 15.578125 18.9375 13.203125 
Q 16.703125 10.84375 15.234375 8.453125 
z
" id="ArialMT-32"/>
      </defs>
      <g style="fill:#262626;" transform="translate(112.888319 334.659156)scale(0.15 -0.15)">
       <use xlink:href="#ArialMT-30"/>
       <use x="55.615234" xlink:href="#ArialMT-2e"/>
       <use x="83.398438" xlink:href="#ArialMT-32"/>
      </g>
     </g>
    </g>
    <g id="xtick_3">
     <g id="line2d_3"/>
     <g id="text_3">
      <!-- 0.4 -->
      <defs>
       <path d="M 32.328125 0 
L 32.328125 17.140625 
L 1.265625 17.140625 
L 1.265625 25.203125 
L 33.9375 71.578125 
L 41.109375 71.578125 
L 41.109375 25.203125 
L 50.78125 25.203125 
L 50.78125 17.140625 
L 41.109375 17.140625 
L 41.109375 0 
z
M 32.328125 25.203125 
L 32.328125 57.46875 
L 9.90625 25.203125 
z
" id="ArialMT-34"/>
      </defs>
      <g style="fill:#262626;" transform="translate(168.227162 334.659156)scale(0.15 -0.15)">
       <use xlink:href="#ArialMT-30"/>
       <use x="55.615234" xlink:href="#ArialMT-2e"/>
       <use x="83.398438" xlink:href="#ArialMT-34"/>
      </g>
     </g>
    </g>
    <g id="xtick_4">
     <g id="line2d_4"/>
     <g id="text_4">
      <!-- 0.6 -->
      <defs>
       <path d="M 49.75 54.046875 
L 41.015625 53.375 
Q 39.84375 58.546875 37.703125 60.890625 
Q 34.125 64.65625 28.90625 64.65625 
Q 24.703125 64.65625 21.53125 62.3125 
Q 17.390625 59.28125 14.984375 53.46875 
Q 12.59375 47.65625 12.5 36.921875 
Q 15.671875 41.75 20.265625 44.09375 
Q 24.859375 46.4375 29.890625 46.4375 
Q 38.671875 46.4375 44.84375 39.96875 
Q 51.03125 33.5 51.03125 23.25 
Q 51.03125 16.5 48.125 10.71875 
Q 45.21875 4.9375 40.140625 1.859375 
Q 35.0625 -1.21875 28.609375 -1.21875 
Q 17.625 -1.21875 10.6875 6.859375 
Q 3.765625 14.9375 3.765625 33.5 
Q 3.765625 54.25 11.421875 63.671875 
Q 18.109375 71.875 29.4375 71.875 
Q 37.890625 71.875 43.28125 67.140625 
Q 48.6875 62.40625 49.75 54.046875 
z
M 13.875 23.1875 
Q 13.875 18.65625 15.796875 14.5 
Q 17.71875 10.359375 21.1875 8.171875 
Q 24.65625 6 28.46875 6 
Q 34.03125 6 38.03125 10.484375 
Q 42.046875 14.984375 42.046875 22.703125 
Q 42.046875 30.125 38.078125 34.390625 
Q 34.125 38.671875 28.125 38.671875 
Q 22.171875 38.671875 18.015625 34.390625 
Q 13.875 30.125 13.875 23.1875 
z
" id="ArialMT-36"/>
      </defs>
      <g style="fill:#262626;" transform="translate(223.566005 334.659156)scale(0.15 -0.15)">
       <use xlink:href="#ArialMT-30"/>
       <use x="55.615234" xlink:href="#ArialMT-2e"/>
       <use x="83.398438" xlink:href="#ArialMT-36"/>
      </g>
     </g>
    </g>
    <g id="xtick_5">
     <g id="line2d_5"/>
     <g id="text_5">
      <!-- 0.8 -->
      <defs>
       <path d="M 17.671875 38.8125 
Q 12.203125 40.828125 9.5625 44.53125 
Q 6.9375 48.25 6.9375 53.421875 
Q 6.9375 61.234375 12.546875 66.546875 
Q 18.171875 71.875 27.484375 71.875 
Q 36.859375 71.875 42.578125 66.421875 
Q 48.296875 60.984375 48.296875 53.171875 
Q 48.296875 48.1875 45.671875 44.5 
Q 43.0625 40.828125 37.75 38.8125 
Q 44.34375 36.671875 47.78125 31.875 
Q 51.21875 27.09375 51.21875 20.453125 
Q 51.21875 11.28125 44.71875 5.03125 
Q 38.234375 -1.21875 27.640625 -1.21875 
Q 17.046875 -1.21875 10.546875 5.046875 
Q 4.046875 11.328125 4.046875 20.703125 
Q 4.046875 27.6875 7.59375 32.390625 
Q 11.140625 37.109375 17.671875 38.8125 
z
M 15.921875 53.71875 
Q 15.921875 48.640625 19.1875 45.40625 
Q 22.46875 42.1875 27.6875 42.1875 
Q 32.765625 42.1875 36.015625 45.375 
Q 39.265625 48.578125 39.265625 53.21875 
Q 39.265625 58.0625 35.90625 61.359375 
Q 32.5625 64.65625 27.59375 64.65625 
Q 22.5625 64.65625 19.234375 61.421875 
Q 15.921875 58.203125 15.921875 53.71875 
z
M 13.09375 20.65625 
Q 13.09375 16.890625 14.875 13.375 
Q 16.65625 9.859375 20.171875 7.921875 
Q 23.6875 6 27.734375 6 
Q 34.03125 6 38.125 10.046875 
Q 42.234375 14.109375 42.234375 20.359375 
Q 42.234375 26.703125 38.015625 30.859375 
Q 33.796875 35.015625 27.4375 35.015625 
Q 21.234375 35.015625 17.15625 30.90625 
Q 13.09375 26.8125 13.09375 20.65625 
z
" id="ArialMT-38"/>
      </defs>
      <g style="fill:#262626;" transform="translate(278.904848 334.659156)scale(0.15 -0.15)">
       <use xlink:href="#ArialMT-30"/>
       <use x="55.615234" xlink:href="#ArialMT-2e"/>
       <use x="83.398438" xlink:href="#ArialMT-38"/>
      </g>
     </g>
    </g>
    <g id="xtick_6">
     <g id="line2d_6"/>
     <g id="text_6">
      <!-- 1.0 -->
      <defs>
       <path d="M 37.25 0 
L 28.46875 0 
L 28.46875 56 
Q 25.296875 52.984375 20.140625 49.953125 
Q 14.984375 46.921875 10.890625 45.40625 
L 10.890625 53.90625 
Q 18.265625 57.375 23.78125 62.296875 
Q 29.296875 67.234375 31.59375 71.875 
L 37.25 71.875 
z
" id="ArialMT-31"/>
      </defs>
      <g style="fill:#262626;" transform="translate(334.243691 334.659156)scale(0.15 -0.15)">
       <use xlink:href="#ArialMT-31"/>
       <use x="55.615234" xlink:href="#ArialMT-2e"/>
       <use x="83.398438" xlink:href="#ArialMT-30"/>
      </g>
     </g>
    </g>
    <g id="text_7">
     <!-- False Positive Rate -->
     <defs>
      <path d="M 8.203125 0 
L 8.203125 71.578125 
L 56.5 71.578125 
L 56.5 63.140625 
L 17.671875 63.140625 
L 17.671875 40.96875 
L 51.265625 40.96875 
L 51.265625 32.515625 
L 17.671875 32.515625 
L 17.671875 0 
z
" id="ArialMT-46"/>
      <path d="M 40.4375 6.390625 
Q 35.546875 2.25 31.03125 0.53125 
Q 26.515625 -1.171875 21.34375 -1.171875 
Q 12.796875 -1.171875 8.203125 3 
Q 3.609375 7.171875 3.609375 13.671875 
Q 3.609375 17.484375 5.34375 20.625 
Q 7.078125 23.78125 9.890625 25.6875 
Q 12.703125 27.59375 16.21875 28.5625 
Q 18.796875 29.25 24.03125 29.890625 
Q 34.671875 31.15625 39.703125 32.90625 
Q 39.75 34.71875 39.75 35.203125 
Q 39.75 40.578125 37.25 42.78125 
Q 33.890625 45.75 27.25 45.75 
Q 21.046875 45.75 18.09375 43.578125 
Q 15.140625 41.40625 13.71875 35.890625 
L 5.125 37.0625 
Q 6.296875 42.578125 8.984375 45.96875 
Q 11.671875 49.359375 16.75 51.1875 
Q 21.828125 53.03125 28.515625 53.03125 
Q 35.15625 53.03125 39.296875 51.46875 
Q 43.453125 49.90625 45.40625 47.53125 
Q 47.359375 45.171875 48.140625 41.546875 
Q 48.578125 39.3125 48.578125 33.453125 
L 48.578125 21.734375 
Q 48.578125 9.46875 49.140625 6.21875 
Q 49.703125 2.984375 51.375 0 
L 42.1875 0 
Q 40.828125 2.734375 40.4375 6.390625 
z
M 39.703125 26.03125 
Q 34.90625 24.078125 25.34375 22.703125 
Q 19.921875 21.921875 17.671875 20.9375 
Q 15.4375 19.96875 14.203125 18.09375 
Q 12.984375 16.21875 12.984375 13.921875 
Q 12.984375 10.40625 15.640625 8.0625 
Q 18.3125 5.71875 23.4375 5.71875 
Q 28.515625 5.71875 32.46875 7.9375 
Q 36.421875 10.15625 38.28125 14.015625 
Q 39.703125 17 39.703125 22.796875 
z
" id="ArialMT-61"/>
      <path d="M 6.390625 0 
L 6.390625 71.578125 
L 15.1875 71.578125 
L 15.1875 0 
z
" id="ArialMT-6c"/>
      <path d="M 3.078125 15.484375 
L 11.765625 16.84375 
Q 12.5 11.625 15.84375 8.84375 
Q 19.1875 6.0625 25.203125 6.0625 
Q 31.25 6.0625 34.171875 8.515625 
Q 37.109375 10.984375 37.109375 14.3125 
Q 37.109375 17.28125 34.515625 19 
Q 32.71875 20.171875 25.53125 21.96875 
Q 15.875 24.421875 12.140625 26.203125 
Q 8.40625 27.984375 6.46875 31.125 
Q 4.546875 34.28125 4.546875 38.09375 
Q 4.546875 41.546875 6.125 44.5 
Q 7.71875 47.46875 10.453125 49.421875 
Q 12.5 50.921875 16.03125 51.96875 
Q 19.578125 53.03125 23.640625 53.03125 
Q 29.734375 53.03125 34.34375 51.265625 
Q 38.96875 49.515625 41.15625 46.5 
Q 43.359375 43.5 44.1875 38.484375 
L 35.59375 37.3125 
Q 35.015625 41.3125 32.203125 43.546875 
Q 29.390625 45.796875 24.265625 45.796875 
Q 18.21875 45.796875 15.625 43.796875 
Q 13.03125 41.796875 13.03125 39.109375 
Q 13.03125 37.40625 14.109375 36.03125 
Q 15.1875 34.625 17.484375 33.6875 
Q 18.796875 33.203125 25.25 31.453125 
Q 34.578125 28.953125 38.25 27.359375 
Q 41.9375 25.78125 44.03125 22.75 
Q 46.140625 19.734375 46.140625 15.234375 
Q 46.140625 10.84375 43.578125 6.953125 
Q 41.015625 3.078125 36.171875 0.953125 
Q 31.34375 -1.171875 25.25 -1.171875 
Q 15.140625 -1.171875 9.84375 3.03125 
Q 4.546875 7.234375 3.078125 15.484375 
z
" id="ArialMT-73"/>
      <path d="M 42.09375 16.703125 
L 51.171875 15.578125 
Q 49.03125 7.625 43.21875 3.21875 
Q 37.40625 -1.171875 28.375 -1.171875 
Q 17 -1.171875 10.328125 5.828125 
Q 3.65625 12.84375 3.65625 25.484375 
Q 3.65625 38.578125 10.390625 45.796875 
Q 17.140625 53.03125 27.875 53.03125 
Q 38.28125 53.03125 44.875 45.953125 
Q 51.46875 38.875 51.46875 26.03125 
Q 51.46875 25.25 51.421875 23.6875 
L 12.75 23.6875 
Q 13.234375 15.140625 17.578125 10.59375 
Q 21.921875 6.0625 28.421875 6.0625 
Q 33.25 6.0625 36.671875 8.59375 
Q 40.09375 11.140625 42.09375 16.703125 
z
M 13.234375 30.90625 
L 42.1875 30.90625 
Q 41.609375 37.453125 38.875 40.71875 
Q 34.671875 45.796875 27.984375 45.796875 
Q 21.921875 45.796875 17.796875 41.75 
Q 13.671875 37.703125 13.234375 30.90625 
z
" id="ArialMT-65"/>
      <path id="ArialMT-20"/>
      <path d="M 7.71875 0 
L 7.71875 71.578125 
L 34.71875 71.578125 
Q 41.84375 71.578125 45.609375 70.90625 
Q 50.875 70.015625 54.4375 67.546875 
Q 58.015625 65.09375 60.1875 60.640625 
Q 62.359375 56.203125 62.359375 50.875 
Q 62.359375 41.75 56.546875 35.421875 
Q 50.734375 29.109375 35.546875 29.109375 
L 17.1875 29.109375 
L 17.1875 0 
z
M 17.1875 37.546875 
L 35.6875 37.546875 
Q 44.875 37.546875 48.734375 40.96875 
Q 52.59375 44.390625 52.59375 50.59375 
Q 52.59375 55.078125 50.3125 58.265625 
Q 48.046875 61.46875 44.34375 62.5 
Q 41.9375 63.140625 35.5 63.140625 
L 17.1875 63.140625 
z
" id="ArialMT-50"/>
      <path d="M 3.328125 25.921875 
Q 3.328125 40.328125 11.328125 47.265625 
Q 18.015625 53.03125 27.640625 53.03125 
Q 38.328125 53.03125 45.109375 46.015625 
Q 51.90625 39.015625 51.90625 26.65625 
Q 51.90625 16.65625 48.90625 10.90625 
Q 45.90625 5.171875 40.15625 2 
Q 34.421875 -1.171875 27.640625 -1.171875 
Q 16.75 -1.171875 10.03125 5.8125 
Q 3.328125 12.796875 3.328125 25.921875 
z
M 12.359375 25.921875 
Q 12.359375 15.96875 16.703125 11.015625 
Q 21.046875 6.0625 27.640625 6.0625 
Q 34.1875 6.0625 38.53125 11.03125 
Q 42.875 16.015625 42.875 26.21875 
Q 42.875 35.84375 38.5 40.796875 
Q 34.125 45.75 27.640625 45.75 
Q 21.046875 45.75 16.703125 40.8125 
Q 12.359375 35.890625 12.359375 25.921875 
z
" id="ArialMT-6f"/>
      <path d="M 6.640625 61.46875 
L 6.640625 71.578125 
L 15.4375 71.578125 
L 15.4375 61.46875 
z
M 6.640625 0 
L 6.640625 51.859375 
L 15.4375 51.859375 
L 15.4375 0 
z
" id="ArialMT-69"/>
      <path d="M 25.78125 7.859375 
L 27.046875 0.09375 
Q 23.34375 -0.6875 20.40625 -0.6875 
Q 15.625 -0.6875 12.984375 0.828125 
Q 10.359375 2.34375 9.28125 4.8125 
Q 8.203125 7.28125 8.203125 15.1875 
L 8.203125 45.015625 
L 1.765625 45.015625 
L 1.765625 51.859375 
L 8.203125 51.859375 
L 8.203125 64.703125 
L 16.9375 69.96875 
L 16.9375 51.859375 
L 25.78125 51.859375 
L 25.78125 45.015625 
L 16.9375 45.015625 
L 16.9375 14.703125 
Q 16.9375 10.9375 17.40625 9.859375 
Q 17.875 8.796875 18.921875 8.15625 
Q 19.96875 7.515625 21.921875 7.515625 
Q 23.390625 7.515625 25.78125 7.859375 
z
" id="ArialMT-74"/>
      <path d="M 21 0 
L 1.265625 51.859375 
L 10.546875 51.859375 
L 21.6875 20.796875 
Q 23.484375 15.765625 25 10.359375 
Q 26.171875 14.453125 28.265625 20.21875 
L 39.796875 51.859375 
L 48.828125 51.859375 
L 29.203125 0 
z
" id="ArialMT-76"/>
      <path d="M 7.859375 0 
L 7.859375 71.578125 
L 39.59375 71.578125 
Q 49.171875 71.578125 54.140625 69.640625 
Q 59.125 67.71875 62.109375 62.828125 
Q 65.09375 57.953125 65.09375 52.046875 
Q 65.09375 44.4375 60.15625 39.203125 
Q 55.21875 33.984375 44.921875 32.5625 
Q 48.6875 30.765625 50.640625 29 
Q 54.78125 25.203125 58.5 19.484375 
L 70.953125 0 
L 59.03125 0 
L 49.5625 14.890625 
Q 45.40625 21.34375 42.71875 24.75 
Q 40.046875 28.171875 37.921875 29.53125 
Q 35.796875 30.90625 33.59375 31.453125 
Q 31.984375 31.78125 28.328125 31.78125 
L 17.328125 31.78125 
L 17.328125 0 
z
M 17.328125 39.984375 
L 37.703125 39.984375 
Q 44.1875 39.984375 47.84375 41.328125 
Q 51.515625 42.671875 53.421875 45.625 
Q 55.328125 48.578125 55.328125 52.046875 
Q 55.328125 57.125 51.640625 60.390625 
Q 47.953125 63.671875 39.984375 63.671875 
L 17.328125 63.671875 
z
" id="ArialMT-52"/>
     </defs>
     <g style="fill:#262626;" transform="translate(135.25299 353.450797)scale(0.165 -0.165)">
      <use xlink:href="#ArialMT-46"/>
      <use x="61.083984" xlink:href="#ArialMT-61"/>
      <use x="116.699219" xlink:href="#ArialMT-6c"/>
      <use x="138.916016" xlink:href="#ArialMT-73"/>
      <use x="188.916016" xlink:href="#ArialMT-65"/>
      <use x="244.53125" xlink:href="#ArialMT-20"/>
      <use x="272.314453" xlink:href="#ArialMT-50"/>
      <use x="339.013672" xlink:href="#ArialMT-6f"/>
      <use x="394.628906" xlink:href="#ArialMT-73"/>
      <use x="444.628906" xlink:href="#ArialMT-69"/>
      <use x="466.845703" xlink:href="#ArialMT-74"/>
      <use x="494.628906" xlink:href="#ArialMT-69"/>
      <use x="516.845703" xlink:href="#ArialMT-76"/>
      <use x="566.845703" xlink:href="#ArialMT-65"/>
      <use x="622.460938" xlink:href="#ArialMT-20"/>
      <use x="650.244141" xlink:href="#ArialMT-52"/>
      <use x="722.460938" xlink:href="#ArialMT-61"/>
      <use x="778.076172" xlink:href="#ArialMT-74"/>
      <use x="805.859375" xlink:href="#ArialMT-65"/>
     </g>
    </g>
   </g>
   <g id="matplotlib.axis_2">
    <g id="ytick_1">
     <g id="line2d_7"/>
     <g id="text_8">
      <!-- 0.0 -->
      <g style="fill:#262626;" transform="translate(26.289766 312.457587)scale(0.15 -0.15)">
       <use xlink:href="#ArialMT-30"/>
       <use x="55.615234" xlink:href="#ArialMT-2e"/>
       <use x="83.398438" xlink:href="#ArialMT-30"/>
      </g>
     </g>
    </g>
    <g id="ytick_2">
     <g id="line2d_8"/>
     <g id="text_9">
      <!-- 0.2 -->
      <g style="fill:#262626;" transform="translate(26.289766 262.535138)scale(0.15 -0.15)">
       <use xlink:href="#ArialMT-30"/>
       <use x="55.615234" xlink:href="#ArialMT-2e"/>
       <use x="83.398438" xlink:href="#ArialMT-32"/>
      </g>
     </g>
    </g>
    <g id="ytick_3">
     <g id="line2d_9"/>
     <g id="text_10">
      <!-- 0.4 -->
      <g style="fill:#262626;" transform="translate(26.289766 212.612689)scale(0.15 -0.15)">
       <use xlink:href="#ArialMT-30"/>
       <use x="55.615234" xlink:href="#ArialMT-2e"/>
       <use x="83.398438" xlink:href="#ArialMT-34"/>
      </g>
     </g>
    </g>
    <g id="ytick_4">
     <g id="line2d_10"/>
     <g id="text_11">
      <!-- 0.6 -->
      <g style="fill:#262626;" transform="translate(26.289766 162.69024)scale(0.15 -0.15)">
       <use xlink:href="#ArialMT-30"/>
       <use x="55.615234" xlink:href="#ArialMT-2e"/>
       <use x="83.398438" xlink:href="#ArialMT-36"/>
      </g>
     </g>
    </g>
    <g id="ytick_5">
     <g id="line2d_11"/>
     <g id="text_12">
      <!-- 0.8 -->
      <g style="fill:#262626;" transform="translate(26.289766 112.767791)scale(0.15 -0.15)">
       <use xlink:href="#ArialMT-30"/>
       <use x="55.615234" xlink:href="#ArialMT-2e"/>
       <use x="83.398438" xlink:href="#ArialMT-38"/>
      </g>
     </g>
    </g>
    <g id="ytick_6">
     <g id="line2d_12"/>
     <g id="text_13">
      <!-- 1.0 -->
      <g style="fill:#262626;" transform="translate(26.289766 62.845342)scale(0.15 -0.15)">
       <use xlink:href="#ArialMT-31"/>
       <use x="55.615234" xlink:href="#ArialMT-2e"/>
       <use x="83.398438" xlink:href="#ArialMT-30"/>
      </g>
     </g>
    </g>
    <g id="text_14">
     <!-- True Positive Rate -->
     <defs>
      <path d="M 25.921875 0 
L 25.921875 63.140625 
L 2.34375 63.140625 
L 2.34375 71.578125 
L 59.078125 71.578125 
L 59.078125 63.140625 
L 35.40625 63.140625 
L 35.40625 0 
z
" id="ArialMT-54"/>
      <path d="M 6.5 0 
L 6.5 51.859375 
L 14.40625 51.859375 
L 14.40625 44 
Q 17.4375 49.515625 20 51.265625 
Q 22.5625 53.03125 25.640625 53.03125 
Q 30.078125 53.03125 34.671875 50.203125 
L 31.640625 42.046875 
Q 28.421875 43.953125 25.203125 43.953125 
Q 22.3125 43.953125 20.015625 42.21875 
Q 17.71875 40.484375 16.75 37.40625 
Q 15.28125 32.71875 15.28125 27.15625 
L 15.28125 0 
z
" id="ArialMT-72"/>
      <path d="M 40.578125 0 
L 40.578125 7.625 
Q 34.515625 -1.171875 24.125 -1.171875 
Q 19.53125 -1.171875 15.546875 0.578125 
Q 11.578125 2.34375 9.640625 5 
Q 7.71875 7.671875 6.9375 11.53125 
Q 6.390625 14.109375 6.390625 19.734375 
L 6.390625 51.859375 
L 15.1875 51.859375 
L 15.1875 23.09375 
Q 15.1875 16.21875 15.71875 13.8125 
Q 16.546875 10.359375 19.234375 8.375 
Q 21.921875 6.390625 25.875 6.390625 
Q 29.828125 6.390625 33.296875 8.421875 
Q 36.765625 10.453125 38.203125 13.9375 
Q 39.65625 17.4375 39.65625 24.078125 
L 39.65625 51.859375 
L 48.4375 51.859375 
L 48.4375 0 
z
" id="ArialMT-75"/>
     </defs>
     <g style="fill:#262626;" transform="translate(19.010391 248.876109)rotate(-90)scale(0.165 -0.165)">
      <use xlink:href="#ArialMT-54"/>
      <use x="61.037109" xlink:href="#ArialMT-72"/>
      <use x="94.337891" xlink:href="#ArialMT-75"/>
      <use x="149.953125" xlink:href="#ArialMT-65"/>
      <use x="205.568359" xlink:href="#ArialMT-20"/>
      <use x="233.351562" xlink:href="#ArialMT-50"/>
      <use x="300.050781" xlink:href="#ArialMT-6f"/>
      <use x="355.666016" xlink:href="#ArialMT-73"/>
      <use x="405.666016" xlink:href="#ArialMT-69"/>
      <use x="427.882812" xlink:href="#ArialMT-74"/>
      <use x="455.666016" xlink:href="#ArialMT-69"/>
      <use x="477.882812" xlink:href="#ArialMT-76"/>
      <use x="527.882812" xlink:href="#ArialMT-65"/>
      <use x="583.498047" xlink:href="#ArialMT-20"/>
      <use x="611.28125" xlink:href="#ArialMT-52"/>
      <use x="683.498047" xlink:href="#ArialMT-61"/>
      <use x="739.113281" xlink:href="#ArialMT-74"/>
      <use x="766.896484" xlink:href="#ArialMT-65"/>
     </g>
    </g>
   </g>
   <g id="line2d_13">
    <path clip-path="url(#p8b58c67172)" d="M 67.974476 59.998319 
L 344.668691 57.476983 
" style="fill:none;stroke:#4c72b0;stroke-linecap:round;stroke-width:1.75;"/>
   </g>
   <g id="line2d_14">
    <path clip-path="url(#p8b58c67172)" d="M 67.974476 304.567892 
L 67.974476 59.998319 
L 68.906107 59.998319 
L 68.906107 57.476983 
L 344.668691 57.476983 
" style="fill:none;stroke:#55a868;stroke-linecap:round;stroke-width:1.75;"/>
   </g>
   <g id="line2d_15">
    <path clip-path="url(#p8b58c67172)" d="M 67.974476 304.567892 
L 67.974476 183.543773 
L 68.906107 183.543773 
L 68.906107 178.501102 
L 70.769367 178.501102 
L 70.769367 170.937094 
L 72.632628 170.937094 
L 72.632628 168.415758 
L 73.564258 168.415758 
L 73.564258 165.894423 
L 75.427519 165.894423 
L 75.427519 163.373087 
L 77.29078 163.373087 
L 77.29078 160.851751 
L 79.154041 160.851751 
L 79.154041 153.287744 
L 80.085671 153.287744 
L 80.085671 148.245072 
L 81.017301 148.245072 
L 81.017301 143.2024 
L 83.812192 143.2024 
L 83.812192 140.681065 
L 85.675453 140.681065 
L 85.675453 138.159729 
L 89.401974 138.159729 
L 89.401974 135.638393 
L 91.265235 135.638393 
L 91.265235 133.117057 
L 92.196866 133.117057 
L 92.196866 130.595721 
L 94.991757 130.595721 
L 94.991757 128.074386 
L 96.855017 128.074386 
L 96.855017 125.55305 
L 98.718278 125.55305 
L 98.718278 120.510378 
L 104.30806 120.510378 
L 104.30806 112.946371 
L 106.171321 112.946371 
L 106.171321 110.425035 
L 111.761103 110.425035 
L 111.761103 107.903699 
L 114.555994 107.903699 
L 114.555994 102.861027 
L 115.487624 102.861027 
L 115.487624 100.339692 
L 117.350885 100.339692 
L 117.350885 97.818356 
L 123.872298 97.818356 
L 123.872298 95.29702 
L 127.598819 95.29702 
L 127.598819 90.254348 
L 130.39371 90.254348 
L 130.39371 87.733013 
L 136.915122 87.733013 
L 136.915122 82.690341 
L 138.778383 82.690341 
L 138.778383 80.169005 
L 160.205881 80.169005 
L 160.205881 77.647669 
L 169.522185 77.647669 
L 169.522185 75.126334 
L 174.180337 75.126334 
L 174.180337 70.083662 
L 194.676204 70.083662 
L 194.676204 67.562326 
L 195.607835 67.562326 
L 195.607835 65.04099 
L 196.539465 65.04099 
L 196.539465 62.519655 
L 267.343372 62.519655 
L 267.343372 57.476983 
L 344.668691 57.476983 
" style="fill:none;stroke:#c44e52;stroke-linecap:round;stroke-width:1.75;"/>
   </g>
   <g id="patch_3">
    <path d="M 54.139766 316.922437 
L 54.139766 45.122437 
" style="fill:none;stroke:#262626;stroke-linecap:square;stroke-linejoin:miter;stroke-width:1.25;"/>
   </g>
   <g id="patch_4">
    <path d="M 358.503402 316.922437 
L 358.503402 45.122437 
" style="fill:none;stroke:#262626;stroke-linecap:square;stroke-linejoin:miter;stroke-width:1.25;"/>
   </g>
   <g id="patch_5">
    <path d="M 54.139766 316.922437 
L 358.503402 316.922437 
" style="fill:none;stroke:#262626;stroke-linecap:square;stroke-linejoin:miter;stroke-width:1.25;"/>
   </g>
   <g id="patch_6">
    <path d="M 54.139766 45.122437 
L 358.503402 45.122437 
" style="fill:none;stroke:#262626;stroke-linecap:square;stroke-linejoin:miter;stroke-width:1.25;"/>
   </g>
   <g id="text_15">
    <!-- HALLMARK GLYCOLYSIS -->
    <defs>
     <path d="M 8.015625 0 
L 8.015625 71.578125 
L 17.484375 71.578125 
L 17.484375 42.1875 
L 54.6875 42.1875 
L 54.6875 71.578125 
L 64.15625 71.578125 
L 64.15625 0 
L 54.6875 0 
L 54.6875 33.734375 
L 17.484375 33.734375 
L 17.484375 0 
z
" id="ArialMT-48"/>
     <path d="M -0.140625 0 
L 27.34375 71.578125 
L 37.546875 71.578125 
L 66.84375 0 
L 56.0625 0 
L 47.703125 21.6875 
L 17.78125 21.6875 
L 9.90625 0 
z
M 20.515625 29.390625 
L 44.78125 29.390625 
L 37.3125 49.21875 
Q 33.890625 58.25 32.234375 64.0625 
Q 30.859375 57.171875 28.375 50.390625 
z
" id="ArialMT-41"/>
     <path d="M 7.328125 0 
L 7.328125 71.578125 
L 16.796875 71.578125 
L 16.796875 8.453125 
L 52.046875 8.453125 
L 52.046875 0 
z
" id="ArialMT-4c"/>
     <path d="M 7.421875 0 
L 7.421875 71.578125 
L 21.6875 71.578125 
L 38.625 20.90625 
Q 40.96875 13.8125 42.046875 10.296875 
Q 43.265625 14.203125 45.84375 21.78125 
L 62.984375 71.578125 
L 75.734375 71.578125 
L 75.734375 0 
L 66.609375 0 
L 66.609375 59.90625 
L 45.796875 0 
L 37.25 0 
L 16.546875 60.9375 
L 16.546875 0 
z
" id="ArialMT-4d"/>
     <path d="M 7.328125 0 
L 7.328125 71.578125 
L 16.796875 71.578125 
L 16.796875 36.078125 
L 52.34375 71.578125 
L 65.1875 71.578125 
L 35.15625 42.578125 
L 66.5 0 
L 54 0 
L 28.515625 36.234375 
L 16.796875 24.8125 
L 16.796875 0 
z
" id="ArialMT-4b"/>
     <path d="M 41.21875 28.078125 
L 41.21875 36.46875 
L 71.53125 36.53125 
L 71.53125 9.96875 
Q 64.546875 4.390625 57.125 1.578125 
Q 49.703125 -1.21875 41.890625 -1.21875 
Q 31.34375 -1.21875 22.71875 3.296875 
Q 14.109375 7.8125 9.71875 16.359375 
Q 5.328125 24.90625 5.328125 35.453125 
Q 5.328125 45.90625 9.6875 54.953125 
Q 14.0625 64.015625 22.265625 68.40625 
Q 30.46875 72.796875 41.15625 72.796875 
Q 48.921875 72.796875 55.1875 70.28125 
Q 61.46875 67.78125 65.03125 63.28125 
Q 68.609375 58.796875 70.453125 51.5625 
L 61.921875 49.21875 
Q 60.296875 54.6875 57.90625 57.8125 
Q 55.515625 60.9375 51.0625 62.8125 
Q 46.625 64.703125 41.21875 64.703125 
Q 34.71875 64.703125 29.984375 62.71875 
Q 25.25 60.75 22.34375 57.515625 
Q 19.4375 54.296875 17.828125 50.4375 
Q 15.09375 43.796875 15.09375 36.03125 
Q 15.09375 26.46875 18.390625 20.015625 
Q 21.6875 13.578125 27.984375 10.453125 
Q 34.28125 7.328125 41.359375 7.328125 
Q 47.515625 7.328125 53.375 9.6875 
Q 59.234375 12.0625 62.25 14.75 
L 62.25 28.078125 
z
" id="ArialMT-47"/>
     <path d="M 27.875 0 
L 27.875 30.328125 
L 0.296875 71.578125 
L 11.8125 71.578125 
L 25.921875 50 
Q 29.828125 43.953125 33.203125 37.890625 
Q 36.421875 43.5 41.015625 50.53125 
L 54.890625 71.578125 
L 65.921875 71.578125 
L 37.359375 30.328125 
L 37.359375 0 
z
" id="ArialMT-59"/>
     <path d="M 58.796875 25.09375 
L 68.265625 22.703125 
Q 65.28125 11.03125 57.546875 4.90625 
Q 49.8125 -1.21875 38.625 -1.21875 
Q 27.046875 -1.21875 19.796875 3.484375 
Q 12.546875 8.203125 8.765625 17.140625 
Q 4.984375 26.078125 4.984375 36.328125 
Q 4.984375 47.515625 9.25 55.828125 
Q 13.53125 64.15625 21.40625 68.46875 
Q 29.296875 72.796875 38.765625 72.796875 
Q 49.515625 72.796875 56.828125 67.328125 
Q 64.15625 61.859375 67.046875 51.953125 
L 57.71875 49.75 
Q 55.21875 57.5625 50.484375 61.125 
Q 45.75 64.703125 38.578125 64.703125 
Q 30.328125 64.703125 24.78125 60.734375 
Q 19.234375 56.78125 16.984375 50.109375 
Q 14.75 43.453125 14.75 36.375 
Q 14.75 27.25 17.40625 20.4375 
Q 20.0625 13.625 25.671875 10.25 
Q 31.296875 6.890625 37.84375 6.890625 
Q 45.796875 6.890625 51.3125 11.46875 
Q 56.84375 16.0625 58.796875 25.09375 
z
" id="ArialMT-43"/>
     <path d="M 4.828125 34.859375 
Q 4.828125 52.6875 14.390625 62.765625 
Q 23.96875 72.859375 39.109375 72.859375 
Q 49.03125 72.859375 56.984375 68.109375 
Q 64.9375 63.375 69.109375 54.90625 
Q 73.296875 46.4375 73.296875 35.6875 
Q 73.296875 24.8125 68.890625 16.21875 
Q 64.5 7.625 56.4375 3.203125 
Q 48.390625 -1.21875 39.0625 -1.21875 
Q 28.953125 -1.21875 20.984375 3.65625 
Q 13.03125 8.546875 8.921875 16.984375 
Q 4.828125 25.4375 4.828125 34.859375 
z
M 14.59375 34.71875 
Q 14.59375 21.78125 21.546875 14.328125 
Q 28.515625 6.890625 39.015625 6.890625 
Q 49.703125 6.890625 56.609375 14.40625 
Q 63.53125 21.921875 63.53125 35.75 
Q 63.53125 44.484375 60.578125 51 
Q 57.625 57.515625 51.921875 61.109375 
Q 46.234375 64.703125 39.15625 64.703125 
Q 29.109375 64.703125 21.84375 57.78125 
Q 14.59375 50.875 14.59375 34.71875 
z
" id="ArialMT-4f"/>
     <path d="M 4.5 23 
L 13.421875 23.78125 
Q 14.0625 18.40625 16.375 14.96875 
Q 18.703125 11.53125 23.578125 9.40625 
Q 28.46875 7.28125 34.578125 7.28125 
Q 39.984375 7.28125 44.140625 8.890625 
Q 48.296875 10.5 50.3125 13.296875 
Q 52.34375 16.109375 52.34375 19.4375 
Q 52.34375 22.796875 50.390625 25.3125 
Q 48.4375 27.828125 43.953125 29.546875 
Q 41.0625 30.671875 31.203125 33.03125 
Q 21.34375 35.40625 17.390625 37.5 
Q 12.25 40.1875 9.734375 44.15625 
Q 7.234375 48.140625 7.234375 53.078125 
Q 7.234375 58.5 10.296875 63.203125 
Q 13.375 67.921875 19.28125 70.359375 
Q 25.203125 72.796875 32.421875 72.796875 
Q 40.375 72.796875 46.453125 70.234375 
Q 52.546875 67.671875 55.8125 62.6875 
Q 59.078125 57.71875 59.328125 51.421875 
L 50.25 50.734375 
Q 49.515625 57.515625 45.28125 60.984375 
Q 41.0625 64.453125 32.8125 64.453125 
Q 24.21875 64.453125 20.28125 61.296875 
Q 16.359375 58.15625 16.359375 53.71875 
Q 16.359375 49.859375 19.140625 47.359375 
Q 21.875 44.875 33.421875 42.265625 
Q 44.96875 39.65625 49.265625 37.703125 
Q 55.515625 34.8125 58.484375 30.390625 
Q 61.46875 25.984375 61.46875 20.21875 
Q 61.46875 14.5 58.203125 9.4375 
Q 54.9375 4.390625 48.796875 1.578125 
Q 42.671875 -1.21875 35.015625 -1.21875 
Q 25.296875 -1.21875 18.71875 1.609375 
Q 12.15625 4.4375 8.421875 10.125 
Q 4.6875 15.828125 4.5 23 
z
" id="ArialMT-53"/>
     <path d="M 9.328125 0 
L 9.328125 71.578125 
L 18.796875 71.578125 
L 18.796875 0 
z
" id="ArialMT-49"/>
    </defs>
    <g style="fill:#262626;" transform="translate(98.301896 20.084062)scale(0.18 -0.18)">
     <use xlink:href="#ArialMT-48"/>
     <use x="72.216797" xlink:href="#ArialMT-41"/>
     <use x="138.916016" xlink:href="#ArialMT-4c"/>
     <use x="194.53125" xlink:href="#ArialMT-4c"/>
     <use x="250.146484" xlink:href="#ArialMT-4d"/>
     <use x="333.447266" xlink:href="#ArialMT-41"/>
     <use x="400.146484" xlink:href="#ArialMT-52"/>
     <use x="472.363281" xlink:href="#ArialMT-4b"/>
     <use x="539.0625" xlink:href="#ArialMT-20"/>
     <use x="566.845703" xlink:href="#ArialMT-47"/>
     <use x="644.628906" xlink:href="#ArialMT-4c"/>
     <use x="700.134766" xlink:href="#ArialMT-59"/>
     <use x="766.833984" xlink:href="#ArialMT-43"/>
     <use x="839.050781" xlink:href="#ArialMT-4f"/>
     <use x="916.833984" xlink:href="#ArialMT-4c"/>
     <use x="972.339844" xlink:href="#ArialMT-59"/>
     <use x="1039.039062" xlink:href="#ArialMT-53"/>
     <use x="1105.738281" xlink:href="#ArialMT-49"/>
     <use x="1133.521484" xlink:href="#ArialMT-53"/>
    </g>
    <!--  -->
    <g style="fill:#262626;" transform="translate(206.321584 39.122437)scale(0.18 -0.18)"/>
   </g>
   <g id="legend_1">
    <g id="line2d_16">
     <path d="M 246.319808 252.579469 
L 276.319808 252.579469 
" style="fill:none;stroke:#4c72b0;stroke-linecap:round;stroke-width:1.75;"/>
    </g>
    <g id="line2d_17"/>
    <g id="text_16">
     <!-- Hydra -->
     <defs>
      <path d="M 6.203125 -19.96875 
L 5.21875 -11.71875 
Q 8.109375 -12.5 10.25 -12.5 
Q 13.1875 -12.5 14.9375 -11.515625 
Q 16.703125 -10.546875 17.828125 -8.796875 
Q 18.65625 -7.46875 20.515625 -2.25 
Q 20.75 -1.515625 21.296875 -0.09375 
L 1.609375 51.859375 
L 11.078125 51.859375 
L 21.875 21.828125 
Q 23.96875 16.109375 25.640625 9.8125 
Q 27.15625 15.875 29.25 21.625 
L 40.328125 51.859375 
L 49.125 51.859375 
L 29.390625 -0.875 
Q 26.21875 -9.421875 24.46875 -12.640625 
Q 22.125 -17 19.09375 -19.015625 
Q 16.0625 -21.046875 11.859375 -21.046875 
Q 9.328125 -21.046875 6.203125 -19.96875 
z
" id="ArialMT-79"/>
      <path d="M 40.234375 0 
L 40.234375 6.546875 
Q 35.296875 -1.171875 25.734375 -1.171875 
Q 19.53125 -1.171875 14.328125 2.25 
Q 9.125 5.671875 6.265625 11.796875 
Q 3.421875 17.921875 3.421875 25.875 
Q 3.421875 33.640625 6 39.96875 
Q 8.59375 46.296875 13.765625 49.65625 
Q 18.953125 53.03125 25.34375 53.03125 
Q 30.03125 53.03125 33.6875 51.046875 
Q 37.359375 49.078125 39.65625 45.90625 
L 39.65625 71.578125 
L 48.390625 71.578125 
L 48.390625 0 
z
M 12.453125 25.875 
Q 12.453125 15.921875 16.640625 10.984375 
Q 20.84375 6.0625 26.5625 6.0625 
Q 32.328125 6.0625 36.34375 10.765625 
Q 40.375 15.484375 40.375 25.140625 
Q 40.375 35.796875 36.265625 40.765625 
Q 32.171875 45.75 26.171875 45.75 
Q 20.3125 45.75 16.375 40.96875 
Q 12.453125 36.1875 12.453125 25.875 
z
" id="ArialMT-64"/>
     </defs>
     <g style="fill:#262626;" transform="translate(288.319808 257.829469)scale(0.15 -0.15)">
      <use xlink:href="#ArialMT-48"/>
      <use x="72.216797" xlink:href="#ArialMT-79"/>
      <use x="122.216797" xlink:href="#ArialMT-64"/>
      <use x="177.832031" xlink:href="#ArialMT-72"/>
      <use x="211.132812" xlink:href="#ArialMT-61"/>
     </g>
    </g>
    <g id="line2d_18">
     <path d="M 246.319808 273.973219 
L 276.319808 273.973219 
" style="fill:none;stroke:#55a868;stroke-linecap:round;stroke-width:1.75;"/>
    </g>
    <g id="line2d_19"/>
    <g id="text_17">
     <!-- ssGSEA -->
     <defs>
      <path d="M 7.90625 0 
L 7.90625 71.578125 
L 59.671875 71.578125 
L 59.671875 63.140625 
L 17.390625 63.140625 
L 17.390625 41.21875 
L 56.984375 41.21875 
L 56.984375 32.8125 
L 17.390625 32.8125 
L 17.390625 8.453125 
L 61.328125 8.453125 
L 61.328125 0 
z
" id="ArialMT-45"/>
     </defs>
     <g style="fill:#262626;" transform="translate(288.319808 279.223219)scale(0.15 -0.15)">
      <use xlink:href="#ArialMT-73"/>
      <use x="50" xlink:href="#ArialMT-73"/>
      <use x="100" xlink:href="#ArialMT-47"/>
      <use x="177.783203" xlink:href="#ArialMT-53"/>
      <use x="244.482422" xlink:href="#ArialMT-45"/>
      <use x="311.181641" xlink:href="#ArialMT-41"/>
     </g>
    </g>
    <g id="line2d_20">
     <path d="M 246.319808 295.191187 
L 276.319808 295.191187 
" style="fill:none;stroke:#c44e52;stroke-linecap:round;stroke-width:1.75;"/>
    </g>
    <g id="line2d_21"/>
    <g id="text_18">
     <!-- GSVA -->
     <defs>
      <path d="M 28.171875 0 
L 0.4375 71.578125 
L 10.6875 71.578125 
L 29.296875 19.578125 
Q 31.546875 13.328125 33.0625 7.859375 
Q 34.71875 13.71875 36.921875 19.578125 
L 56.25 71.578125 
L 65.921875 71.578125 
L 37.890625 0 
z
" id="ArialMT-56"/>
     </defs>
     <g style="fill:#262626;" transform="translate(288.319808 300.441187)scale(0.15 -0.15)">
      <use xlink:href="#ArialMT-47"/>
      <use x="77.783203" xlink:href="#ArialMT-53"/>
      <use x="144.482422" xlink:href="#ArialMT-56"/>
      <use x="211.072266" xlink:href="#ArialMT-41"/>
     </g>
    </g>
   </g>
  </g>
  <g id="axes_2">
   <g id="patch_7">
    <path d="M 419.376129 316.922437 
L 723.739766 316.922437 
L 723.739766 45.122437 
L 419.376129 45.122437 
z
" style="fill:#ffffff;"/>
   </g>
   <g id="matplotlib.axis_3">
    <g id="xtick_7">
     <g id="line2d_22"/>
     <g id="text_19">
      <!-- 0.0 -->
      <g style="fill:#262626;" transform="translate(422.78584 334.659156)scale(0.15 -0.15)">
       <use xlink:href="#ArialMT-30"/>
       <use x="55.615234" xlink:href="#ArialMT-2e"/>
       <use x="83.398438" xlink:href="#ArialMT-30"/>
      </g>
     </g>
    </g>
    <g id="xtick_8">
     <g id="line2d_23"/>
     <g id="text_20">
      <!-- 0.2 -->
      <g style="fill:#262626;" transform="translate(478.124683 334.659156)scale(0.15 -0.15)">
       <use xlink:href="#ArialMT-30"/>
       <use x="55.615234" xlink:href="#ArialMT-2e"/>
       <use x="83.398438" xlink:href="#ArialMT-32"/>
      </g>
     </g>
    </g>
    <g id="xtick_9">
     <g id="line2d_24"/>
     <g id="text_21">
      <!-- 0.4 -->
      <g style="fill:#262626;" transform="translate(533.463526 334.659156)scale(0.15 -0.15)">
       <use xlink:href="#ArialMT-30"/>
       <use x="55.615234" xlink:href="#ArialMT-2e"/>
       <use x="83.398438" xlink:href="#ArialMT-34"/>
      </g>
     </g>
    </g>
    <g id="xtick_10">
     <g id="line2d_25"/>
     <g id="text_22">
      <!-- 0.6 -->
      <g style="fill:#262626;" transform="translate(588.802369 334.659156)scale(0.15 -0.15)">
       <use xlink:href="#ArialMT-30"/>
       <use x="55.615234" xlink:href="#ArialMT-2e"/>
       <use x="83.398438" xlink:href="#ArialMT-36"/>
      </g>
     </g>
    </g>
    <g id="xtick_11">
     <g id="line2d_26"/>
     <g id="text_23">
      <!-- 0.8 -->
      <g style="fill:#262626;" transform="translate(644.141212 334.659156)scale(0.15 -0.15)">
       <use xlink:href="#ArialMT-30"/>
       <use x="55.615234" xlink:href="#ArialMT-2e"/>
       <use x="83.398438" xlink:href="#ArialMT-38"/>
      </g>
     </g>
    </g>
    <g id="xtick_12">
     <g id="line2d_27"/>
     <g id="text_24">
      <!-- 1.0 -->
      <g style="fill:#262626;" transform="translate(699.480055 334.659156)scale(0.15 -0.15)">
       <use xlink:href="#ArialMT-31"/>
       <use x="55.615234" xlink:href="#ArialMT-2e"/>
       <use x="83.398438" xlink:href="#ArialMT-30"/>
      </g>
     </g>
    </g>
    <g id="text_25">
     <!-- False Positive Rate -->
     <g style="fill:#262626;" transform="translate(500.489354 353.450797)scale(0.165 -0.165)">
      <use xlink:href="#ArialMT-46"/>
      <use x="61.083984" xlink:href="#ArialMT-61"/>
      <use x="116.699219" xlink:href="#ArialMT-6c"/>
      <use x="138.916016" xlink:href="#ArialMT-73"/>
      <use x="188.916016" xlink:href="#ArialMT-65"/>
      <use x="244.53125" xlink:href="#ArialMT-20"/>
      <use x="272.314453" xlink:href="#ArialMT-50"/>
      <use x="339.013672" xlink:href="#ArialMT-6f"/>
      <use x="394.628906" xlink:href="#ArialMT-73"/>
      <use x="444.628906" xlink:href="#ArialMT-69"/>
      <use x="466.845703" xlink:href="#ArialMT-74"/>
      <use x="494.628906" xlink:href="#ArialMT-69"/>
      <use x="516.845703" xlink:href="#ArialMT-76"/>
      <use x="566.845703" xlink:href="#ArialMT-65"/>
      <use x="622.460938" xlink:href="#ArialMT-20"/>
      <use x="650.244141" xlink:href="#ArialMT-52"/>
      <use x="722.460938" xlink:href="#ArialMT-61"/>
      <use x="778.076172" xlink:href="#ArialMT-74"/>
      <use x="805.859375" xlink:href="#ArialMT-65"/>
     </g>
    </g>
   </g>
   <g id="matplotlib.axis_4">
    <g id="ytick_7">
     <g id="line2d_28"/>
    </g>
    <g id="ytick_8">
     <g id="line2d_29"/>
    </g>
    <g id="ytick_9">
     <g id="line2d_30"/>
    </g>
    <g id="ytick_10">
     <g id="line2d_31"/>
    </g>
    <g id="ytick_11">
     <g id="line2d_32"/>
    </g>
    <g id="ytick_12">
     <g id="line2d_33"/>
    </g>
    <g id="text_26">
     <!-- True Positive Rate -->
     <g style="fill:#262626;" transform="translate(412.096754 248.876109)rotate(-90)scale(0.165 -0.165)">
      <use xlink:href="#ArialMT-54"/>
      <use x="61.037109" xlink:href="#ArialMT-72"/>
      <use x="94.337891" xlink:href="#ArialMT-75"/>
      <use x="149.953125" xlink:href="#ArialMT-65"/>
      <use x="205.568359" xlink:href="#ArialMT-20"/>
      <use x="233.351562" xlink:href="#ArialMT-50"/>
      <use x="300.050781" xlink:href="#ArialMT-6f"/>
      <use x="355.666016" xlink:href="#ArialMT-73"/>
      <use x="405.666016" xlink:href="#ArialMT-69"/>
      <use x="427.882812" xlink:href="#ArialMT-74"/>
      <use x="455.666016" xlink:href="#ArialMT-69"/>
      <use x="477.882812" xlink:href="#ArialMT-76"/>
      <use x="527.882812" xlink:href="#ArialMT-65"/>
      <use x="583.498047" xlink:href="#ArialMT-20"/>
      <use x="611.28125" xlink:href="#ArialMT-52"/>
      <use x="683.498047" xlink:href="#ArialMT-61"/>
      <use x="739.113281" xlink:href="#ArialMT-74"/>
      <use x="766.896484" xlink:href="#ArialMT-65"/>
     </g>
    </g>
   </g>
   <g id="line2d_34">
    <path clip-path="url(#p08f7e05619)" d="M 433.21084 57.476983 
L 709.905055 57.476983 
" style="fill:none;stroke:#4c72b0;stroke-linecap:round;stroke-width:1.75;"/>
   </g>
   <g id="line2d_35">
    <path clip-path="url(#p08f7e05619)" d="M 433.21084 304.567892 
L 433.21084 279.354534 
L 434.14247 279.354534 
L 434.14247 239.013161 
L 436.005731 239.013161 
L 436.005731 228.927818 
L 436.937361 228.927818 
L 436.937361 226.406482 
L 437.868992 226.406482 
L 437.868992 221.36381 
L 438.800622 221.36381 
L 438.800622 213.799803 
L 439.732252 213.799803 
L 439.732252 211.278467 
L 442.527144 211.278467 
L 442.527144 206.235796 
L 447.185295 206.235796 
L 447.185295 198.671788 
L 448.116926 198.671788 
L 448.116926 196.150452 
L 449.048556 196.150452 
L 449.048556 193.629117 
L 451.843447 193.629117 
L 451.843447 191.107781 
L 453.706708 191.107781 
L 453.706708 188.586445 
L 454.638338 188.586445 
L 454.638338 186.065109 
L 462.091381 186.065109 
L 462.091381 178.501102 
L 463.023011 178.501102 
L 463.023011 165.894423 
L 464.886272 165.894423 
L 464.886272 163.373087 
L 466.749533 163.373087 
L 466.749533 153.287744 
L 467.681163 153.287744 
L 467.681163 148.245072 
L 473.270945 148.245072 
L 473.270945 145.723736 
L 477.929097 145.723736 
L 477.929097 140.681065 
L 481.655618 140.681065 
L 481.655618 138.159729 
L 490.040292 138.159729 
L 490.040292 128.074386 
L 491.903552 128.074386 
L 491.903552 125.55305 
L 492.835183 125.55305 
L 492.835183 112.946371 
L 493.766813 112.946371 
L 493.766813 105.382363 
L 499.356595 105.382363 
L 499.356595 102.861027 
L 501.219856 102.861027 
L 501.219856 100.339692 
L 503.083116 100.339692 
L 503.083116 97.818356 
L 504.946377 97.818356 
L 504.946377 95.29702 
L 512.39942 95.29702 
L 512.39942 92.775684 
L 519.852463 92.775684 
L 519.852463 87.733013 
L 536.621809 87.733013 
L 536.621809 85.211677 
L 570.160502 85.211677 
L 570.160502 82.690341 
L 576.681914 82.690341 
L 576.681914 80.169005 
L 585.998218 80.169005 
L 585.998218 77.647669 
L 586.929848 77.647669 
L 586.929848 75.126334 
L 590.65637 75.126334 
L 590.65637 72.604998 
L 604.630825 72.604998 
L 604.630825 65.04099 
L 630.716475 65.04099 
L 630.716475 62.519655 
L 646.554191 62.519655 
L 646.554191 59.998319 
L 654.938864 59.998319 
L 654.938864 57.476983 
L 709.905055 57.476983 
" style="fill:none;stroke:#55a868;stroke-linecap:round;stroke-width:1.75;"/>
   </g>
   <g id="line2d_36">
    <path clip-path="url(#p08f7e05619)" d="M 433.21084 304.567892 
L 433.21084 286.918541 
L 436.937361 286.918541 
L 436.937361 284.397206 
L 437.868992 284.397206 
L 437.868992 276.833198 
L 440.663883 276.833198 
L 440.663883 274.311862 
L 441.595513 274.311862 
L 441.595513 271.790527 
L 443.458774 271.790527 
L 443.458774 269.269191 
L 445.322035 269.269191 
L 445.322035 266.747855 
L 447.185295 266.747855 
L 447.185295 256.662512 
L 448.116926 256.662512 
L 448.116926 254.141176 
L 449.980186 254.141176 
L 449.980186 251.61984 
L 450.911817 251.61984 
L 450.911817 249.098504 
L 454.638338 249.098504 
L 454.638338 246.577168 
L 455.569968 246.577168 
L 455.569968 244.055833 
L 460.22812 244.055833 
L 460.22812 239.013161 
L 463.023011 239.013161 
L 463.023011 236.491825 
L 473.270945 236.491825 
L 473.270945 233.970489 
L 476.065836 233.970489 
L 476.065836 231.449154 
L 478.860727 231.449154 
L 478.860727 228.927818 
L 479.792358 228.927818 
L 479.792358 226.406482 
L 486.31377 226.406482 
L 486.31377 221.36381 
L 489.108661 221.36381 
L 489.108661 218.842475 
L 490.040292 218.842475 
L 490.040292 213.799803 
L 493.766813 213.799803 
L 493.766813 211.278467 
L 495.630074 211.278467 
L 495.630074 206.235796 
L 502.151486 206.235796 
L 502.151486 203.71446 
L 504.014747 203.71446 
L 504.014747 201.193124 
L 507.741268 201.193124 
L 507.741268 198.671788 
L 516.125941 198.671788 
L 516.125941 193.629117 
L 518.920832 193.629117 
L 518.920832 191.107781 
L 522.647354 191.107781 
L 522.647354 188.586445 
L 526.373875 188.586445 
L 526.373875 183.543773 
L 527.305506 183.543773 
L 527.305506 181.022437 
L 528.237136 181.022437 
L 528.237136 178.501102 
L 529.168766 178.501102 
L 529.168766 175.979766 
L 533.826918 175.979766 
L 533.826918 173.45843 
L 534.758548 173.45843 
L 534.758548 168.415758 
L 536.621809 168.415758 
L 536.621809 165.894423 
L 538.48507 165.894423 
L 538.48507 163.373087 
L 542.211591 163.373087 
L 542.211591 158.330415 
L 543.143222 158.330415 
L 543.143222 155.809079 
L 544.074852 155.809079 
L 544.074852 148.245072 
L 545.006482 148.245072 
L 545.006482 145.723736 
L 550.596264 145.723736 
L 550.596264 140.681065 
L 551.527895 140.681065 
L 551.527895 138.159729 
L 555.254416 138.159729 
L 555.254416 135.638393 
L 558.049307 135.638393 
L 558.049307 133.117057 
L 559.912568 133.117057 
L 559.912568 130.595721 
L 563.639089 130.595721 
L 563.639089 128.074386 
L 569.228872 128.074386 
L 569.228872 117.989042 
L 570.160502 117.989042 
L 570.160502 112.946371 
L 573.887023 112.946371 
L 573.887023 107.903699 
L 576.681914 107.903699 
L 576.681914 105.382363 
L 585.998218 105.382363 
L 585.998218 102.861027 
L 586.929848 102.861027 
L 586.929848 100.339692 
L 594.382891 100.339692 
L 594.382891 97.818356 
L 595.314521 97.818356 
L 595.314521 95.29702 
L 598.109413 95.29702 
L 598.109413 87.733013 
L 602.767564 87.733013 
L 602.767564 85.211677 
L 610.220607 85.211677 
L 610.220607 82.690341 
L 626.989953 82.690341 
L 626.989953 80.169005 
L 629.784845 80.169005 
L 629.784845 75.126334 
L 631.648105 75.126334 
L 631.648105 70.083662 
L 640.032778 70.083662 
L 640.032778 67.562326 
L 641.896039 67.562326 
L 641.896039 65.04099 
L 655.870494 65.04099 
L 655.870494 62.519655 
L 657.733755 62.519655 
L 657.733755 59.998319 
L 690.340817 59.998319 
L 690.340817 57.476983 
L 709.905055 57.476983 
L 709.905055 57.476983 
" style="fill:none;stroke:#c44e52;stroke-linecap:round;stroke-width:1.75;"/>
   </g>
   <g id="patch_8">
    <path d="M 419.376129 316.922437 
L 419.376129 45.122437 
" style="fill:none;stroke:#262626;stroke-linecap:square;stroke-linejoin:miter;stroke-width:1.25;"/>
   </g>
   <g id="patch_9">
    <path d="M 723.739766 316.922437 
L 723.739766 45.122437 
" style="fill:none;stroke:#262626;stroke-linecap:square;stroke-linejoin:miter;stroke-width:1.25;"/>
   </g>
   <g id="patch_10">
    <path d="M 419.376129 316.922437 
L 723.739766 316.922437 
" style="fill:none;stroke:#262626;stroke-linecap:square;stroke-linejoin:miter;stroke-width:1.25;"/>
   </g>
   <g id="patch_11">
    <path d="M 419.376129 45.122437 
L 723.739766 45.122437 
" style="fill:none;stroke:#262626;stroke-linecap:square;stroke-linejoin:miter;stroke-width:1.25;"/>
   </g>
   <g id="text_27">
    <!-- HALLMARK OXIDATIVE -->
    <defs>
     <path d="M 0.4375 0 
L 28.125 37.3125 
L 3.71875 71.578125 
L 14.984375 71.578125 
L 27.984375 53.21875 
Q 32.03125 47.515625 33.734375 44.4375 
Q 36.140625 48.34375 39.40625 52.59375 
L 53.8125 71.578125 
L 64.109375 71.578125 
L 38.96875 37.84375 
L 66.0625 0 
L 54.34375 0 
L 36.328125 25.53125 
Q 34.8125 27.734375 33.203125 30.328125 
Q 30.8125 26.421875 29.78125 24.953125 
L 11.8125 0 
z
" id="ArialMT-58"/>
     <path d="M 7.71875 0 
L 7.71875 71.578125 
L 32.375 71.578125 
Q 40.71875 71.578125 45.125 70.5625 
Q 51.265625 69.140625 55.609375 65.4375 
Q 61.28125 60.640625 64.078125 53.1875 
Q 66.890625 45.75 66.890625 36.1875 
Q 66.890625 28.03125 64.984375 21.734375 
Q 63.09375 15.4375 60.109375 11.296875 
Q 57.125 7.171875 53.578125 4.796875 
Q 50.046875 2.4375 45.046875 1.21875 
Q 40.046875 0 33.546875 0 
z
M 17.1875 8.453125 
L 32.46875 8.453125 
Q 39.546875 8.453125 43.578125 9.765625 
Q 47.609375 11.078125 50 13.484375 
Q 53.375 16.84375 55.25 22.53125 
Q 57.125 28.21875 57.125 36.328125 
Q 57.125 47.5625 53.4375 53.59375 
Q 49.75 59.625 44.484375 61.671875 
Q 40.671875 63.140625 32.234375 63.140625 
L 17.1875 63.140625 
z
" id="ArialMT-44"/>
    </defs>
    <g style="fill:#262626;" transform="translate(472.541072 20.084062)scale(0.18 -0.18)">
     <use xlink:href="#ArialMT-48"/>
     <use x="72.216797" xlink:href="#ArialMT-41"/>
     <use x="138.916016" xlink:href="#ArialMT-4c"/>
     <use x="194.53125" xlink:href="#ArialMT-4c"/>
     <use x="250.146484" xlink:href="#ArialMT-4d"/>
     <use x="333.447266" xlink:href="#ArialMT-41"/>
     <use x="400.146484" xlink:href="#ArialMT-52"/>
     <use x="472.363281" xlink:href="#ArialMT-4b"/>
     <use x="539.0625" xlink:href="#ArialMT-20"/>
     <use x="566.845703" xlink:href="#ArialMT-4f"/>
     <use x="644.628906" xlink:href="#ArialMT-58"/>
     <use x="711.328125" xlink:href="#ArialMT-49"/>
     <use x="739.111328" xlink:href="#ArialMT-44"/>
     <use x="811.328125" xlink:href="#ArialMT-41"/>
     <use x="877.917969" xlink:href="#ArialMT-54"/>
     <use x="939.001953" xlink:href="#ArialMT-49"/>
     <use x="966.785156" xlink:href="#ArialMT-56"/>
     <use x="1033.484375" xlink:href="#ArialMT-45"/>
    </g>
    <!-- PHOSPHORYLATION -->
    <defs>
     <path d="M 7.625 0 
L 7.625 71.578125 
L 17.328125 71.578125 
L 54.9375 15.375 
L 54.9375 71.578125 
L 64.015625 71.578125 
L 64.015625 0 
L 54.296875 0 
L 16.703125 56.25 
L 16.703125 0 
z
" id="ArialMT-4e"/>
    </defs>
    <g style="fill:#262626;" transform="translate(481.550916 39.122437)scale(0.18 -0.18)">
     <use xlink:href="#ArialMT-50"/>
     <use x="66.699219" xlink:href="#ArialMT-48"/>
     <use x="138.916016" xlink:href="#ArialMT-4f"/>
     <use x="216.699219" xlink:href="#ArialMT-53"/>
     <use x="283.398438" xlink:href="#ArialMT-50"/>
     <use x="350.097656" xlink:href="#ArialMT-48"/>
     <use x="422.314453" xlink:href="#ArialMT-4f"/>
     <use x="500.097656" xlink:href="#ArialMT-52"/>
     <use x="572.298828" xlink:href="#ArialMT-59"/>
     <use x="638.998047" xlink:href="#ArialMT-4c"/>
     <use x="694.613281" xlink:href="#ArialMT-41"/>
     <use x="761.203125" xlink:href="#ArialMT-54"/>
     <use x="822.287109" xlink:href="#ArialMT-49"/>
     <use x="850.070312" xlink:href="#ArialMT-4f"/>
     <use x="927.853516" xlink:href="#ArialMT-4e"/>
    </g>
   </g>
   <g id="legend_2">
    <g id="line2d_37">
     <path d="M 611.556172 252.579469 
L 641.556172 252.579469 
" style="fill:none;stroke:#4c72b0;stroke-linecap:round;stroke-width:1.75;"/>
    </g>
    <g id="line2d_38"/>
    <g id="text_28">
     <!-- Hydra -->
     <g style="fill:#262626;" transform="translate(653.556172 257.829469)scale(0.15 -0.15)">
      <use xlink:href="#ArialMT-48"/>
      <use x="72.216797" xlink:href="#ArialMT-79"/>
      <use x="122.216797" xlink:href="#ArialMT-64"/>
      <use x="177.832031" xlink:href="#ArialMT-72"/>
      <use x="211.132812" xlink:href="#ArialMT-61"/>
     </g>
    </g>
    <g id="line2d_39">
     <path d="M 611.556172 273.973219 
L 641.556172 273.973219 
" style="fill:none;stroke:#55a868;stroke-linecap:round;stroke-width:1.75;"/>
    </g>
    <g id="line2d_40"/>
    <g id="text_29">
     <!-- ssGSEA -->
     <g style="fill:#262626;" transform="translate(653.556172 279.223219)scale(0.15 -0.15)">
      <use xlink:href="#ArialMT-73"/>
      <use x="50" xlink:href="#ArialMT-73"/>
      <use x="100" xlink:href="#ArialMT-47"/>
      <use x="177.783203" xlink:href="#ArialMT-53"/>
      <use x="244.482422" xlink:href="#ArialMT-45"/>
      <use x="311.181641" xlink:href="#ArialMT-41"/>
     </g>
    </g>
    <g id="line2d_41">
     <path d="M 611.556172 295.191187 
L 641.556172 295.191187 
" style="fill:none;stroke:#c44e52;stroke-linecap:round;stroke-width:1.75;"/>
    </g>
    <g id="line2d_42"/>
    <g id="text_30">
     <!-- GSVA -->
     <g style="fill:#262626;" transform="translate(653.556172 300.441187)scale(0.15 -0.15)">
      <use xlink:href="#ArialMT-47"/>
      <use x="77.783203" xlink:href="#ArialMT-53"/>
      <use x="144.482422" xlink:href="#ArialMT-56"/>
      <use x="211.072266" xlink:href="#ArialMT-41"/>
     </g>
    </g>
   </g>
  </g>
 </g>
 <defs>
  <clipPath id="p8b58c67172">
   <rect height="271.8" width="304.363636" x="54.139766" y="45.122437"/>
  </clipPath>
  <clipPath id="p08f7e05619">
   <rect height="271.8" width="304.363636" x="419.376129" y="45.122437"/>
  </clipPath>
 </defs>
</svg>
