<?xml version="1.0" encoding="utf-8" standalone="no"?>
<!DOCTYPE svg PUBLIC "-//W3C//DTD SVG 1.1//EN"
  "http://www.w3.org/Graphics/SVG/1.1/DTD/svg11.dtd">
<!-- Created with matplotlib (http://matplotlib.org/) -->
<svg height="447.809531pt" version="1.1" viewBox="0 0 419.486016 447.809531" width="419.486016pt" xmlns="http://www.w3.org/2000/svg" xmlns:xlink="http://www.w3.org/1999/xlink">
 <defs>
  <style type="text/css">
*{stroke-linecap:butt;stroke-linejoin:round;}
  </style>
 </defs>
 <g id="figure_1">
  <g id="patch_1">
   <path d="M 0 447.809531 
L 419.486016 447.809531 
L 419.486016 0 
L 0 0 
z
" style="fill:#ffffff;"/>
  </g>
  <g id="axes_1">
   <g id="patch_2">
    <path d="M 59.116875 186.163636 
L 393.916875 186.163636 
L 393.916875 13.2 
L 59.116875 13.2 
z
" style="fill:#ffffff;"/>
   </g>
   <g id="matplotlib.axis_1">
    <g id="xtick_1"/>
    <g id="xtick_2"/>
    <g id="xtick_3"/>
    <g id="xtick_4"/>
    <g id="xtick_5"/>
    <g id="text_1">
     <!-- JAK1 Expression log2(TPM + 1) -->
     <defs>
      <path d="M 9.8125 72.90625 
L 19.671875 72.90625 
L 19.671875 5.078125 
Q 19.671875 -8.109375 14.671875 -14.0625 
Q 9.671875 -20.015625 -1.421875 -20.015625 
L -5.171875 -20.015625 
L -5.171875 -11.71875 
L -2.09375 -11.71875 
Q 4.4375 -11.71875 7.125 -8.046875 
Q 9.8125 -4.390625 9.8125 5.078125 
z
" id="DejaVuSans-4a"/>
      <path d="M 34.1875 63.1875 
L 20.796875 26.90625 
L 47.609375 26.90625 
z
M 28.609375 72.90625 
L 39.796875 72.90625 
L 67.578125 0 
L 57.328125 0 
L 50.6875 18.703125 
L 17.828125 18.703125 
L 11.1875 0 
L 0.78125 0 
z
" id="DejaVuSans-41"/>
      <path d="M 9.8125 72.90625 
L 19.671875 72.90625 
L 19.671875 42.09375 
L 52.390625 72.90625 
L 65.09375 72.90625 
L 28.90625 38.921875 
L 67.671875 0 
L 54.6875 0 
L 19.671875 35.109375 
L 19.671875 0 
L 9.8125 0 
z
" id="DejaVuSans-4b"/>
      <path d="M 12.40625 8.296875 
L 28.515625 8.296875 
L 28.515625 63.921875 
L 10.984375 60.40625 
L 10.984375 69.390625 
L 28.421875 72.90625 
L 38.28125 72.90625 
L 38.28125 8.296875 
L 54.390625 8.296875 
L 54.390625 0 
L 12.40625 0 
z
" id="DejaVuSans-31"/>
      <path id="DejaVuSans-20"/>
      <path d="M 9.8125 72.90625 
L 55.90625 72.90625 
L 55.90625 64.59375 
L 19.671875 64.59375 
L 19.671875 43.015625 
L 54.390625 43.015625 
L 54.390625 34.71875 
L 19.671875 34.71875 
L 19.671875 8.296875 
L 56.78125 8.296875 
L 56.78125 0 
L 9.8125 0 
z
" id="DejaVuSans-45"/>
      <path d="M 54.890625 54.6875 
L 35.109375 28.078125 
L 55.90625 0 
L 45.3125 0 
L 29.390625 21.484375 
L 13.484375 0 
L 2.875 0 
L 24.125 28.609375 
L 4.6875 54.6875 
L 15.28125 54.6875 
L 29.78125 35.203125 
L 44.28125 54.6875 
z
" id="DejaVuSans-78"/>
      <path d="M 18.109375 8.203125 
L 18.109375 -20.796875 
L 9.078125 -20.796875 
L 9.078125 54.6875 
L 18.109375 54.6875 
L 18.109375 46.390625 
Q 20.953125 51.265625 25.265625 53.625 
Q 29.59375 56 35.59375 56 
Q 45.5625 56 51.78125 48.09375 
Q 58.015625 40.1875 58.015625 27.296875 
Q 58.015625 14.40625 51.78125 6.484375 
Q 45.5625 -1.421875 35.59375 -1.421875 
Q 29.59375 -1.421875 25.265625 0.953125 
Q 20.953125 3.328125 18.109375 8.203125 
z
M 48.6875 27.296875 
Q 48.6875 37.203125 44.609375 42.84375 
Q 40.53125 48.484375 33.40625 48.484375 
Q 26.265625 48.484375 22.1875 42.84375 
Q 18.109375 37.203125 18.109375 27.296875 
Q 18.109375 17.390625 22.1875 11.75 
Q 26.265625 6.109375 33.40625 6.109375 
Q 40.53125 6.109375 44.609375 11.75 
Q 48.6875 17.390625 48.6875 27.296875 
z
" id="DejaVuSans-70"/>
      <path d="M 41.109375 46.296875 
Q 39.59375 47.171875 37.8125 47.578125 
Q 36.03125 48 33.890625 48 
Q 26.265625 48 22.1875 43.046875 
Q 18.109375 38.09375 18.109375 28.8125 
L 18.109375 0 
L 9.078125 0 
L 9.078125 54.6875 
L 18.109375 54.6875 
L 18.109375 46.1875 
Q 20.953125 51.171875 25.484375 53.578125 
Q 30.03125 56 36.53125 56 
Q 37.453125 56 38.578125 55.875 
Q 39.703125 55.765625 41.0625 55.515625 
z
" id="DejaVuSans-72"/>
      <path d="M 56.203125 29.59375 
L 56.203125 25.203125 
L 14.890625 25.203125 
Q 15.484375 15.921875 20.484375 11.0625 
Q 25.484375 6.203125 34.421875 6.203125 
Q 39.59375 6.203125 44.453125 7.46875 
Q 49.3125 8.734375 54.109375 11.28125 
L 54.109375 2.78125 
Q 49.265625 0.734375 44.1875 -0.34375 
Q 39.109375 -1.421875 33.890625 -1.421875 
Q 20.796875 -1.421875 13.15625 6.1875 
Q 5.515625 13.8125 5.515625 26.8125 
Q 5.515625 40.234375 12.765625 48.109375 
Q 20.015625 56 32.328125 56 
Q 43.359375 56 49.78125 48.890625 
Q 56.203125 41.796875 56.203125 29.59375 
z
M 47.21875 32.234375 
Q 47.125 39.59375 43.09375 43.984375 
Q 39.0625 48.390625 32.421875 48.390625 
Q 24.90625 48.390625 20.390625 44.140625 
Q 15.875 39.890625 15.1875 32.171875 
z
" id="DejaVuSans-65"/>
      <path d="M 44.28125 53.078125 
L 44.28125 44.578125 
Q 40.484375 46.53125 36.375 47.5 
Q 32.28125 48.484375 27.875 48.484375 
Q 21.1875 48.484375 17.84375 46.4375 
Q 14.5 44.390625 14.5 40.28125 
Q 14.5 37.15625 16.890625 35.375 
Q 19.28125 33.59375 26.515625 31.984375 
L 29.59375 31.296875 
Q 39.15625 29.25 43.1875 25.515625 
Q 47.21875 21.78125 47.21875 15.09375 
Q 47.21875 7.46875 41.1875 3.015625 
Q 35.15625 -1.421875 24.609375 -1.421875 
Q 20.21875 -1.421875 15.453125 -0.5625 
Q 10.6875 0.296875 5.421875 2 
L 5.421875 11.28125 
Q 10.40625 8.6875 15.234375 7.390625 
Q 20.0625 6.109375 24.8125 6.109375 
Q 31.15625 6.109375 34.5625 8.28125 
Q 37.984375 10.453125 37.984375 14.40625 
Q 37.984375 18.0625 35.515625 20.015625 
Q 33.0625 21.96875 24.703125 23.78125 
L 21.578125 24.515625 
Q 13.234375 26.265625 9.515625 29.90625 
Q 5.8125 33.546875 5.8125 39.890625 
Q 5.8125 47.609375 11.28125 51.796875 
Q 16.75 56 26.8125 56 
Q 31.78125 56 36.171875 55.265625 
Q 40.578125 54.546875 44.28125 53.078125 
z
" id="DejaVuSans-73"/>
      <path d="M 9.421875 54.6875 
L 18.40625 54.6875 
L 18.40625 0 
L 9.421875 0 
z
M 9.421875 75.984375 
L 18.40625 75.984375 
L 18.40625 64.59375 
L 9.421875 64.59375 
z
" id="DejaVuSans-69"/>
      <path d="M 30.609375 48.390625 
Q 23.390625 48.390625 19.1875 42.75 
Q 14.984375 37.109375 14.984375 27.296875 
Q 14.984375 17.484375 19.15625 11.84375 
Q 23.34375 6.203125 30.609375 6.203125 
Q 37.796875 6.203125 41.984375 11.859375 
Q 46.1875 17.53125 46.1875 27.296875 
Q 46.1875 37.015625 41.984375 42.703125 
Q 37.796875 48.390625 30.609375 48.390625 
z
M 30.609375 56 
Q 42.328125 56 49.015625 48.375 
Q 55.71875 40.765625 55.71875 27.296875 
Q 55.71875 13.875 49.015625 6.21875 
Q 42.328125 -1.421875 30.609375 -1.421875 
Q 18.84375 -1.421875 12.171875 6.21875 
Q 5.515625 13.875 5.515625 27.296875 
Q 5.515625 40.765625 12.171875 48.375 
Q 18.84375 56 30.609375 56 
z
" id="DejaVuSans-6f"/>
      <path d="M 54.890625 33.015625 
L 54.890625 0 
L 45.90625 0 
L 45.90625 32.71875 
Q 45.90625 40.484375 42.875 44.328125 
Q 39.84375 48.1875 33.796875 48.1875 
Q 26.515625 48.1875 22.3125 43.546875 
Q 18.109375 38.921875 18.109375 30.90625 
L 18.109375 0 
L 9.078125 0 
L 9.078125 54.6875 
L 18.109375 54.6875 
L 18.109375 46.1875 
Q 21.34375 51.125 25.703125 53.5625 
Q 30.078125 56 35.796875 56 
Q 45.21875 56 50.046875 50.171875 
Q 54.890625 44.34375 54.890625 33.015625 
z
" id="DejaVuSans-6e"/>
      <path d="M 9.421875 75.984375 
L 18.40625 75.984375 
L 18.40625 0 
L 9.421875 0 
z
" id="DejaVuSans-6c"/>
      <path d="M 45.40625 27.984375 
Q 45.40625 37.75 41.375 43.109375 
Q 37.359375 48.484375 30.078125 48.484375 
Q 22.859375 48.484375 18.828125 43.109375 
Q 14.796875 37.75 14.796875 27.984375 
Q 14.796875 18.265625 18.828125 12.890625 
Q 22.859375 7.515625 30.078125 7.515625 
Q 37.359375 7.515625 41.375 12.890625 
Q 45.40625 18.265625 45.40625 27.984375 
z
M 54.390625 6.78125 
Q 54.390625 -7.171875 48.1875 -13.984375 
Q 42 -20.796875 29.203125 -20.796875 
Q 24.46875 -20.796875 20.265625 -20.09375 
Q 16.0625 -19.390625 12.109375 -17.921875 
L 12.109375 -9.1875 
Q 16.0625 -11.328125 19.921875 -12.34375 
Q 23.78125 -13.375 27.78125 -13.375 
Q 36.625 -13.375 41.015625 -8.765625 
Q 45.40625 -4.15625 45.40625 5.171875 
L 45.40625 9.625 
Q 42.625 4.78125 38.28125 2.390625 
Q 33.9375 0 27.875 0 
Q 17.828125 0 11.671875 7.65625 
Q 5.515625 15.328125 5.515625 27.984375 
Q 5.515625 40.671875 11.671875 48.328125 
Q 17.828125 56 27.875 56 
Q 33.9375 56 38.28125 53.609375 
Q 42.625 51.21875 45.40625 46.390625 
L 45.40625 54.6875 
L 54.390625 54.6875 
z
" id="DejaVuSans-67"/>
      <path d="M 19.1875 8.296875 
L 53.609375 8.296875 
L 53.609375 0 
L 7.328125 0 
L 7.328125 8.296875 
Q 12.9375 14.109375 22.625 23.890625 
Q 32.328125 33.6875 34.8125 36.53125 
Q 39.546875 41.84375 41.421875 45.53125 
Q 43.3125 49.21875 43.3125 52.78125 
Q 43.3125 58.59375 39.234375 62.25 
Q 35.15625 65.921875 28.609375 65.921875 
Q 23.96875 65.921875 18.8125 64.3125 
Q 13.671875 62.703125 7.8125 59.421875 
L 7.8125 69.390625 
Q 13.765625 71.78125 18.9375 73 
Q 24.125 74.21875 28.421875 74.21875 
Q 39.75 74.21875 46.484375 68.546875 
Q 53.21875 62.890625 53.21875 53.421875 
Q 53.21875 48.921875 51.53125 44.890625 
Q 49.859375 40.875 45.40625 35.40625 
Q 44.1875 33.984375 37.640625 27.21875 
Q 31.109375 20.453125 19.1875 8.296875 
z
" id="DejaVuSans-32"/>
      <path d="M 31 75.875 
Q 24.46875 64.65625 21.28125 53.65625 
Q 18.109375 42.671875 18.109375 31.390625 
Q 18.109375 20.125 21.3125 9.0625 
Q 24.515625 -2 31 -13.1875 
L 23.1875 -13.1875 
Q 15.875 -1.703125 12.234375 9.375 
Q 8.59375 20.453125 8.59375 31.390625 
Q 8.59375 42.28125 12.203125 53.3125 
Q 15.828125 64.359375 23.1875 75.875 
z
" id="DejaVuSans-28"/>
      <path d="M -0.296875 72.90625 
L 61.375 72.90625 
L 61.375 64.59375 
L 35.5 64.59375 
L 35.5 0 
L 25.59375 0 
L 25.59375 64.59375 
L -0.296875 64.59375 
z
" id="DejaVuSans-54"/>
      <path d="M 19.671875 64.796875 
L 19.671875 37.40625 
L 32.078125 37.40625 
Q 38.96875 37.40625 42.71875 40.96875 
Q 46.484375 44.53125 46.484375 51.125 
Q 46.484375 57.671875 42.71875 61.234375 
Q 38.96875 64.796875 32.078125 64.796875 
z
M 9.8125 72.90625 
L 32.078125 72.90625 
Q 44.34375 72.90625 50.609375 67.359375 
Q 56.890625 61.8125 56.890625 51.125 
Q 56.890625 40.328125 50.609375 34.8125 
Q 44.34375 29.296875 32.078125 29.296875 
L 19.671875 29.296875 
L 19.671875 0 
L 9.8125 0 
z
" id="DejaVuSans-50"/>
      <path d="M 9.8125 72.90625 
L 24.515625 72.90625 
L 43.109375 23.296875 
L 61.8125 72.90625 
L 76.515625 72.90625 
L 76.515625 0 
L 66.890625 0 
L 66.890625 64.015625 
L 48.09375 14.015625 
L 38.1875 14.015625 
L 19.390625 64.015625 
L 19.390625 0 
L 9.8125 0 
z
" id="DejaVuSans-4d"/>
      <path d="M 46 62.703125 
L 46 35.5 
L 73.1875 35.5 
L 73.1875 27.203125 
L 46 27.203125 
L 46 0 
L 37.796875 0 
L 37.796875 27.203125 
L 10.59375 27.203125 
L 10.59375 35.5 
L 37.796875 35.5 
L 37.796875 62.703125 
z
" id="DejaVuSans-2b"/>
      <path d="M 8.015625 75.875 
L 15.828125 75.875 
Q 23.140625 64.359375 26.78125 53.3125 
Q 30.421875 42.28125 30.421875 31.390625 
Q 30.421875 20.453125 26.78125 9.375 
Q 23.140625 -1.703125 15.828125 -13.1875 
L 8.015625 -13.1875 
Q 14.5 -2 17.703125 9.0625 
Q 20.90625 20.125 20.90625 31.390625 
Q 20.90625 42.671875 17.703125 53.65625 
Q 14.5 64.65625 8.015625 75.875 
z
" id="DejaVuSans-29"/>
     </defs>
     <g style="fill:#262626;" transform="translate(87.160313 203.840824)scale(0.18 -0.18)">
      <use xlink:href="#DejaVuSans-4a"/>
      <use x="29.476562" xlink:href="#DejaVuSans-41"/>
      <use x="97.884766" xlink:href="#DejaVuSans-4b"/>
      <use x="163.460938" xlink:href="#DejaVuSans-31"/>
      <use x="227.083984" xlink:href="#DejaVuSans-20"/>
      <use x="258.871094" xlink:href="#DejaVuSans-45"/>
      <use x="322.054688" xlink:href="#DejaVuSans-78"/>
      <use x="381.234375" xlink:href="#DejaVuSans-70"/>
      <use x="444.710938" xlink:href="#DejaVuSans-72"/>
      <use x="485.792969" xlink:href="#DejaVuSans-65"/>
      <use x="547.316406" xlink:href="#DejaVuSans-73"/>
      <use x="599.416016" xlink:href="#DejaVuSans-73"/>
      <use x="651.515625" xlink:href="#DejaVuSans-69"/>
      <use x="679.298828" xlink:href="#DejaVuSans-6f"/>
      <use x="740.480469" xlink:href="#DejaVuSans-6e"/>
      <use x="803.859375" xlink:href="#DejaVuSans-20"/>
      <use x="835.646484" xlink:href="#DejaVuSans-6c"/>
      <use x="863.429688" xlink:href="#DejaVuSans-6f"/>
      <use x="924.611328" xlink:href="#DejaVuSans-67"/>
      <use x="988.087891" xlink:href="#DejaVuSans-32"/>
      <use x="1051.710938" xlink:href="#DejaVuSans-28"/>
      <use x="1090.724609" xlink:href="#DejaVuSans-54"/>
      <use x="1151.808594" xlink:href="#DejaVuSans-50"/>
      <use x="1212.111328" xlink:href="#DejaVuSans-4d"/>
      <use x="1298.390625" xlink:href="#DejaVuSans-20"/>
      <use x="1330.177734" xlink:href="#DejaVuSans-2b"/>
      <use x="1413.966797" xlink:href="#DejaVuSans-20"/>
      <use x="1445.753906" xlink:href="#DejaVuSans-31"/>
      <use x="1509.376953" xlink:href="#DejaVuSans-29"/>
     </g>
    </g>
   </g>
   <g id="matplotlib.axis_2">
    <g id="ytick_1">
     <g id="text_2">
      <!-- 0 -->
      <defs>
       <path d="M 31.78125 66.40625 
Q 24.171875 66.40625 20.328125 58.90625 
Q 16.5 51.421875 16.5 36.375 
Q 16.5 21.390625 20.328125 13.890625 
Q 24.171875 6.390625 31.78125 6.390625 
Q 39.453125 6.390625 43.28125 13.890625 
Q 47.125 21.390625 47.125 36.375 
Q 47.125 51.421875 43.28125 58.90625 
Q 39.453125 66.40625 31.78125 66.40625 
z
M 31.78125 74.21875 
Q 44.046875 74.21875 50.515625 64.515625 
Q 56.984375 54.828125 56.984375 36.375 
Q 56.984375 17.96875 50.515625 8.265625 
Q 44.046875 -1.421875 31.78125 -1.421875 
Q 19.53125 -1.421875 13.0625 8.265625 
Q 6.59375 17.96875 6.59375 36.375 
Q 6.59375 54.828125 13.0625 64.515625 
Q 19.53125 74.21875 31.78125 74.21875 
z
" id="DejaVuSans-30"/>
      </defs>
      <g style="fill:#262626;" transform="translate(39.11875 192.432347)scale(0.165 -0.165)">
       <use xlink:href="#DejaVuSans-30"/>
      </g>
     </g>
    </g>
    <g id="ytick_2">
     <g id="text_3">
      <!-- 5 -->
      <defs>
       <path d="M 10.796875 72.90625 
L 49.515625 72.90625 
L 49.515625 64.59375 
L 19.828125 64.59375 
L 19.828125 46.734375 
Q 21.96875 47.46875 24.109375 47.828125 
Q 26.265625 48.1875 28.421875 48.1875 
Q 40.625 48.1875 47.75 41.5 
Q 54.890625 34.8125 54.890625 23.390625 
Q 54.890625 11.625 47.5625 5.09375 
Q 40.234375 -1.421875 26.90625 -1.421875 
Q 22.3125 -1.421875 17.546875 -0.640625 
Q 12.796875 0.140625 7.71875 1.703125 
L 7.71875 11.625 
Q 12.109375 9.234375 16.796875 8.0625 
Q 21.484375 6.890625 26.703125 6.890625 
Q 35.15625 6.890625 40.078125 11.328125 
Q 45.015625 15.765625 45.015625 23.390625 
Q 45.015625 31 40.078125 35.4375 
Q 35.15625 39.890625 26.703125 39.890625 
Q 22.75 39.890625 18.8125 39.015625 
Q 14.890625 38.140625 10.796875 36.28125 
z
" id="DejaVuSans-35"/>
      </defs>
      <g style="fill:#262626;" transform="translate(39.11875 151.250529)scale(0.165 -0.165)">
       <use xlink:href="#DejaVuSans-35"/>
      </g>
     </g>
    </g>
    <g id="ytick_3">
     <g id="text_4">
      <!-- 10 -->
      <g style="fill:#262626;" transform="translate(28.620625 110.068711)scale(0.165 -0.165)">
       <use xlink:href="#DejaVuSans-31"/>
       <use x="63.623047" xlink:href="#DejaVuSans-30"/>
      </g>
     </g>
    </g>
    <g id="ytick_4">
     <g id="text_5">
      <!-- 15 -->
      <g style="fill:#262626;" transform="translate(28.620625 68.886893)scale(0.165 -0.165)">
       <use xlink:href="#DejaVuSans-31"/>
       <use x="63.623047" xlink:href="#DejaVuSans-35"/>
      </g>
     </g>
    </g>
    <g id="ytick_5">
     <g id="text_6">
      <!-- 20 -->
      <g style="fill:#262626;" transform="translate(28.620625 27.705075)scale(0.165 -0.165)">
       <use xlink:href="#DejaVuSans-32"/>
       <use x="63.623047" xlink:href="#DejaVuSans-30"/>
      </g>
     </g>
    </g>
    <g id="text_7">
     <!-- Count -->
     <defs>
      <path d="M 64.40625 67.28125 
L 64.40625 56.890625 
Q 59.421875 61.53125 53.78125 63.8125 
Q 48.140625 66.109375 41.796875 66.109375 
Q 29.296875 66.109375 22.65625 58.46875 
Q 16.015625 50.828125 16.015625 36.375 
Q 16.015625 21.96875 22.65625 14.328125 
Q 29.296875 6.6875 41.796875 6.6875 
Q 48.140625 6.6875 53.78125 8.984375 
Q 59.421875 11.28125 64.40625 15.921875 
L 64.40625 5.609375 
Q 59.234375 2.09375 53.4375 0.328125 
Q 47.65625 -1.421875 41.21875 -1.421875 
Q 24.65625 -1.421875 15.125 8.703125 
Q 5.609375 18.84375 5.609375 36.375 
Q 5.609375 53.953125 15.125 64.078125 
Q 24.65625 74.21875 41.21875 74.21875 
Q 47.75 74.21875 53.53125 72.484375 
Q 59.328125 70.75 64.40625 67.28125 
z
" id="DejaVuSans-43"/>
      <path d="M 8.5 21.578125 
L 8.5 54.6875 
L 17.484375 54.6875 
L 17.484375 21.921875 
Q 17.484375 14.15625 20.5 10.265625 
Q 23.53125 6.390625 29.59375 6.390625 
Q 36.859375 6.390625 41.078125 11.03125 
Q 45.3125 15.671875 45.3125 23.6875 
L 45.3125 54.6875 
L 54.296875 54.6875 
L 54.296875 0 
L 45.3125 0 
L 45.3125 8.40625 
Q 42.046875 3.421875 37.71875 1 
Q 33.40625 -1.421875 27.6875 -1.421875 
Q 18.265625 -1.421875 13.375 4.4375 
Q 8.5 10.296875 8.5 21.578125 
z
M 31.109375 56 
z
" id="DejaVuSans-75"/>
      <path d="M 18.3125 70.21875 
L 18.3125 54.6875 
L 36.8125 54.6875 
L 36.8125 47.703125 
L 18.3125 47.703125 
L 18.3125 18.015625 
Q 18.3125 11.328125 20.140625 9.421875 
Q 21.96875 7.515625 27.59375 7.515625 
L 36.8125 7.515625 
L 36.8125 0 
L 27.59375 0 
Q 17.1875 0 13.234375 3.875 
Q 9.28125 7.765625 9.28125 18.015625 
L 9.28125 47.703125 
L 2.6875 47.703125 
L 2.6875 54.6875 
L 9.28125 54.6875 
L 9.28125 70.21875 
z
" id="DejaVuSans-74"/>
     </defs>
     <g style="fill:#262626;" transform="translate(20.877188 126.409006)rotate(-90)scale(0.18 -0.18)">
      <use xlink:href="#DejaVuSans-43"/>
      <use x="69.824219" xlink:href="#DejaVuSans-6f"/>
      <use x="131.005859" xlink:href="#DejaVuSans-75"/>
      <use x="194.384766" xlink:href="#DejaVuSans-6e"/>
      <use x="257.763672" xlink:href="#DejaVuSans-74"/>
     </g>
    </g>
   </g>
   <g id="patch_3">
    <path clip-path="url(#p027c1e9052)" d="M 74.335057 186.163636 
L 90.354196 186.163636 
L 90.354196 186.163636 
L 74.335057 186.163636 
z
" style="fill:#4c72b0;opacity:0.4;stroke:#ffffff;stroke-linejoin:miter;"/>
   </g>
   <g id="patch_4">
    <path clip-path="url(#p027c1e9052)" d="M 90.354196 186.163636 
L 106.373334 186.163636 
L 106.373334 186.163636 
L 90.354196 186.163636 
z
" style="fill:#4c72b0;opacity:0.4;stroke:#ffffff;stroke-linejoin:miter;"/>
   </g>
   <g id="patch_5">
    <path clip-path="url(#p027c1e9052)" d="M 106.373334 186.163636 
L 122.392473 186.163636 
L 122.392473 177.927273 
L 106.373334 177.927273 
z
" style="fill:#4c72b0;opacity:0.4;stroke:#ffffff;stroke-linejoin:miter;"/>
   </g>
   <g id="patch_6">
    <path clip-path="url(#p027c1e9052)" d="M 122.392473 186.163636 
L 138.411612 186.163636 
L 138.411612 177.927273 
L 122.392473 177.927273 
z
" style="fill:#4c72b0;opacity:0.4;stroke:#ffffff;stroke-linejoin:miter;"/>
   </g>
   <g id="patch_7">
    <path clip-path="url(#p027c1e9052)" d="M 138.411612 186.163636 
L 154.430751 186.163636 
L 154.430751 186.163636 
L 138.411612 186.163636 
z
" style="fill:#4c72b0;opacity:0.4;stroke:#ffffff;stroke-linejoin:miter;"/>
   </g>
   <g id="patch_8">
    <path clip-path="url(#p027c1e9052)" d="M 154.430751 186.163636 
L 170.449889 186.163636 
L 170.449889 177.927273 
L 154.430751 177.927273 
z
" style="fill:#4c72b0;opacity:0.4;stroke:#ffffff;stroke-linejoin:miter;"/>
   </g>
   <g id="patch_9">
    <path clip-path="url(#p027c1e9052)" d="M 170.449889 186.163636 
L 186.469028 186.163636 
L 186.469028 153.218182 
L 170.449889 153.218182 
z
" style="fill:#4c72b0;opacity:0.4;stroke:#ffffff;stroke-linejoin:miter;"/>
   </g>
   <g id="patch_10">
    <path clip-path="url(#p027c1e9052)" d="M 186.469028 186.163636 
L 202.488167 186.163636 
L 202.488167 153.218182 
L 186.469028 153.218182 
z
" style="fill:#4c72b0;opacity:0.4;stroke:#ffffff;stroke-linejoin:miter;"/>
   </g>
   <g id="patch_11">
    <path clip-path="url(#p027c1e9052)" d="M 202.488167 186.163636 
L 218.507306 186.163636 
L 218.507306 161.454545 
L 202.488167 161.454545 
z
" style="fill:#4c72b0;opacity:0.4;stroke:#ffffff;stroke-linejoin:miter;"/>
   </g>
   <g id="patch_12">
    <path clip-path="url(#p027c1e9052)" d="M 218.507306 186.163636 
L 234.526444 186.163636 
L 234.526444 169.690909 
L 218.507306 169.690909 
z
" style="fill:#4c72b0;opacity:0.4;stroke:#ffffff;stroke-linejoin:miter;"/>
   </g>
   <g id="patch_13">
    <path clip-path="url(#p027c1e9052)" d="M 234.526444 186.163636 
L 250.545583 186.163636 
L 250.545583 62.618182 
L 234.526444 62.618182 
z
" style="fill:#4c72b0;opacity:0.4;stroke:#ffffff;stroke-linejoin:miter;"/>
   </g>
   <g id="patch_14">
    <path clip-path="url(#p027c1e9052)" d="M 250.545583 186.163636 
L 266.564722 186.163636 
L 266.564722 144.981818 
L 250.545583 144.981818 
z
" style="fill:#4c72b0;opacity:0.4;stroke:#ffffff;stroke-linejoin:miter;"/>
   </g>
   <g id="patch_15">
    <path clip-path="url(#p027c1e9052)" d="M 266.564722 186.163636 
L 282.583861 186.163636 
L 282.583861 136.745455 
L 266.564722 136.745455 
z
" style="fill:#4c72b0;opacity:0.4;stroke:#ffffff;stroke-linejoin:miter;"/>
   </g>
   <g id="patch_16">
    <path clip-path="url(#p027c1e9052)" d="M 282.583861 186.163636 
L 298.602999 186.163636 
L 298.602999 21.436364 
L 282.583861 21.436364 
z
" style="fill:#4c72b0;opacity:0.4;stroke:#ffffff;stroke-linejoin:miter;"/>
   </g>
   <g id="patch_17">
    <path clip-path="url(#p027c1e9052)" d="M 298.602999 186.163636 
L 314.622138 186.163636 
L 314.622138 79.090909 
L 298.602999 79.090909 
z
" style="fill:#4c72b0;opacity:0.4;stroke:#ffffff;stroke-linejoin:miter;"/>
   </g>
   <g id="patch_18">
    <path clip-path="url(#p027c1e9052)" d="M 314.622138 186.163636 
L 330.641277 186.163636 
L 330.641277 128.509091 
L 314.622138 128.509091 
z
" style="fill:#4c72b0;opacity:0.4;stroke:#ffffff;stroke-linejoin:miter;"/>
   </g>
   <g id="patch_19">
    <path clip-path="url(#p027c1e9052)" d="M 330.641277 186.163636 
L 346.660416 186.163636 
L 346.660416 186.163636 
L 330.641277 186.163636 
z
" style="fill:#4c72b0;opacity:0.4;stroke:#ffffff;stroke-linejoin:miter;"/>
   </g>
   <g id="patch_20">
    <path clip-path="url(#p027c1e9052)" d="M 346.660416 186.163636 
L 362.679554 186.163636 
L 362.679554 186.163636 
L 346.660416 186.163636 
z
" style="fill:#4c72b0;opacity:0.4;stroke:#ffffff;stroke-linejoin:miter;"/>
   </g>
   <g id="patch_21">
    <path clip-path="url(#p027c1e9052)" d="M 362.679554 186.163636 
L 378.698693 186.163636 
L 378.698693 186.163636 
L 362.679554 186.163636 
z
" style="fill:#4c72b0;opacity:0.4;stroke:#ffffff;stroke-linejoin:miter;"/>
   </g>
   <g id="patch_22">
    <path d="M 59.116875 186.163636 
L 59.116875 13.2 
" style="fill:none;stroke:#262626;stroke-linecap:square;stroke-linejoin:miter;stroke-width:1.25;"/>
   </g>
   <g id="patch_23">
    <path d="M 59.116875 186.163636 
L 393.916875 186.163636 
" style="fill:none;stroke:#262626;stroke-linecap:square;stroke-linejoin:miter;stroke-width:1.25;"/>
   </g>
  </g>
  <g id="axes_2">
   <g id="patch_24">
    <path d="M 59.116875 393.72 
L 393.916875 393.72 
L 393.916875 220.756364 
L 59.116875 220.756364 
z
" style="fill:#ffffff;"/>
   </g>
   <g id="matplotlib.axis_3">
    <g id="xtick_6">
     <g id="text_8">
      <!-- 2.5 -->
      <defs>
       <path d="M 10.6875 12.40625 
L 21 12.40625 
L 21 0 
L 10.6875 0 
z
" id="DejaVuSans-2e"/>
      </defs>
      <g style="fill:#262626;" transform="translate(76.433161 415.757422)scale(0.165 -0.165)">
       <use xlink:href="#DejaVuSans-32"/>
       <use x="63.623047" xlink:href="#DejaVuSans-2e"/>
       <use x="95.410156" xlink:href="#DejaVuSans-35"/>
      </g>
     </g>
    </g>
    <g id="xtick_7">
     <g id="text_9">
      <!-- 5.0 -->
      <g style="fill:#262626;" transform="translate(152.52407 415.757422)scale(0.165 -0.165)">
       <use xlink:href="#DejaVuSans-35"/>
       <use x="63.623047" xlink:href="#DejaVuSans-2e"/>
       <use x="95.410156" xlink:href="#DejaVuSans-30"/>
      </g>
     </g>
    </g>
    <g id="xtick_8">
     <g id="text_10">
      <!-- 7.5 -->
      <defs>
       <path d="M 8.203125 72.90625 
L 55.078125 72.90625 
L 55.078125 68.703125 
L 28.609375 0 
L 18.3125 0 
L 43.21875 64.59375 
L 8.203125 64.59375 
z
" id="DejaVuSans-37"/>
      </defs>
      <g style="fill:#262626;" transform="translate(228.614979 415.757422)scale(0.165 -0.165)">
       <use xlink:href="#DejaVuSans-37"/>
       <use x="63.623047" xlink:href="#DejaVuSans-2e"/>
       <use x="95.410156" xlink:href="#DejaVuSans-35"/>
      </g>
     </g>
    </g>
    <g id="xtick_9">
     <g id="text_11">
      <!-- 10.0 -->
      <g style="fill:#262626;" transform="translate(299.456825 415.757422)scale(0.165 -0.165)">
       <use xlink:href="#DejaVuSans-31"/>
       <use x="63.623047" xlink:href="#DejaVuSans-30"/>
       <use x="127.246094" xlink:href="#DejaVuSans-2e"/>
       <use x="159.033203" xlink:href="#DejaVuSans-30"/>
      </g>
     </g>
    </g>
    <g id="xtick_10">
     <g id="text_12">
      <!-- 12.5 -->
      <g style="fill:#262626;" transform="translate(375.547734 415.757422)scale(0.165 -0.165)">
       <use xlink:href="#DejaVuSans-31"/>
       <use x="63.623047" xlink:href="#DejaVuSans-32"/>
       <use x="127.246094" xlink:href="#DejaVuSans-2e"/>
       <use x="159.033203" xlink:href="#DejaVuSans-35"/>
      </g>
     </g>
    </g>
    <g id="text_13">
     <!-- JAK1 Expression log2(TPM + 1) -->
     <g style="fill:#262626;" transform="translate(87.160313 436.866094)scale(0.18 -0.18)">
      <use xlink:href="#DejaVuSans-4a"/>
      <use x="29.476562" xlink:href="#DejaVuSans-41"/>
      <use x="97.884766" xlink:href="#DejaVuSans-4b"/>
      <use x="163.460938" xlink:href="#DejaVuSans-31"/>
      <use x="227.083984" xlink:href="#DejaVuSans-20"/>
      <use x="258.871094" xlink:href="#DejaVuSans-45"/>
      <use x="322.054688" xlink:href="#DejaVuSans-78"/>
      <use x="381.234375" xlink:href="#DejaVuSans-70"/>
      <use x="444.710938" xlink:href="#DejaVuSans-72"/>
      <use x="485.792969" xlink:href="#DejaVuSans-65"/>
      <use x="547.316406" xlink:href="#DejaVuSans-73"/>
      <use x="599.416016" xlink:href="#DejaVuSans-73"/>
      <use x="651.515625" xlink:href="#DejaVuSans-69"/>
      <use x="679.298828" xlink:href="#DejaVuSans-6f"/>
      <use x="740.480469" xlink:href="#DejaVuSans-6e"/>
      <use x="803.859375" xlink:href="#DejaVuSans-20"/>
      <use x="835.646484" xlink:href="#DejaVuSans-6c"/>
      <use x="863.429688" xlink:href="#DejaVuSans-6f"/>
      <use x="924.611328" xlink:href="#DejaVuSans-67"/>
      <use x="988.087891" xlink:href="#DejaVuSans-32"/>
      <use x="1051.710938" xlink:href="#DejaVuSans-28"/>
      <use x="1090.724609" xlink:href="#DejaVuSans-54"/>
      <use x="1151.808594" xlink:href="#DejaVuSans-50"/>
      <use x="1212.111328" xlink:href="#DejaVuSans-4d"/>
      <use x="1298.390625" xlink:href="#DejaVuSans-20"/>
      <use x="1330.177734" xlink:href="#DejaVuSans-2b"/>
      <use x="1413.966797" xlink:href="#DejaVuSans-20"/>
      <use x="1445.753906" xlink:href="#DejaVuSans-31"/>
      <use x="1509.376953" xlink:href="#DejaVuSans-29"/>
     </g>
    </g>
   </g>
   <g id="matplotlib.axis_4">
    <g id="ytick_6">
     <g id="text_14">
      <!-- 0 -->
      <g style="fill:#262626;" transform="translate(39.11875 399.988711)scale(0.165 -0.165)">
       <use xlink:href="#DejaVuSans-30"/>
      </g>
     </g>
    </g>
    <g id="ytick_7">
     <g id="text_15">
      <!-- 5 -->
      <g style="fill:#262626;" transform="translate(39.11875 358.806893)scale(0.165 -0.165)">
       <use xlink:href="#DejaVuSans-35"/>
      </g>
     </g>
    </g>
    <g id="ytick_8">
     <g id="text_16">
      <!-- 10 -->
      <g style="fill:#262626;" transform="translate(28.620625 317.625075)scale(0.165 -0.165)">
       <use xlink:href="#DejaVuSans-31"/>
       <use x="63.623047" xlink:href="#DejaVuSans-30"/>
      </g>
     </g>
    </g>
    <g id="ytick_9">
     <g id="text_17">
      <!-- 15 -->
      <g style="fill:#262626;" transform="translate(28.620625 276.443256)scale(0.165 -0.165)">
       <use xlink:href="#DejaVuSans-31"/>
       <use x="63.623047" xlink:href="#DejaVuSans-35"/>
      </g>
     </g>
    </g>
    <g id="ytick_10">
     <g id="text_18">
      <!-- 20 -->
      <g style="fill:#262626;" transform="translate(28.620625 235.261438)scale(0.165 -0.165)">
       <use xlink:href="#DejaVuSans-32"/>
       <use x="63.623047" xlink:href="#DejaVuSans-30"/>
      </g>
     </g>
    </g>
    <g id="text_19">
     <!-- Count -->
     <g style="fill:#262626;" transform="translate(20.877188 333.965369)rotate(-90)scale(0.18 -0.18)">
      <use xlink:href="#DejaVuSans-43"/>
      <use x="69.824219" xlink:href="#DejaVuSans-6f"/>
      <use x="131.005859" xlink:href="#DejaVuSans-75"/>
      <use x="194.384766" xlink:href="#DejaVuSans-6e"/>
      <use x="257.763672" xlink:href="#DejaVuSans-74"/>
     </g>
    </g>
   </g>
   <g id="patch_25">
    <path clip-path="url(#pe07f90ce5d)" d="M 74.335057 393.72 
L 90.354196 393.72 
L 90.354196 393.72 
L 74.335057 393.72 
z
" style="fill:#4c72b0;opacity:0.9;stroke:#ffffff;stroke-linejoin:miter;"/>
   </g>
   <g id="patch_26">
    <path clip-path="url(#pe07f90ce5d)" d="M 90.354196 393.72 
L 106.373334 393.72 
L 106.373334 393.72 
L 90.354196 393.72 
z
" style="fill:#4c72b0;opacity:0.9;stroke:#ffffff;stroke-linejoin:miter;"/>
   </g>
   <g id="patch_27">
    <path clip-path="url(#pe07f90ce5d)" d="M 106.373334 393.72 
L 122.392473 393.72 
L 122.392473 393.72 
L 106.373334 393.72 
z
" style="fill:#4c72b0;opacity:0.9;stroke:#ffffff;stroke-linejoin:miter;"/>
   </g>
   <g id="patch_28">
    <path clip-path="url(#pe07f90ce5d)" d="M 122.392473 393.72 
L 138.411612 393.72 
L 138.411612 393.72 
L 122.392473 393.72 
z
" style="fill:#4c72b0;opacity:0.9;stroke:#ffffff;stroke-linejoin:miter;"/>
   </g>
   <g id="patch_29">
    <path clip-path="url(#pe07f90ce5d)" d="M 138.411612 393.72 
L 154.430751 393.72 
L 154.430751 393.72 
L 138.411612 393.72 
z
" style="fill:#4c72b0;opacity:0.9;stroke:#ffffff;stroke-linejoin:miter;"/>
   </g>
   <g id="patch_30">
    <path clip-path="url(#pe07f90ce5d)" d="M 154.430751 393.72 
L 170.449889 393.72 
L 170.449889 393.72 
L 154.430751 393.72 
z
" style="fill:#4c72b0;opacity:0.9;stroke:#ffffff;stroke-linejoin:miter;"/>
   </g>
   <g id="patch_31">
    <path clip-path="url(#pe07f90ce5d)" d="M 170.449889 393.72 
L 186.469028 393.72 
L 186.469028 393.72 
L 170.449889 393.72 
z
" style="fill:#4c72b0;opacity:0.9;stroke:#ffffff;stroke-linejoin:miter;"/>
   </g>
   <g id="patch_32">
    <path clip-path="url(#pe07f90ce5d)" d="M 186.469028 393.72 
L 202.488167 393.72 
L 202.488167 393.72 
L 186.469028 393.72 
z
" style="fill:#4c72b0;opacity:0.9;stroke:#ffffff;stroke-linejoin:miter;"/>
   </g>
   <g id="patch_33">
    <path clip-path="url(#pe07f90ce5d)" d="M 202.488167 393.72 
L 218.507306 393.72 
L 218.507306 393.72 
L 202.488167 393.72 
z
" style="fill:#4c72b0;opacity:0.9;stroke:#ffffff;stroke-linejoin:miter;"/>
   </g>
   <g id="patch_34">
    <path clip-path="url(#pe07f90ce5d)" d="M 218.507306 393.72 
L 234.526444 393.72 
L 234.526444 393.72 
L 218.507306 393.72 
z
" style="fill:#4c72b0;opacity:0.9;stroke:#ffffff;stroke-linejoin:miter;"/>
   </g>
   <g id="patch_35">
    <path clip-path="url(#pe07f90ce5d)" d="M 234.526444 393.72 
L 250.545583 393.72 
L 250.545583 393.72 
L 234.526444 393.72 
z
" style="fill:#4c72b0;opacity:0.9;stroke:#ffffff;stroke-linejoin:miter;"/>
   </g>
   <g id="patch_36">
    <path clip-path="url(#pe07f90ce5d)" d="M 250.545583 393.72 
L 266.564722 393.72 
L 266.564722 385.483636 
L 250.545583 385.483636 
z
" style="fill:#4c72b0;opacity:0.9;stroke:#ffffff;stroke-linejoin:miter;"/>
   </g>
   <g id="patch_37">
    <path clip-path="url(#pe07f90ce5d)" d="M 266.564722 393.72 
L 282.583861 393.72 
L 282.583861 344.301818 
L 266.564722 344.301818 
z
" style="fill:#4c72b0;opacity:0.9;stroke:#ffffff;stroke-linejoin:miter;"/>
   </g>
   <g id="patch_38">
    <path clip-path="url(#pe07f90ce5d)" d="M 282.583861 393.72 
L 298.602999 393.72 
L 298.602999 228.992727 
L 282.583861 228.992727 
z
" style="fill:#4c72b0;opacity:0.9;stroke:#ffffff;stroke-linejoin:miter;"/>
   </g>
   <g id="patch_39">
    <path clip-path="url(#pe07f90ce5d)" d="M 298.602999 393.72 
L 314.622138 393.72 
L 314.622138 286.647273 
L 298.602999 286.647273 
z
" style="fill:#4c72b0;opacity:0.9;stroke:#ffffff;stroke-linejoin:miter;"/>
   </g>
   <g id="patch_40">
    <path clip-path="url(#pe07f90ce5d)" d="M 314.622138 393.72 
L 330.641277 393.72 
L 330.641277 336.065455 
L 314.622138 336.065455 
z
" style="fill:#4c72b0;opacity:0.9;stroke:#ffffff;stroke-linejoin:miter;"/>
   </g>
   <g id="patch_41">
    <path clip-path="url(#pe07f90ce5d)" d="M 330.641277 393.72 
L 346.660416 393.72 
L 346.660416 393.72 
L 330.641277 393.72 
z
" style="fill:#4c72b0;opacity:0.9;stroke:#ffffff;stroke-linejoin:miter;"/>
   </g>
   <g id="patch_42">
    <path clip-path="url(#pe07f90ce5d)" d="M 346.660416 393.72 
L 362.679554 393.72 
L 362.679554 393.72 
L 346.660416 393.72 
z
" style="fill:#4c72b0;opacity:0.9;stroke:#ffffff;stroke-linejoin:miter;"/>
   </g>
   <g id="patch_43">
    <path clip-path="url(#pe07f90ce5d)" d="M 362.679554 393.72 
L 378.698693 393.72 
L 378.698693 393.72 
L 362.679554 393.72 
z
" style="fill:#4c72b0;opacity:0.9;stroke:#ffffff;stroke-linejoin:miter;"/>
   </g>
   <g id="patch_44">
    <path clip-path="url(#pe07f90ce5d)" d="M 74.335057 393.72 
L 90.354196 393.72 
L 90.354196 393.72 
L 74.335057 393.72 
z
" style="fill:#dd8452;opacity:0.9;stroke:#ffffff;stroke-linejoin:miter;"/>
   </g>
   <g id="patch_45">
    <path clip-path="url(#pe07f90ce5d)" d="M 90.354196 393.72 
L 106.373334 393.72 
L 106.373334 393.72 
L 90.354196 393.72 
z
" style="fill:#dd8452;opacity:0.9;stroke:#ffffff;stroke-linejoin:miter;"/>
   </g>
   <g id="patch_46">
    <path clip-path="url(#pe07f90ce5d)" d="M 106.373334 393.72 
L 122.392473 393.72 
L 122.392473 393.72 
L 106.373334 393.72 
z
" style="fill:#dd8452;opacity:0.9;stroke:#ffffff;stroke-linejoin:miter;"/>
   </g>
   <g id="patch_47">
    <path clip-path="url(#pe07f90ce5d)" d="M 122.392473 393.72 
L 138.411612 393.72 
L 138.411612 393.72 
L 122.392473 393.72 
z
" style="fill:#dd8452;opacity:0.9;stroke:#ffffff;stroke-linejoin:miter;"/>
   </g>
   <g id="patch_48">
    <path clip-path="url(#pe07f90ce5d)" d="M 138.411612 393.72 
L 154.430751 393.72 
L 154.430751 393.72 
L 138.411612 393.72 
z
" style="fill:#dd8452;opacity:0.9;stroke:#ffffff;stroke-linejoin:miter;"/>
   </g>
   <g id="patch_49">
    <path clip-path="url(#pe07f90ce5d)" d="M 154.430751 393.72 
L 170.449889 393.72 
L 170.449889 393.72 
L 154.430751 393.72 
z
" style="fill:#dd8452;opacity:0.9;stroke:#ffffff;stroke-linejoin:miter;"/>
   </g>
   <g id="patch_50">
    <path clip-path="url(#pe07f90ce5d)" d="M 170.449889 393.72 
L 186.469028 393.72 
L 186.469028 393.72 
L 170.449889 393.72 
z
" style="fill:#dd8452;opacity:0.9;stroke:#ffffff;stroke-linejoin:miter;"/>
   </g>
   <g id="patch_51">
    <path clip-path="url(#pe07f90ce5d)" d="M 186.469028 393.72 
L 202.488167 393.72 
L 202.488167 393.72 
L 186.469028 393.72 
z
" style="fill:#dd8452;opacity:0.9;stroke:#ffffff;stroke-linejoin:miter;"/>
   </g>
   <g id="patch_52">
    <path clip-path="url(#pe07f90ce5d)" d="M 202.488167 393.72 
L 218.507306 393.72 
L 218.507306 393.72 
L 202.488167 393.72 
z
" style="fill:#dd8452;opacity:0.9;stroke:#ffffff;stroke-linejoin:miter;"/>
   </g>
   <g id="patch_53">
    <path clip-path="url(#pe07f90ce5d)" d="M 218.507306 393.72 
L 234.526444 393.72 
L 234.526444 385.483636 
L 218.507306 385.483636 
z
" style="fill:#dd8452;opacity:0.9;stroke:#ffffff;stroke-linejoin:miter;"/>
   </g>
   <g id="patch_54">
    <path clip-path="url(#pe07f90ce5d)" d="M 234.526444 393.72 
L 250.545583 393.72 
L 250.545583 270.174545 
L 234.526444 270.174545 
z
" style="fill:#dd8452;opacity:0.9;stroke:#ffffff;stroke-linejoin:miter;"/>
   </g>
   <g id="patch_55">
    <path clip-path="url(#pe07f90ce5d)" d="M 250.545583 393.72 
L 266.564722 393.72 
L 266.564722 360.774545 
L 250.545583 360.774545 
z
" style="fill:#dd8452;opacity:0.9;stroke:#ffffff;stroke-linejoin:miter;"/>
   </g>
   <g id="patch_56">
    <path clip-path="url(#pe07f90ce5d)" d="M 266.564722 393.72 
L 282.583861 393.72 
L 282.583861 393.72 
L 266.564722 393.72 
z
" style="fill:#dd8452;opacity:0.9;stroke:#ffffff;stroke-linejoin:miter;"/>
   </g>
   <g id="patch_57">
    <path clip-path="url(#pe07f90ce5d)" d="M 282.583861 393.72 
L 298.602999 393.72 
L 298.602999 393.72 
L 282.583861 393.72 
z
" style="fill:#dd8452;opacity:0.9;stroke:#ffffff;stroke-linejoin:miter;"/>
   </g>
   <g id="patch_58">
    <path clip-path="url(#pe07f90ce5d)" d="M 298.602999 393.72 
L 314.622138 393.72 
L 314.622138 393.72 
L 298.602999 393.72 
z
" style="fill:#dd8452;opacity:0.9;stroke:#ffffff;stroke-linejoin:miter;"/>
   </g>
   <g id="patch_59">
    <path clip-path="url(#pe07f90ce5d)" d="M 314.622138 393.72 
L 330.641277 393.72 
L 330.641277 393.72 
L 314.622138 393.72 
z
" style="fill:#dd8452;opacity:0.9;stroke:#ffffff;stroke-linejoin:miter;"/>
   </g>
   <g id="patch_60">
    <path clip-path="url(#pe07f90ce5d)" d="M 330.641277 393.72 
L 346.660416 393.72 
L 346.660416 393.72 
L 330.641277 393.72 
z
" style="fill:#dd8452;opacity:0.9;stroke:#ffffff;stroke-linejoin:miter;"/>
   </g>
   <g id="patch_61">
    <path clip-path="url(#pe07f90ce5d)" d="M 346.660416 393.72 
L 362.679554 393.72 
L 362.679554 393.72 
L 346.660416 393.72 
z
" style="fill:#dd8452;opacity:0.9;stroke:#ffffff;stroke-linejoin:miter;"/>
   </g>
   <g id="patch_62">
    <path clip-path="url(#pe07f90ce5d)" d="M 362.679554 393.72 
L 378.698693 393.72 
L 378.698693 393.72 
L 362.679554 393.72 
z
" style="fill:#dd8452;opacity:0.9;stroke:#ffffff;stroke-linejoin:miter;"/>
   </g>
   <g id="patch_63">
    <path clip-path="url(#pe07f90ce5d)" d="M 74.335057 393.72 
L 90.354196 393.72 
L 90.354196 393.72 
L 74.335057 393.72 
z
" style="fill:#55a868;opacity:0.9;stroke:#ffffff;stroke-linejoin:miter;"/>
   </g>
   <g id="patch_64">
    <path clip-path="url(#pe07f90ce5d)" d="M 90.354196 393.72 
L 106.373334 393.72 
L 106.373334 393.72 
L 90.354196 393.72 
z
" style="fill:#55a868;opacity:0.9;stroke:#ffffff;stroke-linejoin:miter;"/>
   </g>
   <g id="patch_65">
    <path clip-path="url(#pe07f90ce5d)" d="M 106.373334 393.72 
L 122.392473 393.72 
L 122.392473 385.483636 
L 106.373334 385.483636 
z
" style="fill:#55a868;opacity:0.9;stroke:#ffffff;stroke-linejoin:miter;"/>
   </g>
   <g id="patch_66">
    <path clip-path="url(#pe07f90ce5d)" d="M 122.392473 393.72 
L 138.411612 393.72 
L 138.411612 385.483636 
L 122.392473 385.483636 
z
" style="fill:#55a868;opacity:0.9;stroke:#ffffff;stroke-linejoin:miter;"/>
   </g>
   <g id="patch_67">
    <path clip-path="url(#pe07f90ce5d)" d="M 138.411612 393.72 
L 154.430751 393.72 
L 154.430751 393.72 
L 138.411612 393.72 
z
" style="fill:#55a868;opacity:0.9;stroke:#ffffff;stroke-linejoin:miter;"/>
   </g>
   <g id="patch_68">
    <path clip-path="url(#pe07f90ce5d)" d="M 154.430751 393.72 
L 170.449889 393.72 
L 170.449889 385.483636 
L 154.430751 385.483636 
z
" style="fill:#55a868;opacity:0.9;stroke:#ffffff;stroke-linejoin:miter;"/>
   </g>
   <g id="patch_69">
    <path clip-path="url(#pe07f90ce5d)" d="M 170.449889 393.72 
L 186.469028 393.72 
L 186.469028 360.774545 
L 170.449889 360.774545 
z
" style="fill:#55a868;opacity:0.9;stroke:#ffffff;stroke-linejoin:miter;"/>
   </g>
   <g id="patch_70">
    <path clip-path="url(#pe07f90ce5d)" d="M 186.469028 393.72 
L 202.488167 393.72 
L 202.488167 360.774545 
L 186.469028 360.774545 
z
" style="fill:#55a868;opacity:0.9;stroke:#ffffff;stroke-linejoin:miter;"/>
   </g>
   <g id="patch_71">
    <path clip-path="url(#pe07f90ce5d)" d="M 202.488167 393.72 
L 218.507306 393.72 
L 218.507306 369.010909 
L 202.488167 369.010909 
z
" style="fill:#55a868;opacity:0.9;stroke:#ffffff;stroke-linejoin:miter;"/>
   </g>
   <g id="patch_72">
    <path clip-path="url(#pe07f90ce5d)" d="M 218.507306 393.72 
L 234.526444 393.72 
L 234.526444 385.483636 
L 218.507306 385.483636 
z
" style="fill:#55a868;opacity:0.9;stroke:#ffffff;stroke-linejoin:miter;"/>
   </g>
   <g id="patch_73">
    <path clip-path="url(#pe07f90ce5d)" d="M 234.526444 393.72 
L 250.545583 393.72 
L 250.545583 393.72 
L 234.526444 393.72 
z
" style="fill:#55a868;opacity:0.9;stroke:#ffffff;stroke-linejoin:miter;"/>
   </g>
   <g id="patch_74">
    <path clip-path="url(#pe07f90ce5d)" d="M 250.545583 393.72 
L 266.564722 393.72 
L 266.564722 393.72 
L 250.545583 393.72 
z
" style="fill:#55a868;opacity:0.9;stroke:#ffffff;stroke-linejoin:miter;"/>
   </g>
   <g id="patch_75">
    <path clip-path="url(#pe07f90ce5d)" d="M 266.564722 393.72 
L 282.583861 393.72 
L 282.583861 393.72 
L 266.564722 393.72 
z
" style="fill:#55a868;opacity:0.9;stroke:#ffffff;stroke-linejoin:miter;"/>
   </g>
   <g id="patch_76">
    <path clip-path="url(#pe07f90ce5d)" d="M 282.583861 393.72 
L 298.602999 393.72 
L 298.602999 393.72 
L 282.583861 393.72 
z
" style="fill:#55a868;opacity:0.9;stroke:#ffffff;stroke-linejoin:miter;"/>
   </g>
   <g id="patch_77">
    <path clip-path="url(#pe07f90ce5d)" d="M 298.602999 393.72 
L 314.622138 393.72 
L 314.622138 393.72 
L 298.602999 393.72 
z
" style="fill:#55a868;opacity:0.9;stroke:#ffffff;stroke-linejoin:miter;"/>
   </g>
   <g id="patch_78">
    <path clip-path="url(#pe07f90ce5d)" d="M 314.622138 393.72 
L 330.641277 393.72 
L 330.641277 393.72 
L 314.622138 393.72 
z
" style="fill:#55a868;opacity:0.9;stroke:#ffffff;stroke-linejoin:miter;"/>
   </g>
   <g id="patch_79">
    <path clip-path="url(#pe07f90ce5d)" d="M 330.641277 393.72 
L 346.660416 393.72 
L 346.660416 393.72 
L 330.641277 393.72 
z
" style="fill:#55a868;opacity:0.9;stroke:#ffffff;stroke-linejoin:miter;"/>
   </g>
   <g id="patch_80">
    <path clip-path="url(#pe07f90ce5d)" d="M 346.660416 393.72 
L 362.679554 393.72 
L 362.679554 393.72 
L 346.660416 393.72 
z
" style="fill:#55a868;opacity:0.9;stroke:#ffffff;stroke-linejoin:miter;"/>
   </g>
   <g id="patch_81">
    <path clip-path="url(#pe07f90ce5d)" d="M 362.679554 393.72 
L 378.698693 393.72 
L 378.698693 393.72 
L 362.679554 393.72 
z
" style="fill:#55a868;opacity:0.9;stroke:#ffffff;stroke-linejoin:miter;"/>
   </g>
   <g id="patch_82">
    <path d="M 59.116875 393.72 
L 59.116875 220.756364 
" style="fill:none;stroke:#262626;stroke-linecap:square;stroke-linejoin:miter;stroke-width:1.25;"/>
   </g>
   <g id="patch_83">
    <path d="M 59.116875 393.72 
L 393.916875 393.72 
" style="fill:none;stroke:#262626;stroke-linecap:square;stroke-linejoin:miter;stroke-width:1.25;"/>
   </g>
  </g>
 </g>
 <defs>
  <clipPath id="p027c1e9052">
   <rect height="172.963636" width="334.8" x="59.116875" y="13.2"/>
  </clipPath>
  <clipPath id="pe07f90ce5d">
   <rect height="172.963636" width="334.8" x="59.116875" y="220.756364"/>
  </clipPath>
 </defs>
</svg>
