<?xml version="1.0" encoding="utf-8" standalone="no"?>
<!DOCTYPE svg PUBLIC "-//W3C//DTD SVG 1.1//EN"
  "http://www.w3.org/Graphics/SVG/1.1/DTD/svg11.dtd">
<!-- Created with matplotlib (http://matplotlib.org/) -->
<svg height="305.289766pt" version="1.1" viewBox="0 0 312.683125 305.289766" width="312.683125pt" xmlns="http://www.w3.org/2000/svg" xmlns:xlink="http://www.w3.org/1999/xlink">
 <defs>
  <style type="text/css">
*{stroke-linecap:butt;stroke-linejoin:round;}
  </style>
 </defs>
 <g id="figure_1">
  <g id="patch_1">
   <path d="M 0 305.289766 
L 312.683125 305.289766 
L 312.683125 0 
L 0 0 
z
" style="fill:#ffffff;"/>
  </g>
  <g id="axes_1">
   <g id="patch_2">
    <path d="M 26.483125 279 
L 305.483125 279 
L 305.483125 7.2 
L 26.483125 7.2 
z
" style="fill:#ffffff;"/>
   </g>
   <g id="matplotlib.axis_1">
    <g id="text_1">
     <!-- Expression -->
     <defs>
      <path d="M 7.90625 0 
L 7.90625 71.578125 
L 59.671875 71.578125 
L 59.671875 63.140625 
L 17.390625 63.140625 
L 17.390625 41.21875 
L 56.984375 41.21875 
L 56.984375 32.8125 
L 17.390625 32.8125 
L 17.390625 8.453125 
L 61.328125 8.453125 
L 61.328125 0 
z
" id="ArialMT-45"/>
      <path d="M 0.734375 0 
L 19.671875 26.953125 
L 2.15625 51.859375 
L 13.140625 51.859375 
L 21.09375 39.703125 
Q 23.34375 36.234375 24.703125 33.890625 
Q 26.859375 37.109375 28.65625 39.59375 
L 37.40625 51.859375 
L 47.90625 51.859375 
L 29.984375 27.4375 
L 49.265625 0 
L 38.484375 0 
L 27.828125 16.109375 
L 25 20.453125 
L 11.375 0 
z
" id="ArialMT-78"/>
      <path d="M 6.59375 -19.875 
L 6.59375 51.859375 
L 14.59375 51.859375 
L 14.59375 45.125 
Q 17.4375 49.078125 21 51.046875 
Q 24.5625 53.03125 29.640625 53.03125 
Q 36.28125 53.03125 41.359375 49.609375 
Q 46.4375 46.1875 49.015625 39.953125 
Q 51.609375 33.734375 51.609375 26.3125 
Q 51.609375 18.359375 48.75 11.984375 
Q 45.90625 5.609375 40.453125 2.21875 
Q 35.015625 -1.171875 29 -1.171875 
Q 24.609375 -1.171875 21.109375 0.6875 
Q 17.625 2.546875 15.375 5.375 
L 15.375 -19.875 
z
M 14.546875 25.640625 
Q 14.546875 15.625 18.59375 10.84375 
Q 22.65625 6.0625 28.421875 6.0625 
Q 34.28125 6.0625 38.453125 11.015625 
Q 42.625 15.96875 42.625 26.375 
Q 42.625 36.28125 38.546875 41.203125 
Q 34.46875 46.140625 28.8125 46.140625 
Q 23.1875 46.140625 18.859375 40.890625 
Q 14.546875 35.640625 14.546875 25.640625 
z
" id="ArialMT-70"/>
      <path d="M 6.5 0 
L 6.5 51.859375 
L 14.40625 51.859375 
L 14.40625 44 
Q 17.4375 49.515625 20 51.265625 
Q 22.5625 53.03125 25.640625 53.03125 
Q 30.078125 53.03125 34.671875 50.203125 
L 31.640625 42.046875 
Q 28.421875 43.953125 25.203125 43.953125 
Q 22.3125 43.953125 20.015625 42.21875 
Q 17.71875 40.484375 16.75 37.40625 
Q 15.28125 32.71875 15.28125 27.15625 
L 15.28125 0 
z
" id="ArialMT-72"/>
      <path d="M 42.09375 16.703125 
L 51.171875 15.578125 
Q 49.03125 7.625 43.21875 3.21875 
Q 37.40625 -1.171875 28.375 -1.171875 
Q 17 -1.171875 10.328125 5.828125 
Q 3.65625 12.84375 3.65625 25.484375 
Q 3.65625 38.578125 10.390625 45.796875 
Q 17.140625 53.03125 27.875 53.03125 
Q 38.28125 53.03125 44.875 45.953125 
Q 51.46875 38.875 51.46875 26.03125 
Q 51.46875 25.25 51.421875 23.6875 
L 12.75 23.6875 
Q 13.234375 15.140625 17.578125 10.59375 
Q 21.921875 6.0625 28.421875 6.0625 
Q 33.25 6.0625 36.671875 8.59375 
Q 40.09375 11.140625 42.09375 16.703125 
z
M 13.234375 30.90625 
L 42.1875 30.90625 
Q 41.609375 37.453125 38.875 40.71875 
Q 34.671875 45.796875 27.984375 45.796875 
Q 21.921875 45.796875 17.796875 41.75 
Q 13.671875 37.703125 13.234375 30.90625 
z
" id="ArialMT-65"/>
      <path d="M 3.078125 15.484375 
L 11.765625 16.84375 
Q 12.5 11.625 15.84375 8.84375 
Q 19.1875 6.0625 25.203125 6.0625 
Q 31.25 6.0625 34.171875 8.515625 
Q 37.109375 10.984375 37.109375 14.3125 
Q 37.109375 17.28125 34.515625 19 
Q 32.71875 20.171875 25.53125 21.96875 
Q 15.875 24.421875 12.140625 26.203125 
Q 8.40625 27.984375 6.46875 31.125 
Q 4.546875 34.28125 4.546875 38.09375 
Q 4.546875 41.546875 6.125 44.5 
Q 7.71875 47.46875 10.453125 49.421875 
Q 12.5 50.921875 16.03125 51.96875 
Q 19.578125 53.03125 23.640625 53.03125 
Q 29.734375 53.03125 34.34375 51.265625 
Q 38.96875 49.515625 41.15625 46.5 
Q 43.359375 43.5 44.1875 38.484375 
L 35.59375 37.3125 
Q 35.015625 41.3125 32.203125 43.546875 
Q 29.390625 45.796875 24.265625 45.796875 
Q 18.21875 45.796875 15.625 43.796875 
Q 13.03125 41.796875 13.03125 39.109375 
Q 13.03125 37.40625 14.109375 36.03125 
Q 15.1875 34.625 17.484375 33.6875 
Q 18.796875 33.203125 25.25 31.453125 
Q 34.578125 28.953125 38.25 27.359375 
Q 41.9375 25.78125 44.03125 22.75 
Q 46.140625 19.734375 46.140625 15.234375 
Q 46.140625 10.84375 43.578125 6.953125 
Q 41.015625 3.078125 36.171875 0.953125 
Q 31.34375 -1.171875 25.25 -1.171875 
Q 15.140625 -1.171875 9.84375 3.03125 
Q 4.546875 7.234375 3.078125 15.484375 
z
" id="ArialMT-73"/>
      <path d="M 6.640625 61.46875 
L 6.640625 71.578125 
L 15.4375 71.578125 
L 15.4375 61.46875 
z
M 6.640625 0 
L 6.640625 51.859375 
L 15.4375 51.859375 
L 15.4375 0 
z
" id="ArialMT-69"/>
      <path d="M 3.328125 25.921875 
Q 3.328125 40.328125 11.328125 47.265625 
Q 18.015625 53.03125 27.640625 53.03125 
Q 38.328125 53.03125 45.109375 46.015625 
Q 51.90625 39.015625 51.90625 26.65625 
Q 51.90625 16.65625 48.90625 10.90625 
Q 45.90625 5.171875 40.15625 2 
Q 34.421875 -1.171875 27.640625 -1.171875 
Q 16.75 -1.171875 10.03125 5.8125 
Q 3.328125 12.796875 3.328125 25.921875 
z
M 12.359375 25.921875 
Q 12.359375 15.96875 16.703125 11.015625 
Q 21.046875 6.0625 27.640625 6.0625 
Q 34.1875 6.0625 38.53125 11.03125 
Q 42.875 16.015625 42.875 26.21875 
Q 42.875 35.84375 38.5 40.796875 
Q 34.125 45.75 27.640625 45.75 
Q 21.046875 45.75 16.703125 40.8125 
Q 12.359375 35.890625 12.359375 25.921875 
z
" id="ArialMT-6f"/>
      <path d="M 6.59375 0 
L 6.59375 51.859375 
L 14.5 51.859375 
L 14.5 44.484375 
Q 20.21875 53.03125 31 53.03125 
Q 35.6875 53.03125 39.625 51.34375 
Q 43.5625 49.65625 45.515625 46.921875 
Q 47.46875 44.1875 48.25 40.4375 
Q 48.734375 37.984375 48.734375 31.890625 
L 48.734375 0 
L 39.9375 0 
L 39.9375 31.546875 
Q 39.9375 36.921875 38.90625 39.578125 
Q 37.890625 42.234375 35.28125 43.8125 
Q 32.671875 45.40625 29.15625 45.40625 
Q 23.53125 45.40625 19.453125 41.84375 
Q 15.375 38.28125 15.375 28.328125 
L 15.375 0 
z
" id="ArialMT-6e"/>
     </defs>
     <g style="fill:#262626;" transform="translate(125.173984 294.810391)scale(0.165 -0.165)">
      <use xlink:href="#ArialMT-45"/>
      <use x="66.699219" xlink:href="#ArialMT-78"/>
      <use x="116.699219" xlink:href="#ArialMT-70"/>
      <use x="172.314453" xlink:href="#ArialMT-72"/>
      <use x="205.615234" xlink:href="#ArialMT-65"/>
      <use x="261.230469" xlink:href="#ArialMT-73"/>
      <use x="311.230469" xlink:href="#ArialMT-73"/>
      <use x="361.230469" xlink:href="#ArialMT-69"/>
      <use x="383.447266" xlink:href="#ArialMT-6f"/>
      <use x="439.0625" xlink:href="#ArialMT-6e"/>
     </g>
    </g>
   </g>
   <g id="matplotlib.axis_2">
    <g id="text_2">
     <!-- Density -->
     <defs>
      <path d="M 7.71875 0 
L 7.71875 71.578125 
L 32.375 71.578125 
Q 40.71875 71.578125 45.125 70.5625 
Q 51.265625 69.140625 55.609375 65.4375 
Q 61.28125 60.640625 64.078125 53.1875 
Q 66.890625 45.75 66.890625 36.1875 
Q 66.890625 28.03125 64.984375 21.734375 
Q 63.09375 15.4375 60.109375 11.296875 
Q 57.125 7.171875 53.578125 4.796875 
Q 50.046875 2.4375 45.046875 1.21875 
Q 40.046875 0 33.546875 0 
z
M 17.1875 8.453125 
L 32.46875 8.453125 
Q 39.546875 8.453125 43.578125 9.765625 
Q 47.609375 11.078125 50 13.484375 
Q 53.375 16.84375 55.25 22.53125 
Q 57.125 28.21875 57.125 36.328125 
Q 57.125 47.5625 53.4375 53.59375 
Q 49.75 59.625 44.484375 61.671875 
Q 40.671875 63.140625 32.234375 63.140625 
L 17.1875 63.140625 
z
" id="ArialMT-44"/>
      <path d="M 25.78125 7.859375 
L 27.046875 0.09375 
Q 23.34375 -0.6875 20.40625 -0.6875 
Q 15.625 -0.6875 12.984375 0.828125 
Q 10.359375 2.34375 9.28125 4.8125 
Q 8.203125 7.28125 8.203125 15.1875 
L 8.203125 45.015625 
L 1.765625 45.015625 
L 1.765625 51.859375 
L 8.203125 51.859375 
L 8.203125 64.703125 
L 16.9375 69.96875 
L 16.9375 51.859375 
L 25.78125 51.859375 
L 25.78125 45.015625 
L 16.9375 45.015625 
L 16.9375 14.703125 
Q 16.9375 10.9375 17.40625 9.859375 
Q 17.875 8.796875 18.921875 8.15625 
Q 19.96875 7.515625 21.921875 7.515625 
Q 23.390625 7.515625 25.78125 7.859375 
z
" id="ArialMT-74"/>
      <path d="M 6.203125 -19.96875 
L 5.21875 -11.71875 
Q 8.109375 -12.5 10.25 -12.5 
Q 13.1875 -12.5 14.9375 -11.515625 
Q 16.703125 -10.546875 17.828125 -8.796875 
Q 18.65625 -7.46875 20.515625 -2.25 
Q 20.75 -1.515625 21.296875 -0.09375 
L 1.609375 51.859375 
L 11.078125 51.859375 
L 21.875 21.828125 
Q 23.96875 16.109375 25.640625 9.8125 
Q 27.15625 15.875 29.25 21.625 
L 40.328125 51.859375 
L 49.125 51.859375 
L 29.390625 -0.875 
Q 26.21875 -9.421875 24.46875 -12.640625 
Q 22.125 -17 19.09375 -19.015625 
Q 16.0625 -21.046875 11.859375 -21.046875 
Q 9.328125 -21.046875 6.203125 -19.96875 
z
" id="ArialMT-79"/>
     </defs>
     <g style="fill:#262626;" transform="translate(19.010391 170.608594)rotate(-90)scale(0.165 -0.165)">
      <use xlink:href="#ArialMT-44"/>
      <use x="72.216797" xlink:href="#ArialMT-65"/>
      <use x="127.832031" xlink:href="#ArialMT-6e"/>
      <use x="183.447266" xlink:href="#ArialMT-73"/>
      <use x="233.447266" xlink:href="#ArialMT-69"/>
      <use x="255.664062" xlink:href="#ArialMT-74"/>
      <use x="283.447266" xlink:href="#ArialMT-79"/>
     </g>
    </g>
   </g>
   <g id="patch_3">
    <path clip-path="url(#p7de4eec9b5)" d="M 96.336721 279 
L 102.658023 279 
L 102.658023 276.768473 
L 96.336721 276.768473 
z
" style="fill:#4c72b0;opacity:0.4;"/>
   </g>
   <g id="patch_4">
    <path clip-path="url(#p7de4eec9b5)" d="M 102.658023 279 
L 108.979325 279 
L 108.979325 263.37931 
L 102.658023 263.37931 
z
" style="fill:#4c72b0;opacity:0.4;"/>
   </g>
   <g id="patch_5">
    <path clip-path="url(#p7de4eec9b5)" d="M 108.979325 279 
L 115.300627 279 
L 115.300627 267.842365 
L 108.979325 267.842365 
z
" style="fill:#4c72b0;opacity:0.4;"/>
   </g>
   <g id="patch_6">
    <path clip-path="url(#p7de4eec9b5)" d="M 115.300627 279 
L 121.621929 279 
L 121.621929 252.221675 
L 115.300627 252.221675 
z
" style="fill:#4c72b0;opacity:0.4;"/>
   </g>
   <g id="patch_7">
    <path clip-path="url(#p7de4eec9b5)" d="M 121.621929 279 
L 127.94323 279 
L 127.94323 212.054187 
L 121.621929 212.054187 
z
" style="fill:#4c72b0;opacity:0.4;"/>
   </g>
   <g id="patch_8">
    <path clip-path="url(#p7de4eec9b5)" d="M 127.94323 279 
L 134.264532 279 
L 134.264532 176.349754 
L 127.94323 176.349754 
z
" style="fill:#4c72b0;opacity:0.4;"/>
   </g>
   <g id="patch_9">
    <path clip-path="url(#p7de4eec9b5)" d="M 134.264532 279 
L 140.585834 279 
L 140.585834 171.8867 
L 134.264532 171.8867 
z
" style="fill:#4c72b0;opacity:0.4;"/>
   </g>
   <g id="patch_10">
    <path clip-path="url(#p7de4eec9b5)" d="M 140.585834 279 
L 146.907136 279 
L 146.907136 111.635468 
L 140.585834 111.635468 
z
" style="fill:#4c72b0;opacity:0.4;"/>
   </g>
   <g id="patch_11">
    <path clip-path="url(#p7de4eec9b5)" d="M 146.907136 279 
L 153.228438 279 
L 153.228438 75.931034 
L 146.907136 75.931034 
z
" style="fill:#4c72b0;opacity:0.4;"/>
   </g>
   <g id="patch_12">
    <path clip-path="url(#p7de4eec9b5)" d="M 153.228438 279 
L 159.54974 279 
L 159.54974 93.783251 
L 153.228438 93.783251 
z
" style="fill:#4c72b0;opacity:0.4;"/>
   </g>
   <g id="patch_13">
    <path clip-path="url(#p7de4eec9b5)" d="M 159.54974 279 
L 165.871042 279 
L 165.871042 64.773399 
L 159.54974 64.773399 
z
" style="fill:#4c72b0;opacity:0.4;"/>
   </g>
   <g id="patch_14">
    <path clip-path="url(#p7de4eec9b5)" d="M 165.871042 279 
L 172.192344 279 
L 172.192344 20.142857 
L 165.871042 20.142857 
z
" style="fill:#4c72b0;opacity:0.4;"/>
   </g>
   <g id="patch_15">
    <path clip-path="url(#p7de4eec9b5)" d="M 172.192344 279 
L 178.513645 279 
L 178.513645 42.458128 
L 172.192344 42.458128 
z
" style="fill:#4c72b0;opacity:0.4;"/>
   </g>
   <g id="patch_16">
    <path clip-path="url(#p7de4eec9b5)" d="M 178.513645 279 
L 184.834947 279 
L 184.834947 98.246305 
L 178.513645 98.246305 
z
" style="fill:#4c72b0;opacity:0.4;"/>
   </g>
   <g id="patch_17">
    <path clip-path="url(#p7de4eec9b5)" d="M 184.834947 279 
L 191.156249 279 
L 191.156249 122.793103 
L 184.834947 122.793103 
z
" style="fill:#4c72b0;opacity:0.4;"/>
   </g>
   <g id="patch_18">
    <path clip-path="url(#p7de4eec9b5)" d="M 191.156249 279 
L 197.477551 279 
L 197.477551 162.960591 
L 191.156249 162.960591 
z
" style="fill:#4c72b0;opacity:0.4;"/>
   </g>
   <g id="patch_19">
    <path clip-path="url(#p7de4eec9b5)" d="M 197.477551 279 
L 203.798853 279 
L 203.798853 198.665025 
L 197.477551 198.665025 
z
" style="fill:#4c72b0;opacity:0.4;"/>
   </g>
   <g id="patch_20">
    <path clip-path="url(#p7de4eec9b5)" d="M 203.798853 279 
L 210.120155 279 
L 210.120155 234.369458 
L 203.798853 234.369458 
z
" style="fill:#4c72b0;opacity:0.4;"/>
   </g>
   <g id="patch_21">
    <path clip-path="url(#p7de4eec9b5)" d="M 210.120155 279 
L 216.441457 279 
L 216.441457 256.684729 
L 210.120155 256.684729 
z
" style="fill:#4c72b0;opacity:0.4;"/>
   </g>
   <g id="patch_22">
    <path clip-path="url(#p7de4eec9b5)" d="M 216.441457 279 
L 222.762759 279 
L 222.762759 258.916256 
L 216.441457 258.916256 
z
" style="fill:#4c72b0;opacity:0.4;"/>
   </g>
   <g id="patch_23">
    <path clip-path="url(#p7de4eec9b5)" d="M 222.762759 279 
L 229.084061 279 
L 229.084061 272.305419 
L 222.762759 272.305419 
z
" style="fill:#4c72b0;opacity:0.4;"/>
   </g>
   <g id="patch_24">
    <path clip-path="url(#p7de4eec9b5)" d="M 229.084061 279 
L 235.405362 279 
L 235.405362 272.305419 
L 229.084061 272.305419 
z
" style="fill:#4c72b0;opacity:0.4;"/>
   </g>
   <g id="line2d_1">
    <path clip-path="url(#p7de4eec9b5)" d="M 77.723816 278.973567 
L 83.276397 278.885828 
L 87.440833 278.581303 
L 90.217123 278.152759 
L 92.993414 277.44604 
L 95.769705 276.353724 
L 97.15785 275.628442 
L 98.545995 274.771169 
L 101.322286 272.661955 
L 104.098576 270.089705 
L 106.874867 267.120024 
L 109.651158 263.629796 
L 111.039303 261.565985 
L 112.427448 259.186388 
L 113.815593 256.399142 
L 115.203739 253.111348 
L 116.591884 249.240201 
L 117.980029 244.725365 
L 119.368175 239.54133 
L 120.75632 233.707797 
L 123.53261 220.426396 
L 130.473337 185.095325 
L 137.414063 152.805116 
L 140.190354 137.631026 
L 142.966644 121.681424 
L 144.35479 114.282671 
L 145.742935 107.785237 
L 147.13108 102.457471 
L 148.519226 98.387171 
L 149.907371 95.455894 
L 151.295516 93.360283 
L 154.071807 89.927564 
L 155.459952 87.702572 
L 156.848097 84.694079 
L 158.236243 80.7587 
L 159.624388 75.928252 
L 162.400678 64.491454 
L 165.176969 53.221395 
L 166.565114 48.719771 
L 167.95326 45.47208 
L 169.341405 43.740753 
L 170.72955 43.676124 
L 172.117696 45.314639 
L 173.505841 48.588846 
L 174.893986 53.344444 
L 176.282131 59.360102 
L 177.670277 66.367938 
L 180.446567 82.189795 
L 184.611003 106.679095 
L 192.939875 154.032695 
L 198.492456 187.042732 
L 201.268747 201.884194 
L 204.045037 215.200229 
L 206.821328 227.133223 
L 209.597618 237.56945 
L 210.985764 242.133711 
L 212.373909 246.235095 
L 213.762054 249.889786 
L 215.150199 253.143923 
L 216.538345 256.062559 
L 219.314635 261.147429 
L 222.090926 265.451268 
L 223.479071 267.300748 
L 224.867216 268.915495 
L 226.255362 270.276892 
L 227.643507 271.385272 
L 229.031652 272.264487 
L 230.419798 272.959284 
L 233.196088 274.026373 
L 238.748669 276.058867 
L 242.913105 277.570324 
L 245.689396 278.281292 
L 248.465686 278.697842 
L 251.241977 278.893432 
L 254.018268 278.963972 
L 254.018268 278.963972 
" style="fill:none;stroke:#4c72b0;stroke-linecap:round;stroke-width:1.75;"/>
   </g>
   <g id="patch_25">
    <path d="M 26.483125 279 
L 26.483125 7.2 
" style="fill:none;stroke:#262626;stroke-linecap:square;stroke-linejoin:miter;stroke-width:1.25;"/>
   </g>
   <g id="patch_26">
    <path d="M 305.483125 279 
L 305.483125 7.2 
" style="fill:none;stroke:#262626;stroke-linecap:square;stroke-linejoin:miter;stroke-width:1.25;"/>
   </g>
   <g id="patch_27">
    <path d="M 26.483125 279 
L 305.483125 279 
" style="fill:none;stroke:#262626;stroke-linecap:square;stroke-linejoin:miter;stroke-width:1.25;"/>
   </g>
   <g id="patch_28">
    <path d="M 26.483125 7.2 
L 305.483125 7.2 
" style="fill:none;stroke:#262626;stroke-linecap:square;stroke-linejoin:miter;stroke-width:1.25;"/>
   </g>
  </g>
 </g>
 <defs>
  <clipPath id="p7de4eec9b5">
   <rect height="271.8" width="279" x="26.483125" y="7.2"/>
  </clipPath>
 </defs>
</svg>
