<?xml version="1.0" encoding="utf-8" standalone="no"?>
<!DOCTYPE svg PUBLIC "-//W3C//DTD SVG 1.1//EN"
  "http://www.w3.org/Graphics/SVG/1.1/DTD/svg11.dtd">
<!-- Created with matplotlib (http://matplotlib.org/) -->
<svg height="305.289766pt" version="1.1" viewBox="0 0 312.683125 305.289766" width="312.683125pt" xmlns="http://www.w3.org/2000/svg" xmlns:xlink="http://www.w3.org/1999/xlink">
 <defs>
  <style type="text/css">
*{stroke-linecap:butt;stroke-linejoin:round;}
  </style>
 </defs>
 <g id="figure_1">
  <g id="patch_1">
   <path d="M 0 305.289766 
L 312.683125 305.289766 
L 312.683125 0 
L 0 0 
z
" style="fill:#ffffff;"/>
  </g>
  <g id="axes_1">
   <g id="patch_2">
    <path d="M 26.483125 279 
L 305.483125 279 
L 305.483125 7.2 
L 26.483125 7.2 
z
" style="fill:#ffffff;"/>
   </g>
   <g id="matplotlib.axis_1">
    <g id="text_1">
     <!-- Expression -->
     <defs>
      <path d="M 7.90625 0 
L 7.90625 71.578125 
L 59.671875 71.578125 
L 59.671875 63.140625 
L 17.390625 63.140625 
L 17.390625 41.21875 
L 56.984375 41.21875 
L 56.984375 32.8125 
L 17.390625 32.8125 
L 17.390625 8.453125 
L 61.328125 8.453125 
L 61.328125 0 
z
" id="ArialMT-45"/>
      <path d="M 0.734375 0 
L 19.671875 26.953125 
L 2.15625 51.859375 
L 13.140625 51.859375 
L 21.09375 39.703125 
Q 23.34375 36.234375 24.703125 33.890625 
Q 26.859375 37.109375 28.65625 39.59375 
L 37.40625 51.859375 
L 47.90625 51.859375 
L 29.984375 27.4375 
L 49.265625 0 
L 38.484375 0 
L 27.828125 16.109375 
L 25 20.453125 
L 11.375 0 
z
" id="ArialMT-78"/>
      <path d="M 6.59375 -19.875 
L 6.59375 51.859375 
L 14.59375 51.859375 
L 14.59375 45.125 
Q 17.4375 49.078125 21 51.046875 
Q 24.5625 53.03125 29.640625 53.03125 
Q 36.28125 53.03125 41.359375 49.609375 
Q 46.4375 46.1875 49.015625 39.953125 
Q 51.609375 33.734375 51.609375 26.3125 
Q 51.609375 18.359375 48.75 11.984375 
Q 45.90625 5.609375 40.453125 2.21875 
Q 35.015625 -1.171875 29 -1.171875 
Q 24.609375 -1.171875 21.109375 0.6875 
Q 17.625 2.546875 15.375 5.375 
L 15.375 -19.875 
z
M 14.546875 25.640625 
Q 14.546875 15.625 18.59375 10.84375 
Q 22.65625 6.0625 28.421875 6.0625 
Q 34.28125 6.0625 38.453125 11.015625 
Q 42.625 15.96875 42.625 26.375 
Q 42.625 36.28125 38.546875 41.203125 
Q 34.46875 46.140625 28.8125 46.140625 
Q 23.1875 46.140625 18.859375 40.890625 
Q 14.546875 35.640625 14.546875 25.640625 
z
" id="ArialMT-70"/>
      <path d="M 6.5 0 
L 6.5 51.859375 
L 14.40625 51.859375 
L 14.40625 44 
Q 17.4375 49.515625 20 51.265625 
Q 22.5625 53.03125 25.640625 53.03125 
Q 30.078125 53.03125 34.671875 50.203125 
L 31.640625 42.046875 
Q 28.421875 43.953125 25.203125 43.953125 
Q 22.3125 43.953125 20.015625 42.21875 
Q 17.71875 40.484375 16.75 37.40625 
Q 15.28125 32.71875 15.28125 27.15625 
L 15.28125 0 
z
" id="ArialMT-72"/>
      <path d="M 42.09375 16.703125 
L 51.171875 15.578125 
Q 49.03125 7.625 43.21875 3.21875 
Q 37.40625 -1.171875 28.375 -1.171875 
Q 17 -1.171875 10.328125 5.828125 
Q 3.65625 12.84375 3.65625 25.484375 
Q 3.65625 38.578125 10.390625 45.796875 
Q 17.140625 53.03125 27.875 53.03125 
Q 38.28125 53.03125 44.875 45.953125 
Q 51.46875 38.875 51.46875 26.03125 
Q 51.46875 25.25 51.421875 23.6875 
L 12.75 23.6875 
Q 13.234375 15.140625 17.578125 10.59375 
Q 21.921875 6.0625 28.421875 6.0625 
Q 33.25 6.0625 36.671875 8.59375 
Q 40.09375 11.140625 42.09375 16.703125 
z
M 13.234375 30.90625 
L 42.1875 30.90625 
Q 41.609375 37.453125 38.875 40.71875 
Q 34.671875 45.796875 27.984375 45.796875 
Q 21.921875 45.796875 17.796875 41.75 
Q 13.671875 37.703125 13.234375 30.90625 
z
" id="ArialMT-65"/>
      <path d="M 3.078125 15.484375 
L 11.765625 16.84375 
Q 12.5 11.625 15.84375 8.84375 
Q 19.1875 6.0625 25.203125 6.0625 
Q 31.25 6.0625 34.171875 8.515625 
Q 37.109375 10.984375 37.109375 14.3125 
Q 37.109375 17.28125 34.515625 19 
Q 32.71875 20.171875 25.53125 21.96875 
Q 15.875 24.421875 12.140625 26.203125 
Q 8.40625 27.984375 6.46875 31.125 
Q 4.546875 34.28125 4.546875 38.09375 
Q 4.546875 41.546875 6.125 44.5 
Q 7.71875 47.46875 10.453125 49.421875 
Q 12.5 50.921875 16.03125 51.96875 
Q 19.578125 53.03125 23.640625 53.03125 
Q 29.734375 53.03125 34.34375 51.265625 
Q 38.96875 49.515625 41.15625 46.5 
Q 43.359375 43.5 44.1875 38.484375 
L 35.59375 37.3125 
Q 35.015625 41.3125 32.203125 43.546875 
Q 29.390625 45.796875 24.265625 45.796875 
Q 18.21875 45.796875 15.625 43.796875 
Q 13.03125 41.796875 13.03125 39.109375 
Q 13.03125 37.40625 14.109375 36.03125 
Q 15.1875 34.625 17.484375 33.6875 
Q 18.796875 33.203125 25.25 31.453125 
Q 34.578125 28.953125 38.25 27.359375 
Q 41.9375 25.78125 44.03125 22.75 
Q 46.140625 19.734375 46.140625 15.234375 
Q 46.140625 10.84375 43.578125 6.953125 
Q 41.015625 3.078125 36.171875 0.953125 
Q 31.34375 -1.171875 25.25 -1.171875 
Q 15.140625 -1.171875 9.84375 3.03125 
Q 4.546875 7.234375 3.078125 15.484375 
z
" id="ArialMT-73"/>
      <path d="M 6.640625 61.46875 
L 6.640625 71.578125 
L 15.4375 71.578125 
L 15.4375 61.46875 
z
M 6.640625 0 
L 6.640625 51.859375 
L 15.4375 51.859375 
L 15.4375 0 
z
" id="ArialMT-69"/>
      <path d="M 3.328125 25.921875 
Q 3.328125 40.328125 11.328125 47.265625 
Q 18.015625 53.03125 27.640625 53.03125 
Q 38.328125 53.03125 45.109375 46.015625 
Q 51.90625 39.015625 51.90625 26.65625 
Q 51.90625 16.65625 48.90625 10.90625 
Q 45.90625 5.171875 40.15625 2 
Q 34.421875 -1.171875 27.640625 -1.171875 
Q 16.75 -1.171875 10.03125 5.8125 
Q 3.328125 12.796875 3.328125 25.921875 
z
M 12.359375 25.921875 
Q 12.359375 15.96875 16.703125 11.015625 
Q 21.046875 6.0625 27.640625 6.0625 
Q 34.1875 6.0625 38.53125 11.03125 
Q 42.875 16.015625 42.875 26.21875 
Q 42.875 35.84375 38.5 40.796875 
Q 34.125 45.75 27.640625 45.75 
Q 21.046875 45.75 16.703125 40.8125 
Q 12.359375 35.890625 12.359375 25.921875 
z
" id="ArialMT-6f"/>
      <path d="M 6.59375 0 
L 6.59375 51.859375 
L 14.5 51.859375 
L 14.5 44.484375 
Q 20.21875 53.03125 31 53.03125 
Q 35.6875 53.03125 39.625 51.34375 
Q 43.5625 49.65625 45.515625 46.921875 
Q 47.46875 44.1875 48.25 40.4375 
Q 48.734375 37.984375 48.734375 31.890625 
L 48.734375 0 
L 39.9375 0 
L 39.9375 31.546875 
Q 39.9375 36.921875 38.90625 39.578125 
Q 37.890625 42.234375 35.28125 43.8125 
Q 32.671875 45.40625 29.15625 45.40625 
Q 23.53125 45.40625 19.453125 41.84375 
Q 15.375 38.28125 15.375 28.328125 
L 15.375 0 
z
" id="ArialMT-6e"/>
     </defs>
     <g style="fill:#262626;" transform="translate(125.173984 294.810391)scale(0.165 -0.165)">
      <use xlink:href="#ArialMT-45"/>
      <use x="66.699219" xlink:href="#ArialMT-78"/>
      <use x="116.699219" xlink:href="#ArialMT-70"/>
      <use x="172.314453" xlink:href="#ArialMT-72"/>
      <use x="205.615234" xlink:href="#ArialMT-65"/>
      <use x="261.230469" xlink:href="#ArialMT-73"/>
      <use x="311.230469" xlink:href="#ArialMT-73"/>
      <use x="361.230469" xlink:href="#ArialMT-69"/>
      <use x="383.447266" xlink:href="#ArialMT-6f"/>
      <use x="439.0625" xlink:href="#ArialMT-6e"/>
     </g>
    </g>
   </g>
   <g id="matplotlib.axis_2">
    <g id="text_2">
     <!-- Density -->
     <defs>
      <path d="M 7.71875 0 
L 7.71875 71.578125 
L 32.375 71.578125 
Q 40.71875 71.578125 45.125 70.5625 
Q 51.265625 69.140625 55.609375 65.4375 
Q 61.28125 60.640625 64.078125 53.1875 
Q 66.890625 45.75 66.890625 36.1875 
Q 66.890625 28.03125 64.984375 21.734375 
Q 63.09375 15.4375 60.109375 11.296875 
Q 57.125 7.171875 53.578125 4.796875 
Q 50.046875 2.4375 45.046875 1.21875 
Q 40.046875 0 33.546875 0 
z
M 17.1875 8.453125 
L 32.46875 8.453125 
Q 39.546875 8.453125 43.578125 9.765625 
Q 47.609375 11.078125 50 13.484375 
Q 53.375 16.84375 55.25 22.53125 
Q 57.125 28.21875 57.125 36.328125 
Q 57.125 47.5625 53.4375 53.59375 
Q 49.75 59.625 44.484375 61.671875 
Q 40.671875 63.140625 32.234375 63.140625 
L 17.1875 63.140625 
z
" id="ArialMT-44"/>
      <path d="M 25.78125 7.859375 
L 27.046875 0.09375 
Q 23.34375 -0.6875 20.40625 -0.6875 
Q 15.625 -0.6875 12.984375 0.828125 
Q 10.359375 2.34375 9.28125 4.8125 
Q 8.203125 7.28125 8.203125 15.1875 
L 8.203125 45.015625 
L 1.765625 45.015625 
L 1.765625 51.859375 
L 8.203125 51.859375 
L 8.203125 64.703125 
L 16.9375 69.96875 
L 16.9375 51.859375 
L 25.78125 51.859375 
L 25.78125 45.015625 
L 16.9375 45.015625 
L 16.9375 14.703125 
Q 16.9375 10.9375 17.40625 9.859375 
Q 17.875 8.796875 18.921875 8.15625 
Q 19.96875 7.515625 21.921875 7.515625 
Q 23.390625 7.515625 25.78125 7.859375 
z
" id="ArialMT-74"/>
      <path d="M 6.203125 -19.96875 
L 5.21875 -11.71875 
Q 8.109375 -12.5 10.25 -12.5 
Q 13.1875 -12.5 14.9375 -11.515625 
Q 16.703125 -10.546875 17.828125 -8.796875 
Q 18.65625 -7.46875 20.515625 -2.25 
Q 20.75 -1.515625 21.296875 -0.09375 
L 1.609375 51.859375 
L 11.078125 51.859375 
L 21.875 21.828125 
Q 23.96875 16.109375 25.640625 9.8125 
Q 27.15625 15.875 29.25 21.625 
L 40.328125 51.859375 
L 49.125 51.859375 
L 29.390625 -0.875 
Q 26.21875 -9.421875 24.46875 -12.640625 
Q 22.125 -17 19.09375 -19.015625 
Q 16.0625 -21.046875 11.859375 -21.046875 
Q 9.328125 -21.046875 6.203125 -19.96875 
z
" id="ArialMT-79"/>
     </defs>
     <g style="fill:#262626;" transform="translate(19.010391 170.608594)rotate(-90)scale(0.165 -0.165)">
      <use xlink:href="#ArialMT-44"/>
      <use x="72.216797" xlink:href="#ArialMT-65"/>
      <use x="127.832031" xlink:href="#ArialMT-6e"/>
      <use x="183.447266" xlink:href="#ArialMT-73"/>
      <use x="233.447266" xlink:href="#ArialMT-69"/>
      <use x="255.664062" xlink:href="#ArialMT-74"/>
      <use x="283.447266" xlink:href="#ArialMT-79"/>
     </g>
    </g>
   </g>
   <g id="patch_3">
    <path clip-path="url(#pb444d0bf5e)" d="M 26.970835 279 
L 33.043682 279 
L 33.043682 274.250328 
L 26.970835 274.250328 
z
" style="fill:#4c72b0;opacity:0.4;"/>
   </g>
   <g id="patch_4">
    <path clip-path="url(#pb444d0bf5e)" d="M 33.043682 279 
L 39.116529 279 
L 39.116529 264.750983 
L 33.043682 264.750983 
z
" style="fill:#4c72b0;opacity:0.4;"/>
   </g>
   <g id="patch_5">
    <path clip-path="url(#pb444d0bf5e)" d="M 39.116529 279 
L 45.189376 279 
L 45.189376 264.750983 
L 39.116529 264.750983 
z
" style="fill:#4c72b0;opacity:0.4;"/>
   </g>
   <g id="patch_6">
    <path clip-path="url(#pb444d0bf5e)" d="M 45.189376 279 
L 51.262223 279 
L 51.262223 238.627785 
L 45.189376 238.627785 
z
" style="fill:#4c72b0;opacity:0.4;"/>
   </g>
   <g id="patch_7">
    <path clip-path="url(#pb444d0bf5e)" d="M 51.262223 279 
L 57.33507 279 
L 57.33507 248.12713 
L 51.262223 248.12713 
z
" style="fill:#4c72b0;opacity:0.4;"/>
   </g>
   <g id="patch_8">
    <path clip-path="url(#pb444d0bf5e)" d="M 57.33507 279 
L 63.407917 279 
L 63.407917 195.880734 
L 57.33507 195.880734 
z
" style="fill:#4c72b0;opacity:0.4;"/>
   </g>
   <g id="patch_9">
    <path clip-path="url(#pb444d0bf5e)" d="M 63.407917 279 
L 69.480765 279 
L 69.480765 198.25557 
L 63.407917 198.25557 
z
" style="fill:#4c72b0;opacity:0.4;"/>
   </g>
   <g id="patch_10">
    <path clip-path="url(#pb444d0bf5e)" d="M 69.480765 279 
L 75.553612 279 
L 75.553612 134.134993 
L 69.480765 134.134993 
z
" style="fill:#4c72b0;opacity:0.4;"/>
   </g>
   <g id="patch_11">
    <path clip-path="url(#pb444d0bf5e)" d="M 75.553612 279 
L 81.626459 279 
L 81.626459 91.387942 
L 75.553612 91.387942 
z
" style="fill:#4c72b0;opacity:0.4;"/>
   </g>
   <g id="patch_12">
    <path clip-path="url(#pb444d0bf5e)" d="M 81.626459 279 
L 87.699306 279 
L 87.699306 46.266055 
L 81.626459 46.266055 
z
" style="fill:#4c72b0;opacity:0.4;"/>
   </g>
   <g id="patch_13">
    <path clip-path="url(#pb444d0bf5e)" d="M 87.699306 279 
L 93.772153 279 
L 93.772153 65.264744 
L 87.699306 65.264744 
z
" style="fill:#4c72b0;opacity:0.4;"/>
   </g>
   <g id="patch_14">
    <path clip-path="url(#pb444d0bf5e)" d="M 93.772153 279 
L 99.845 279 
L 99.845 32.017038 
L 93.772153 32.017038 
z
" style="fill:#4c72b0;opacity:0.4;"/>
   </g>
   <g id="patch_15">
    <path clip-path="url(#pb444d0bf5e)" d="M 99.845 279 
L 105.917848 279 
L 105.917848 20.142857 
L 99.845 20.142857 
z
" style="fill:#4c72b0;opacity:0.4;"/>
   </g>
   <g id="patch_16">
    <path clip-path="url(#pb444d0bf5e)" d="M 105.917848 279 
L 111.990695 279 
L 111.990695 81.888598 
L 105.917848 81.888598 
z
" style="fill:#4c72b0;opacity:0.4;"/>
   </g>
   <g id="patch_17">
    <path clip-path="url(#pb444d0bf5e)" d="M 111.990695 279 
L 118.063542 279 
L 118.063542 34.391874 
L 111.990695 34.391874 
z
" style="fill:#4c72b0;opacity:0.4;"/>
   </g>
   <g id="patch_18">
    <path clip-path="url(#pb444d0bf5e)" d="M 118.063542 279 
L 124.136389 279 
L 124.136389 119.885976 
L 118.063542 119.885976 
z
" style="fill:#4c72b0;opacity:0.4;"/>
   </g>
   <g id="patch_19">
    <path clip-path="url(#pb444d0bf5e)" d="M 124.136389 279 
L 130.209236 279 
L 130.209236 193.505898 
L 124.136389 193.505898 
z
" style="fill:#4c72b0;opacity:0.4;"/>
   </g>
   <g id="patch_20">
    <path clip-path="url(#pb444d0bf5e)" d="M 130.209236 279 
L 136.282083 279 
L 136.282083 203.005242 
L 130.209236 203.005242 
z
" style="fill:#4c72b0;opacity:0.4;"/>
   </g>
   <g id="patch_21">
    <path clip-path="url(#pb444d0bf5e)" d="M 136.282083 279 
L 142.354931 279 
L 142.354931 238.627785 
L 136.282083 238.627785 
z
" style="fill:#4c72b0;opacity:0.4;"/>
   </g>
   <g id="patch_22">
    <path clip-path="url(#pb444d0bf5e)" d="M 142.354931 279 
L 148.427778 279 
L 148.427778 269.500655 
L 142.354931 269.500655 
z
" style="fill:#4c72b0;opacity:0.4;"/>
   </g>
   <g id="patch_23">
    <path clip-path="url(#pb444d0bf5e)" d="M 148.427778 279 
L 154.500625 279 
L 154.500625 269.500655 
L 148.427778 269.500655 
z
" style="fill:#4c72b0;opacity:0.4;"/>
   </g>
   <g id="patch_24">
    <path clip-path="url(#pb444d0bf5e)" d="M 146.532476 279 
L 152.661645 279 
L 152.661645 267.234933 
L 146.532476 267.234933 
z
" style="fill:#55a868;opacity:0.4;"/>
   </g>
   <g id="patch_25">
    <path clip-path="url(#pb444d0bf5e)" d="M 152.661645 279 
L 158.790814 279 
L 158.790814 274.293973 
L 152.661645 274.293973 
z
" style="fill:#55a868;opacity:0.4;"/>
   </g>
   <g id="patch_26">
    <path clip-path="url(#pb444d0bf5e)" d="M 158.790814 279 
L 164.919983 279 
L 164.919983 260.175893 
L 158.790814 260.175893 
z
" style="fill:#55a868;opacity:0.4;"/>
   </g>
   <g id="patch_27">
    <path clip-path="url(#pb444d0bf5e)" d="M 164.919983 279 
L 171.049152 279 
L 171.049152 231.939731 
L 164.919983 231.939731 
z
" style="fill:#55a868;opacity:0.4;"/>
   </g>
   <g id="patch_28">
    <path clip-path="url(#pb444d0bf5e)" d="M 171.049152 279 
L 177.178321 279 
L 177.178321 217.821651 
L 171.049152 217.821651 
z
" style="fill:#55a868;opacity:0.4;"/>
   </g>
   <g id="patch_29">
    <path clip-path="url(#pb444d0bf5e)" d="M 177.178321 279 
L 183.30749 279 
L 183.30749 196.64453 
L 177.178321 196.64453 
z
" style="fill:#55a868;opacity:0.4;"/>
   </g>
   <g id="patch_30">
    <path clip-path="url(#pb444d0bf5e)" d="M 183.30749 279 
L 189.436659 279 
L 189.436659 166.055355 
L 183.30749 166.055355 
z
" style="fill:#55a868;opacity:0.4;"/>
   </g>
   <g id="patch_31">
    <path clip-path="url(#pb444d0bf5e)" d="M 189.436659 279 
L 195.565828 279 
L 195.565828 86.052898 
L 189.436659 86.052898 
z
" style="fill:#55a868;opacity:0.4;"/>
   </g>
   <g id="patch_32">
    <path clip-path="url(#pb444d0bf5e)" d="M 195.565828 279 
L 201.694998 279 
L 201.694998 76.640845 
L 195.565828 76.640845 
z
" style="fill:#55a868;opacity:0.4;"/>
   </g>
   <g id="patch_33">
    <path clip-path="url(#pb444d0bf5e)" d="M 201.694998 279 
L 207.824167 279 
L 207.824167 24.874549 
L 201.694998 24.874549 
z
" style="fill:#55a868;opacity:0.4;"/>
   </g>
   <g id="patch_34">
    <path clip-path="url(#pb444d0bf5e)" d="M 207.824167 279 
L 213.953336 279 
L 213.953336 69.581804 
L 207.824167 69.581804 
z
" style="fill:#55a868;opacity:0.4;"/>
   </g>
   <g id="patch_35">
    <path clip-path="url(#pb444d0bf5e)" d="M 213.953336 279 
L 220.082505 279 
L 220.082505 15.462495 
L 213.953336 15.462495 
z
" style="fill:#55a868;opacity:0.4;"/>
   </g>
   <g id="patch_36">
    <path clip-path="url(#pb444d0bf5e)" d="M 220.082505 279 
L 226.211674 279 
L 226.211674 81.346872 
L 220.082505 81.346872 
z
" style="fill:#55a868;opacity:0.4;"/>
   </g>
   <g id="patch_37">
    <path clip-path="url(#pb444d0bf5e)" d="M 226.211674 279 
L 232.340843 279 
L 232.340843 78.993858 
L 226.211674 78.993858 
z
" style="fill:#55a868;opacity:0.4;"/>
   </g>
   <g id="patch_38">
    <path clip-path="url(#pb444d0bf5e)" d="M 232.340843 279 
L 238.470012 279 
L 238.470012 104.877006 
L 232.340843 104.877006 
z
" style="fill:#55a868;opacity:0.4;"/>
   </g>
   <g id="patch_39">
    <path clip-path="url(#pb444d0bf5e)" d="M 238.470012 279 
L 244.599181 279 
L 244.599181 163.702342 
L 238.470012 163.702342 
z
" style="fill:#55a868;opacity:0.4;"/>
   </g>
   <g id="patch_40">
    <path clip-path="url(#pb444d0bf5e)" d="M 244.599181 279 
L 250.72835 279 
L 250.72835 213.115624 
L 244.599181 213.115624 
z
" style="fill:#55a868;opacity:0.4;"/>
   </g>
   <g id="patch_41">
    <path clip-path="url(#pb444d0bf5e)" d="M 250.72835 279 
L 256.857519 279 
L 256.857519 217.821651 
L 250.72835 217.821651 
z
" style="fill:#55a868;opacity:0.4;"/>
   </g>
   <g id="patch_42">
    <path clip-path="url(#pb444d0bf5e)" d="M 256.857519 279 
L 262.986688 279 
L 262.986688 253.116852 
L 256.857519 253.116852 
z
" style="fill:#55a868;opacity:0.4;"/>
   </g>
   <g id="patch_43">
    <path clip-path="url(#pb444d0bf5e)" d="M 262.986688 279 
L 269.115857 279 
L 269.115857 248.410825 
L 262.986688 248.410825 
z
" style="fill:#55a868;opacity:0.4;"/>
   </g>
   <g id="patch_44">
    <path clip-path="url(#pb444d0bf5e)" d="M 269.115857 279 
L 275.245026 279 
L 275.245026 264.881919 
L 269.115857 264.881919 
z
" style="fill:#55a868;opacity:0.4;"/>
   </g>
   <g id="patch_45">
    <path clip-path="url(#pb444d0bf5e)" d="M 275.245026 279 
L 281.374195 279 
L 281.374195 271.94096 
L 275.245026 271.94096 
z
" style="fill:#55a868;opacity:0.4;"/>
   </g>
   <g id="line2d_1">
    <path clip-path="url(#pb444d0bf5e)" d="M 9.292404 278.973752 
L 14.422692 278.855049 
L 16.987836 278.629808 
L 19.55298 278.17599 
L 22.118124 277.385541 
L 24.683269 276.18073 
L 27.248413 274.55919 
L 29.813557 272.607926 
L 32.378701 270.43852 
L 34.943845 268.045544 
L 37.508989 265.213933 
L 38.791561 263.534133 
L 40.074133 261.639644 
L 42.639277 257.218054 
L 45.204422 252.180007 
L 49.052138 244.059458 
L 51.617282 238.070485 
L 54.182426 231.097456 
L 56.74757 222.924133 
L 59.312714 213.6565 
L 61.877858 203.227672 
L 63.16043 197.406034 
L 64.443002 191.041751 
L 65.725575 184.048258 
L 68.290719 168.0927 
L 70.855863 150.057616 
L 75.986151 113.068016 
L 78.551295 96.321737 
L 81.116439 81.607715 
L 82.399011 75.235095 
L 83.681583 69.653669 
L 84.964155 64.931311 
L 86.246728 61.065332 
L 87.5293 57.955688 
L 88.811872 55.402896 
L 92.659588 48.407206 
L 95.224732 42.591994 
L 96.507304 39.531895 
L 97.789876 36.774928 
L 99.072448 34.692143 
L 100.35502 33.612755 
L 101.637592 33.755166 
L 102.920164 35.18644 
L 104.202736 37.818068 
L 105.485308 41.436904 
L 106.767881 45.762689 
L 109.333025 55.49718 
L 111.898169 65.901657 
L 113.180741 71.532408 
L 114.463313 77.727025 
L 115.745885 84.708185 
L 117.028457 92.630552 
L 118.311029 101.533438 
L 120.876173 121.782898 
L 124.723889 154.074591 
L 127.289033 173.462996 
L 128.571606 182.012549 
L 131.13675 196.888862 
L 133.701894 209.618674 
L 137.54961 227.081281 
L 141.397326 243.696134 
L 143.96247 253.502268 
L 145.245042 257.728574 
L 146.527614 261.410847 
L 147.810186 264.526585 
L 149.092759 267.095767 
L 150.375331 269.175567 
L 151.657903 270.848357 
L 152.940475 272.206031 
L 154.223047 273.334556 
L 156.788191 275.154827 
L 159.353335 276.588662 
L 161.918479 277.66358 
L 164.483623 278.362914 
L 167.048767 278.742338 
L 170.896484 278.948944 
L 172.179056 278.968162 
L 172.179056 278.968162 
" style="fill:none;stroke:#4c72b0;stroke-linecap:round;stroke-width:1.75;"/>
   </g>
   <g id="line2d_2">
    <path clip-path="url(#pb444d0bf5e)" d="M 128.030707 278.975475 
L 133.443156 278.8294 
L 136.14938 278.549737 
L 138.855605 277.976329 
L 141.56183 276.985819 
L 144.268054 275.540329 
L 146.974279 273.740019 
L 151.033615 270.71931 
L 153.73984 268.45647 
L 155.092952 267.128581 
L 156.446064 265.580116 
L 157.799177 263.740807 
L 159.152289 261.549725 
L 160.505401 258.963167 
L 161.858513 255.959376 
L 163.211626 252.539807 
L 164.564738 248.727439 
L 167.270963 240.100144 
L 169.977187 230.520652 
L 174.036524 215.239085 
L 176.742748 204.44002 
L 179.448973 192.384703 
L 180.802085 185.558624 
L 182.155197 178.057166 
L 184.861422 160.962139 
L 187.567646 141.780067 
L 191.626983 112.821539 
L 194.333208 95.666797 
L 197.039432 80.937012 
L 198.392545 74.473266 
L 199.745657 68.611615 
L 201.098769 63.382757 
L 202.451881 58.833378 
L 203.804994 55.002529 
L 205.158106 51.893921 
L 206.511218 49.457206 
L 207.86433 47.58894 
L 209.217443 46.156675 
L 210.570555 45.039943 
L 211.923667 44.173833 
L 213.27678 43.578334 
L 214.629892 43.361031 
L 215.983004 43.690738 
L 217.336116 44.750831 
L 218.689229 46.688584 
L 220.042341 49.577517 
L 221.395453 53.403684 
L 222.748565 58.077268 
L 224.101678 63.462057 
L 226.807902 75.796513 
L 229.514127 89.562554 
L 232.220351 104.509715 
L 234.926576 120.699506 
L 238.985913 146.862776 
L 243.045249 172.917712 
L 245.751474 188.5799 
L 248.457698 202.152202 
L 251.163923 213.597408 
L 253.870147 223.289021 
L 256.576372 231.680858 
L 259.282596 239.000963 
L 261.988821 245.278391 
L 264.695046 250.629172 
L 267.40127 255.374673 
L 271.460607 261.969439 
L 274.166831 266.008016 
L 276.873056 269.537811 
L 279.57928 272.426945 
L 280.932393 273.627348 
L 282.285505 274.674632 
L 283.638617 275.578489 
L 286.344842 276.993019 
L 289.051066 277.942507 
L 291.757291 278.511007 
L 294.463515 278.804967 
L 298.522852 278.960487 
L 299.875964 278.973741 
L 299.875964 278.973741 
" style="fill:none;stroke:#55a868;stroke-linecap:round;stroke-width:1.75;"/>
   </g>
   <g id="patch_46">
    <path d="M 26.483125 279 
L 26.483125 7.2 
" style="fill:none;stroke:#262626;stroke-linecap:square;stroke-linejoin:miter;stroke-width:1.25;"/>
   </g>
   <g id="patch_47">
    <path d="M 305.483125 279 
L 305.483125 7.2 
" style="fill:none;stroke:#262626;stroke-linecap:square;stroke-linejoin:miter;stroke-width:1.25;"/>
   </g>
   <g id="patch_48">
    <path d="M 26.483125 279 
L 305.483125 279 
" style="fill:none;stroke:#262626;stroke-linecap:square;stroke-linejoin:miter;stroke-width:1.25;"/>
   </g>
   <g id="patch_49">
    <path d="M 26.483125 7.2 
L 305.483125 7.2 
" style="fill:none;stroke:#262626;stroke-linecap:square;stroke-linejoin:miter;stroke-width:1.25;"/>
   </g>
  </g>
 </g>
 <defs>
  <clipPath id="pb444d0bf5e">
   <rect height="271.8" width="279" x="26.483125" y="7.2"/>
  </clipPath>
 </defs>
</svg>
