<?xml version="1.0" encoding="utf-8" standalone="no"?>
<!DOCTYPE svg PUBLIC "-//W3C//DTD SVG 1.1//EN"
  "http://www.w3.org/Graphics/SVG/1.1/DTD/svg11.dtd">
<!-- Created with matplotlib (http://matplotlib.org/) -->
<svg height="305.289766pt" version="1.1" viewBox="0 0 312.489766 305.289766" width="312.489766pt" xmlns="http://www.w3.org/2000/svg" xmlns:xlink="http://www.w3.org/1999/xlink">
 <defs>
  <style type="text/css">
*{stroke-linecap:butt;stroke-linejoin:round;}
  </style>
 </defs>
 <g id="figure_1">
  <g id="patch_1">
   <path d="M 0 305.289766 
L 312.489766 305.289766 
L 312.489766 0 
L 0 0 
z
" style="fill:#ffffff;"/>
  </g>
  <g id="axes_1">
   <g id="patch_2">
    <path d="M 26.289766 279 
L 305.289766 279 
L 305.289766 7.2 
L 26.289766 7.2 
z
" style="fill:#ffffff;"/>
   </g>
   <g id="matplotlib.axis_1">
    <g id="text_1">
     <!-- Expression -->
     <defs>
      <path d="M 7.90625 0 
L 7.90625 71.578125 
L 59.671875 71.578125 
L 59.671875 63.140625 
L 17.390625 63.140625 
L 17.390625 41.21875 
L 56.984375 41.21875 
L 56.984375 32.8125 
L 17.390625 32.8125 
L 17.390625 8.453125 
L 61.328125 8.453125 
L 61.328125 0 
z
" id="ArialMT-45"/>
      <path d="M 0.734375 0 
L 19.671875 26.953125 
L 2.15625 51.859375 
L 13.140625 51.859375 
L 21.09375 39.703125 
Q 23.34375 36.234375 24.703125 33.890625 
Q 26.859375 37.109375 28.65625 39.59375 
L 37.40625 51.859375 
L 47.90625 51.859375 
L 29.984375 27.4375 
L 49.265625 0 
L 38.484375 0 
L 27.828125 16.109375 
L 25 20.453125 
L 11.375 0 
z
" id="ArialMT-78"/>
      <path d="M 6.59375 -19.875 
L 6.59375 51.859375 
L 14.59375 51.859375 
L 14.59375 45.125 
Q 17.4375 49.078125 21 51.046875 
Q 24.5625 53.03125 29.640625 53.03125 
Q 36.28125 53.03125 41.359375 49.609375 
Q 46.4375 46.1875 49.015625 39.953125 
Q 51.609375 33.734375 51.609375 26.3125 
Q 51.609375 18.359375 48.75 11.984375 
Q 45.90625 5.609375 40.453125 2.21875 
Q 35.015625 -1.171875 29 -1.171875 
Q 24.609375 -1.171875 21.109375 0.6875 
Q 17.625 2.546875 15.375 5.375 
L 15.375 -19.875 
z
M 14.546875 25.640625 
Q 14.546875 15.625 18.59375 10.84375 
Q 22.65625 6.0625 28.421875 6.0625 
Q 34.28125 6.0625 38.453125 11.015625 
Q 42.625 15.96875 42.625 26.375 
Q 42.625 36.28125 38.546875 41.203125 
Q 34.46875 46.140625 28.8125 46.140625 
Q 23.1875 46.140625 18.859375 40.890625 
Q 14.546875 35.640625 14.546875 25.640625 
z
" id="ArialMT-70"/>
      <path d="M 6.5 0 
L 6.5 51.859375 
L 14.40625 51.859375 
L 14.40625 44 
Q 17.4375 49.515625 20 51.265625 
Q 22.5625 53.03125 25.640625 53.03125 
Q 30.078125 53.03125 34.671875 50.203125 
L 31.640625 42.046875 
Q 28.421875 43.953125 25.203125 43.953125 
Q 22.3125 43.953125 20.015625 42.21875 
Q 17.71875 40.484375 16.75 37.40625 
Q 15.28125 32.71875 15.28125 27.15625 
L 15.28125 0 
z
" id="ArialMT-72"/>
      <path d="M 42.09375 16.703125 
L 51.171875 15.578125 
Q 49.03125 7.625 43.21875 3.21875 
Q 37.40625 -1.171875 28.375 -1.171875 
Q 17 -1.171875 10.328125 5.828125 
Q 3.65625 12.84375 3.65625 25.484375 
Q 3.65625 38.578125 10.390625 45.796875 
Q 17.140625 53.03125 27.875 53.03125 
Q 38.28125 53.03125 44.875 45.953125 
Q 51.46875 38.875 51.46875 26.03125 
Q 51.46875 25.25 51.421875 23.6875 
L 12.75 23.6875 
Q 13.234375 15.140625 17.578125 10.59375 
Q 21.921875 6.0625 28.421875 6.0625 
Q 33.25 6.0625 36.671875 8.59375 
Q 40.09375 11.140625 42.09375 16.703125 
z
M 13.234375 30.90625 
L 42.1875 30.90625 
Q 41.609375 37.453125 38.875 40.71875 
Q 34.671875 45.796875 27.984375 45.796875 
Q 21.921875 45.796875 17.796875 41.75 
Q 13.671875 37.703125 13.234375 30.90625 
z
" id="ArialMT-65"/>
      <path d="M 3.078125 15.484375 
L 11.765625 16.84375 
Q 12.5 11.625 15.84375 8.84375 
Q 19.1875 6.0625 25.203125 6.0625 
Q 31.25 6.0625 34.171875 8.515625 
Q 37.109375 10.984375 37.109375 14.3125 
Q 37.109375 17.28125 34.515625 19 
Q 32.71875 20.171875 25.53125 21.96875 
Q 15.875 24.421875 12.140625 26.203125 
Q 8.40625 27.984375 6.46875 31.125 
Q 4.546875 34.28125 4.546875 38.09375 
Q 4.546875 41.546875 6.125 44.5 
Q 7.71875 47.46875 10.453125 49.421875 
Q 12.5 50.921875 16.03125 51.96875 
Q 19.578125 53.03125 23.640625 53.03125 
Q 29.734375 53.03125 34.34375 51.265625 
Q 38.96875 49.515625 41.15625 46.5 
Q 43.359375 43.5 44.1875 38.484375 
L 35.59375 37.3125 
Q 35.015625 41.3125 32.203125 43.546875 
Q 29.390625 45.796875 24.265625 45.796875 
Q 18.21875 45.796875 15.625 43.796875 
Q 13.03125 41.796875 13.03125 39.109375 
Q 13.03125 37.40625 14.109375 36.03125 
Q 15.1875 34.625 17.484375 33.6875 
Q 18.796875 33.203125 25.25 31.453125 
Q 34.578125 28.953125 38.25 27.359375 
Q 41.9375 25.78125 44.03125 22.75 
Q 46.140625 19.734375 46.140625 15.234375 
Q 46.140625 10.84375 43.578125 6.953125 
Q 41.015625 3.078125 36.171875 0.953125 
Q 31.34375 -1.171875 25.25 -1.171875 
Q 15.140625 -1.171875 9.84375 3.03125 
Q 4.546875 7.234375 3.078125 15.484375 
z
" id="ArialMT-73"/>
      <path d="M 6.640625 61.46875 
L 6.640625 71.578125 
L 15.4375 71.578125 
L 15.4375 61.46875 
z
M 6.640625 0 
L 6.640625 51.859375 
L 15.4375 51.859375 
L 15.4375 0 
z
" id="ArialMT-69"/>
      <path d="M 3.328125 25.921875 
Q 3.328125 40.328125 11.328125 47.265625 
Q 18.015625 53.03125 27.640625 53.03125 
Q 38.328125 53.03125 45.109375 46.015625 
Q 51.90625 39.015625 51.90625 26.65625 
Q 51.90625 16.65625 48.90625 10.90625 
Q 45.90625 5.171875 40.15625 2 
Q 34.421875 -1.171875 27.640625 -1.171875 
Q 16.75 -1.171875 10.03125 5.8125 
Q 3.328125 12.796875 3.328125 25.921875 
z
M 12.359375 25.921875 
Q 12.359375 15.96875 16.703125 11.015625 
Q 21.046875 6.0625 27.640625 6.0625 
Q 34.1875 6.0625 38.53125 11.03125 
Q 42.875 16.015625 42.875 26.21875 
Q 42.875 35.84375 38.5 40.796875 
Q 34.125 45.75 27.640625 45.75 
Q 21.046875 45.75 16.703125 40.8125 
Q 12.359375 35.890625 12.359375 25.921875 
z
" id="ArialMT-6f"/>
      <path d="M 6.59375 0 
L 6.59375 51.859375 
L 14.5 51.859375 
L 14.5 44.484375 
Q 20.21875 53.03125 31 53.03125 
Q 35.6875 53.03125 39.625 51.34375 
Q 43.5625 49.65625 45.515625 46.921875 
Q 47.46875 44.1875 48.25 40.4375 
Q 48.734375 37.984375 48.734375 31.890625 
L 48.734375 0 
L 39.9375 0 
L 39.9375 31.546875 
Q 39.9375 36.921875 38.90625 39.578125 
Q 37.890625 42.234375 35.28125 43.8125 
Q 32.671875 45.40625 29.15625 45.40625 
Q 23.53125 45.40625 19.453125 41.84375 
Q 15.375 38.28125 15.375 28.328125 
L 15.375 0 
z
" id="ArialMT-6e"/>
     </defs>
     <g style="fill:#262626;" transform="translate(124.980625 294.810391)scale(0.165 -0.165)">
      <use xlink:href="#ArialMT-45"/>
      <use x="66.699219" xlink:href="#ArialMT-78"/>
      <use x="116.699219" xlink:href="#ArialMT-70"/>
      <use x="172.314453" xlink:href="#ArialMT-72"/>
      <use x="205.615234" xlink:href="#ArialMT-65"/>
      <use x="261.230469" xlink:href="#ArialMT-73"/>
      <use x="311.230469" xlink:href="#ArialMT-73"/>
      <use x="361.230469" xlink:href="#ArialMT-69"/>
      <use x="383.447266" xlink:href="#ArialMT-6f"/>
      <use x="439.0625" xlink:href="#ArialMT-6e"/>
     </g>
    </g>
   </g>
   <g id="matplotlib.axis_2">
    <g id="text_2">
     <!-- Covariate -->
     <defs>
      <path d="M 58.796875 25.09375 
L 68.265625 22.703125 
Q 65.28125 11.03125 57.546875 4.90625 
Q 49.8125 -1.21875 38.625 -1.21875 
Q 27.046875 -1.21875 19.796875 3.484375 
Q 12.546875 8.203125 8.765625 17.140625 
Q 4.984375 26.078125 4.984375 36.328125 
Q 4.984375 47.515625 9.25 55.828125 
Q 13.53125 64.15625 21.40625 68.46875 
Q 29.296875 72.796875 38.765625 72.796875 
Q 49.515625 72.796875 56.828125 67.328125 
Q 64.15625 61.859375 67.046875 51.953125 
L 57.71875 49.75 
Q 55.21875 57.5625 50.484375 61.125 
Q 45.75 64.703125 38.578125 64.703125 
Q 30.328125 64.703125 24.78125 60.734375 
Q 19.234375 56.78125 16.984375 50.109375 
Q 14.75 43.453125 14.75 36.375 
Q 14.75 27.25 17.40625 20.4375 
Q 20.0625 13.625 25.671875 10.25 
Q 31.296875 6.890625 37.84375 6.890625 
Q 45.796875 6.890625 51.3125 11.46875 
Q 56.84375 16.0625 58.796875 25.09375 
z
" id="ArialMT-43"/>
      <path d="M 21 0 
L 1.265625 51.859375 
L 10.546875 51.859375 
L 21.6875 20.796875 
Q 23.484375 15.765625 25 10.359375 
Q 26.171875 14.453125 28.265625 20.21875 
L 39.796875 51.859375 
L 48.828125 51.859375 
L 29.203125 0 
z
" id="ArialMT-76"/>
      <path d="M 40.4375 6.390625 
Q 35.546875 2.25 31.03125 0.53125 
Q 26.515625 -1.171875 21.34375 -1.171875 
Q 12.796875 -1.171875 8.203125 3 
Q 3.609375 7.171875 3.609375 13.671875 
Q 3.609375 17.484375 5.34375 20.625 
Q 7.078125 23.78125 9.890625 25.6875 
Q 12.703125 27.59375 16.21875 28.5625 
Q 18.796875 29.25 24.03125 29.890625 
Q 34.671875 31.15625 39.703125 32.90625 
Q 39.75 34.71875 39.75 35.203125 
Q 39.75 40.578125 37.25 42.78125 
Q 33.890625 45.75 27.25 45.75 
Q 21.046875 45.75 18.09375 43.578125 
Q 15.140625 41.40625 13.71875 35.890625 
L 5.125 37.0625 
Q 6.296875 42.578125 8.984375 45.96875 
Q 11.671875 49.359375 16.75 51.1875 
Q 21.828125 53.03125 28.515625 53.03125 
Q 35.15625 53.03125 39.296875 51.46875 
Q 43.453125 49.90625 45.40625 47.53125 
Q 47.359375 45.171875 48.140625 41.546875 
Q 48.578125 39.3125 48.578125 33.453125 
L 48.578125 21.734375 
Q 48.578125 9.46875 49.140625 6.21875 
Q 49.703125 2.984375 51.375 0 
L 42.1875 0 
Q 40.828125 2.734375 40.4375 6.390625 
z
M 39.703125 26.03125 
Q 34.90625 24.078125 25.34375 22.703125 
Q 19.921875 21.921875 17.671875 20.9375 
Q 15.4375 19.96875 14.203125 18.09375 
Q 12.984375 16.21875 12.984375 13.921875 
Q 12.984375 10.40625 15.640625 8.0625 
Q 18.3125 5.71875 23.4375 5.71875 
Q 28.515625 5.71875 32.46875 7.9375 
Q 36.421875 10.15625 38.28125 14.015625 
Q 39.703125 17 39.703125 22.796875 
z
" id="ArialMT-61"/>
      <path d="M 25.78125 7.859375 
L 27.046875 0.09375 
Q 23.34375 -0.6875 20.40625 -0.6875 
Q 15.625 -0.6875 12.984375 0.828125 
Q 10.359375 2.34375 9.28125 4.8125 
Q 8.203125 7.28125 8.203125 15.1875 
L 8.203125 45.015625 
L 1.765625 45.015625 
L 1.765625 51.859375 
L 8.203125 51.859375 
L 8.203125 64.703125 
L 16.9375 69.96875 
L 16.9375 51.859375 
L 25.78125 51.859375 
L 25.78125 45.015625 
L 16.9375 45.015625 
L 16.9375 14.703125 
Q 16.9375 10.9375 17.40625 9.859375 
Q 17.875 8.796875 18.921875 8.15625 
Q 19.96875 7.515625 21.921875 7.515625 
Q 23.390625 7.515625 25.78125 7.859375 
z
" id="ArialMT-74"/>
     </defs>
     <g style="fill:#262626;" transform="translate(19.010391 178.406133)rotate(-90)scale(0.165 -0.165)">
      <use xlink:href="#ArialMT-43"/>
      <use x="72.216797" xlink:href="#ArialMT-6f"/>
      <use x="127.832031" xlink:href="#ArialMT-76"/>
      <use x="177.832031" xlink:href="#ArialMT-61"/>
      <use x="233.447266" xlink:href="#ArialMT-72"/>
      <use x="266.748047" xlink:href="#ArialMT-69"/>
      <use x="288.964844" xlink:href="#ArialMT-61"/>
      <use x="344.580078" xlink:href="#ArialMT-74"/>
      <use x="372.363281" xlink:href="#ArialMT-65"/>
     </g>
    </g>
   </g>
   <g id="PathCollection_1">
    <defs>
     <path d="M 0 3.5 
C 0.928211 3.5 1.81853 3.131218 2.474874 2.474874 
C 3.131218 1.81853 3.5 0.928211 3.5 0 
C 3.5 -0.928211 3.131218 -1.81853 2.474874 -2.474874 
C 1.81853 -3.131218 0.928211 -3.5 0 -3.5 
C -0.928211 -3.5 -1.81853 -3.131218 -2.474874 -2.474874 
C -3.131218 -1.81853 -3.5 -0.928211 -3.5 0 
C -3.5 0.928211 -3.131218 1.81853 -2.474874 2.474874 
C -1.81853 3.131218 -0.928211 3.5 0 3.5 
z
" id="m6987ea1564" style="stroke:#4c72b0;stroke-width:0.3;"/>
    </defs>
    <g clip-path="url(#pf6db42f24f)">
     <use style="fill:#4c72b0;stroke:#4c72b0;stroke-width:0.3;" x="92.449008" xlink:href="#m6987ea1564" y="45.537195"/>
     <use style="fill:#4c72b0;stroke:#4c72b0;stroke-width:0.3;" x="107.499264" xlink:href="#m6987ea1564" y="128.903719"/>
     <use style="fill:#4c72b0;stroke:#4c72b0;stroke-width:0.3;" x="135.817393" xlink:href="#m6987ea1564" y="142.953923"/>
     <use style="fill:#4c72b0;stroke:#4c72b0;stroke-width:0.3;" x="140.126144" xlink:href="#m6987ea1564" y="64.119501"/>
     <use style="fill:#4c72b0;stroke:#4c72b0;stroke-width:0.3;" x="152.064416" xlink:href="#m6987ea1564" y="73.227924"/>
     <use style="fill:#4c72b0;stroke:#4c72b0;stroke-width:0.3;" x="73.453006" xlink:href="#m6987ea1564" y="45.800928"/>
     <use style="fill:#4c72b0;stroke:#4c72b0;stroke-width:0.3;" x="113.184986" xlink:href="#m6987ea1564" y="75.673055"/>
     <use style="fill:#4c72b0;stroke:#4c72b0;stroke-width:0.3;" x="182.316329" xlink:href="#m6987ea1564" y="52.775747"/>
     <use style="fill:#4c72b0;stroke:#4c72b0;stroke-width:0.3;" x="110.81797" xlink:href="#m6987ea1564" y="74.837589"/>
     <use style="fill:#4c72b0;stroke:#4c72b0;stroke-width:0.3;" x="56.916748" xlink:href="#m6987ea1564" y="45.013961"/>
     <use style="fill:#4c72b0;stroke:#4c72b0;stroke-width:0.3;" x="112.633592" xlink:href="#m6987ea1564" y="128.895799"/>
     <use style="fill:#4c72b0;stroke:#4c72b0;stroke-width:0.3;" x="130.580714" xlink:href="#m6987ea1564" y="89.986674"/>
     <use style="fill:#4c72b0;stroke:#4c72b0;stroke-width:0.3;" x="81.217973" xlink:href="#m6987ea1564" y="83.727825"/>
     <use style="fill:#4c72b0;stroke:#4c72b0;stroke-width:0.3;" x="88.393495" xlink:href="#m6987ea1564" y="166.761421"/>
     <use style="fill:#4c72b0;stroke:#4c72b0;stroke-width:0.3;" x="79.292623" xlink:href="#m6987ea1564" y="75.105409"/>
     <use style="fill:#4c72b0;stroke:#4c72b0;stroke-width:0.3;" x="136.080463" xlink:href="#m6987ea1564" y="72.709497"/>
     <use style="fill:#4c72b0;stroke:#4c72b0;stroke-width:0.3;" x="149.269055" xlink:href="#m6987ea1564" y="93.957024"/>
     <use style="fill:#4c72b0;stroke:#4c72b0;stroke-width:0.3;" x="87.833467" xlink:href="#m6987ea1564" y="60.913804"/>
     <use style="fill:#4c72b0;stroke:#4c72b0;stroke-width:0.3;" x="114.442861" xlink:href="#m6987ea1564" y="160.783077"/>
     <use style="fill:#4c72b0;stroke:#4c72b0;stroke-width:0.3;" x="135.169124" xlink:href="#m6987ea1564" y="150.438646"/>
     <use style="fill:#4c72b0;stroke:#4c72b0;stroke-width:0.3;" x="50.814011" xlink:href="#m6987ea1564" y="89.66441"/>
     <use style="fill:#4c72b0;stroke:#4c72b0;stroke-width:0.3;" x="109.927613" xlink:href="#m6987ea1564" y="172.773349"/>
     <use style="fill:#4c72b0;stroke:#4c72b0;stroke-width:0.3;" x="111.561919" xlink:href="#m6987ea1564" y="119.964026"/>
     <use style="fill:#4c72b0;stroke:#4c72b0;stroke-width:0.3;" x="139.70096" xlink:href="#m6987ea1564" y="176.956502"/>
     <use style="fill:#4c72b0;stroke:#4c72b0;stroke-width:0.3;" x="97.119686" xlink:href="#m6987ea1564" y="31.877427"/>
     <use style="fill:#4c72b0;stroke:#4c72b0;stroke-width:0.3;" x="81.199455" xlink:href="#m6987ea1564" y="167.707147"/>
     <use style="fill:#4c72b0;stroke:#4c72b0;stroke-width:0.3;" x="121.54693" xlink:href="#m6987ea1564" y="29.611661"/>
     <use style="fill:#4c72b0;stroke:#4c72b0;stroke-width:0.3;" x="101.718614" xlink:href="#m6987ea1564" y="206.296158"/>
     <use style="fill:#4c72b0;stroke:#4c72b0;stroke-width:0.3;" x="138.204056" xlink:href="#m6987ea1564" y="101.641941"/>
     <use style="fill:#4c72b0;stroke:#4c72b0;stroke-width:0.3;" x="83.70152" xlink:href="#m6987ea1564" y="37.326853"/>
     <use style="fill:#4c72b0;stroke:#4c72b0;stroke-width:0.3;" x="140.128783" xlink:href="#m6987ea1564" y="57.614063"/>
     <use style="fill:#4c72b0;stroke:#4c72b0;stroke-width:0.3;" x="33.993751" xlink:href="#m6987ea1564" y="53.611687"/>
     <use style="fill:#4c72b0;stroke:#4c72b0;stroke-width:0.3;" x="104.857922" xlink:href="#m6987ea1564" y="138.617077"/>
     <use style="fill:#4c72b0;stroke:#4c72b0;stroke-width:0.3;" x="101.557076" xlink:href="#m6987ea1564" y="96.070397"/>
     <use style="fill:#4c72b0;stroke:#4c72b0;stroke-width:0.3;" x="147.761082" xlink:href="#m6987ea1564" y="133.229951"/>
     <use style="fill:#4c72b0;stroke:#4c72b0;stroke-width:0.3;" x="129.982246" xlink:href="#m6987ea1564" y="86.910936"/>
     <use style="fill:#4c72b0;stroke:#4c72b0;stroke-width:0.3;" x="91.120638" xlink:href="#m6987ea1564" y="102.259468"/>
     <use style="fill:#4c72b0;stroke:#4c72b0;stroke-width:0.3;" x="108.778285" xlink:href="#m6987ea1564" y="147.777591"/>
     <use style="fill:#4c72b0;stroke:#4c72b0;stroke-width:0.3;" x="101.624165" xlink:href="#m6987ea1564" y="138.897872"/>
     <use style="fill:#4c72b0;stroke:#4c72b0;stroke-width:0.3;" x="55.369725" xlink:href="#m6987ea1564" y="115.543055"/>
     <use style="fill:#4c72b0;stroke:#4c72b0;stroke-width:0.3;" x="93.352142" xlink:href="#m6987ea1564" y="116.355832"/>
     <use style="fill:#4c72b0;stroke:#4c72b0;stroke-width:0.3;" x="116.008178" xlink:href="#m6987ea1564" y="112.299519"/>
     <use style="fill:#4c72b0;stroke:#4c72b0;stroke-width:0.3;" x="107.727735" xlink:href="#m6987ea1564" y="64.492968"/>
     <use style="fill:#4c72b0;stroke:#4c72b0;stroke-width:0.3;" x="89.366399" xlink:href="#m6987ea1564" y="87.44127"/>
     <use style="fill:#4c72b0;stroke:#4c72b0;stroke-width:0.3;" x="184.309581" xlink:href="#m6987ea1564" y="39.210859"/>
     <use style="fill:#4c72b0;stroke:#4c72b0;stroke-width:0.3;" x="85.971382" xlink:href="#m6987ea1564" y="96.932176"/>
     <use style="fill:#4c72b0;stroke:#4c72b0;stroke-width:0.3;" x="114.190736" xlink:href="#m6987ea1564" y="83.290406"/>
     <use style="fill:#4c72b0;stroke:#4c72b0;stroke-width:0.3;" x="209.045668" xlink:href="#m6987ea1564" y="14.050222"/>
     <use style="fill:#4c72b0;stroke:#4c72b0;stroke-width:0.3;" x="88.036308" xlink:href="#m6987ea1564" y="-1"/>
     <use style="fill:#4c72b0;stroke:#4c72b0;stroke-width:0.3;" x="84.245183" xlink:href="#m6987ea1564" y="-1"/>
     <use style="fill:#4c72b0;stroke:#4c72b0;stroke-width:0.3;" x="54.514709" xlink:href="#m6987ea1564" y="145.052905"/>
     <use style="fill:#4c72b0;stroke:#4c72b0;stroke-width:0.3;" x="136.137695" xlink:href="#m6987ea1564" y="111.909279"/>
     <use style="fill:#4c72b0;stroke:#4c72b0;stroke-width:0.3;" x="112.4377" xlink:href="#m6987ea1564" y="139.945531"/>
     <use style="fill:#4c72b0;stroke:#4c72b0;stroke-width:0.3;" x="68.54811" xlink:href="#m6987ea1564" y="125.167017"/>
     <use style="fill:#4c72b0;stroke:#4c72b0;stroke-width:0.3;" x="127.59558" xlink:href="#m6987ea1564" y="93.36927"/>
     <use style="fill:#4c72b0;stroke:#4c72b0;stroke-width:0.3;" x="117.735109" xlink:href="#m6987ea1564" y="150.301272"/>
     <use style="fill:#4c72b0;stroke:#4c72b0;stroke-width:0.3;" x="139.375271" xlink:href="#m6987ea1564" y="-1"/>
     <use style="fill:#4c72b0;stroke:#4c72b0;stroke-width:0.3;" x="138.919504" xlink:href="#m6987ea1564" y="-1"/>
     <use style="fill:#4c72b0;stroke:#4c72b0;stroke-width:0.3;" x="107.867095" xlink:href="#m6987ea1564" y="75.865976"/>
     <use style="fill:#4c72b0;stroke:#4c72b0;stroke-width:0.3;" x="91.670346" xlink:href="#m6987ea1564" y="106.853611"/>
     <use style="fill:#4c72b0;stroke:#4c72b0;stroke-width:0.3;" x="190.863964" xlink:href="#m6987ea1564" y="110.398392"/>
     <use style="fill:#4c72b0;stroke:#4c72b0;stroke-width:0.3;" x="130.963181" xlink:href="#m6987ea1564" y="133.61475"/>
     <use style="fill:#4c72b0;stroke:#4c72b0;stroke-width:0.3;" x="56.626232" xlink:href="#m6987ea1564" y="55.080301"/>
     <use style="fill:#4c72b0;stroke:#4c72b0;stroke-width:0.3;" x="144.495829" xlink:href="#m6987ea1564" y="58.538165"/>
     <use style="fill:#4c72b0;stroke:#4c72b0;stroke-width:0.3;" x="127.761193" xlink:href="#m6987ea1564" y="79.915709"/>
     <use style="fill:#4c72b0;stroke:#4c72b0;stroke-width:0.3;" x="119.44846" xlink:href="#m6987ea1564" y="57.248199"/>
     <use style="fill:#4c72b0;stroke:#4c72b0;stroke-width:0.3;" x="193.04489" xlink:href="#m6987ea1564" y="86.789606"/>
     <use style="fill:#4c72b0;stroke:#4c72b0;stroke-width:0.3;" x="24.131183" xlink:href="#m6987ea1564" y="133.892427"/>
     <use style="fill:#4c72b0;stroke:#4c72b0;stroke-width:0.3;" x="168.551135" xlink:href="#m6987ea1564" y="75.184945"/>
     <use style="fill:#4c72b0;stroke:#4c72b0;stroke-width:0.3;" x="74.888412" xlink:href="#m6987ea1564" y="122.424301"/>
     <use style="fill:#4c72b0;stroke:#4c72b0;stroke-width:0.3;" x="139.842183" xlink:href="#m6987ea1564" y="114.077402"/>
     <use style="fill:#4c72b0;stroke:#4c72b0;stroke-width:0.3;" x="66.023941" xlink:href="#m6987ea1564" y="108.47885"/>
     <use style="fill:#4c72b0;stroke:#4c72b0;stroke-width:0.3;" x="169.467572" xlink:href="#m6987ea1564" y="86.069601"/>
     <use style="fill:#4c72b0;stroke:#4c72b0;stroke-width:0.3;" x="106.840062" xlink:href="#m6987ea1564" y="129.676459"/>
     <use style="fill:#4c72b0;stroke:#4c72b0;stroke-width:0.3;" x="70.211976" xlink:href="#m6987ea1564" y="-1"/>
     <use style="fill:#4c72b0;stroke:#4c72b0;stroke-width:0.3;" x="70.458264" xlink:href="#m6987ea1564" y="-1"/>
     <use style="fill:#4c72b0;stroke:#4c72b0;stroke-width:0.3;" x="104.788661" xlink:href="#m6987ea1564" y="76.376528"/>
     <use style="fill:#4c72b0;stroke:#4c72b0;stroke-width:0.3;" x="81.469737" xlink:href="#m6987ea1564" y="149.221918"/>
     <use style="fill:#4c72b0;stroke:#4c72b0;stroke-width:0.3;" x="87.098728" xlink:href="#m6987ea1564" y="86.948477"/>
     <use style="fill:#4c72b0;stroke:#4c72b0;stroke-width:0.3;" x="130.837539" xlink:href="#m6987ea1564" y="77.871815"/>
     <use style="fill:#4c72b0;stroke:#4c72b0;stroke-width:0.3;" x="113.578839" xlink:href="#m6987ea1564" y="82.249755"/>
     <use style="fill:#4c72b0;stroke:#4c72b0;stroke-width:0.3;" x="98.953844" xlink:href="#m6987ea1564" y="96.046974"/>
     <use style="fill:#4c72b0;stroke:#4c72b0;stroke-width:0.3;" x="95.509817" xlink:href="#m6987ea1564" y="74.453725"/>
     <use style="fill:#4c72b0;stroke:#4c72b0;stroke-width:0.3;" x="128.489695" xlink:href="#m6987ea1564" y="127.899023"/>
     <use style="fill:#4c72b0;stroke:#4c72b0;stroke-width:0.3;" x="115.094744" xlink:href="#m6987ea1564" y="151.955718"/>
     <use style="fill:#4c72b0;stroke:#4c72b0;stroke-width:0.3;" x="155.545442" xlink:href="#m6987ea1564" y="19.34919"/>
     <use style="fill:#4c72b0;stroke:#4c72b0;stroke-width:0.3;" x="53.359647" xlink:href="#m6987ea1564" y="117.114507"/>
     <use style="fill:#4c72b0;stroke:#4c72b0;stroke-width:0.3;" x="136.813725" xlink:href="#m6987ea1564" y="47.103172"/>
     <use style="fill:#4c72b0;stroke:#4c72b0;stroke-width:0.3;" x="110.097869" xlink:href="#m6987ea1564" y="30.936756"/>
     <use style="fill:#4c72b0;stroke:#4c72b0;stroke-width:0.3;" x="54.447925" xlink:href="#m6987ea1564" y="58.569119"/>
     <use style="fill:#4c72b0;stroke:#4c72b0;stroke-width:0.3;" x="113.644957" xlink:href="#m6987ea1564" y="125.818508"/>
     <use style="fill:#4c72b0;stroke:#4c72b0;stroke-width:0.3;" x="2.438556" xlink:href="#m6987ea1564" y="34.838406"/>
     <use style="fill:#4c72b0;stroke:#4c72b0;stroke-width:0.3;" x="188.803246" xlink:href="#m6987ea1564" y="72.36871"/>
     <use style="fill:#4c72b0;stroke:#4c72b0;stroke-width:0.3;" x="77.62197" xlink:href="#m6987ea1564" y="141.998392"/>
     <use style="fill:#4c72b0;stroke:#4c72b0;stroke-width:0.3;" x="54.652044" xlink:href="#m6987ea1564" y="35.529205"/>
     <use style="fill:#4c72b0;stroke:#4c72b0;stroke-width:0.3;" x="120.58535" xlink:href="#m6987ea1564" y="106.398613"/>
     <use style="fill:#4c72b0;stroke:#4c72b0;stroke-width:0.3;" x="104.588007" xlink:href="#m6987ea1564" y="109.620378"/>
     <use style="fill:#4c72b0;stroke:#4c72b0;stroke-width:0.3;" x="127.970329" xlink:href="#m6987ea1564" y="100.316394"/>
     <use style="fill:#4c72b0;stroke:#4c72b0;stroke-width:0.3;" x="99.084646" xlink:href="#m6987ea1564" y="133.852805"/>
     <use style="fill:#4c72b0;stroke:#4c72b0;stroke-width:0.3;" x="54.215917" xlink:href="#m6987ea1564" y="115.314923"/>
     <use style="fill:#4c72b0;stroke:#4c72b0;stroke-width:0.3;" x="132.017875" xlink:href="#m6987ea1564" y="68.358082"/>
     <use style="fill:#4c72b0;stroke:#4c72b0;stroke-width:0.3;" x="96.52658" xlink:href="#m6987ea1564" y="48.302798"/>
     <use style="fill:#4c72b0;stroke:#4c72b0;stroke-width:0.3;" x="94.962826" xlink:href="#m6987ea1564" y="84.753708"/>
    </g>
   </g>
   <g id="PathCollection_2">
    <defs>
     <path d="M 0 3.5 
C 0.928211 3.5 1.81853 3.131218 2.474874 2.474874 
C 3.131218 1.81853 3.5 0.928211 3.5 0 
C 3.5 -0.928211 3.131218 -1.81853 2.474874 -2.474874 
C 1.81853 -3.131218 0.928211 -3.5 0 -3.5 
C -0.928211 -3.5 -1.81853 -3.131218 -2.474874 -2.474874 
C -3.131218 -1.81853 -3.5 -0.928211 -3.5 0 
C -3.5 0.928211 -3.131218 1.81853 -2.474874 2.474874 
C -1.81853 3.131218 -0.928211 3.5 0 3.5 
z
" id="m689d268b3f" style="stroke:#55a868;stroke-width:0.3;"/>
    </defs>
    <g clip-path="url(#pf6db42f24f)">
     <use style="fill:#55a868;stroke:#55a868;stroke-width:0.3;" x="177.810066" xlink:href="#m689d268b3f" y="269.566023"/>
     <use style="fill:#55a868;stroke:#55a868;stroke-width:0.3;" x="205.727447" xlink:href="#m689d268b3f" y="196.12838"/>
     <use style="fill:#55a868;stroke:#55a868;stroke-width:0.3;" x="236.40675" xlink:href="#m689d268b3f" y="174.637061"/>
     <use style="fill:#55a868;stroke:#55a868;stroke-width:0.3;" x="197.801344" xlink:href="#m689d268b3f" y="208.215339"/>
     <use style="fill:#55a868;stroke:#55a868;stroke-width:0.3;" x="239.842125" xlink:href="#m689d268b3f" y="150.665903"/>
     <use style="fill:#55a868;stroke:#55a868;stroke-width:0.3;" x="252.756539" xlink:href="#m689d268b3f" y="148.918442"/>
     <use style="fill:#55a868;stroke:#55a868;stroke-width:0.3;" x="254.284313" xlink:href="#m689d268b3f" y="217.078762"/>
     <use style="fill:#55a868;stroke:#55a868;stroke-width:0.3;" x="252.884951" xlink:href="#m689d268b3f" y="158.873831"/>
     <use style="fill:#55a868;stroke:#55a868;stroke-width:0.3;" x="236.666358" xlink:href="#m689d268b3f" y="214.326309"/>
     <use style="fill:#55a868;stroke:#55a868;stroke-width:0.3;" x="198.194777" xlink:href="#m689d268b3f" y="220.992363"/>
     <use style="fill:#55a868;stroke:#55a868;stroke-width:0.3;" x="227.882105" xlink:href="#m689d268b3f" y="202.839847"/>
     <use style="fill:#55a868;stroke:#55a868;stroke-width:0.3;" x="288.996642" xlink:href="#m689d268b3f" y="222.201682"/>
     <use style="fill:#55a868;stroke:#55a868;stroke-width:0.3;" x="223.279534" xlink:href="#m689d268b3f" y="270.688263"/>
     <use style="fill:#55a868;stroke:#55a868;stroke-width:0.3;" x="224.917453" xlink:href="#m689d268b3f" y="118.41531"/>
     <use style="fill:#55a868;stroke:#55a868;stroke-width:0.3;" x="141.128353" xlink:href="#m689d268b3f" y="236.672727"/>
     <use style="fill:#55a868;stroke:#55a868;stroke-width:0.3;" x="207.542528" xlink:href="#m689d268b3f" y="133.842956"/>
     <use style="fill:#55a868;stroke:#55a868;stroke-width:0.3;" x="253.642579" xlink:href="#m689d268b3f" y="151.040964"/>
     <use style="fill:#55a868;stroke:#55a868;stroke-width:0.3;" x="207.444509" xlink:href="#m689d268b3f" y="163.116054"/>
     <use style="fill:#55a868;stroke:#55a868;stroke-width:0.3;" x="224.104606" xlink:href="#m689d268b3f" y="183.830955"/>
     <use style="fill:#55a868;stroke:#55a868;stroke-width:0.3;" x="190.445918" xlink:href="#m689d268b3f" y="213.888721"/>
     <use style="fill:#55a868;stroke:#55a868;stroke-width:0.3;" x="228.17284" xlink:href="#m689d268b3f" y="157.33846"/>
     <use style="fill:#55a868;stroke:#55a868;stroke-width:0.3;" x="249.813109" xlink:href="#m689d268b3f" y="233.58544"/>
     <use style="fill:#55a868;stroke:#55a868;stroke-width:0.3;" x="269.265446" xlink:href="#m689d268b3f" y="180.24066"/>
     <use style="fill:#55a868;stroke:#55a868;stroke-width:0.3;" x="257.679095" xlink:href="#m689d268b3f" y="268.022901"/>
     <use style="fill:#55a868;stroke:#55a868;stroke-width:0.3;" x="222.2389" xlink:href="#m689d268b3f" y="193.416634"/>
     <use style="fill:#55a868;stroke:#55a868;stroke-width:0.3;" x="239.876874" xlink:href="#m689d268b3f" y="237.784869"/>
     <use style="fill:#55a868;stroke:#55a868;stroke-width:0.3;" x="218.75307" xlink:href="#m689d268b3f" y="226.517925"/>
     <use style="fill:#55a868;stroke:#55a868;stroke-width:0.3;" x="246.931377" xlink:href="#m689d268b3f" y="205.341323"/>
     <use style="fill:#55a868;stroke:#55a868;stroke-width:0.3;" x="263.087894" xlink:href="#m689d268b3f" y="211.098339"/>
     <use style="fill:#55a868;stroke:#55a868;stroke-width:0.3;" x="276.194537" xlink:href="#m689d268b3f" y="326.50966"/>
     <use style="fill:#55a868;stroke:#55a868;stroke-width:0.3;" x="214.80302" xlink:href="#m689d268b3f" y="177.813662"/>
     <use style="fill:#55a868;stroke:#55a868;stroke-width:0.3;" x="208.1562" xlink:href="#m689d268b3f" y="205.722372"/>
     <use style="fill:#55a868;stroke:#55a868;stroke-width:0.3;" x="209.510847" xlink:href="#m689d268b3f" y="196.388498"/>
     <use style="fill:#55a868;stroke:#55a868;stroke-width:0.3;" x="178.89984" xlink:href="#m689d268b3f" y="170.216188"/>
     <use style="fill:#55a868;stroke:#55a868;stroke-width:0.3;" x="218.921629" xlink:href="#m689d268b3f" y="229.446504"/>
     <use style="fill:#55a868;stroke:#55a868;stroke-width:0.3;" x="226.571167" xlink:href="#m689d268b3f" y="267.754782"/>
     <use style="fill:#55a868;stroke:#55a868;stroke-width:0.3;" x="179.277667" xlink:href="#m689d268b3f" y="258.183087"/>
     <use style="fill:#55a868;stroke:#55a868;stroke-width:0.3;" x="158.039764" xlink:href="#m689d268b3f" y="227.037082"/>
     <use style="fill:#55a868;stroke:#55a868;stroke-width:0.3;" x="245.294492" xlink:href="#m689d268b3f" y="198.550158"/>
     <use style="fill:#55a868;stroke:#55a868;stroke-width:0.3;" x="222.158752" xlink:href="#m689d268b3f" y="200.87922"/>
     <use style="fill:#55a868;stroke:#55a868;stroke-width:0.3;" x="148.872998" xlink:href="#m689d268b3f" y="209.699067"/>
     <use style="fill:#55a868;stroke:#55a868;stroke-width:0.3;" x="209.537662" xlink:href="#m689d268b3f" y="199.288418"/>
     <use style="fill:#55a868;stroke:#55a868;stroke-width:0.3;" x="241.463285" xlink:href="#m689d268b3f" y="158.7824"/>
     <use style="fill:#55a868;stroke:#55a868;stroke-width:0.3;" x="203.584517" xlink:href="#m689d268b3f" y="171.193561"/>
     <use style="fill:#55a868;stroke:#55a868;stroke-width:0.3;" x="272.608895" xlink:href="#m689d268b3f" y="218.11295"/>
     <use style="fill:#55a868;stroke:#55a868;stroke-width:0.3;" x="174.137637" xlink:href="#m689d268b3f" y="204.720947"/>
     <use style="fill:#55a868;stroke:#55a868;stroke-width:0.3;" x="240.131779" xlink:href="#m689d268b3f" y="219.7077"/>
     <use style="fill:#55a868;stroke:#55a868;stroke-width:0.3;" x="255.305415" xlink:href="#m689d268b3f" y="202.632032"/>
     <use style="fill:#55a868;stroke:#55a868;stroke-width:0.3;" x="192.021111" xlink:href="#m689d268b3f" y="187.12606"/>
     <use style="fill:#55a868;stroke:#55a868;stroke-width:0.3;" x="174.950264" xlink:href="#m689d268b3f" y="199.379065"/>
     <use style="fill:#55a868;stroke:#55a868;stroke-width:0.3;" x="236.94515" xlink:href="#m689d268b3f" y="230.449202"/>
     <use style="fill:#55a868;stroke:#55a868;stroke-width:0.3;" x="258.982327" xlink:href="#m689d268b3f" y="226.617075"/>
     <use style="fill:#55a868;stroke:#55a868;stroke-width:0.3;" x="206.657607" xlink:href="#m689d268b3f" y="190.986112"/>
     <use style="fill:#55a868;stroke:#55a868;stroke-width:0.3;" x="212.054369" xlink:href="#m689d268b3f" y="256.040618"/>
     <use style="fill:#55a868;stroke:#55a868;stroke-width:0.3;" x="182.47036" xlink:href="#m689d268b3f" y="198.159331"/>
     <use style="fill:#55a868;stroke:#55a868;stroke-width:0.3;" x="167.022923" xlink:href="#m689d268b3f" y="218.627514"/>
     <use style="fill:#55a868;stroke:#55a868;stroke-width:0.3;" x="178.766849" xlink:href="#m689d268b3f" y="258.936715"/>
     <use style="fill:#55a868;stroke:#55a868;stroke-width:0.3;" x="230.946711" xlink:href="#m689d268b3f" y="179.342111"/>
     <use style="fill:#55a868;stroke:#55a868;stroke-width:0.3;" x="269.460453" xlink:href="#m689d268b3f" y="145.191102"/>
     <use style="fill:#55a868;stroke:#55a868;stroke-width:0.3;" x="173.788976" xlink:href="#m689d268b3f" y="157.051023"/>
     <use style="fill:#55a868;stroke:#55a868;stroke-width:0.3;" x="285.780786" xlink:href="#m689d268b3f" y="225.342867"/>
     <use style="fill:#55a868;stroke:#55a868;stroke-width:0.3;" x="146.451936" xlink:href="#m689d268b3f" y="167.116842"/>
     <use style="fill:#55a868;stroke:#55a868;stroke-width:0.3;" x="227.665348" xlink:href="#m689d268b3f" y="238.021934"/>
     <use style="fill:#55a868;stroke:#55a868;stroke-width:0.3;" x="199.702593" xlink:href="#m689d268b3f" y="182.691409"/>
     <use style="fill:#55a868;stroke:#55a868;stroke-width:0.3;" x="287.306723" xlink:href="#m689d268b3f" y="172.657333"/>
     <use style="fill:#55a868;stroke:#55a868;stroke-width:0.3;" x="249.891825" xlink:href="#m689d268b3f" y="238.88202"/>
     <use style="fill:#55a868;stroke:#55a868;stroke-width:0.3;" x="147.016276" xlink:href="#m689d268b3f" y="213.110009"/>
     <use style="fill:#55a868;stroke:#55a868;stroke-width:0.3;" x="229.29345" xlink:href="#m689d268b3f" y="214.847026"/>
     <use style="fill:#55a868;stroke:#55a868;stroke-width:0.3;" x="152.413201" xlink:href="#m689d268b3f" y="206.46689"/>
     <use style="fill:#55a868;stroke:#55a868;stroke-width:0.3;" x="174.106947" xlink:href="#m689d268b3f" y="199.034329"/>
     <use style="fill:#55a868;stroke:#55a868;stroke-width:0.3;" x="253.402814" xlink:href="#m689d268b3f" y="235.055489"/>
     <use style="fill:#55a868;stroke:#55a868;stroke-width:0.3;" x="200.009086" xlink:href="#m689d268b3f" y="160.405358"/>
     <use style="fill:#55a868;stroke:#55a868;stroke-width:0.3;" x="222.502095" xlink:href="#m689d268b3f" y="169.837418"/>
     <use style="fill:#55a868;stroke:#55a868;stroke-width:0.3;" x="144.419765" xlink:href="#m689d268b3f" y="248.128024"/>
     <use style="fill:#55a868;stroke:#55a868;stroke-width:0.3;" x="240.10315" xlink:href="#m689d268b3f" y="226.255732"/>
     <use style="fill:#55a868;stroke:#55a868;stroke-width:0.3;" x="182.281169" xlink:href="#m689d268b3f" y="145.670215"/>
     <use style="fill:#55a868;stroke:#55a868;stroke-width:0.3;" x="98.336945" xlink:href="#m689d268b3f" y="175.10875"/>
     <use style="fill:#55a868;stroke:#55a868;stroke-width:0.3;" x="201.792947" xlink:href="#m689d268b3f" y="242.234252"/>
     <use style="fill:#55a868;stroke:#55a868;stroke-width:0.3;" x="218.796227" xlink:href="#m689d268b3f" y="263.397863"/>
     <use style="fill:#55a868;stroke:#55a868;stroke-width:0.3;" x="257.20692" xlink:href="#m689d268b3f" y="223.441546"/>
     <use style="fill:#55a868;stroke:#55a868;stroke-width:0.3;" x="215.243595" xlink:href="#m689d268b3f" y="196.086821"/>
     <use style="fill:#55a868;stroke:#55a868;stroke-width:0.3;" x="190.565923" xlink:href="#m689d268b3f" y="229.774472"/>
     <use style="fill:#55a868;stroke:#55a868;stroke-width:0.3;" x="222.364011" xlink:href="#m689d268b3f" y="171.258297"/>
     <use style="fill:#55a868;stroke:#55a868;stroke-width:0.3;" x="154.117264" xlink:href="#m689d268b3f" y="186.156203"/>
     <use style="fill:#55a868;stroke:#55a868;stroke-width:0.3;" x="211.573119" xlink:href="#m689d268b3f" y="272.607157"/>
     <use style="fill:#55a868;stroke:#55a868;stroke-width:0.3;" x="236.855127" xlink:href="#m689d268b3f" y="125.319405"/>
     <use style="fill:#55a868;stroke:#55a868;stroke-width:0.3;" x="233.130669" xlink:href="#m689d268b3f" y="211.88726"/>
     <use style="fill:#55a868;stroke:#55a868;stroke-width:0.3;" x="198.800198" xlink:href="#m689d268b3f" y="179.817962"/>
     <use style="fill:#55a868;stroke:#55a868;stroke-width:0.3;" x="210.130021" xlink:href="#m689d268b3f" y="185.811975"/>
     <use style="fill:#55a868;stroke:#55a868;stroke-width:0.3;" x="268.116063" xlink:href="#m689d268b3f" y="189.773222"/>
     <use style="fill:#55a868;stroke:#55a868;stroke-width:0.3;" x="277.362083" xlink:href="#m689d268b3f" y="188.420175"/>
     <use style="fill:#55a868;stroke:#55a868;stroke-width:0.3;" x="215.471947" xlink:href="#m689d268b3f" y="189.34588"/>
     <use style="fill:#55a868;stroke:#55a868;stroke-width:0.3;" x="218.044815" xlink:href="#m689d268b3f" y="186.578703"/>
     <use style="fill:#55a868;stroke:#55a868;stroke-width:0.3;" x="188.357477" xlink:href="#m689d268b3f" y="216.083252"/>
     <use style="fill:#55a868;stroke:#55a868;stroke-width:0.3;" x="176.07191" xlink:href="#m689d268b3f" y="228.636332"/>
     <use style="fill:#55a868;stroke:#55a868;stroke-width:0.3;" x="157.869488" xlink:href="#m689d268b3f" y="224.834149"/>
     <use style="fill:#55a868;stroke:#55a868;stroke-width:0.3;" x="258.946363" xlink:href="#m689d268b3f" y="227.695163"/>
     <use style="fill:#55a868;stroke:#55a868;stroke-width:0.3;" x="229.269602" xlink:href="#m689d268b3f" y="167.288728"/>
     <use style="fill:#55a868;stroke:#55a868;stroke-width:0.3;" x="224.908343" xlink:href="#m689d268b3f" y="147.771468"/>
     <use style="fill:#55a868;stroke:#55a868;stroke-width:0.3;" x="245.191435" xlink:href="#m689d268b3f" y="227.992611"/>
    </g>
   </g>
   <g id="patch_3">
    <path d="M 26.289766 279 
L 26.289766 7.2 
" style="fill:none;stroke:#262626;stroke-linecap:square;stroke-linejoin:miter;stroke-width:1.25;"/>
   </g>
   <g id="patch_4">
    <path d="M 305.289766 279 
L 305.289766 7.2 
" style="fill:none;stroke:#262626;stroke-linecap:square;stroke-linejoin:miter;stroke-width:1.25;"/>
   </g>
   <g id="patch_5">
    <path d="M 26.289766 279 
L 305.289766 279 
" style="fill:none;stroke:#262626;stroke-linecap:square;stroke-linejoin:miter;stroke-width:1.25;"/>
   </g>
   <g id="patch_6">
    <path d="M 26.289766 7.2 
L 305.289766 7.2 
" style="fill:none;stroke:#262626;stroke-linecap:square;stroke-linejoin:miter;stroke-width:1.25;"/>
   </g>
  </g>
 </g>
 <defs>
  <clipPath id="pf6db42f24f">
   <rect height="271.8" width="279" x="26.289766" y="7.2"/>
  </clipPath>
 </defs>
</svg>
