<?xml version="1.0" encoding="utf-8" standalone="no"?>
<!DOCTYPE svg PUBLIC "-//W3C//DTD SVG 1.1//EN"
  "http://www.w3.org/Graphics/SVG/1.1/DTD/svg11.dtd">
<!-- Created with matplotlib (http://matplotlib.org/) -->
<svg height="1080pt" version="1.1" viewBox="0 0 432 1080" width="432pt" xmlns="http://www.w3.org/2000/svg" xmlns:xlink="http://www.w3.org/1999/xlink">
 <defs>
  <style type="text/css">
*{stroke-linecap:butt;stroke-linejoin:round;}
  </style>
 </defs>
 <g id="figure_1">
  <g id="patch_1">
   <path d="M 0 1080 
L 432 1080 
L 432 0 
L 0 0 
z
" style="fill:#ffffff;"/>
  </g>
  <g id="axes_1">
   <g id="patch_2">
    <path d="M 54 306.86087 
L 388.8 306.86087 
L 388.8 129.6 
L 54 129.6 
z
" style="fill:#ffffff;"/>
   </g>
   <g id="matplotlib.axis_1">
    <g id="xtick_1">
     <g id="line2d_1"/>
    </g>
    <g id="xtick_2">
     <g id="line2d_2"/>
    </g>
    <g id="xtick_3">
     <g id="line2d_3"/>
    </g>
    <g id="xtick_4">
     <g id="line2d_4"/>
    </g>
    <g id="xtick_5">
     <g id="line2d_5"/>
    </g>
    <g id="xtick_6">
     <g id="line2d_6"/>
    </g>
    <g id="xtick_7">
     <g id="line2d_7"/>
    </g>
   </g>
   <g id="matplotlib.axis_2">
    <g id="ytick_1">
     <g id="line2d_8"/>
     <g id="text_1">
      <!-- 0 -->
      <defs>
       <path d="M 31.78125 66.40625 
Q 24.171875 66.40625 20.328125 58.90625 
Q 16.5 51.421875 16.5 36.375 
Q 16.5 21.390625 20.328125 13.890625 
Q 24.171875 6.390625 31.78125 6.390625 
Q 39.453125 6.390625 43.28125 13.890625 
Q 47.125 21.390625 47.125 36.375 
Q 47.125 51.421875 43.28125 58.90625 
Q 39.453125 66.40625 31.78125 66.40625 
z
M 31.78125 74.21875 
Q 44.046875 74.21875 50.515625 64.515625 
Q 56.984375 54.828125 56.984375 36.375 
Q 56.984375 17.96875 50.515625 8.265625 
Q 44.046875 -1.421875 31.78125 -1.421875 
Q 19.53125 -1.421875 13.0625 8.265625 
Q 6.59375 17.96875 6.59375 36.375 
Q 6.59375 54.828125 13.0625 64.515625 
Q 19.53125 74.21875 31.78125 74.21875 
z
" id="DejaVuSans-30"/>
      </defs>
      <g style="fill:#262626;" transform="translate(40.6375 310.660088)scale(0.1 -0.1)">
       <use xlink:href="#DejaVuSans-30"/>
      </g>
     </g>
    </g>
    <g id="ytick_2">
     <g id="line2d_9"/>
     <g id="text_2">
      <!-- 10 -->
      <defs>
       <path d="M 12.40625 8.296875 
L 28.515625 8.296875 
L 28.515625 63.921875 
L 10.984375 60.40625 
L 10.984375 69.390625 
L 28.421875 72.90625 
L 38.28125 72.90625 
L 38.28125 8.296875 
L 54.390625 8.296875 
L 54.390625 0 
L 12.40625 0 
z
" id="DejaVuSans-31"/>
      </defs>
      <g style="fill:#262626;" transform="translate(34.275 270.46488)scale(0.1 -0.1)">
       <use xlink:href="#DejaVuSans-31"/>
       <use x="63.623047" xlink:href="#DejaVuSans-30"/>
      </g>
     </g>
    </g>
    <g id="ytick_3">
     <g id="line2d_10"/>
     <g id="text_3">
      <!-- 20 -->
      <defs>
       <path d="M 19.1875 8.296875 
L 53.609375 8.296875 
L 53.609375 0 
L 7.328125 0 
L 7.328125 8.296875 
Q 12.9375 14.109375 22.625 23.890625 
Q 32.328125 33.6875 34.8125 36.53125 
Q 39.546875 41.84375 41.421875 45.53125 
Q 43.3125 49.21875 43.3125 52.78125 
Q 43.3125 58.59375 39.234375 62.25 
Q 35.15625 65.921875 28.609375 65.921875 
Q 23.96875 65.921875 18.8125 64.3125 
Q 13.671875 62.703125 7.8125 59.421875 
L 7.8125 69.390625 
Q 13.765625 71.78125 18.9375 73 
Q 24.125 74.21875 28.421875 74.21875 
Q 39.75 74.21875 46.484375 68.546875 
Q 53.21875 62.890625 53.21875 53.421875 
Q 53.21875 48.921875 51.53125 44.890625 
Q 49.859375 40.875 45.40625 35.40625 
Q 44.1875 33.984375 37.640625 27.21875 
Q 31.109375 20.453125 19.1875 8.296875 
z
" id="DejaVuSans-32"/>
      </defs>
      <g style="fill:#262626;" transform="translate(34.275 230.269671)scale(0.1 -0.1)">
       <use xlink:href="#DejaVuSans-32"/>
       <use x="63.623047" xlink:href="#DejaVuSans-30"/>
      </g>
     </g>
    </g>
    <g id="ytick_4">
     <g id="line2d_11"/>
     <g id="text_4">
      <!-- 30 -->
      <defs>
       <path d="M 40.578125 39.3125 
Q 47.65625 37.796875 51.625 33 
Q 55.609375 28.21875 55.609375 21.1875 
Q 55.609375 10.40625 48.1875 4.484375 
Q 40.765625 -1.421875 27.09375 -1.421875 
Q 22.515625 -1.421875 17.65625 -0.515625 
Q 12.796875 0.390625 7.625 2.203125 
L 7.625 11.71875 
Q 11.71875 9.328125 16.59375 8.109375 
Q 21.484375 6.890625 26.8125 6.890625 
Q 36.078125 6.890625 40.9375 10.546875 
Q 45.796875 14.203125 45.796875 21.1875 
Q 45.796875 27.640625 41.28125 31.265625 
Q 36.765625 34.90625 28.71875 34.90625 
L 20.21875 34.90625 
L 20.21875 43.015625 
L 29.109375 43.015625 
Q 36.375 43.015625 40.234375 45.921875 
Q 44.09375 48.828125 44.09375 54.296875 
Q 44.09375 59.90625 40.109375 62.90625 
Q 36.140625 65.921875 28.71875 65.921875 
Q 24.65625 65.921875 20.015625 65.03125 
Q 15.375 64.15625 9.8125 62.3125 
L 9.8125 71.09375 
Q 15.4375 72.65625 20.34375 73.4375 
Q 25.25 74.21875 29.59375 74.21875 
Q 40.828125 74.21875 47.359375 69.109375 
Q 53.90625 64.015625 53.90625 55.328125 
Q 53.90625 49.265625 50.4375 45.09375 
Q 46.96875 40.921875 40.578125 39.3125 
z
" id="DejaVuSans-33"/>
      </defs>
      <g style="fill:#262626;" transform="translate(34.275 190.074463)scale(0.1 -0.1)">
       <use xlink:href="#DejaVuSans-33"/>
       <use x="63.623047" xlink:href="#DejaVuSans-30"/>
      </g>
     </g>
    </g>
    <g id="ytick_5">
     <g id="line2d_12"/>
     <g id="text_5">
      <!-- 40 -->
      <defs>
       <path d="M 37.796875 64.3125 
L 12.890625 25.390625 
L 37.796875 25.390625 
z
M 35.203125 72.90625 
L 47.609375 72.90625 
L 47.609375 25.390625 
L 58.015625 25.390625 
L 58.015625 17.1875 
L 47.609375 17.1875 
L 47.609375 0 
L 37.796875 0 
L 37.796875 17.1875 
L 4.890625 17.1875 
L 4.890625 26.703125 
z
" id="DejaVuSans-34"/>
      </defs>
      <g style="fill:#262626;" transform="translate(34.275 149.879254)scale(0.1 -0.1)">
       <use xlink:href="#DejaVuSans-34"/>
       <use x="63.623047" xlink:href="#DejaVuSans-30"/>
      </g>
     </g>
    </g>
    <g id="text_6">
     <!-- Frequency -->
     <defs>
      <path d="M 9.8125 72.90625 
L 51.703125 72.90625 
L 51.703125 64.59375 
L 19.671875 64.59375 
L 19.671875 43.109375 
L 48.578125 43.109375 
L 48.578125 34.8125 
L 19.671875 34.8125 
L 19.671875 0 
L 9.8125 0 
z
" id="DejaVuSans-46"/>
      <path d="M 41.109375 46.296875 
Q 39.59375 47.171875 37.8125 47.578125 
Q 36.03125 48 33.890625 48 
Q 26.265625 48 22.1875 43.046875 
Q 18.109375 38.09375 18.109375 28.8125 
L 18.109375 0 
L 9.078125 0 
L 9.078125 54.6875 
L 18.109375 54.6875 
L 18.109375 46.1875 
Q 20.953125 51.171875 25.484375 53.578125 
Q 30.03125 56 36.53125 56 
Q 37.453125 56 38.578125 55.875 
Q 39.703125 55.765625 41.0625 55.515625 
z
" id="DejaVuSans-72"/>
      <path d="M 56.203125 29.59375 
L 56.203125 25.203125 
L 14.890625 25.203125 
Q 15.484375 15.921875 20.484375 11.0625 
Q 25.484375 6.203125 34.421875 6.203125 
Q 39.59375 6.203125 44.453125 7.46875 
Q 49.3125 8.734375 54.109375 11.28125 
L 54.109375 2.78125 
Q 49.265625 0.734375 44.1875 -0.34375 
Q 39.109375 -1.421875 33.890625 -1.421875 
Q 20.796875 -1.421875 13.15625 6.1875 
Q 5.515625 13.8125 5.515625 26.8125 
Q 5.515625 40.234375 12.765625 48.109375 
Q 20.015625 56 32.328125 56 
Q 43.359375 56 49.78125 48.890625 
Q 56.203125 41.796875 56.203125 29.59375 
z
M 47.21875 32.234375 
Q 47.125 39.59375 43.09375 43.984375 
Q 39.0625 48.390625 32.421875 48.390625 
Q 24.90625 48.390625 20.390625 44.140625 
Q 15.875 39.890625 15.1875 32.171875 
z
" id="DejaVuSans-65"/>
      <path d="M 14.796875 27.296875 
Q 14.796875 17.390625 18.875 11.75 
Q 22.953125 6.109375 30.078125 6.109375 
Q 37.203125 6.109375 41.296875 11.75 
Q 45.40625 17.390625 45.40625 27.296875 
Q 45.40625 37.203125 41.296875 42.84375 
Q 37.203125 48.484375 30.078125 48.484375 
Q 22.953125 48.484375 18.875 42.84375 
Q 14.796875 37.203125 14.796875 27.296875 
z
M 45.40625 8.203125 
Q 42.578125 3.328125 38.25 0.953125 
Q 33.9375 -1.421875 27.875 -1.421875 
Q 17.96875 -1.421875 11.734375 6.484375 
Q 5.515625 14.40625 5.515625 27.296875 
Q 5.515625 40.1875 11.734375 48.09375 
Q 17.96875 56 27.875 56 
Q 33.9375 56 38.25 53.625 
Q 42.578125 51.265625 45.40625 46.390625 
L 45.40625 54.6875 
L 54.390625 54.6875 
L 54.390625 -20.796875 
L 45.40625 -20.796875 
z
" id="DejaVuSans-71"/>
      <path d="M 8.5 21.578125 
L 8.5 54.6875 
L 17.484375 54.6875 
L 17.484375 21.921875 
Q 17.484375 14.15625 20.5 10.265625 
Q 23.53125 6.390625 29.59375 6.390625 
Q 36.859375 6.390625 41.078125 11.03125 
Q 45.3125 15.671875 45.3125 23.6875 
L 45.3125 54.6875 
L 54.296875 54.6875 
L 54.296875 0 
L 45.3125 0 
L 45.3125 8.40625 
Q 42.046875 3.421875 37.71875 1 
Q 33.40625 -1.421875 27.6875 -1.421875 
Q 18.265625 -1.421875 13.375 4.4375 
Q 8.5 10.296875 8.5 21.578125 
z
M 31.109375 56 
z
" id="DejaVuSans-75"/>
      <path d="M 54.890625 33.015625 
L 54.890625 0 
L 45.90625 0 
L 45.90625 32.71875 
Q 45.90625 40.484375 42.875 44.328125 
Q 39.84375 48.1875 33.796875 48.1875 
Q 26.515625 48.1875 22.3125 43.546875 
Q 18.109375 38.921875 18.109375 30.90625 
L 18.109375 0 
L 9.078125 0 
L 9.078125 54.6875 
L 18.109375 54.6875 
L 18.109375 46.1875 
Q 21.34375 51.125 25.703125 53.5625 
Q 30.078125 56 35.796875 56 
Q 45.21875 56 50.046875 50.171875 
Q 54.890625 44.34375 54.890625 33.015625 
z
" id="DejaVuSans-6e"/>
      <path d="M 48.78125 52.59375 
L 48.78125 44.1875 
Q 44.96875 46.296875 41.140625 47.34375 
Q 37.3125 48.390625 33.40625 48.390625 
Q 24.65625 48.390625 19.8125 42.84375 
Q 14.984375 37.3125 14.984375 27.296875 
Q 14.984375 17.28125 19.8125 11.734375 
Q 24.65625 6.203125 33.40625 6.203125 
Q 37.3125 6.203125 41.140625 7.25 
Q 44.96875 8.296875 48.78125 10.40625 
L 48.78125 2.09375 
Q 45.015625 0.34375 40.984375 -0.53125 
Q 36.96875 -1.421875 32.421875 -1.421875 
Q 20.0625 -1.421875 12.78125 6.34375 
Q 5.515625 14.109375 5.515625 27.296875 
Q 5.515625 40.671875 12.859375 48.328125 
Q 20.21875 56 33.015625 56 
Q 37.15625 56 41.109375 55.140625 
Q 45.0625 54.296875 48.78125 52.59375 
z
" id="DejaVuSans-63"/>
      <path d="M 32.171875 -5.078125 
Q 28.375 -14.84375 24.75 -17.8125 
Q 21.140625 -20.796875 15.09375 -20.796875 
L 7.90625 -20.796875 
L 7.90625 -13.28125 
L 13.1875 -13.28125 
Q 16.890625 -13.28125 18.9375 -11.515625 
Q 21 -9.765625 23.484375 -3.21875 
L 25.09375 0.875 
L 2.984375 54.6875 
L 12.5 54.6875 
L 29.59375 11.921875 
L 46.6875 54.6875 
L 56.203125 54.6875 
z
" id="DejaVuSans-79"/>
     </defs>
     <g style="fill:#262626;" transform="translate(27.987344 247.157857)rotate(-90)scale(0.11 -0.11)">
      <use xlink:href="#DejaVuSans-46"/>
      <use x="57.410156" xlink:href="#DejaVuSans-72"/>
      <use x="98.492188" xlink:href="#DejaVuSans-65"/>
      <use x="160.015625" xlink:href="#DejaVuSans-71"/>
      <use x="223.492188" xlink:href="#DejaVuSans-75"/>
      <use x="286.871094" xlink:href="#DejaVuSans-65"/>
      <use x="348.394531" xlink:href="#DejaVuSans-6e"/>
      <use x="411.773438" xlink:href="#DejaVuSans-63"/>
      <use x="466.753906" xlink:href="#DejaVuSans-79"/>
     </g>
    </g>
   </g>
   <g id="patch_3">
    <path clip-path="url(#p8bcead4db7)" d="M 69.218182 306.86087 
L 90.958442 306.86087 
L 90.958442 298.821828 
L 69.218182 298.821828 
z
" style="fill:#386cb0;opacity:0.9;"/>
   </g>
   <g id="patch_4">
    <path clip-path="url(#p8bcead4db7)" d="M 90.958442 306.86087 
L 112.698701 306.86087 
L 112.698701 286.763265 
L 90.958442 286.763265 
z
" style="fill:#386cb0;opacity:0.9;"/>
   </g>
   <g id="patch_5">
    <path clip-path="url(#p8bcead4db7)" d="M 112.698701 306.86087 
L 134.438961 306.86087 
L 134.438961 254.607098 
L 112.698701 254.607098 
z
" style="fill:#386cb0;opacity:0.9;"/>
   </g>
   <g id="patch_6">
    <path clip-path="url(#p8bcead4db7)" d="M 134.438961 306.86087 
L 156.179221 306.86087 
L 156.179221 250.587578 
L 134.438961 250.587578 
z
" style="fill:#386cb0;opacity:0.9;"/>
   </g>
   <g id="patch_7">
    <path clip-path="url(#p8bcead4db7)" d="M 156.179221 306.86087 
L 177.919481 306.86087 
L 177.919481 210.392369 
L 156.179221 210.392369 
z
" style="fill:#386cb0;opacity:0.9;"/>
   </g>
   <g id="patch_8">
    <path clip-path="url(#p8bcead4db7)" d="M 177.919481 306.86087 
L 199.65974 306.86087 
L 199.65974 138.040994 
L 177.919481 138.040994 
z
" style="fill:#386cb0;opacity:0.9;"/>
   </g>
   <g id="patch_9">
    <path clip-path="url(#p8bcead4db7)" d="M 199.65974 306.86087 
L 221.4 306.86087 
L 221.4 182.255723 
L 199.65974 182.255723 
z
" style="fill:#386cb0;opacity:0.9;"/>
   </g>
   <g id="patch_10">
    <path clip-path="url(#p8bcead4db7)" d="M 221.4 306.86087 
L 243.14026 306.86087 
L 243.14026 278.724224 
L 221.4 278.724224 
z
" style="fill:#386cb0;opacity:0.9;"/>
   </g>
   <g id="patch_11">
    <path clip-path="url(#p8bcead4db7)" d="M 243.14026 306.86087 
L 264.880519 306.86087 
L 264.880519 282.743744 
L 243.14026 282.743744 
z
" style="fill:#386cb0;opacity:0.9;"/>
   </g>
   <g id="patch_12">
    <path clip-path="url(#p8bcead4db7)" d="M 264.880519 306.86087 
L 286.620779 306.86087 
L 286.620779 286.763265 
L 264.880519 286.763265 
z
" style="fill:#386cb0;opacity:0.9;"/>
   </g>
   <g id="patch_13">
    <path clip-path="url(#p8bcead4db7)" d="M 286.620779 306.86087 
L 308.361039 306.86087 
L 308.361039 270.685182 
L 286.620779 270.685182 
z
" style="fill:#386cb0;opacity:0.9;"/>
   </g>
   <g id="patch_14">
    <path clip-path="url(#p8bcead4db7)" d="M 308.361039 306.86087 
L 330.101299 306.86087 
L 330.101299 278.724224 
L 308.361039 278.724224 
z
" style="fill:#386cb0;opacity:0.9;"/>
   </g>
   <g id="patch_15">
    <path clip-path="url(#p8bcead4db7)" d="M 330.101299 306.86087 
L 351.841558 306.86087 
L 351.841558 286.763265 
L 330.101299 286.763265 
z
" style="fill:#386cb0;opacity:0.9;"/>
   </g>
   <g id="patch_16">
    <path clip-path="url(#p8bcead4db7)" d="M 351.841558 306.86087 
L 373.581818 306.86087 
L 373.581818 306.86087 
L 351.841558 306.86087 
z
" style="fill:#386cb0;opacity:0.9;"/>
   </g>
   <g id="patch_17">
    <path d="M 54 306.86087 
L 54 129.6 
" style="fill:none;stroke:#262626;stroke-linecap:square;stroke-linejoin:miter;stroke-width:1.25;"/>
   </g>
   <g id="patch_18">
    <path d="M 388.8 306.86087 
L 388.8 129.6 
" style="fill:none;stroke:#262626;stroke-linecap:square;stroke-linejoin:miter;stroke-width:1.25;"/>
   </g>
   <g id="patch_19">
    <path d="M 54 306.86087 
L 388.8 306.86087 
" style="fill:none;stroke:#262626;stroke-linecap:square;stroke-linejoin:miter;stroke-width:1.25;"/>
   </g>
   <g id="patch_20">
    <path d="M 54 129.6 
L 388.8 129.6 
" style="fill:none;stroke:#262626;stroke-linecap:square;stroke-linejoin:miter;stroke-width:1.25;"/>
   </g>
   <g id="text_7">
    <!-- TARGET Neuroblastoma MYCN Distribution -->
    <defs>
     <path d="M -0.296875 72.90625 
L 61.375 72.90625 
L 61.375 64.59375 
L 35.5 64.59375 
L 35.5 0 
L 25.59375 0 
L 25.59375 64.59375 
L -0.296875 64.59375 
z
" id="DejaVuSans-54"/>
     <path d="M 34.1875 63.1875 
L 20.796875 26.90625 
L 47.609375 26.90625 
z
M 28.609375 72.90625 
L 39.796875 72.90625 
L 67.578125 0 
L 57.328125 0 
L 50.6875 18.703125 
L 17.828125 18.703125 
L 11.1875 0 
L 0.78125 0 
z
" id="DejaVuSans-41"/>
     <path d="M 44.390625 34.1875 
Q 47.5625 33.109375 50.5625 29.59375 
Q 53.5625 26.078125 56.59375 19.921875 
L 66.609375 0 
L 56 0 
L 46.6875 18.703125 
Q 43.0625 26.03125 39.671875 28.421875 
Q 36.28125 30.8125 30.421875 30.8125 
L 19.671875 30.8125 
L 19.671875 0 
L 9.8125 0 
L 9.8125 72.90625 
L 32.078125 72.90625 
Q 44.578125 72.90625 50.734375 67.671875 
Q 56.890625 62.453125 56.890625 51.90625 
Q 56.890625 45.015625 53.6875 40.46875 
Q 50.484375 35.9375 44.390625 34.1875 
z
M 19.671875 64.796875 
L 19.671875 38.921875 
L 32.078125 38.921875 
Q 39.203125 38.921875 42.84375 42.21875 
Q 46.484375 45.515625 46.484375 51.90625 
Q 46.484375 58.296875 42.84375 61.546875 
Q 39.203125 64.796875 32.078125 64.796875 
z
" id="DejaVuSans-52"/>
     <path d="M 59.515625 10.40625 
L 59.515625 29.984375 
L 43.40625 29.984375 
L 43.40625 38.09375 
L 69.28125 38.09375 
L 69.28125 6.78125 
Q 63.578125 2.734375 56.6875 0.65625 
Q 49.8125 -1.421875 42 -1.421875 
Q 24.90625 -1.421875 15.25 8.5625 
Q 5.609375 18.5625 5.609375 36.375 
Q 5.609375 54.25 15.25 64.234375 
Q 24.90625 74.21875 42 74.21875 
Q 49.125 74.21875 55.546875 72.453125 
Q 61.96875 70.703125 67.390625 67.28125 
L 67.390625 56.78125 
Q 61.921875 61.421875 55.765625 63.765625 
Q 49.609375 66.109375 42.828125 66.109375 
Q 29.4375 66.109375 22.71875 58.640625 
Q 16.015625 51.171875 16.015625 36.375 
Q 16.015625 21.625 22.71875 14.15625 
Q 29.4375 6.6875 42.828125 6.6875 
Q 48.046875 6.6875 52.140625 7.59375 
Q 56.25 8.5 59.515625 10.40625 
z
" id="DejaVuSans-47"/>
     <path d="M 9.8125 72.90625 
L 55.90625 72.90625 
L 55.90625 64.59375 
L 19.671875 64.59375 
L 19.671875 43.015625 
L 54.390625 43.015625 
L 54.390625 34.71875 
L 19.671875 34.71875 
L 19.671875 8.296875 
L 56.78125 8.296875 
L 56.78125 0 
L 9.8125 0 
z
" id="DejaVuSans-45"/>
     <path id="DejaVuSans-20"/>
     <path d="M 9.8125 72.90625 
L 23.09375 72.90625 
L 55.421875 11.921875 
L 55.421875 72.90625 
L 64.984375 72.90625 
L 64.984375 0 
L 51.703125 0 
L 19.390625 60.984375 
L 19.390625 0 
L 9.8125 0 
z
" id="DejaVuSans-4e"/>
     <path d="M 30.609375 48.390625 
Q 23.390625 48.390625 19.1875 42.75 
Q 14.984375 37.109375 14.984375 27.296875 
Q 14.984375 17.484375 19.15625 11.84375 
Q 23.34375 6.203125 30.609375 6.203125 
Q 37.796875 6.203125 41.984375 11.859375 
Q 46.1875 17.53125 46.1875 27.296875 
Q 46.1875 37.015625 41.984375 42.703125 
Q 37.796875 48.390625 30.609375 48.390625 
z
M 30.609375 56 
Q 42.328125 56 49.015625 48.375 
Q 55.71875 40.765625 55.71875 27.296875 
Q 55.71875 13.875 49.015625 6.21875 
Q 42.328125 -1.421875 30.609375 -1.421875 
Q 18.84375 -1.421875 12.171875 6.21875 
Q 5.515625 13.875 5.515625 27.296875 
Q 5.515625 40.765625 12.171875 48.375 
Q 18.84375 56 30.609375 56 
z
" id="DejaVuSans-6f"/>
     <path d="M 48.6875 27.296875 
Q 48.6875 37.203125 44.609375 42.84375 
Q 40.53125 48.484375 33.40625 48.484375 
Q 26.265625 48.484375 22.1875 42.84375 
Q 18.109375 37.203125 18.109375 27.296875 
Q 18.109375 17.390625 22.1875 11.75 
Q 26.265625 6.109375 33.40625 6.109375 
Q 40.53125 6.109375 44.609375 11.75 
Q 48.6875 17.390625 48.6875 27.296875 
z
M 18.109375 46.390625 
Q 20.953125 51.265625 25.265625 53.625 
Q 29.59375 56 35.59375 56 
Q 45.5625 56 51.78125 48.09375 
Q 58.015625 40.1875 58.015625 27.296875 
Q 58.015625 14.40625 51.78125 6.484375 
Q 45.5625 -1.421875 35.59375 -1.421875 
Q 29.59375 -1.421875 25.265625 0.953125 
Q 20.953125 3.328125 18.109375 8.203125 
L 18.109375 0 
L 9.078125 0 
L 9.078125 75.984375 
L 18.109375 75.984375 
z
" id="DejaVuSans-62"/>
     <path d="M 9.421875 75.984375 
L 18.40625 75.984375 
L 18.40625 0 
L 9.421875 0 
z
" id="DejaVuSans-6c"/>
     <path d="M 34.28125 27.484375 
Q 23.390625 27.484375 19.1875 25 
Q 14.984375 22.515625 14.984375 16.5 
Q 14.984375 11.71875 18.140625 8.90625 
Q 21.296875 6.109375 26.703125 6.109375 
Q 34.1875 6.109375 38.703125 11.40625 
Q 43.21875 16.703125 43.21875 25.484375 
L 43.21875 27.484375 
z
M 52.203125 31.203125 
L 52.203125 0 
L 43.21875 0 
L 43.21875 8.296875 
Q 40.140625 3.328125 35.546875 0.953125 
Q 30.953125 -1.421875 24.3125 -1.421875 
Q 15.921875 -1.421875 10.953125 3.296875 
Q 6 8.015625 6 15.921875 
Q 6 25.140625 12.171875 29.828125 
Q 18.359375 34.515625 30.609375 34.515625 
L 43.21875 34.515625 
L 43.21875 35.40625 
Q 43.21875 41.609375 39.140625 45 
Q 35.0625 48.390625 27.6875 48.390625 
Q 23 48.390625 18.546875 47.265625 
Q 14.109375 46.140625 10.015625 43.890625 
L 10.015625 52.203125 
Q 14.9375 54.109375 19.578125 55.046875 
Q 24.21875 56 28.609375 56 
Q 40.484375 56 46.34375 49.84375 
Q 52.203125 43.703125 52.203125 31.203125 
z
" id="DejaVuSans-61"/>
     <path d="M 44.28125 53.078125 
L 44.28125 44.578125 
Q 40.484375 46.53125 36.375 47.5 
Q 32.28125 48.484375 27.875 48.484375 
Q 21.1875 48.484375 17.84375 46.4375 
Q 14.5 44.390625 14.5 40.28125 
Q 14.5 37.15625 16.890625 35.375 
Q 19.28125 33.59375 26.515625 31.984375 
L 29.59375 31.296875 
Q 39.15625 29.25 43.1875 25.515625 
Q 47.21875 21.78125 47.21875 15.09375 
Q 47.21875 7.46875 41.1875 3.015625 
Q 35.15625 -1.421875 24.609375 -1.421875 
Q 20.21875 -1.421875 15.453125 -0.5625 
Q 10.6875 0.296875 5.421875 2 
L 5.421875 11.28125 
Q 10.40625 8.6875 15.234375 7.390625 
Q 20.0625 6.109375 24.8125 6.109375 
Q 31.15625 6.109375 34.5625 8.28125 
Q 37.984375 10.453125 37.984375 14.40625 
Q 37.984375 18.0625 35.515625 20.015625 
Q 33.0625 21.96875 24.703125 23.78125 
L 21.578125 24.515625 
Q 13.234375 26.265625 9.515625 29.90625 
Q 5.8125 33.546875 5.8125 39.890625 
Q 5.8125 47.609375 11.28125 51.796875 
Q 16.75 56 26.8125 56 
Q 31.78125 56 36.171875 55.265625 
Q 40.578125 54.546875 44.28125 53.078125 
z
" id="DejaVuSans-73"/>
     <path d="M 18.3125 70.21875 
L 18.3125 54.6875 
L 36.8125 54.6875 
L 36.8125 47.703125 
L 18.3125 47.703125 
L 18.3125 18.015625 
Q 18.3125 11.328125 20.140625 9.421875 
Q 21.96875 7.515625 27.59375 7.515625 
L 36.8125 7.515625 
L 36.8125 0 
L 27.59375 0 
Q 17.1875 0 13.234375 3.875 
Q 9.28125 7.765625 9.28125 18.015625 
L 9.28125 47.703125 
L 2.6875 47.703125 
L 2.6875 54.6875 
L 9.28125 54.6875 
L 9.28125 70.21875 
z
" id="DejaVuSans-74"/>
     <path d="M 52 44.1875 
Q 55.375 50.25 60.0625 53.125 
Q 64.75 56 71.09375 56 
Q 79.640625 56 84.28125 50.015625 
Q 88.921875 44.046875 88.921875 33.015625 
L 88.921875 0 
L 79.890625 0 
L 79.890625 32.71875 
Q 79.890625 40.578125 77.09375 44.375 
Q 74.3125 48.1875 68.609375 48.1875 
Q 61.625 48.1875 57.5625 43.546875 
Q 53.515625 38.921875 53.515625 30.90625 
L 53.515625 0 
L 44.484375 0 
L 44.484375 32.71875 
Q 44.484375 40.625 41.703125 44.40625 
Q 38.921875 48.1875 33.109375 48.1875 
Q 26.21875 48.1875 22.15625 43.53125 
Q 18.109375 38.875 18.109375 30.90625 
L 18.109375 0 
L 9.078125 0 
L 9.078125 54.6875 
L 18.109375 54.6875 
L 18.109375 46.1875 
Q 21.1875 51.21875 25.484375 53.609375 
Q 29.78125 56 35.6875 56 
Q 41.65625 56 45.828125 52.96875 
Q 50 49.953125 52 44.1875 
z
" id="DejaVuSans-6d"/>
     <path d="M 9.8125 72.90625 
L 24.515625 72.90625 
L 43.109375 23.296875 
L 61.8125 72.90625 
L 76.515625 72.90625 
L 76.515625 0 
L 66.890625 0 
L 66.890625 64.015625 
L 48.09375 14.015625 
L 38.1875 14.015625 
L 19.390625 64.015625 
L 19.390625 0 
L 9.8125 0 
z
" id="DejaVuSans-4d"/>
     <path d="M -0.203125 72.90625 
L 10.40625 72.90625 
L 30.609375 42.921875 
L 50.6875 72.90625 
L 61.28125 72.90625 
L 35.5 34.71875 
L 35.5 0 
L 25.59375 0 
L 25.59375 34.71875 
z
" id="DejaVuSans-59"/>
     <path d="M 64.40625 67.28125 
L 64.40625 56.890625 
Q 59.421875 61.53125 53.78125 63.8125 
Q 48.140625 66.109375 41.796875 66.109375 
Q 29.296875 66.109375 22.65625 58.46875 
Q 16.015625 50.828125 16.015625 36.375 
Q 16.015625 21.96875 22.65625 14.328125 
Q 29.296875 6.6875 41.796875 6.6875 
Q 48.140625 6.6875 53.78125 8.984375 
Q 59.421875 11.28125 64.40625 15.921875 
L 64.40625 5.609375 
Q 59.234375 2.09375 53.4375 0.328125 
Q 47.65625 -1.421875 41.21875 -1.421875 
Q 24.65625 -1.421875 15.125 8.703125 
Q 5.609375 18.84375 5.609375 36.375 
Q 5.609375 53.953125 15.125 64.078125 
Q 24.65625 74.21875 41.21875 74.21875 
Q 47.75 74.21875 53.53125 72.484375 
Q 59.328125 70.75 64.40625 67.28125 
z
" id="DejaVuSans-43"/>
     <path d="M 19.671875 64.796875 
L 19.671875 8.109375 
L 31.59375 8.109375 
Q 46.6875 8.109375 53.6875 14.9375 
Q 60.6875 21.78125 60.6875 36.53125 
Q 60.6875 51.171875 53.6875 57.984375 
Q 46.6875 64.796875 31.59375 64.796875 
z
M 9.8125 72.90625 
L 30.078125 72.90625 
Q 51.265625 72.90625 61.171875 64.09375 
Q 71.09375 55.28125 71.09375 36.53125 
Q 71.09375 17.671875 61.125 8.828125 
Q 51.171875 0 30.078125 0 
L 9.8125 0 
z
" id="DejaVuSans-44"/>
     <path d="M 9.421875 54.6875 
L 18.40625 54.6875 
L 18.40625 0 
L 9.421875 0 
z
M 9.421875 75.984375 
L 18.40625 75.984375 
L 18.40625 64.59375 
L 9.421875 64.59375 
z
" id="DejaVuSans-69"/>
    </defs>
    <g style="fill:#262626;" transform="translate(93.182813 123.6)scale(0.12 -0.12)">
     <use xlink:href="#DejaVuSans-54"/>
     <use x="60.974609" xlink:href="#DejaVuSans-41"/>
     <use x="129.382812" xlink:href="#DejaVuSans-52"/>
     <use x="198.865234" xlink:href="#DejaVuSans-47"/>
     <use x="276.355469" xlink:href="#DejaVuSans-45"/>
     <use x="339.539062" xlink:href="#DejaVuSans-54"/>
     <use x="400.623047" xlink:href="#DejaVuSans-20"/>
     <use x="432.410156" xlink:href="#DejaVuSans-4e"/>
     <use x="507.214844" xlink:href="#DejaVuSans-65"/>
     <use x="568.738281" xlink:href="#DejaVuSans-75"/>
     <use x="632.117188" xlink:href="#DejaVuSans-72"/>
     <use x="673.199219" xlink:href="#DejaVuSans-6f"/>
     <use x="734.380859" xlink:href="#DejaVuSans-62"/>
     <use x="797.857422" xlink:href="#DejaVuSans-6c"/>
     <use x="825.640625" xlink:href="#DejaVuSans-61"/>
     <use x="886.919922" xlink:href="#DejaVuSans-73"/>
     <use x="939.019531" xlink:href="#DejaVuSans-74"/>
     <use x="978.228516" xlink:href="#DejaVuSans-6f"/>
     <use x="1039.410156" xlink:href="#DejaVuSans-6d"/>
     <use x="1136.822266" xlink:href="#DejaVuSans-61"/>
     <use x="1198.101562" xlink:href="#DejaVuSans-20"/>
     <use x="1229.888672" xlink:href="#DejaVuSans-4d"/>
     <use x="1316.167969" xlink:href="#DejaVuSans-59"/>
     <use x="1377.173828" xlink:href="#DejaVuSans-43"/>
     <use x="1446.998047" xlink:href="#DejaVuSans-4e"/>
     <use x="1521.802734" xlink:href="#DejaVuSans-20"/>
     <use x="1553.589844" xlink:href="#DejaVuSans-44"/>
     <use x="1630.591797" xlink:href="#DejaVuSans-69"/>
     <use x="1658.375" xlink:href="#DejaVuSans-73"/>
     <use x="1710.474609" xlink:href="#DejaVuSans-74"/>
     <use x="1749.683594" xlink:href="#DejaVuSans-72"/>
     <use x="1790.796875" xlink:href="#DejaVuSans-69"/>
     <use x="1818.580078" xlink:href="#DejaVuSans-62"/>
     <use x="1882.056641" xlink:href="#DejaVuSans-75"/>
     <use x="1945.435547" xlink:href="#DejaVuSans-74"/>
     <use x="1984.644531" xlink:href="#DejaVuSans-69"/>
     <use x="2012.427734" xlink:href="#DejaVuSans-6f"/>
     <use x="2073.609375" xlink:href="#DejaVuSans-6e"/>
    </g>
   </g>
  </g>
  <g id="axes_2">
   <g id="patch_21">
    <path d="M 54 519.573913 
L 388.8 519.573913 
L 388.8 342.313043 
L 54 342.313043 
z
" style="fill:#ffffff;"/>
   </g>
   <g id="matplotlib.axis_3">
    <g id="xtick_8">
     <g id="line2d_13"/>
    </g>
    <g id="xtick_9">
     <g id="line2d_14"/>
    </g>
    <g id="xtick_10">
     <g id="line2d_15"/>
    </g>
    <g id="xtick_11">
     <g id="line2d_16"/>
    </g>
    <g id="xtick_12">
     <g id="line2d_17"/>
    </g>
    <g id="xtick_13">
     <g id="line2d_18"/>
    </g>
    <g id="xtick_14">
     <g id="line2d_19"/>
    </g>
   </g>
   <g id="matplotlib.axis_4">
    <g id="ytick_6">
     <g id="line2d_20"/>
     <g id="text_8">
      <!-- 0 -->
      <g style="fill:#262626;" transform="translate(40.6375 523.373132)scale(0.1 -0.1)">
       <use xlink:href="#DejaVuSans-30"/>
      </g>
     </g>
    </g>
    <g id="ytick_7">
     <g id="line2d_21"/>
     <g id="text_9">
      <!-- 200 -->
      <g style="fill:#262626;" transform="translate(27.9125 495.989535)scale(0.1 -0.1)">
       <use xlink:href="#DejaVuSans-32"/>
       <use x="63.623047" xlink:href="#DejaVuSans-30"/>
       <use x="127.246094" xlink:href="#DejaVuSans-30"/>
      </g>
     </g>
    </g>
    <g id="ytick_8">
     <g id="line2d_22"/>
     <g id="text_10">
      <!-- 400 -->
      <g style="fill:#262626;" transform="translate(27.9125 468.605938)scale(0.1 -0.1)">
       <use xlink:href="#DejaVuSans-34"/>
       <use x="63.623047" xlink:href="#DejaVuSans-30"/>
       <use x="127.246094" xlink:href="#DejaVuSans-30"/>
      </g>
     </g>
    </g>
    <g id="ytick_9">
     <g id="line2d_23"/>
     <g id="text_11">
      <!-- 600 -->
      <defs>
       <path d="M 33.015625 40.375 
Q 26.375 40.375 22.484375 35.828125 
Q 18.609375 31.296875 18.609375 23.390625 
Q 18.609375 15.53125 22.484375 10.953125 
Q 26.375 6.390625 33.015625 6.390625 
Q 39.65625 6.390625 43.53125 10.953125 
Q 47.40625 15.53125 47.40625 23.390625 
Q 47.40625 31.296875 43.53125 35.828125 
Q 39.65625 40.375 33.015625 40.375 
z
M 52.59375 71.296875 
L 52.59375 62.3125 
Q 48.875 64.0625 45.09375 64.984375 
Q 41.3125 65.921875 37.59375 65.921875 
Q 27.828125 65.921875 22.671875 59.328125 
Q 17.53125 52.734375 16.796875 39.40625 
Q 19.671875 43.65625 24.015625 45.921875 
Q 28.375 48.1875 33.59375 48.1875 
Q 44.578125 48.1875 50.953125 41.515625 
Q 57.328125 34.859375 57.328125 23.390625 
Q 57.328125 12.15625 50.6875 5.359375 
Q 44.046875 -1.421875 33.015625 -1.421875 
Q 20.359375 -1.421875 13.671875 8.265625 
Q 6.984375 17.96875 6.984375 36.375 
Q 6.984375 53.65625 15.1875 63.9375 
Q 23.390625 74.21875 37.203125 74.21875 
Q 40.921875 74.21875 44.703125 73.484375 
Q 48.484375 72.75 52.59375 71.296875 
z
" id="DejaVuSans-36"/>
      </defs>
      <g style="fill:#262626;" transform="translate(27.9125 441.222341)scale(0.1 -0.1)">
       <use xlink:href="#DejaVuSans-36"/>
       <use x="63.623047" xlink:href="#DejaVuSans-30"/>
       <use x="127.246094" xlink:href="#DejaVuSans-30"/>
      </g>
     </g>
    </g>
    <g id="ytick_10">
     <g id="line2d_24"/>
     <g id="text_12">
      <!-- 800 -->
      <defs>
       <path d="M 31.78125 34.625 
Q 24.75 34.625 20.71875 30.859375 
Q 16.703125 27.09375 16.703125 20.515625 
Q 16.703125 13.921875 20.71875 10.15625 
Q 24.75 6.390625 31.78125 6.390625 
Q 38.8125 6.390625 42.859375 10.171875 
Q 46.921875 13.96875 46.921875 20.515625 
Q 46.921875 27.09375 42.890625 30.859375 
Q 38.875 34.625 31.78125 34.625 
z
M 21.921875 38.8125 
Q 15.578125 40.375 12.03125 44.71875 
Q 8.5 49.078125 8.5 55.328125 
Q 8.5 64.0625 14.71875 69.140625 
Q 20.953125 74.21875 31.78125 74.21875 
Q 42.671875 74.21875 48.875 69.140625 
Q 55.078125 64.0625 55.078125 55.328125 
Q 55.078125 49.078125 51.53125 44.71875 
Q 48 40.375 41.703125 38.8125 
Q 48.828125 37.15625 52.796875 32.3125 
Q 56.78125 27.484375 56.78125 20.515625 
Q 56.78125 9.90625 50.3125 4.234375 
Q 43.84375 -1.421875 31.78125 -1.421875 
Q 19.734375 -1.421875 13.25 4.234375 
Q 6.78125 9.90625 6.78125 20.515625 
Q 6.78125 27.484375 10.78125 32.3125 
Q 14.796875 37.15625 21.921875 38.8125 
z
M 18.3125 54.390625 
Q 18.3125 48.734375 21.84375 45.5625 
Q 25.390625 42.390625 31.78125 42.390625 
Q 38.140625 42.390625 41.71875 45.5625 
Q 45.3125 48.734375 45.3125 54.390625 
Q 45.3125 60.0625 41.71875 63.234375 
Q 38.140625 66.40625 31.78125 66.40625 
Q 25.390625 66.40625 21.84375 63.234375 
Q 18.3125 60.0625 18.3125 54.390625 
z
" id="DejaVuSans-38"/>
      </defs>
      <g style="fill:#262626;" transform="translate(27.9125 413.838744)scale(0.1 -0.1)">
       <use xlink:href="#DejaVuSans-38"/>
       <use x="63.623047" xlink:href="#DejaVuSans-30"/>
       <use x="127.246094" xlink:href="#DejaVuSans-30"/>
      </g>
     </g>
    </g>
    <g id="ytick_11">
     <g id="line2d_25"/>
     <g id="text_13">
      <!-- 1000 -->
      <g style="fill:#262626;" transform="translate(21.55 386.455147)scale(0.1 -0.1)">
       <use xlink:href="#DejaVuSans-31"/>
       <use x="63.623047" xlink:href="#DejaVuSans-30"/>
       <use x="127.246094" xlink:href="#DejaVuSans-30"/>
       <use x="190.869141" xlink:href="#DejaVuSans-30"/>
      </g>
     </g>
    </g>
    <g id="ytick_12">
     <g id="line2d_26"/>
     <g id="text_14">
      <!-- 1200 -->
      <g style="fill:#262626;" transform="translate(21.55 359.07155)scale(0.1 -0.1)">
       <use xlink:href="#DejaVuSans-31"/>
       <use x="63.623047" xlink:href="#DejaVuSans-32"/>
       <use x="127.246094" xlink:href="#DejaVuSans-30"/>
       <use x="190.869141" xlink:href="#DejaVuSans-30"/>
      </g>
     </g>
    </g>
    <g id="text_15">
     <!-- Frequency -->
     <g style="fill:#262626;" transform="translate(15.262344 459.8709)rotate(-90)scale(0.11 -0.11)">
      <use xlink:href="#DejaVuSans-46"/>
      <use x="57.410156" xlink:href="#DejaVuSans-72"/>
      <use x="98.492188" xlink:href="#DejaVuSans-65"/>
      <use x="160.015625" xlink:href="#DejaVuSans-71"/>
      <use x="223.492188" xlink:href="#DejaVuSans-75"/>
      <use x="286.871094" xlink:href="#DejaVuSans-65"/>
      <use x="348.394531" xlink:href="#DejaVuSans-6e"/>
      <use x="411.773438" xlink:href="#DejaVuSans-63"/>
      <use x="466.753906" xlink:href="#DejaVuSans-79"/>
     </g>
    </g>
   </g>
   <g id="patch_22">
    <path clip-path="url(#pbee32108ab)" d="M 69.218182 519.573913 
L 90.958442 519.573913 
L 90.958442 500.268477 
L 69.218182 500.268477 
z
" style="fill:#015b64;opacity:0.9;"/>
   </g>
   <g id="patch_23">
    <path clip-path="url(#pbee32108ab)" d="M 90.958442 519.573913 
L 112.698701 519.573913 
L 112.698701 482.332221 
L 90.958442 482.332221 
z
" style="fill:#015b64;opacity:0.9;"/>
   </g>
   <g id="patch_24">
    <path clip-path="url(#pbee32108ab)" d="M 112.698701 519.573913 
L 134.438961 519.573913 
L 134.438961 453.031772 
L 112.698701 453.031772 
z
" style="fill:#015b64;opacity:0.9;"/>
   </g>
   <g id="patch_25">
    <path clip-path="url(#pbee32108ab)" d="M 134.438961 519.573913 
L 156.179221 519.573913 
L 156.179221 416.611588 
L 134.438961 416.611588 
z
" style="fill:#015b64;opacity:0.9;"/>
   </g>
   <g id="patch_26">
    <path clip-path="url(#pbee32108ab)" d="M 156.179221 519.573913 
L 177.919481 519.573913 
L 177.919481 375.399275 
L 156.179221 375.399275 
z
" style="fill:#015b64;opacity:0.9;"/>
   </g>
   <g id="patch_27">
    <path clip-path="url(#pbee32108ab)" d="M 177.919481 519.573913 
L 199.65974 519.573913 
L 199.65974 350.754037 
L 177.919481 350.754037 
z
" style="fill:#015b64;opacity:0.9;"/>
   </g>
   <g id="patch_28">
    <path clip-path="url(#pbee32108ab)" d="M 199.65974 519.573913 
L 221.4 519.573913 
L 221.4 358.421444 
L 199.65974 358.421444 
z
" style="fill:#015b64;opacity:0.9;"/>
   </g>
   <g id="patch_29">
    <path clip-path="url(#pbee32108ab)" d="M 221.4 519.573913 
L 243.14026 519.573913 
L 243.14026 389.912581 
L 221.4 389.912581 
z
" style="fill:#015b64;opacity:0.9;"/>
   </g>
   <g id="patch_30">
    <path clip-path="url(#pbee32108ab)" d="M 243.14026 519.573913 
L 264.880519 519.573913 
L 264.880519 416.337752 
L 243.14026 416.337752 
z
" style="fill:#015b64;opacity:0.9;"/>
   </g>
   <g id="patch_31">
    <path clip-path="url(#pbee32108ab)" d="M 264.880519 519.573913 
L 286.620779 519.573913 
L 286.620779 447.007381 
L 264.880519 447.007381 
z
" style="fill:#015b64;opacity:0.9;"/>
   </g>
   <g id="patch_32">
    <path clip-path="url(#pbee32108ab)" d="M 286.620779 519.573913 
L 308.361039 519.573913 
L 308.361039 475.897076 
L 286.620779 475.897076 
z
" style="fill:#015b64;opacity:0.9;"/>
   </g>
   <g id="patch_33">
    <path clip-path="url(#pbee32108ab)" d="M 308.361039 519.573913 
L 330.101299 519.573913 
L 330.101299 500.131559 
L 308.361039 500.131559 
z
" style="fill:#015b64;opacity:0.9;"/>
   </g>
   <g id="patch_34">
    <path clip-path="url(#pbee32108ab)" d="M 330.101299 519.573913 
L 351.841558 519.573913 
L 351.841558 510.400408 
L 330.101299 510.400408 
z
" style="fill:#015b64;opacity:0.9;"/>
   </g>
   <g id="patch_35">
    <path clip-path="url(#pbee32108ab)" d="M 351.841558 519.573913 
L 373.581818 519.573913 
L 373.581818 516.561717 
L 351.841558 516.561717 
z
" style="fill:#015b64;opacity:0.9;"/>
   </g>
   <g id="patch_36">
    <path d="M 54 519.573913 
L 54 342.313043 
" style="fill:none;stroke:#262626;stroke-linecap:square;stroke-linejoin:miter;stroke-width:1.25;"/>
   </g>
   <g id="patch_37">
    <path d="M 388.8 519.573913 
L 388.8 342.313043 
" style="fill:none;stroke:#262626;stroke-linecap:square;stroke-linejoin:miter;stroke-width:1.25;"/>
   </g>
   <g id="patch_38">
    <path d="M 54 519.573913 
L 388.8 519.573913 
" style="fill:none;stroke:#262626;stroke-linecap:square;stroke-linejoin:miter;stroke-width:1.25;"/>
   </g>
   <g id="patch_39">
    <path d="M 54 342.313043 
L 388.8 342.313043 
" style="fill:none;stroke:#262626;stroke-linecap:square;stroke-linejoin:miter;stroke-width:1.25;"/>
   </g>
   <g id="text_16">
    <!-- Uni-modal Posterior Predictive Distribution -->
    <defs>
     <path d="M 8.6875 72.90625 
L 18.609375 72.90625 
L 18.609375 28.609375 
Q 18.609375 16.890625 22.84375 11.734375 
Q 27.09375 6.59375 36.625 6.59375 
Q 46.09375 6.59375 50.34375 11.734375 
Q 54.59375 16.890625 54.59375 28.609375 
L 54.59375 72.90625 
L 64.5 72.90625 
L 64.5 27.390625 
Q 64.5 13.140625 57.4375 5.859375 
Q 50.390625 -1.421875 36.625 -1.421875 
Q 22.796875 -1.421875 15.734375 5.859375 
Q 8.6875 13.140625 8.6875 27.390625 
z
" id="DejaVuSans-55"/>
     <path d="M 4.890625 31.390625 
L 31.203125 31.390625 
L 31.203125 23.390625 
L 4.890625 23.390625 
z
" id="DejaVuSans-2d"/>
     <path d="M 45.40625 46.390625 
L 45.40625 75.984375 
L 54.390625 75.984375 
L 54.390625 0 
L 45.40625 0 
L 45.40625 8.203125 
Q 42.578125 3.328125 38.25 0.953125 
Q 33.9375 -1.421875 27.875 -1.421875 
Q 17.96875 -1.421875 11.734375 6.484375 
Q 5.515625 14.40625 5.515625 27.296875 
Q 5.515625 40.1875 11.734375 48.09375 
Q 17.96875 56 27.875 56 
Q 33.9375 56 38.25 53.625 
Q 42.578125 51.265625 45.40625 46.390625 
z
M 14.796875 27.296875 
Q 14.796875 17.390625 18.875 11.75 
Q 22.953125 6.109375 30.078125 6.109375 
Q 37.203125 6.109375 41.296875 11.75 
Q 45.40625 17.390625 45.40625 27.296875 
Q 45.40625 37.203125 41.296875 42.84375 
Q 37.203125 48.484375 30.078125 48.484375 
Q 22.953125 48.484375 18.875 42.84375 
Q 14.796875 37.203125 14.796875 27.296875 
z
" id="DejaVuSans-64"/>
     <path d="M 19.671875 64.796875 
L 19.671875 37.40625 
L 32.078125 37.40625 
Q 38.96875 37.40625 42.71875 40.96875 
Q 46.484375 44.53125 46.484375 51.125 
Q 46.484375 57.671875 42.71875 61.234375 
Q 38.96875 64.796875 32.078125 64.796875 
z
M 9.8125 72.90625 
L 32.078125 72.90625 
Q 44.34375 72.90625 50.609375 67.359375 
Q 56.890625 61.8125 56.890625 51.125 
Q 56.890625 40.328125 50.609375 34.8125 
Q 44.34375 29.296875 32.078125 29.296875 
L 19.671875 29.296875 
L 19.671875 0 
L 9.8125 0 
z
" id="DejaVuSans-50"/>
     <path d="M 2.984375 54.6875 
L 12.5 54.6875 
L 29.59375 8.796875 
L 46.6875 54.6875 
L 56.203125 54.6875 
L 35.6875 0 
L 23.484375 0 
z
" id="DejaVuSans-76"/>
    </defs>
    <g style="fill:#262626;" transform="translate(93.445313 336.313043)scale(0.12 -0.12)">
     <use xlink:href="#DejaVuSans-55"/>
     <use x="73.193359" xlink:href="#DejaVuSans-6e"/>
     <use x="136.572266" xlink:href="#DejaVuSans-69"/>
     <use x="164.355469" xlink:href="#DejaVuSans-2d"/>
     <use x="200.439453" xlink:href="#DejaVuSans-6d"/>
     <use x="297.851562" xlink:href="#DejaVuSans-6f"/>
     <use x="359.033203" xlink:href="#DejaVuSans-64"/>
     <use x="422.509766" xlink:href="#DejaVuSans-61"/>
     <use x="483.789062" xlink:href="#DejaVuSans-6c"/>
     <use x="511.572266" xlink:href="#DejaVuSans-20"/>
     <use x="543.359375" xlink:href="#DejaVuSans-50"/>
     <use x="603.615234" xlink:href="#DejaVuSans-6f"/>
     <use x="664.796875" xlink:href="#DejaVuSans-73"/>
     <use x="716.896484" xlink:href="#DejaVuSans-74"/>
     <use x="756.105469" xlink:href="#DejaVuSans-65"/>
     <use x="817.628906" xlink:href="#DejaVuSans-72"/>
     <use x="858.742188" xlink:href="#DejaVuSans-69"/>
     <use x="886.525391" xlink:href="#DejaVuSans-6f"/>
     <use x="947.707031" xlink:href="#DejaVuSans-72"/>
     <use x="988.820312" xlink:href="#DejaVuSans-20"/>
     <use x="1020.607422" xlink:href="#DejaVuSans-50"/>
     <use x="1080.894531" xlink:href="#DejaVuSans-72"/>
     <use x="1121.976562" xlink:href="#DejaVuSans-65"/>
     <use x="1183.5" xlink:href="#DejaVuSans-64"/>
     <use x="1246.976562" xlink:href="#DejaVuSans-69"/>
     <use x="1274.759766" xlink:href="#DejaVuSans-63"/>
     <use x="1329.740234" xlink:href="#DejaVuSans-74"/>
     <use x="1368.949219" xlink:href="#DejaVuSans-69"/>
     <use x="1396.732422" xlink:href="#DejaVuSans-76"/>
     <use x="1455.912109" xlink:href="#DejaVuSans-65"/>
     <use x="1517.435547" xlink:href="#DejaVuSans-20"/>
     <use x="1549.222656" xlink:href="#DejaVuSans-44"/>
     <use x="1626.224609" xlink:href="#DejaVuSans-69"/>
     <use x="1654.007812" xlink:href="#DejaVuSans-73"/>
     <use x="1706.107422" xlink:href="#DejaVuSans-74"/>
     <use x="1745.316406" xlink:href="#DejaVuSans-72"/>
     <use x="1786.429688" xlink:href="#DejaVuSans-69"/>
     <use x="1814.212891" xlink:href="#DejaVuSans-62"/>
     <use x="1877.689453" xlink:href="#DejaVuSans-75"/>
     <use x="1941.068359" xlink:href="#DejaVuSans-74"/>
     <use x="1980.277344" xlink:href="#DejaVuSans-69"/>
     <use x="2008.060547" xlink:href="#DejaVuSans-6f"/>
     <use x="2069.242188" xlink:href="#DejaVuSans-6e"/>
    </g>
   </g>
  </g>
  <g id="axes_3">
   <g id="patch_40">
    <path d="M 54 732.286957 
L 388.8 732.286957 
L 388.8 555.026087 
L 54 555.026087 
z
" style="fill:#ffffff;"/>
   </g>
   <g id="matplotlib.axis_5">
    <g id="xtick_15">
     <g id="line2d_27"/>
    </g>
    <g id="xtick_16">
     <g id="line2d_28"/>
    </g>
    <g id="xtick_17">
     <g id="line2d_29"/>
    </g>
    <g id="xtick_18">
     <g id="line2d_30"/>
    </g>
    <g id="xtick_19">
     <g id="line2d_31"/>
    </g>
    <g id="xtick_20">
     <g id="line2d_32"/>
    </g>
    <g id="xtick_21">
     <g id="line2d_33"/>
    </g>
   </g>
   <g id="matplotlib.axis_6">
    <g id="ytick_13">
     <g id="line2d_34"/>
     <g id="text_17">
      <!-- 0 -->
      <g style="fill:#262626;" transform="translate(40.6375 736.086175)scale(0.1 -0.1)">
       <use xlink:href="#DejaVuSans-30"/>
      </g>
     </g>
    </g>
    <g id="ytick_14">
     <g id="line2d_35"/>
     <g id="text_18">
      <!-- 500 -->
      <defs>
       <path d="M 10.796875 72.90625 
L 49.515625 72.90625 
L 49.515625 64.59375 
L 19.828125 64.59375 
L 19.828125 46.734375 
Q 21.96875 47.46875 24.109375 47.828125 
Q 26.265625 48.1875 28.421875 48.1875 
Q 40.625 48.1875 47.75 41.5 
Q 54.890625 34.8125 54.890625 23.390625 
Q 54.890625 11.625 47.5625 5.09375 
Q 40.234375 -1.421875 26.90625 -1.421875 
Q 22.3125 -1.421875 17.546875 -0.640625 
Q 12.796875 0.140625 7.71875 1.703125 
L 7.71875 11.625 
Q 12.109375 9.234375 16.796875 8.0625 
Q 21.484375 6.890625 26.703125 6.890625 
Q 35.15625 6.890625 40.078125 11.328125 
Q 45.015625 15.765625 45.015625 23.390625 
Q 45.015625 31 40.078125 35.4375 
Q 35.15625 39.890625 26.703125 39.890625 
Q 22.75 39.890625 18.8125 39.015625 
Q 14.890625 38.140625 10.796875 36.28125 
z
" id="DejaVuSans-35"/>
      </defs>
      <g style="fill:#262626;" transform="translate(27.9125 699.177589)scale(0.1 -0.1)">
       <use xlink:href="#DejaVuSans-35"/>
       <use x="63.623047" xlink:href="#DejaVuSans-30"/>
       <use x="127.246094" xlink:href="#DejaVuSans-30"/>
      </g>
     </g>
    </g>
    <g id="ytick_15">
     <g id="line2d_36"/>
     <g id="text_19">
      <!-- 1000 -->
      <g style="fill:#262626;" transform="translate(21.55 662.269002)scale(0.1 -0.1)">
       <use xlink:href="#DejaVuSans-31"/>
       <use x="63.623047" xlink:href="#DejaVuSans-30"/>
       <use x="127.246094" xlink:href="#DejaVuSans-30"/>
       <use x="190.869141" xlink:href="#DejaVuSans-30"/>
      </g>
     </g>
    </g>
    <g id="ytick_16">
     <g id="line2d_37"/>
     <g id="text_20">
      <!-- 1500 -->
      <g style="fill:#262626;" transform="translate(21.55 625.360415)scale(0.1 -0.1)">
       <use xlink:href="#DejaVuSans-31"/>
       <use x="63.623047" xlink:href="#DejaVuSans-35"/>
       <use x="127.246094" xlink:href="#DejaVuSans-30"/>
       <use x="190.869141" xlink:href="#DejaVuSans-30"/>
      </g>
     </g>
    </g>
    <g id="ytick_17">
     <g id="line2d_38"/>
     <g id="text_21">
      <!-- 2000 -->
      <g style="fill:#262626;" transform="translate(21.55 588.451828)scale(0.1 -0.1)">
       <use xlink:href="#DejaVuSans-32"/>
       <use x="63.623047" xlink:href="#DejaVuSans-30"/>
       <use x="127.246094" xlink:href="#DejaVuSans-30"/>
       <use x="190.869141" xlink:href="#DejaVuSans-30"/>
      </g>
     </g>
    </g>
    <g id="text_22">
     <!-- Frequency -->
     <g style="fill:#262626;" transform="translate(15.262344 672.583944)rotate(-90)scale(0.11 -0.11)">
      <use xlink:href="#DejaVuSans-46"/>
      <use x="57.410156" xlink:href="#DejaVuSans-72"/>
      <use x="98.492188" xlink:href="#DejaVuSans-65"/>
      <use x="160.015625" xlink:href="#DejaVuSans-71"/>
      <use x="223.492188" xlink:href="#DejaVuSans-75"/>
      <use x="286.871094" xlink:href="#DejaVuSans-65"/>
      <use x="348.394531" xlink:href="#DejaVuSans-6e"/>
      <use x="411.773438" xlink:href="#DejaVuSans-63"/>
      <use x="466.753906" xlink:href="#DejaVuSans-79"/>
     </g>
    </g>
   </g>
   <g id="patch_41">
    <path clip-path="url(#p15caf76a9f)" d="M 69.218182 732.286957 
L 90.958442 732.286957 
L 90.958442 729.555721 
L 69.218182 729.555721 
z
" style="fill:#c4482e;opacity:0.9;"/>
   </g>
   <g id="patch_42">
    <path clip-path="url(#p15caf76a9f)" d="M 90.958442 732.286957 
L 112.698701 732.286957 
L 112.698701 728.522281 
L 90.958442 728.522281 
z
" style="fill:#c4482e;opacity:0.9;"/>
   </g>
   <g id="patch_43">
    <path clip-path="url(#p15caf76a9f)" d="M 112.698701 732.286957 
L 134.438961 732.286957 
L 134.438961 727.636475 
L 112.698701 727.636475 
z
" style="fill:#c4482e;opacity:0.9;"/>
   </g>
   <g id="patch_44">
    <path clip-path="url(#p15caf76a9f)" d="M 134.438961 732.286957 
L 156.179221 732.286957 
L 156.179221 723.281261 
L 134.438961 723.281261 
z
" style="fill:#c4482e;opacity:0.9;"/>
   </g>
   <g id="patch_45">
    <path clip-path="url(#p15caf76a9f)" d="M 156.179221 732.286957 
L 177.919481 732.286957 
L 177.919481 721.952552 
L 156.179221 721.952552 
z
" style="fill:#c4482e;opacity:0.9;"/>
   </g>
   <g id="patch_46">
    <path clip-path="url(#p15caf76a9f)" d="M 177.919481 732.286957 
L 199.65974 732.286957 
L 199.65974 720.254757 
L 177.919481 720.254757 
z
" style="fill:#c4482e;opacity:0.9;"/>
   </g>
   <g id="patch_47">
    <path clip-path="url(#p15caf76a9f)" d="M 199.65974 732.286957 
L 221.4 732.286957 
L 221.4 719.295134 
L 199.65974 719.295134 
z
" style="fill:#c4482e;opacity:0.9;"/>
   </g>
   <g id="patch_48">
    <path clip-path="url(#p15caf76a9f)" d="M 221.4 732.286957 
L 243.14026 732.286957 
L 243.14026 714.718469 
L 221.4 714.718469 
z
" style="fill:#c4482e;opacity:0.9;"/>
   </g>
   <g id="patch_49">
    <path clip-path="url(#p15caf76a9f)" d="M 243.14026 732.286957 
L 264.880519 732.286957 
L 264.880519 698.77396 
L 243.14026 698.77396 
z
" style="fill:#c4482e;opacity:0.9;"/>
   </g>
   <g id="patch_50">
    <path clip-path="url(#p15caf76a9f)" d="M 264.880519 732.286957 
L 286.620779 732.286957 
L 286.620779 641.04893 
L 264.880519 641.04893 
z
" style="fill:#c4482e;opacity:0.9;"/>
   </g>
   <g id="patch_51">
    <path clip-path="url(#p15caf76a9f)" d="M 286.620779 732.286957 
L 308.361039 732.286957 
L 308.361039 563.467081 
L 286.620779 563.467081 
z
" style="fill:#c4482e;opacity:0.9;"/>
   </g>
   <g id="patch_52">
    <path clip-path="url(#p15caf76a9f)" d="M 308.361039 732.286957 
L 330.101299 732.286957 
L 330.101299 581.552288 
L 308.361039 581.552288 
z
" style="fill:#c4482e;opacity:0.9;"/>
   </g>
   <g id="patch_53">
    <path clip-path="url(#p15caf76a9f)" d="M 330.101299 732.286957 
L 351.841558 732.286957 
L 351.841558 677.440797 
L 330.101299 677.440797 
z
" style="fill:#c4482e;opacity:0.9;"/>
   </g>
   <g id="patch_54">
    <path clip-path="url(#p15caf76a9f)" d="M 351.841558 732.286957 
L 373.581818 732.286957 
L 373.581818 719.738037 
L 351.841558 719.738037 
z
" style="fill:#c4482e;opacity:0.9;"/>
   </g>
   <g id="patch_55">
    <path clip-path="url(#p15caf76a9f)" d="M 69.218182 732.286957 
L 90.958442 732.286957 
L 90.958442 728.448464 
L 69.218182 728.448464 
z
" style="fill:#015b64;opacity:0.9;"/>
   </g>
   <g id="patch_56">
    <path clip-path="url(#p15caf76a9f)" d="M 90.958442 732.286957 
L 112.698701 732.286957 
L 112.698701 718.335511 
L 90.958442 718.335511 
z
" style="fill:#015b64;opacity:0.9;"/>
   </g>
   <g id="patch_57">
    <path clip-path="url(#p15caf76a9f)" d="M 112.698701 732.286957 
L 134.438961 732.286957 
L 134.438961 694.935467 
L 112.698701 694.935467 
z
" style="fill:#015b64;opacity:0.9;"/>
   </g>
   <g id="patch_58">
    <path clip-path="url(#p15caf76a9f)" d="M 134.438961 732.286957 
L 156.179221 732.286957 
L 156.179221 651.457152 
L 134.438961 651.457152 
z
" style="fill:#015b64;opacity:0.9;"/>
   </g>
   <g id="patch_59">
    <path clip-path="url(#p15caf76a9f)" d="M 156.179221 732.286957 
L 177.919481 732.286957 
L 177.919481 598.456421 
L 156.179221 598.456421 
z
" style="fill:#015b64;opacity:0.9;"/>
   </g>
   <g id="patch_60">
    <path clip-path="url(#p15caf76a9f)" d="M 177.919481 732.286957 
L 199.65974 732.286957 
L 199.65974 587.826748 
L 177.919481 587.826748 
z
" style="fill:#015b64;opacity:0.9;"/>
   </g>
   <g id="patch_61">
    <path clip-path="url(#p15caf76a9f)" d="M 199.65974 732.286957 
L 221.4 732.286957 
L 221.4 628.942914 
L 199.65974 628.942914 
z
" style="fill:#015b64;opacity:0.9;"/>
   </g>
   <g id="patch_62">
    <path clip-path="url(#p15caf76a9f)" d="M 221.4 732.286957 
L 243.14026 732.286957 
L 243.14026 685.855954 
L 221.4 685.855954 
z
" style="fill:#015b64;opacity:0.9;"/>
   </g>
   <g id="patch_63">
    <path clip-path="url(#p15caf76a9f)" d="M 243.14026 732.286957 
L 264.880519 732.286957 
L 264.880519 714.127932 
L 243.14026 714.127932 
z
" style="fill:#015b64;opacity:0.9;"/>
   </g>
   <g id="patch_64">
    <path clip-path="url(#p15caf76a9f)" d="M 264.880519 732.286957 
L 286.620779 732.286957 
L 286.620779 726.824486 
L 264.880519 726.824486 
z
" style="fill:#015b64;opacity:0.9;"/>
   </g>
   <g id="patch_65">
    <path clip-path="url(#p15caf76a9f)" d="M 286.620779 732.286957 
L 308.361039 732.286957 
L 308.361039 730.810613 
L 286.620779 730.810613 
z
" style="fill:#015b64;opacity:0.9;"/>
   </g>
   <g id="patch_66">
    <path clip-path="url(#p15caf76a9f)" d="M 308.361039 732.286957 
L 330.101299 732.286957 
L 330.101299 731.917871 
L 308.361039 731.917871 
z
" style="fill:#015b64;opacity:0.9;"/>
   </g>
   <g id="patch_67">
    <path clip-path="url(#p15caf76a9f)" d="M 330.101299 732.286957 
L 351.841558 732.286957 
L 351.841558 732.213139 
L 330.101299 732.213139 
z
" style="fill:#015b64;opacity:0.9;"/>
   </g>
   <g id="patch_68">
    <path clip-path="url(#p15caf76a9f)" d="M 351.841558 732.286957 
L 373.581818 732.286957 
L 373.581818 732.213139 
L 351.841558 732.213139 
z
" style="fill:#015b64;opacity:0.9;"/>
   </g>
   <g id="patch_69">
    <path d="M 54 732.286957 
L 54 555.026087 
" style="fill:none;stroke:#262626;stroke-linecap:square;stroke-linejoin:miter;stroke-width:1.25;"/>
   </g>
   <g id="patch_70">
    <path d="M 388.8 732.286957 
L 388.8 555.026087 
" style="fill:none;stroke:#262626;stroke-linecap:square;stroke-linejoin:miter;stroke-width:1.25;"/>
   </g>
   <g id="patch_71">
    <path d="M 54 732.286957 
L 388.8 732.286957 
" style="fill:none;stroke:#262626;stroke-linecap:square;stroke-linejoin:miter;stroke-width:1.25;"/>
   </g>
   <g id="patch_72">
    <path d="M 54 555.026087 
L 388.8 555.026087 
" style="fill:none;stroke:#262626;stroke-linecap:square;stroke-linejoin:miter;stroke-width:1.25;"/>
   </g>
   <g id="text_23">
    <!-- Bi-modal Posterior Predictive Distribution -->
    <defs>
     <path d="M 19.671875 34.8125 
L 19.671875 8.109375 
L 35.5 8.109375 
Q 43.453125 8.109375 47.28125 11.40625 
Q 51.125 14.703125 51.125 21.484375 
Q 51.125 28.328125 47.28125 31.5625 
Q 43.453125 34.8125 35.5 34.8125 
z
M 19.671875 64.796875 
L 19.671875 42.828125 
L 34.28125 42.828125 
Q 41.5 42.828125 45.03125 45.53125 
Q 48.578125 48.25 48.578125 53.8125 
Q 48.578125 59.328125 45.03125 62.0625 
Q 41.5 64.796875 34.28125 64.796875 
z
M 9.8125 72.90625 
L 35.015625 72.90625 
Q 46.296875 72.90625 52.390625 68.21875 
Q 58.5 63.53125 58.5 54.890625 
Q 58.5 48.1875 55.375 44.234375 
Q 52.25 40.28125 46.1875 39.3125 
Q 53.46875 37.75 57.5 32.78125 
Q 61.53125 27.828125 61.53125 20.40625 
Q 61.53125 10.640625 54.890625 5.3125 
Q 48.25 0 35.984375 0 
L 9.8125 0 
z
" id="DejaVuSans-42"/>
    </defs>
    <g style="fill:#262626;" transform="translate(97.5225 549.026087)scale(0.12 -0.12)">
     <use xlink:href="#DejaVuSans-42"/>
     <use x="68.603516" xlink:href="#DejaVuSans-69"/>
     <use x="96.386719" xlink:href="#DejaVuSans-2d"/>
     <use x="132.470703" xlink:href="#DejaVuSans-6d"/>
     <use x="229.882812" xlink:href="#DejaVuSans-6f"/>
     <use x="291.064453" xlink:href="#DejaVuSans-64"/>
     <use x="354.541016" xlink:href="#DejaVuSans-61"/>
     <use x="415.820312" xlink:href="#DejaVuSans-6c"/>
     <use x="443.603516" xlink:href="#DejaVuSans-20"/>
     <use x="475.390625" xlink:href="#DejaVuSans-50"/>
     <use x="535.646484" xlink:href="#DejaVuSans-6f"/>
     <use x="596.828125" xlink:href="#DejaVuSans-73"/>
     <use x="648.927734" xlink:href="#DejaVuSans-74"/>
     <use x="688.136719" xlink:href="#DejaVuSans-65"/>
     <use x="749.660156" xlink:href="#DejaVuSans-72"/>
     <use x="790.773438" xlink:href="#DejaVuSans-69"/>
     <use x="818.556641" xlink:href="#DejaVuSans-6f"/>
     <use x="879.738281" xlink:href="#DejaVuSans-72"/>
     <use x="920.851562" xlink:href="#DejaVuSans-20"/>
     <use x="952.638672" xlink:href="#DejaVuSans-50"/>
     <use x="1012.925781" xlink:href="#DejaVuSans-72"/>
     <use x="1054.007812" xlink:href="#DejaVuSans-65"/>
     <use x="1115.53125" xlink:href="#DejaVuSans-64"/>
     <use x="1179.007812" xlink:href="#DejaVuSans-69"/>
     <use x="1206.791016" xlink:href="#DejaVuSans-63"/>
     <use x="1261.771484" xlink:href="#DejaVuSans-74"/>
     <use x="1300.980469" xlink:href="#DejaVuSans-69"/>
     <use x="1328.763672" xlink:href="#DejaVuSans-76"/>
     <use x="1387.943359" xlink:href="#DejaVuSans-65"/>
     <use x="1449.466797" xlink:href="#DejaVuSans-20"/>
     <use x="1481.253906" xlink:href="#DejaVuSans-44"/>
     <use x="1558.255859" xlink:href="#DejaVuSans-69"/>
     <use x="1586.039062" xlink:href="#DejaVuSans-73"/>
     <use x="1638.138672" xlink:href="#DejaVuSans-74"/>
     <use x="1677.347656" xlink:href="#DejaVuSans-72"/>
     <use x="1718.460938" xlink:href="#DejaVuSans-69"/>
     <use x="1746.244141" xlink:href="#DejaVuSans-62"/>
     <use x="1809.720703" xlink:href="#DejaVuSans-75"/>
     <use x="1873.099609" xlink:href="#DejaVuSans-74"/>
     <use x="1912.308594" xlink:href="#DejaVuSans-69"/>
     <use x="1940.091797" xlink:href="#DejaVuSans-6f"/>
     <use x="2001.273438" xlink:href="#DejaVuSans-6e"/>
    </g>
   </g>
  </g>
  <g id="axes_4">
   <g id="patch_73">
    <path d="M 54 945 
L 388.8 945 
L 388.8 767.73913 
L 54 767.73913 
z
" style="fill:#ffffff;"/>
   </g>
   <g id="matplotlib.axis_7">
    <g id="xtick_22">
     <g id="line2d_39"/>
     <g id="text_24">
      <!-- 0 -->
      <g style="fill:#262626;" transform="translate(66.036932 959.598438)scale(0.1 -0.1)">
       <use xlink:href="#DejaVuSans-30"/>
      </g>
     </g>
    </g>
    <g id="xtick_23">
     <g id="line2d_40"/>
     <g id="text_25">
      <!-- 2 -->
      <g style="fill:#262626;" transform="translate(116.764205 959.598438)scale(0.1 -0.1)">
       <use xlink:href="#DejaVuSans-32"/>
      </g>
     </g>
    </g>
    <g id="xtick_24">
     <g id="line2d_41"/>
     <g id="text_26">
      <!-- 4 -->
      <g style="fill:#262626;" transform="translate(167.491477 959.598438)scale(0.1 -0.1)">
       <use xlink:href="#DejaVuSans-34"/>
      </g>
     </g>
    </g>
    <g id="xtick_25">
     <g id="line2d_42"/>
     <g id="text_27">
      <!-- 6 -->
      <g style="fill:#262626;" transform="translate(218.21875 959.598438)scale(0.1 -0.1)">
       <use xlink:href="#DejaVuSans-36"/>
      </g>
     </g>
    </g>
    <g id="xtick_26">
     <g id="line2d_43"/>
     <g id="text_28">
      <!-- 8 -->
      <g style="fill:#262626;" transform="translate(268.946023 959.598438)scale(0.1 -0.1)">
       <use xlink:href="#DejaVuSans-38"/>
      </g>
     </g>
    </g>
    <g id="xtick_27">
     <g id="line2d_44"/>
     <g id="text_29">
      <!-- 10 -->
      <g style="fill:#262626;" transform="translate(316.492045 959.598438)scale(0.1 -0.1)">
       <use xlink:href="#DejaVuSans-31"/>
       <use x="63.623047" xlink:href="#DejaVuSans-30"/>
      </g>
     </g>
    </g>
    <g id="xtick_28">
     <g id="line2d_45"/>
     <g id="text_30">
      <!-- 12 -->
      <g style="fill:#262626;" transform="translate(367.219318 959.598438)scale(0.1 -0.1)">
       <use xlink:href="#DejaVuSans-31"/>
       <use x="63.623047" xlink:href="#DejaVuSans-32"/>
      </g>
     </g>
    </g>
    <g id="text_31">
     <!-- MYCN Expression (log2(TPM + 1)) -->
     <defs>
      <path d="M 54.890625 54.6875 
L 35.109375 28.078125 
L 55.90625 0 
L 45.3125 0 
L 29.390625 21.484375 
L 13.484375 0 
L 2.875 0 
L 24.125 28.609375 
L 4.6875 54.6875 
L 15.28125 54.6875 
L 29.78125 35.203125 
L 44.28125 54.6875 
z
" id="DejaVuSans-78"/>
      <path d="M 18.109375 8.203125 
L 18.109375 -20.796875 
L 9.078125 -20.796875 
L 9.078125 54.6875 
L 18.109375 54.6875 
L 18.109375 46.390625 
Q 20.953125 51.265625 25.265625 53.625 
Q 29.59375 56 35.59375 56 
Q 45.5625 56 51.78125 48.09375 
Q 58.015625 40.1875 58.015625 27.296875 
Q 58.015625 14.40625 51.78125 6.484375 
Q 45.5625 -1.421875 35.59375 -1.421875 
Q 29.59375 -1.421875 25.265625 0.953125 
Q 20.953125 3.328125 18.109375 8.203125 
z
M 48.6875 27.296875 
Q 48.6875 37.203125 44.609375 42.84375 
Q 40.53125 48.484375 33.40625 48.484375 
Q 26.265625 48.484375 22.1875 42.84375 
Q 18.109375 37.203125 18.109375 27.296875 
Q 18.109375 17.390625 22.1875 11.75 
Q 26.265625 6.109375 33.40625 6.109375 
Q 40.53125 6.109375 44.609375 11.75 
Q 48.6875 17.390625 48.6875 27.296875 
z
" id="DejaVuSans-70"/>
      <path d="M 31 75.875 
Q 24.46875 64.65625 21.28125 53.65625 
Q 18.109375 42.671875 18.109375 31.390625 
Q 18.109375 20.125 21.3125 9.0625 
Q 24.515625 -2 31 -13.1875 
L 23.1875 -13.1875 
Q 15.875 -1.703125 12.234375 9.375 
Q 8.59375 20.453125 8.59375 31.390625 
Q 8.59375 42.28125 12.203125 53.3125 
Q 15.828125 64.359375 23.1875 75.875 
z
" id="DejaVuSans-28"/>
      <path d="M 45.40625 27.984375 
Q 45.40625 37.75 41.375 43.109375 
Q 37.359375 48.484375 30.078125 48.484375 
Q 22.859375 48.484375 18.828125 43.109375 
Q 14.796875 37.75 14.796875 27.984375 
Q 14.796875 18.265625 18.828125 12.890625 
Q 22.859375 7.515625 30.078125 7.515625 
Q 37.359375 7.515625 41.375 12.890625 
Q 45.40625 18.265625 45.40625 27.984375 
z
M 54.390625 6.78125 
Q 54.390625 -7.171875 48.1875 -13.984375 
Q 42 -20.796875 29.203125 -20.796875 
Q 24.46875 -20.796875 20.265625 -20.09375 
Q 16.0625 -19.390625 12.109375 -17.921875 
L 12.109375 -9.1875 
Q 16.0625 -11.328125 19.921875 -12.34375 
Q 23.78125 -13.375 27.78125 -13.375 
Q 36.625 -13.375 41.015625 -8.765625 
Q 45.40625 -4.15625 45.40625 5.171875 
L 45.40625 9.625 
Q 42.625 4.78125 38.28125 2.390625 
Q 33.9375 0 27.875 0 
Q 17.828125 0 11.671875 7.65625 
Q 5.515625 15.328125 5.515625 27.984375 
Q 5.515625 40.671875 11.671875 48.328125 
Q 17.828125 56 27.875 56 
Q 33.9375 56 38.28125 53.609375 
Q 42.625 51.21875 45.40625 46.390625 
L 45.40625 54.6875 
L 54.390625 54.6875 
z
" id="DejaVuSans-67"/>
      <path d="M 46 62.703125 
L 46 35.5 
L 73.1875 35.5 
L 73.1875 27.203125 
L 46 27.203125 
L 46 0 
L 37.796875 0 
L 37.796875 27.203125 
L 10.59375 27.203125 
L 10.59375 35.5 
L 37.796875 35.5 
L 37.796875 62.703125 
z
" id="DejaVuSans-2b"/>
      <path d="M 8.015625 75.875 
L 15.828125 75.875 
Q 23.140625 64.359375 26.78125 53.3125 
Q 30.421875 42.28125 30.421875 31.390625 
Q 30.421875 20.453125 26.78125 9.375 
Q 23.140625 -1.703125 15.828125 -13.1875 
L 8.015625 -13.1875 
Q 14.5 -2 17.703125 9.0625 
Q 20.90625 20.125 20.90625 31.390625 
Q 20.90625 42.671875 17.703125 53.65625 
Q 14.5 64.65625 8.015625 75.875 
z
" id="DejaVuSans-29"/>
     </defs>
     <g style="fill:#262626;" transform="translate(128.380391 974.036406)scale(0.11 -0.11)">
      <use xlink:href="#DejaVuSans-4d"/>
      <use x="86.279297" xlink:href="#DejaVuSans-59"/>
      <use x="147.285156" xlink:href="#DejaVuSans-43"/>
      <use x="217.109375" xlink:href="#DejaVuSans-4e"/>
      <use x="291.914062" xlink:href="#DejaVuSans-20"/>
      <use x="323.701172" xlink:href="#DejaVuSans-45"/>
      <use x="386.884766" xlink:href="#DejaVuSans-78"/>
      <use x="446.064453" xlink:href="#DejaVuSans-70"/>
      <use x="509.541016" xlink:href="#DejaVuSans-72"/>
      <use x="550.623047" xlink:href="#DejaVuSans-65"/>
      <use x="612.146484" xlink:href="#DejaVuSans-73"/>
      <use x="664.246094" xlink:href="#DejaVuSans-73"/>
      <use x="716.345703" xlink:href="#DejaVuSans-69"/>
      <use x="744.128906" xlink:href="#DejaVuSans-6f"/>
      <use x="805.310547" xlink:href="#DejaVuSans-6e"/>
      <use x="868.689453" xlink:href="#DejaVuSans-20"/>
      <use x="900.476562" xlink:href="#DejaVuSans-28"/>
      <use x="939.490234" xlink:href="#DejaVuSans-6c"/>
      <use x="967.273438" xlink:href="#DejaVuSans-6f"/>
      <use x="1028.455078" xlink:href="#DejaVuSans-67"/>
      <use x="1091.931641" xlink:href="#DejaVuSans-32"/>
      <use x="1155.554688" xlink:href="#DejaVuSans-28"/>
      <use x="1194.568359" xlink:href="#DejaVuSans-54"/>
      <use x="1255.652344" xlink:href="#DejaVuSans-50"/>
      <use x="1315.955078" xlink:href="#DejaVuSans-4d"/>
      <use x="1402.234375" xlink:href="#DejaVuSans-20"/>
      <use x="1434.021484" xlink:href="#DejaVuSans-2b"/>
      <use x="1517.810547" xlink:href="#DejaVuSans-20"/>
      <use x="1549.597656" xlink:href="#DejaVuSans-31"/>
      <use x="1613.220703" xlink:href="#DejaVuSans-29"/>
      <use x="1652.234375" xlink:href="#DejaVuSans-29"/>
     </g>
    </g>
   </g>
   <g id="matplotlib.axis_8">
    <g id="ytick_18">
     <g id="line2d_46"/>
     <g id="text_32">
      <!-- 0 -->
      <g style="fill:#262626;" transform="translate(40.6375 948.799219)scale(0.1 -0.1)">
       <use xlink:href="#DejaVuSans-30"/>
      </g>
     </g>
    </g>
    <g id="ytick_19">
     <g id="line2d_47"/>
     <g id="text_33">
      <!-- 500 -->
      <g style="fill:#262626;" transform="translate(27.9125 921.1329)scale(0.1 -0.1)">
       <use xlink:href="#DejaVuSans-35"/>
       <use x="63.623047" xlink:href="#DejaVuSans-30"/>
       <use x="127.246094" xlink:href="#DejaVuSans-30"/>
      </g>
     </g>
    </g>
    <g id="ytick_20">
     <g id="line2d_48"/>
     <g id="text_34">
      <!-- 1000 -->
      <g style="fill:#262626;" transform="translate(21.55 893.466582)scale(0.1 -0.1)">
       <use xlink:href="#DejaVuSans-31"/>
       <use x="63.623047" xlink:href="#DejaVuSans-30"/>
       <use x="127.246094" xlink:href="#DejaVuSans-30"/>
       <use x="190.869141" xlink:href="#DejaVuSans-30"/>
      </g>
     </g>
    </g>
    <g id="ytick_21">
     <g id="line2d_49"/>
     <g id="text_35">
      <!-- 1500 -->
      <g style="fill:#262626;" transform="translate(21.55 865.800263)scale(0.1 -0.1)">
       <use xlink:href="#DejaVuSans-31"/>
       <use x="63.623047" xlink:href="#DejaVuSans-35"/>
       <use x="127.246094" xlink:href="#DejaVuSans-30"/>
       <use x="190.869141" xlink:href="#DejaVuSans-30"/>
      </g>
     </g>
    </g>
    <g id="ytick_22">
     <g id="line2d_50"/>
     <g id="text_36">
      <!-- 2000 -->
      <g style="fill:#262626;" transform="translate(21.55 838.133945)scale(0.1 -0.1)">
       <use xlink:href="#DejaVuSans-32"/>
       <use x="63.623047" xlink:href="#DejaVuSans-30"/>
       <use x="127.246094" xlink:href="#DejaVuSans-30"/>
       <use x="190.869141" xlink:href="#DejaVuSans-30"/>
      </g>
     </g>
    </g>
    <g id="ytick_23">
     <g id="line2d_51"/>
     <g id="text_37">
      <!-- 2500 -->
      <g style="fill:#262626;" transform="translate(21.55 810.467626)scale(0.1 -0.1)">
       <use xlink:href="#DejaVuSans-32"/>
       <use x="63.623047" xlink:href="#DejaVuSans-35"/>
       <use x="127.246094" xlink:href="#DejaVuSans-30"/>
       <use x="190.869141" xlink:href="#DejaVuSans-30"/>
      </g>
     </g>
    </g>
    <g id="ytick_24">
     <g id="line2d_52"/>
     <g id="text_38">
      <!-- 3000 -->
      <g style="fill:#262626;" transform="translate(21.55 782.801307)scale(0.1 -0.1)">
       <use xlink:href="#DejaVuSans-33"/>
       <use x="63.623047" xlink:href="#DejaVuSans-30"/>
       <use x="127.246094" xlink:href="#DejaVuSans-30"/>
       <use x="190.869141" xlink:href="#DejaVuSans-30"/>
      </g>
     </g>
    </g>
    <g id="text_39">
     <!-- Frequency -->
     <g style="fill:#262626;" transform="translate(15.262344 885.296987)rotate(-90)scale(0.11 -0.11)">
      <use xlink:href="#DejaVuSans-46"/>
      <use x="57.410156" xlink:href="#DejaVuSans-72"/>
      <use x="98.492188" xlink:href="#DejaVuSans-65"/>
      <use x="160.015625" xlink:href="#DejaVuSans-71"/>
      <use x="223.492188" xlink:href="#DejaVuSans-75"/>
      <use x="286.871094" xlink:href="#DejaVuSans-65"/>
      <use x="348.394531" xlink:href="#DejaVuSans-6e"/>
      <use x="411.773438" xlink:href="#DejaVuSans-63"/>
      <use x="466.753906" xlink:href="#DejaVuSans-79"/>
     </g>
    </g>
   </g>
   <g id="patch_74">
    <path clip-path="url(#pcba2f30c2a)" d="M 69.218182 945 
L 90.958442 945 
L 90.958442 945 
L 69.218182 945 
z
" style="fill:#c4482e;opacity:0.9;"/>
   </g>
   <g id="patch_75">
    <path clip-path="url(#pcba2f30c2a)" d="M 90.958442 945 
L 112.698701 945 
L 112.698701 945 
L 90.958442 945 
z
" style="fill:#c4482e;opacity:0.9;"/>
   </g>
   <g id="patch_76">
    <path clip-path="url(#pcba2f30c2a)" d="M 112.698701 945 
L 134.438961 945 
L 134.438961 945 
L 112.698701 945 
z
" style="fill:#c4482e;opacity:0.9;"/>
   </g>
   <g id="patch_77">
    <path clip-path="url(#pcba2f30c2a)" d="M 134.438961 945 
L 156.179221 945 
L 156.179221 944.889335 
L 134.438961 944.889335 
z
" style="fill:#c4482e;opacity:0.9;"/>
   </g>
   <g id="patch_78">
    <path clip-path="url(#pcba2f30c2a)" d="M 156.179221 945 
L 177.919481 945 
L 177.919481 944.723337 
L 156.179221 944.723337 
z
" style="fill:#c4482e;opacity:0.9;"/>
   </g>
   <g id="patch_79">
    <path clip-path="url(#pcba2f30c2a)" d="M 177.919481 945 
L 199.65974 945 
L 199.65974 944.502006 
L 177.919481 944.502006 
z
" style="fill:#c4482e;opacity:0.9;"/>
   </g>
   <g id="patch_80">
    <path clip-path="url(#pcba2f30c2a)" d="M 199.65974 945 
L 221.4 945 
L 221.4 941.790707 
L 199.65974 941.790707 
z
" style="fill:#c4482e;opacity:0.9;"/>
   </g>
   <g id="patch_81">
    <path clip-path="url(#pcba2f30c2a)" d="M 221.4 945 
L 243.14026 945 
L 243.14026 932.82682 
L 221.4 932.82682 
z
" style="fill:#c4482e;opacity:0.9;"/>
   </g>
   <g id="patch_82">
    <path clip-path="url(#pcba2f30c2a)" d="M 243.14026 945 
L 264.880519 945 
L 264.880519 902.283204 
L 243.14026 902.283204 
z
" style="fill:#c4482e;opacity:0.9;"/>
   </g>
   <g id="patch_83">
    <path clip-path="url(#pcba2f30c2a)" d="M 264.880519 945 
L 286.620779 945 
L 286.620779 854.586471 
L 264.880519 854.586471 
z
" style="fill:#c4482e;opacity:0.9;"/>
   </g>
   <g id="patch_84">
    <path clip-path="url(#pcba2f30c2a)" d="M 286.620779 945 
L 308.361039 945 
L 308.361039 809.269041 
L 286.620779 809.269041 
z
" style="fill:#c4482e;opacity:0.9;"/>
   </g>
   <g id="patch_85">
    <path clip-path="url(#pcba2f30c2a)" d="M 308.361039 945 
L 330.101299 945 
L 330.101299 842.579289 
L 308.361039 842.579289 
z
" style="fill:#c4482e;opacity:0.9;"/>
   </g>
   <g id="patch_86">
    <path clip-path="url(#pcba2f30c2a)" d="M 330.101299 945 
L 351.841558 945 
L 351.841558 902.393869 
L 330.101299 902.393869 
z
" style="fill:#c4482e;opacity:0.9;"/>
   </g>
   <g id="patch_87">
    <path clip-path="url(#pcba2f30c2a)" d="M 351.841558 945 
L 373.581818 945 
L 373.581818 934.652797 
L 351.841558 934.652797 
z
" style="fill:#c4482e;opacity:0.9;"/>
   </g>
   <g id="patch_88">
    <path clip-path="url(#pcba2f30c2a)" d="M 69.218182 945 
L 90.958442 945 
L 90.958442 912.077081 
L 69.218182 912.077081 
z
" style="fill:#ffcf47;opacity:0.9;"/>
   </g>
   <g id="patch_89">
    <path clip-path="url(#pcba2f30c2a)" d="M 90.958442 945 
L 112.698701 945 
L 112.698701 874.063559 
L 90.958442 874.063559 
z
" style="fill:#ffcf47;opacity:0.9;"/>
   </g>
   <g id="patch_90">
    <path clip-path="url(#pcba2f30c2a)" d="M 112.698701 945 
L 134.438961 945 
L 134.438961 849.938529 
L 112.698701 849.938529 
z
" style="fill:#ffcf47;opacity:0.9;"/>
   </g>
   <g id="patch_91">
    <path clip-path="url(#pcba2f30c2a)" d="M 134.438961 945 
L 156.179221 945 
L 156.179221 855.416461 
L 134.438961 855.416461 
z
" style="fill:#ffcf47;opacity:0.9;"/>
   </g>
   <g id="patch_92">
    <path clip-path="url(#pcba2f30c2a)" d="M 156.179221 945 
L 177.919481 945 
L 177.919481 875.668206 
L 156.179221 875.668206 
z
" style="fill:#ffcf47;opacity:0.9;"/>
   </g>
   <g id="patch_93">
    <path clip-path="url(#pcba2f30c2a)" d="M 177.919481 945 
L 199.65974 945 
L 199.65974 904.828505 
L 177.919481 904.828505 
z
" style="fill:#ffcf47;opacity:0.9;"/>
   </g>
   <g id="patch_94">
    <path clip-path="url(#pcba2f30c2a)" d="M 199.65974 945 
L 221.4 945 
L 221.4 926.906228 
L 199.65974 926.906228 
z
" style="fill:#ffcf47;opacity:0.9;"/>
   </g>
   <g id="patch_95">
    <path clip-path="url(#pcba2f30c2a)" d="M 221.4 945 
L 243.14026 945 
L 243.14026 936.091445 
L 221.4 936.091445 
z
" style="fill:#ffcf47;opacity:0.9;"/>
   </g>
   <g id="patch_96">
    <path clip-path="url(#pcba2f30c2a)" d="M 243.14026 945 
L 264.880519 945 
L 264.880519 941.348046 
L 243.14026 941.348046 
z
" style="fill:#ffcf47;opacity:0.9;"/>
   </g>
   <g id="patch_97">
    <path clip-path="url(#pcba2f30c2a)" d="M 264.880519 945 
L 286.620779 945 
L 286.620779 943.616684 
L 264.880519 943.616684 
z
" style="fill:#ffcf47;opacity:0.9;"/>
   </g>
   <g id="patch_98">
    <path clip-path="url(#pcba2f30c2a)" d="M 286.620779 945 
L 308.361039 945 
L 308.361039 944.391341 
L 286.620779 944.391341 
z
" style="fill:#ffcf47;opacity:0.9;"/>
   </g>
   <g id="patch_99">
    <path clip-path="url(#pcba2f30c2a)" d="M 308.361039 945 
L 330.101299 945 
L 330.101299 944.834002 
L 308.361039 944.834002 
z
" style="fill:#ffcf47;opacity:0.9;"/>
   </g>
   <g id="patch_100">
    <path clip-path="url(#pcba2f30c2a)" d="M 330.101299 945 
L 351.841558 945 
L 351.841558 945 
L 330.101299 945 
z
" style="fill:#ffcf47;opacity:0.9;"/>
   </g>
   <g id="patch_101">
    <path clip-path="url(#pcba2f30c2a)" d="M 351.841558 945 
L 373.581818 945 
L 373.581818 945 
L 351.841558 945 
z
" style="fill:#ffcf47;opacity:0.9;"/>
   </g>
   <g id="patch_102">
    <path clip-path="url(#pcba2f30c2a)" d="M 69.218182 945 
L 90.958442 945 
L 90.958442 944.944667 
L 69.218182 944.944667 
z
" style="fill:#015b64;opacity:0.9;"/>
   </g>
   <g id="patch_103">
    <path clip-path="url(#pcba2f30c2a)" d="M 90.958442 945 
L 112.698701 945 
L 112.698701 944.17001 
L 90.958442 944.17001 
z
" style="fill:#015b64;opacity:0.9;"/>
   </g>
   <g id="patch_104">
    <path clip-path="url(#pcba2f30c2a)" d="M 112.698701 945 
L 134.438961 945 
L 134.438961 939.909397 
L 112.698701 939.909397 
z
" style="fill:#015b64;opacity:0.9;"/>
   </g>
   <g id="patch_105">
    <path clip-path="url(#pcba2f30c2a)" d="M 134.438961 945 
L 156.179221 945 
L 156.179221 917.333681 
L 134.438961 917.333681 
z
" style="fill:#015b64;opacity:0.9;"/>
   </g>
   <g id="patch_106">
    <path clip-path="url(#pcba2f30c2a)" d="M 156.179221 945 
L 177.919481 945 
L 177.919481 854.863134 
L 156.179221 854.863134 
z
" style="fill:#015b64;opacity:0.9;"/>
   </g>
   <g id="patch_107">
    <path clip-path="url(#pcba2f30c2a)" d="M 177.919481 945 
L 199.65974 945 
L 199.65974 776.180124 
L 177.919481 776.180124 
z
" style="fill:#015b64;opacity:0.9;"/>
   </g>
   <g id="patch_108">
    <path clip-path="url(#pcba2f30c2a)" d="M 199.65974 945 
L 221.4 945 
L 221.4 832.730079 
L 199.65974 832.730079 
z
" style="fill:#015b64;opacity:0.9;"/>
   </g>
   <g id="patch_109">
    <path clip-path="url(#pcba2f30c2a)" d="M 221.4 945 
L 243.14026 945 
L 243.14026 912.353744 
L 221.4 912.353744 
z
" style="fill:#015b64;opacity:0.9;"/>
   </g>
   <g id="patch_110">
    <path clip-path="url(#pcba2f30c2a)" d="M 243.14026 945 
L 264.880519 945 
L 264.880519 940.241393 
L 243.14026 940.241393 
z
" style="fill:#015b64;opacity:0.9;"/>
   </g>
   <g id="patch_111">
    <path clip-path="url(#pcba2f30c2a)" d="M 264.880519 945 
L 286.620779 945 
L 286.620779 944.723337 
L 264.880519 944.723337 
z
" style="fill:#015b64;opacity:0.9;"/>
   </g>
   <g id="patch_112">
    <path clip-path="url(#pcba2f30c2a)" d="M 286.620779 945 
L 308.361039 945 
L 308.361039 945 
L 286.620779 945 
z
" style="fill:#015b64;opacity:0.9;"/>
   </g>
   <g id="patch_113">
    <path clip-path="url(#pcba2f30c2a)" d="M 308.361039 945 
L 330.101299 945 
L 330.101299 945 
L 308.361039 945 
z
" style="fill:#015b64;opacity:0.9;"/>
   </g>
   <g id="patch_114">
    <path clip-path="url(#pcba2f30c2a)" d="M 330.101299 945 
L 351.841558 945 
L 351.841558 944.944667 
L 330.101299 944.944667 
z
" style="fill:#015b64;opacity:0.9;"/>
   </g>
   <g id="patch_115">
    <path clip-path="url(#pcba2f30c2a)" d="M 351.841558 945 
L 373.581818 945 
L 373.581818 945 
L 351.841558 945 
z
" style="fill:#015b64;opacity:0.9;"/>
   </g>
   <g id="patch_116">
    <path d="M 54 945 
L 54 767.73913 
" style="fill:none;stroke:#262626;stroke-linecap:square;stroke-linejoin:miter;stroke-width:1.25;"/>
   </g>
   <g id="patch_117">
    <path d="M 388.8 945 
L 388.8 767.73913 
" style="fill:none;stroke:#262626;stroke-linecap:square;stroke-linejoin:miter;stroke-width:1.25;"/>
   </g>
   <g id="patch_118">
    <path d="M 54 945 
L 388.8 945 
" style="fill:none;stroke:#262626;stroke-linecap:square;stroke-linejoin:miter;stroke-width:1.25;"/>
   </g>
   <g id="patch_119">
    <path d="M 54 767.73913 
L 388.8 767.73913 
" style="fill:none;stroke:#262626;stroke-linecap:square;stroke-linejoin:miter;stroke-width:1.25;"/>
   </g>
   <g id="text_40">
    <!-- Tri-modal Posterior Predictive Distribution -->
    <g style="fill:#262626;" transform="translate(95.520938 761.73913)scale(0.12 -0.12)">
     <use xlink:href="#DejaVuSans-54"/>
     <use x="60.865234" xlink:href="#DejaVuSans-72"/>
     <use x="101.978516" xlink:href="#DejaVuSans-69"/>
     <use x="129.761719" xlink:href="#DejaVuSans-2d"/>
     <use x="165.845703" xlink:href="#DejaVuSans-6d"/>
     <use x="263.257812" xlink:href="#DejaVuSans-6f"/>
     <use x="324.439453" xlink:href="#DejaVuSans-64"/>
     <use x="387.916016" xlink:href="#DejaVuSans-61"/>
     <use x="449.195312" xlink:href="#DejaVuSans-6c"/>
     <use x="476.978516" xlink:href="#DejaVuSans-20"/>
     <use x="508.765625" xlink:href="#DejaVuSans-50"/>
     <use x="569.021484" xlink:href="#DejaVuSans-6f"/>
     <use x="630.203125" xlink:href="#DejaVuSans-73"/>
     <use x="682.302734" xlink:href="#DejaVuSans-74"/>
     <use x="721.511719" xlink:href="#DejaVuSans-65"/>
     <use x="783.035156" xlink:href="#DejaVuSans-72"/>
     <use x="824.148438" xlink:href="#DejaVuSans-69"/>
     <use x="851.931641" xlink:href="#DejaVuSans-6f"/>
     <use x="913.113281" xlink:href="#DejaVuSans-72"/>
     <use x="954.226562" xlink:href="#DejaVuSans-20"/>
     <use x="986.013672" xlink:href="#DejaVuSans-50"/>
     <use x="1046.300781" xlink:href="#DejaVuSans-72"/>
     <use x="1087.382812" xlink:href="#DejaVuSans-65"/>
     <use x="1148.90625" xlink:href="#DejaVuSans-64"/>
     <use x="1212.382812" xlink:href="#DejaVuSans-69"/>
     <use x="1240.166016" xlink:href="#DejaVuSans-63"/>
     <use x="1295.146484" xlink:href="#DejaVuSans-74"/>
     <use x="1334.355469" xlink:href="#DejaVuSans-69"/>
     <use x="1362.138672" xlink:href="#DejaVuSans-76"/>
     <use x="1421.318359" xlink:href="#DejaVuSans-65"/>
     <use x="1482.841797" xlink:href="#DejaVuSans-20"/>
     <use x="1514.628906" xlink:href="#DejaVuSans-44"/>
     <use x="1591.630859" xlink:href="#DejaVuSans-69"/>
     <use x="1619.414062" xlink:href="#DejaVuSans-73"/>
     <use x="1671.513672" xlink:href="#DejaVuSans-74"/>
     <use x="1710.722656" xlink:href="#DejaVuSans-72"/>
     <use x="1751.835938" xlink:href="#DejaVuSans-69"/>
     <use x="1779.619141" xlink:href="#DejaVuSans-62"/>
     <use x="1843.095703" xlink:href="#DejaVuSans-75"/>
     <use x="1906.474609" xlink:href="#DejaVuSans-74"/>
     <use x="1945.683594" xlink:href="#DejaVuSans-69"/>
     <use x="1973.466797" xlink:href="#DejaVuSans-6f"/>
     <use x="2034.648438" xlink:href="#DejaVuSans-6e"/>
    </g>
   </g>
  </g>
 </g>
 <defs>
  <clipPath id="p8bcead4db7">
   <rect height="177.26087" width="334.8" x="54" y="129.6"/>
  </clipPath>
  <clipPath id="pbee32108ab">
   <rect height="177.26087" width="334.8" x="54" y="342.313043"/>
  </clipPath>
  <clipPath id="p15caf76a9f">
   <rect height="177.26087" width="334.8" x="54" y="555.026087"/>
  </clipPath>
  <clipPath id="pcba2f30c2a">
   <rect height="177.26087" width="334.8" x="54" y="767.73913"/>
  </clipPath>
 </defs>
</svg>
