<?xml version="1.0" encoding="utf-8" standalone="no"?>
<!DOCTYPE svg PUBLIC "-//W3C//DTD SVG 1.1//EN"
  "http://www.w3.org/Graphics/SVG/1.1/DTD/svg11.dtd">
<!-- Created with matplotlib (http://matplotlib.org/) -->
<svg height="352.766719pt" version="1.1" viewBox="0 0 852.721406 352.766719" width="852.721406pt" xmlns="http://www.w3.org/2000/svg" xmlns:xlink="http://www.w3.org/1999/xlink">
 <defs>
  <style type="text/css">
*{stroke-linecap:butt;stroke-linejoin:round;}
  </style>
 </defs>
 <g id="figure_1">
  <g id="patch_1">
   <path d="M 0 352.766719 
L 852.721406 352.766719 
L 852.721406 0 
L 0 0 
z
" style="fill:#ffffff;"/>
  </g>
  <g id="axes_1">
   <g id="patch_2">
    <path d="M 74.858906 298.677187 
L 377.108906 298.677187 
L 377.108906 26.877187 
L 74.858906 26.877187 
z
" style="fill:#ffffff;"/>
   </g>
   <g id="matplotlib.axis_1">
    <g id="xtick_1">
     <g id="text_1">
      <!-- 0.00 -->
      <defs>
       <path d="M 31.78125 66.40625 
Q 24.171875 66.40625 20.328125 58.90625 
Q 16.5 51.421875 16.5 36.375 
Q 16.5 21.390625 20.328125 13.890625 
Q 24.171875 6.390625 31.78125 6.390625 
Q 39.453125 6.390625 43.28125 13.890625 
Q 47.125 21.390625 47.125 36.375 
Q 47.125 51.421875 43.28125 58.90625 
Q 39.453125 66.40625 31.78125 66.40625 
z
M 31.78125 74.21875 
Q 44.046875 74.21875 50.515625 64.515625 
Q 56.984375 54.828125 56.984375 36.375 
Q 56.984375 17.96875 50.515625 8.265625 
Q 44.046875 -1.421875 31.78125 -1.421875 
Q 19.53125 -1.421875 13.0625 8.265625 
Q 6.59375 17.96875 6.59375 36.375 
Q 6.59375 54.828125 13.0625 64.515625 
Q 19.53125 74.21875 31.78125 74.21875 
z
" id="DejaVuSans-30"/>
       <path d="M 10.6875 12.40625 
L 21 12.40625 
L 21 0 
L 10.6875 0 
z
" id="DejaVuSans-2e"/>
      </defs>
      <g style="fill:#262626;" transform="translate(84.4157 320.714609)scale(0.165 -0.165)">
       <use xlink:href="#DejaVuSans-30"/>
       <use x="63.623047" xlink:href="#DejaVuSans-2e"/>
       <use x="95.410156" xlink:href="#DejaVuSans-30"/>
       <use x="159.033203" xlink:href="#DejaVuSans-30"/>
      </g>
     </g>
    </g>
    <g id="xtick_2">
     <g id="text_2">
      <!-- 0.25 -->
      <defs>
       <path d="M 19.1875 8.296875 
L 53.609375 8.296875 
L 53.609375 0 
L 7.328125 0 
L 7.328125 8.296875 
Q 12.9375 14.109375 22.625 23.890625 
Q 32.328125 33.6875 34.8125 36.53125 
Q 39.546875 41.84375 41.421875 45.53125 
Q 43.3125 49.21875 43.3125 52.78125 
Q 43.3125 58.59375 39.234375 62.25 
Q 35.15625 65.921875 28.609375 65.921875 
Q 23.96875 65.921875 18.8125 64.3125 
Q 13.671875 62.703125 7.8125 59.421875 
L 7.8125 69.390625 
Q 13.765625 71.78125 18.9375 73 
Q 24.125 74.21875 28.421875 74.21875 
Q 39.75 74.21875 46.484375 68.546875 
Q 53.21875 62.890625 53.21875 53.421875 
Q 53.21875 48.921875 51.53125 44.890625 
Q 49.859375 40.875 45.40625 35.40625 
Q 44.1875 33.984375 37.640625 27.21875 
Q 31.109375 20.453125 19.1875 8.296875 
z
" id="DejaVuSans-32"/>
       <path d="M 10.796875 72.90625 
L 49.515625 72.90625 
L 49.515625 64.59375 
L 19.828125 64.59375 
L 19.828125 46.734375 
Q 21.96875 47.46875 24.109375 47.828125 
Q 26.265625 48.1875 28.421875 48.1875 
Q 40.625 48.1875 47.75 41.5 
Q 54.890625 34.8125 54.890625 23.390625 
Q 54.890625 11.625 47.5625 5.09375 
Q 40.234375 -1.421875 26.90625 -1.421875 
Q 22.3125 -1.421875 17.546875 -0.640625 
Q 12.796875 0.140625 7.71875 1.703125 
L 7.71875 11.625 
Q 12.109375 9.234375 16.796875 8.0625 
Q 21.484375 6.890625 26.703125 6.890625 
Q 35.15625 6.890625 40.078125 11.328125 
Q 45.015625 15.765625 45.015625 23.390625 
Q 45.015625 31 40.078125 35.4375 
Q 35.15625 39.890625 26.703125 39.890625 
Q 22.75 39.890625 18.8125 39.015625 
Q 14.890625 38.140625 10.796875 36.28125 
z
" id="DejaVuSans-35"/>
      </defs>
      <g style="fill:#262626;" transform="translate(147.920373 320.714609)scale(0.165 -0.165)">
       <use xlink:href="#DejaVuSans-30"/>
       <use x="63.623047" xlink:href="#DejaVuSans-2e"/>
       <use x="95.410156" xlink:href="#DejaVuSans-32"/>
       <use x="159.033203" xlink:href="#DejaVuSans-35"/>
      </g>
     </g>
    </g>
    <g id="xtick_3">
     <g id="text_3">
      <!-- 0.50 -->
      <g style="fill:#262626;" transform="translate(211.425046 320.714609)scale(0.165 -0.165)">
       <use xlink:href="#DejaVuSans-30"/>
       <use x="63.623047" xlink:href="#DejaVuSans-2e"/>
       <use x="95.410156" xlink:href="#DejaVuSans-35"/>
       <use x="159.033203" xlink:href="#DejaVuSans-30"/>
      </g>
     </g>
    </g>
    <g id="xtick_4">
     <g id="text_4">
      <!-- 0.75 -->
      <defs>
       <path d="M 8.203125 72.90625 
L 55.078125 72.90625 
L 55.078125 68.703125 
L 28.609375 0 
L 18.3125 0 
L 43.21875 64.59375 
L 8.203125 64.59375 
z
" id="DejaVuSans-37"/>
      </defs>
      <g style="fill:#262626;" transform="translate(274.929719 320.714609)scale(0.165 -0.165)">
       <use xlink:href="#DejaVuSans-30"/>
       <use x="63.623047" xlink:href="#DejaVuSans-2e"/>
       <use x="95.410156" xlink:href="#DejaVuSans-37"/>
       <use x="159.033203" xlink:href="#DejaVuSans-35"/>
      </g>
     </g>
    </g>
    <g id="xtick_5">
     <g id="text_5">
      <!-- 1.00 -->
      <defs>
       <path d="M 12.40625 8.296875 
L 28.515625 8.296875 
L 28.515625 63.921875 
L 10.984375 60.40625 
L 10.984375 69.390625 
L 28.421875 72.90625 
L 38.28125 72.90625 
L 38.28125 8.296875 
L 54.390625 8.296875 
L 54.390625 0 
L 12.40625 0 
z
" id="DejaVuSans-31"/>
      </defs>
      <g style="fill:#262626;" transform="translate(338.434392 320.714609)scale(0.165 -0.165)">
       <use xlink:href="#DejaVuSans-31"/>
       <use x="63.623047" xlink:href="#DejaVuSans-2e"/>
       <use x="95.410156" xlink:href="#DejaVuSans-30"/>
       <use x="159.033203" xlink:href="#DejaVuSans-30"/>
      </g>
     </g>
    </g>
    <g id="text_6">
     <!-- False Positive Rate -->
     <defs>
      <path d="M 9.8125 72.90625 
L 51.703125 72.90625 
L 51.703125 64.59375 
L 19.671875 64.59375 
L 19.671875 43.109375 
L 48.578125 43.109375 
L 48.578125 34.8125 
L 19.671875 34.8125 
L 19.671875 0 
L 9.8125 0 
z
" id="DejaVuSans-46"/>
      <path d="M 34.28125 27.484375 
Q 23.390625 27.484375 19.1875 25 
Q 14.984375 22.515625 14.984375 16.5 
Q 14.984375 11.71875 18.140625 8.90625 
Q 21.296875 6.109375 26.703125 6.109375 
Q 34.1875 6.109375 38.703125 11.40625 
Q 43.21875 16.703125 43.21875 25.484375 
L 43.21875 27.484375 
z
M 52.203125 31.203125 
L 52.203125 0 
L 43.21875 0 
L 43.21875 8.296875 
Q 40.140625 3.328125 35.546875 0.953125 
Q 30.953125 -1.421875 24.3125 -1.421875 
Q 15.921875 -1.421875 10.953125 3.296875 
Q 6 8.015625 6 15.921875 
Q 6 25.140625 12.171875 29.828125 
Q 18.359375 34.515625 30.609375 34.515625 
L 43.21875 34.515625 
L 43.21875 35.40625 
Q 43.21875 41.609375 39.140625 45 
Q 35.0625 48.390625 27.6875 48.390625 
Q 23 48.390625 18.546875 47.265625 
Q 14.109375 46.140625 10.015625 43.890625 
L 10.015625 52.203125 
Q 14.9375 54.109375 19.578125 55.046875 
Q 24.21875 56 28.609375 56 
Q 40.484375 56 46.34375 49.84375 
Q 52.203125 43.703125 52.203125 31.203125 
z
" id="DejaVuSans-61"/>
      <path d="M 9.421875 75.984375 
L 18.40625 75.984375 
L 18.40625 0 
L 9.421875 0 
z
" id="DejaVuSans-6c"/>
      <path d="M 44.28125 53.078125 
L 44.28125 44.578125 
Q 40.484375 46.53125 36.375 47.5 
Q 32.28125 48.484375 27.875 48.484375 
Q 21.1875 48.484375 17.84375 46.4375 
Q 14.5 44.390625 14.5 40.28125 
Q 14.5 37.15625 16.890625 35.375 
Q 19.28125 33.59375 26.515625 31.984375 
L 29.59375 31.296875 
Q 39.15625 29.25 43.1875 25.515625 
Q 47.21875 21.78125 47.21875 15.09375 
Q 47.21875 7.46875 41.1875 3.015625 
Q 35.15625 -1.421875 24.609375 -1.421875 
Q 20.21875 -1.421875 15.453125 -0.5625 
Q 10.6875 0.296875 5.421875 2 
L 5.421875 11.28125 
Q 10.40625 8.6875 15.234375 7.390625 
Q 20.0625 6.109375 24.8125 6.109375 
Q 31.15625 6.109375 34.5625 8.28125 
Q 37.984375 10.453125 37.984375 14.40625 
Q 37.984375 18.0625 35.515625 20.015625 
Q 33.0625 21.96875 24.703125 23.78125 
L 21.578125 24.515625 
Q 13.234375 26.265625 9.515625 29.90625 
Q 5.8125 33.546875 5.8125 39.890625 
Q 5.8125 47.609375 11.28125 51.796875 
Q 16.75 56 26.8125 56 
Q 31.78125 56 36.171875 55.265625 
Q 40.578125 54.546875 44.28125 53.078125 
z
" id="DejaVuSans-73"/>
      <path d="M 56.203125 29.59375 
L 56.203125 25.203125 
L 14.890625 25.203125 
Q 15.484375 15.921875 20.484375 11.0625 
Q 25.484375 6.203125 34.421875 6.203125 
Q 39.59375 6.203125 44.453125 7.46875 
Q 49.3125 8.734375 54.109375 11.28125 
L 54.109375 2.78125 
Q 49.265625 0.734375 44.1875 -0.34375 
Q 39.109375 -1.421875 33.890625 -1.421875 
Q 20.796875 -1.421875 13.15625 6.1875 
Q 5.515625 13.8125 5.515625 26.8125 
Q 5.515625 40.234375 12.765625 48.109375 
Q 20.015625 56 32.328125 56 
Q 43.359375 56 49.78125 48.890625 
Q 56.203125 41.796875 56.203125 29.59375 
z
M 47.21875 32.234375 
Q 47.125 39.59375 43.09375 43.984375 
Q 39.0625 48.390625 32.421875 48.390625 
Q 24.90625 48.390625 20.390625 44.140625 
Q 15.875 39.890625 15.1875 32.171875 
z
" id="DejaVuSans-65"/>
      <path id="DejaVuSans-20"/>
      <path d="M 19.671875 64.796875 
L 19.671875 37.40625 
L 32.078125 37.40625 
Q 38.96875 37.40625 42.71875 40.96875 
Q 46.484375 44.53125 46.484375 51.125 
Q 46.484375 57.671875 42.71875 61.234375 
Q 38.96875 64.796875 32.078125 64.796875 
z
M 9.8125 72.90625 
L 32.078125 72.90625 
Q 44.34375 72.90625 50.609375 67.359375 
Q 56.890625 61.8125 56.890625 51.125 
Q 56.890625 40.328125 50.609375 34.8125 
Q 44.34375 29.296875 32.078125 29.296875 
L 19.671875 29.296875 
L 19.671875 0 
L 9.8125 0 
z
" id="DejaVuSans-50"/>
      <path d="M 30.609375 48.390625 
Q 23.390625 48.390625 19.1875 42.75 
Q 14.984375 37.109375 14.984375 27.296875 
Q 14.984375 17.484375 19.15625 11.84375 
Q 23.34375 6.203125 30.609375 6.203125 
Q 37.796875 6.203125 41.984375 11.859375 
Q 46.1875 17.53125 46.1875 27.296875 
Q 46.1875 37.015625 41.984375 42.703125 
Q 37.796875 48.390625 30.609375 48.390625 
z
M 30.609375 56 
Q 42.328125 56 49.015625 48.375 
Q 55.71875 40.765625 55.71875 27.296875 
Q 55.71875 13.875 49.015625 6.21875 
Q 42.328125 -1.421875 30.609375 -1.421875 
Q 18.84375 -1.421875 12.171875 6.21875 
Q 5.515625 13.875 5.515625 27.296875 
Q 5.515625 40.765625 12.171875 48.375 
Q 18.84375 56 30.609375 56 
z
" id="DejaVuSans-6f"/>
      <path d="M 9.421875 54.6875 
L 18.40625 54.6875 
L 18.40625 0 
L 9.421875 0 
z
M 9.421875 75.984375 
L 18.40625 75.984375 
L 18.40625 64.59375 
L 9.421875 64.59375 
z
" id="DejaVuSans-69"/>
      <path d="M 18.3125 70.21875 
L 18.3125 54.6875 
L 36.8125 54.6875 
L 36.8125 47.703125 
L 18.3125 47.703125 
L 18.3125 18.015625 
Q 18.3125 11.328125 20.140625 9.421875 
Q 21.96875 7.515625 27.59375 7.515625 
L 36.8125 7.515625 
L 36.8125 0 
L 27.59375 0 
Q 17.1875 0 13.234375 3.875 
Q 9.28125 7.765625 9.28125 18.015625 
L 9.28125 47.703125 
L 2.6875 47.703125 
L 2.6875 54.6875 
L 9.28125 54.6875 
L 9.28125 70.21875 
z
" id="DejaVuSans-74"/>
      <path d="M 2.984375 54.6875 
L 12.5 54.6875 
L 29.59375 8.796875 
L 46.6875 54.6875 
L 56.203125 54.6875 
L 35.6875 0 
L 23.484375 0 
z
" id="DejaVuSans-76"/>
      <path d="M 44.390625 34.1875 
Q 47.5625 33.109375 50.5625 29.59375 
Q 53.5625 26.078125 56.59375 19.921875 
L 66.609375 0 
L 56 0 
L 46.6875 18.703125 
Q 43.0625 26.03125 39.671875 28.421875 
Q 36.28125 30.8125 30.421875 30.8125 
L 19.671875 30.8125 
L 19.671875 0 
L 9.8125 0 
L 9.8125 72.90625 
L 32.078125 72.90625 
Q 44.578125 72.90625 50.734375 67.671875 
Q 56.890625 62.453125 56.890625 51.90625 
Q 56.890625 45.015625 53.6875 40.46875 
Q 50.484375 35.9375 44.390625 34.1875 
z
M 19.671875 64.796875 
L 19.671875 38.921875 
L 32.078125 38.921875 
Q 39.203125 38.921875 42.84375 42.21875 
Q 46.484375 45.515625 46.484375 51.90625 
Q 46.484375 58.296875 42.84375 61.546875 
Q 39.203125 64.796875 32.078125 64.796875 
z
" id="DejaVuSans-52"/>
     </defs>
     <g style="fill:#262626;" transform="translate(141.014063 341.823281)scale(0.18 -0.18)">
      <use xlink:href="#DejaVuSans-46"/>
      <use x="57.378906" xlink:href="#DejaVuSans-61"/>
      <use x="118.658203" xlink:href="#DejaVuSans-6c"/>
      <use x="146.441406" xlink:href="#DejaVuSans-73"/>
      <use x="198.541016" xlink:href="#DejaVuSans-65"/>
      <use x="260.064453" xlink:href="#DejaVuSans-20"/>
      <use x="291.851562" xlink:href="#DejaVuSans-50"/>
      <use x="352.107422" xlink:href="#DejaVuSans-6f"/>
      <use x="413.289062" xlink:href="#DejaVuSans-73"/>
      <use x="465.388672" xlink:href="#DejaVuSans-69"/>
      <use x="493.171875" xlink:href="#DejaVuSans-74"/>
      <use x="532.380859" xlink:href="#DejaVuSans-69"/>
      <use x="560.164062" xlink:href="#DejaVuSans-76"/>
      <use x="619.34375" xlink:href="#DejaVuSans-65"/>
      <use x="680.867188" xlink:href="#DejaVuSans-20"/>
      <use x="712.654297" xlink:href="#DejaVuSans-52"/>
      <use x="782.105469" xlink:href="#DejaVuSans-61"/>
      <use x="843.384766" xlink:href="#DejaVuSans-74"/>
      <use x="882.59375" xlink:href="#DejaVuSans-65"/>
     </g>
    </g>
   </g>
   <g id="matplotlib.axis_2">
    <g id="ytick_1">
     <g id="text_7">
      <!-- 0.00 -->
      <g style="fill:#262626;" transform="translate(28.620625 292.244964)scale(0.165 -0.165)">
       <use xlink:href="#DejaVuSans-30"/>
       <use x="63.623047" xlink:href="#DejaVuSans-2e"/>
       <use x="95.410156" xlink:href="#DejaVuSans-30"/>
       <use x="159.033203" xlink:href="#DejaVuSans-30"/>
      </g>
     </g>
    </g>
    <g id="ytick_2">
     <g id="text_8">
      <!-- 0.25 -->
      <g style="fill:#262626;" transform="translate(28.620625 228.740291)scale(0.165 -0.165)">
       <use xlink:href="#DejaVuSans-30"/>
       <use x="63.623047" xlink:href="#DejaVuSans-2e"/>
       <use x="95.410156" xlink:href="#DejaVuSans-32"/>
       <use x="159.033203" xlink:href="#DejaVuSans-35"/>
      </g>
     </g>
    </g>
    <g id="ytick_3">
     <g id="text_9">
      <!-- 0.50 -->
      <g style="fill:#262626;" transform="translate(28.620625 165.235618)scale(0.165 -0.165)">
       <use xlink:href="#DejaVuSans-30"/>
       <use x="63.623047" xlink:href="#DejaVuSans-2e"/>
       <use x="95.410156" xlink:href="#DejaVuSans-35"/>
       <use x="159.033203" xlink:href="#DejaVuSans-30"/>
      </g>
     </g>
    </g>
    <g id="ytick_4">
     <g id="text_10">
      <!-- 0.75 -->
      <g style="fill:#262626;" transform="translate(28.620625 101.730945)scale(0.165 -0.165)">
       <use xlink:href="#DejaVuSans-30"/>
       <use x="63.623047" xlink:href="#DejaVuSans-2e"/>
       <use x="95.410156" xlink:href="#DejaVuSans-37"/>
       <use x="159.033203" xlink:href="#DejaVuSans-35"/>
      </g>
     </g>
    </g>
    <g id="ytick_5">
     <g id="text_11">
      <!-- 1.00 -->
      <g style="fill:#262626;" transform="translate(28.620625 38.226272)scale(0.165 -0.165)">
       <use xlink:href="#DejaVuSans-31"/>
       <use x="63.623047" xlink:href="#DejaVuSans-2e"/>
       <use x="95.410156" xlink:href="#DejaVuSans-30"/>
       <use x="159.033203" xlink:href="#DejaVuSans-30"/>
      </g>
     </g>
    </g>
    <g id="text_12">
     <!-- True Positive Rate -->
     <defs>
      <path d="M -0.296875 72.90625 
L 61.375 72.90625 
L 61.375 64.59375 
L 35.5 64.59375 
L 35.5 0 
L 25.59375 0 
L 25.59375 64.59375 
L -0.296875 64.59375 
z
" id="DejaVuSans-54"/>
      <path d="M 41.109375 46.296875 
Q 39.59375 47.171875 37.8125 47.578125 
Q 36.03125 48 33.890625 48 
Q 26.265625 48 22.1875 43.046875 
Q 18.109375 38.09375 18.109375 28.8125 
L 18.109375 0 
L 9.078125 0 
L 9.078125 54.6875 
L 18.109375 54.6875 
L 18.109375 46.1875 
Q 20.953125 51.171875 25.484375 53.578125 
Q 30.03125 56 36.53125 56 
Q 37.453125 56 38.578125 55.875 
Q 39.703125 55.765625 41.0625 55.515625 
z
" id="DejaVuSans-72"/>
      <path d="M 8.5 21.578125 
L 8.5 54.6875 
L 17.484375 54.6875 
L 17.484375 21.921875 
Q 17.484375 14.15625 20.5 10.265625 
Q 23.53125 6.390625 29.59375 6.390625 
Q 36.859375 6.390625 41.078125 11.03125 
Q 45.3125 15.671875 45.3125 23.6875 
L 45.3125 54.6875 
L 54.296875 54.6875 
L 54.296875 0 
L 45.3125 0 
L 45.3125 8.40625 
Q 42.046875 3.421875 37.71875 1 
Q 33.40625 -1.421875 27.6875 -1.421875 
Q 18.265625 -1.421875 13.375 4.4375 
Q 8.5 10.296875 8.5 21.578125 
z
M 31.109375 56 
z
" id="DejaVuSans-75"/>
     </defs>
     <g style="fill:#262626;" transform="translate(20.877188 244.760156)rotate(-90)scale(0.18 -0.18)">
      <use xlink:href="#DejaVuSans-54"/>
      <use x="60.865234" xlink:href="#DejaVuSans-72"/>
      <use x="101.978516" xlink:href="#DejaVuSans-75"/>
      <use x="165.357422" xlink:href="#DejaVuSans-65"/>
      <use x="226.880859" xlink:href="#DejaVuSans-20"/>
      <use x="258.667969" xlink:href="#DejaVuSans-50"/>
      <use x="318.923828" xlink:href="#DejaVuSans-6f"/>
      <use x="380.105469" xlink:href="#DejaVuSans-73"/>
      <use x="432.205078" xlink:href="#DejaVuSans-69"/>
      <use x="459.988281" xlink:href="#DejaVuSans-74"/>
      <use x="499.197266" xlink:href="#DejaVuSans-69"/>
      <use x="526.980469" xlink:href="#DejaVuSans-76"/>
      <use x="586.160156" xlink:href="#DejaVuSans-65"/>
      <use x="647.683594" xlink:href="#DejaVuSans-20"/>
      <use x="679.470703" xlink:href="#DejaVuSans-52"/>
      <use x="748.921875" xlink:href="#DejaVuSans-61"/>
      <use x="810.201172" xlink:href="#DejaVuSans-74"/>
      <use x="849.410156" xlink:href="#DejaVuSans-65"/>
     </g>
    </g>
   </g>
   <g id="line2d_1">
    <path clip-path="url(#p6f3e2a54a0)" d="M 102.784841 72.325862 
L 105.325028 64.467834 
L 107.865215 61.502565 
L 110.405402 60.114285 
L 112.945588 59.051651 
L 115.485775 57.943155 
L 118.025962 57.123163 
L 120.566149 56.576597 
L 123.106336 55.721257 
L 125.646523 55.066802 
L 128.18671 54.663324 
L 130.726897 54.269839 
L 133.267084 53.788479 
L 135.807271 53.452789 
L 138.347458 53.041609 
L 140.887645 52.708226 
L 143.427831 52.192717 
L 145.968018 51.866514 
L 148.508205 51.439317 
L 151.048392 51.168802 
L 153.588579 50.84137 
L 156.128766 50.499129 
L 158.668953 50.070283 
L 161.20914 49.892469 
L 163.749327 49.609795 
L 166.289514 49.251615 
L 168.829701 49.029238 
L 171.369888 48.778097 
L 173.910074 48.338706 
L 176.450261 48.048482 
L 178.990448 47.817748 
L 181.530635 47.559966 
L 184.070822 47.31702 
L 186.611009 47.051006 
L 189.151196 46.839324 
L 191.691383 46.575959 
L 194.23157 46.398146 
L 196.771757 46.156492 
L 199.311944 45.799563 
L 201.852131 45.564361 
L 204.392317 45.284594 
L 206.932504 45.074214 
L 209.472691 44.87469 
L 212.012878 44.612204 
L 214.553065 44.399111 
L 217.093252 44.177876 
L 219.633439 43.910535 
L 222.173626 43.706262 
L 224.713813 43.438321 
L 227.254 43.238797 
L 229.794187 43.03276 
L 232.334374 42.854946 
L 234.87456 42.627198 
L 237.414747 42.449385 
L 239.954934 42.245112 
L 242.495121 41.968513 
L 245.035308 41.63951 
L 247.575495 41.439986 
L 250.115682 41.262173 
L 252.655869 41.056136 
L 255.196056 40.816229 
L 257.736243 40.529582 
L 260.27643 40.351769 
L 262.816617 40.119678 
L 265.356803 39.858413 
L 267.89699 39.61886 
L 270.437177 39.276114 
L 272.977364 39.098301 
L 275.517551 38.814231 
L 278.057738 38.636418 
L 280.597925 38.458605 
L 283.138112 38.217287 
L 285.678299 38.005605 
L 288.218486 37.804272 
L 290.758673 37.491037 
L 293.29886 37.24468 
L 295.839046 37.031586 
L 298.379233 36.771399 
L 300.91942 36.593586 
L 303.459607 36.365965 
L 305.999794 36.120067 
L 308.539981 35.915794 
L 311.080168 35.737981 
L 313.620355 35.560168 
L 316.160542 35.298678 
L 318.700729 35.088298 
L 321.240916 34.876616 
L 323.781103 34.632527 
L 326.321289 34.42649 
L 328.861476 34.226966 
L 331.401663 34.049153 
L 333.94185 33.87134 
L 336.482037 33.643719 
L 339.022224 33.465906 
L 341.562411 33.160025 
L 344.102598 32.948343 
L 346.642785 32.736661 
L 349.182972 32.491001 
L 351.723159 32.313187 
L 354.263346 32.135374 
L 356.803532 31.957561 
" style="fill:none;stroke:#0e3b59;stroke-linecap:round;stroke-width:2.5;"/>
   </g>
   <g id="line2d_2">
    <path clip-path="url(#p6f3e2a54a0)" d="M 102.784841 276.315461 
L 105.325028 265.020678 
L 107.865215 257.45025 
L 110.405402 250.428242 
L 112.945588 243.206799 
L 115.485775 236.793624 
L 118.025962 232.348961 
L 120.566149 226.273163 
L 123.106336 220.916488 
L 125.646523 215.4054 
L 128.18671 211.087122 
L 130.726897 205.752934 
L 133.267084 201.804417 
L 135.807271 198.272848 
L 138.347458 193.674348 
L 140.887645 189.913442 
L 143.427831 185.029472 
L 145.968018 181.071473 
L 148.508205 177.380098 
L 151.048392 173.86011 
L 153.588579 169.691012 
L 156.128766 166.53396 
L 158.668953 163.841613 
L 161.20914 160.340427 
L 163.749327 157.26616 
L 166.289514 152.728828 
L 168.829701 149.880019 
L 171.369888 146.784188 
L 173.910074 143.766365 
L 176.450261 141.066159 
L 178.990448 138.283076 
L 181.530635 135.988172 
L 184.070822 132.751851 
L 186.611009 130.14619 
L 189.151196 127.421074 
L 191.691383 125.320517 
L 194.23157 123.231489 
L 196.771757 120.512685 
L 199.311944 118.404609 
L 201.852131 116.370683 
L 204.392317 113.48162 
L 206.932504 111.356388 
L 209.472691 109.35161 
L 212.012878 106.845775 
L 214.553065 104.635235 
L 217.093252 102.772126 
L 219.633439 100.517778 
L 222.173626 98.419189 
L 224.713813 96.37497 
L 227.254 94.11839 
L 229.794187 91.901623 
L 232.334374 90.319729 
L 234.87456 88.766035 
L 237.414747 87.343031 
L 239.954934 85.250794 
L 242.495121 83.398324 
L 245.035308 81.534815 
L 247.575495 79.751777 
L 250.115682 77.776278 
L 252.655869 76.450213 
L 255.196056 74.705372 
L 257.736243 73.112075 
L 260.27643 71.859138 
L 262.816617 70.089156 
L 265.356803 68.475122 
L 267.89699 66.762407 
L 270.437177 65.388659 
L 272.977364 63.802317 
L 275.517551 61.908701 
L 278.057738 60.275698 
L 280.597925 59.036465 
L 283.138112 57.663018 
L 285.678299 56.042081 
L 288.218486 54.945481 
L 290.758673 53.661523 
L 293.29886 52.324285 
L 295.839046 50.966317 
L 298.379233 49.847613 
L 300.91942 48.731487 
L 303.459607 47.778131 
L 305.999794 46.637304 
L 308.539981 45.805389 
L 311.080168 45.047511 
L 313.620355 44.07833 
L 316.160542 43.425342 
L 318.700729 42.313494 
L 321.240916 41.57171 
L 323.781103 40.692454 
L 326.321289 39.732651 
L 328.861476 38.945477 
L 331.401663 38.26316 
L 333.94185 37.172923 
L 336.482037 36.636484 
L 339.022224 36.001718 
L 341.562411 35.152129 
L 344.102598 34.740098 
L 346.642785 34.101917 
L 349.182972 33.324765 
L 351.723159 32.768547 
L 354.263346 32.256543 
L 356.803532 31.957561 
" style="fill:none;stroke:#7096a0;stroke-linecap:round;stroke-width:2.5;"/>
   </g>
   <g id="line2d_3">
    <path clip-path="url(#p6f3e2a54a0)" d="M 102.784841 280.582435 
L 105.325028 274.762137 
L 107.865215 270.202639 
L 110.405402 265.245931 
L 112.945588 261.519989 
L 115.485775 257.899668 
L 118.025962 254.042333 
L 120.566149 249.569931 
L 123.106336 245.633979 
L 125.646523 242.130246 
L 128.18671 238.19518 
L 130.726897 233.931666 
L 133.267084 230.05221 
L 135.807271 226.664698 
L 138.347458 222.809543 
L 140.887645 219.24992 
L 143.427831 215.304249 
L 145.968018 212.08733 
L 148.508205 208.107751 
L 151.048392 204.58415 
L 153.588579 200.692703 
L 156.128766 197.389202 
L 158.668953 194.601763 
L 161.20914 191.04216 
L 163.749327 188.027619 
L 166.289514 185.355644 
L 168.829701 183.02453 
L 171.369888 180.0327 
L 173.910074 177.433775 
L 176.450261 173.962998 
L 178.990448 170.989261 
L 181.530635 168.044487 
L 184.070822 165.141982 
L 186.611009 162.796428 
L 189.151196 159.632478 
L 191.691383 156.444105 
L 194.23157 153.433343 
L 196.771757 150.98168 
L 199.311944 147.53819 
L 201.852131 144.798146 
L 204.392317 141.499954 
L 206.932504 138.862531 
L 209.472691 135.864333 
L 212.012878 132.505917 
L 214.553065 129.863326 
L 217.093252 126.683388 
L 219.633439 124.103904 
L 222.173626 121.147658 
L 224.713813 118.763683 
L 227.254 116.127485 
L 229.794187 112.717156 
L 232.334374 110.532066 
L 234.87456 107.957961 
L 237.414747 104.949352 
L 239.954934 102.545202 
L 242.495121 100.054 
L 245.035308 97.20336 
L 247.575495 95.306151 
L 250.115682 93.621426 
L 252.655869 91.004358 
L 255.196056 88.325757 
L 257.736243 86.271615 
L 260.27643 83.782978 
L 262.816617 81.867229 
L 265.356803 79.763445 
L 267.89699 77.978462 
L 270.437177 76.01439 
L 272.977364 74.192599 
L 275.517551 72.027148 
L 278.057738 70.213281 
L 280.597925 67.830166 
L 283.138112 66.192464 
L 285.678299 64.349343 
L 288.218486 62.551962 
L 290.758673 60.690963 
L 293.29886 58.670183 
L 295.839046 57.06689 
L 298.379233 55.83124 
L 300.91942 54.651485 
L 303.459607 52.971966 
L 305.999794 51.163326 
L 308.539981 49.461722 
L 311.080168 47.959632 
L 313.620355 46.582247 
L 316.160542 45.071263 
L 318.700729 43.965227 
L 321.240916 42.833361 
L 323.781103 41.668721 
L 326.321289 40.722294 
L 328.861476 39.718251 
L 331.401663 38.581577 
L 333.94185 37.932552 
L 336.482037 36.944362 
L 339.022224 35.874365 
L 341.562411 34.990851 
L 344.102598 34.434612 
L 346.642785 33.489574 
L 349.182972 33.008185 
L 351.723159 32.454439 
L 354.263346 32.158631 
L 356.803532 31.957561 
" style="fill:none;stroke:#b0b7a7;stroke-linecap:round;stroke-width:2.5;"/>
   </g>
   <g id="line2d_4">
    <path clip-path="url(#p6f3e2a54a0)" d="M 102.784841 285.976253 
L 356.803532 31.957561 
" style="fill:none;stroke:#c44e52;stroke-dasharray:5.55,2.4;stroke-dashoffset:0;stroke-width:1.5;"/>
   </g>
   <g id="patch_3">
    <path d="M 74.858906 298.677187 
L 74.858906 26.877187 
" style="fill:none;stroke:#262626;stroke-linecap:square;stroke-linejoin:miter;stroke-width:1.25;"/>
   </g>
   <g id="patch_4">
    <path d="M 74.858906 298.677187 
L 377.108906 298.677187 
" style="fill:none;stroke:#262626;stroke-linecap:square;stroke-linejoin:miter;stroke-width:1.25;"/>
   </g>
   <g id="text_13">
    <!-- %DEG = 10% -->
    <defs>
     <path d="M 72.703125 32.078125 
Q 68.453125 32.078125 66.03125 28.46875 
Q 63.625 24.859375 63.625 18.40625 
Q 63.625 12.0625 66.03125 8.421875 
Q 68.453125 4.78125 72.703125 4.78125 
Q 76.859375 4.78125 79.265625 8.421875 
Q 81.6875 12.0625 81.6875 18.40625 
Q 81.6875 24.8125 79.265625 28.4375 
Q 76.859375 32.078125 72.703125 32.078125 
z
M 72.703125 38.28125 
Q 80.421875 38.28125 84.953125 32.90625 
Q 89.5 27.546875 89.5 18.40625 
Q 89.5 9.28125 84.9375 3.921875 
Q 80.375 -1.421875 72.703125 -1.421875 
Q 64.890625 -1.421875 60.34375 3.921875 
Q 55.8125 9.28125 55.8125 18.40625 
Q 55.8125 27.59375 60.375 32.9375 
Q 64.9375 38.28125 72.703125 38.28125 
z
M 22.3125 68.015625 
Q 18.109375 68.015625 15.6875 64.375 
Q 13.28125 60.75 13.28125 54.390625 
Q 13.28125 47.953125 15.671875 44.328125 
Q 18.0625 40.71875 22.3125 40.71875 
Q 26.5625 40.71875 28.96875 44.328125 
Q 31.390625 47.953125 31.390625 54.390625 
Q 31.390625 60.6875 28.953125 64.34375 
Q 26.515625 68.015625 22.3125 68.015625 
z
M 66.40625 74.21875 
L 74.21875 74.21875 
L 28.609375 -1.421875 
L 20.796875 -1.421875 
z
M 22.3125 74.21875 
Q 30.03125 74.21875 34.609375 68.875 
Q 39.203125 63.53125 39.203125 54.390625 
Q 39.203125 45.171875 34.640625 39.84375 
Q 30.078125 34.515625 22.3125 34.515625 
Q 14.546875 34.515625 10.03125 39.859375 
Q 5.515625 45.21875 5.515625 54.390625 
Q 5.515625 63.484375 10.046875 68.84375 
Q 14.59375 74.21875 22.3125 74.21875 
z
" id="DejaVuSans-25"/>
     <path d="M 19.671875 64.796875 
L 19.671875 8.109375 
L 31.59375 8.109375 
Q 46.6875 8.109375 53.6875 14.9375 
Q 60.6875 21.78125 60.6875 36.53125 
Q 60.6875 51.171875 53.6875 57.984375 
Q 46.6875 64.796875 31.59375 64.796875 
z
M 9.8125 72.90625 
L 30.078125 72.90625 
Q 51.265625 72.90625 61.171875 64.09375 
Q 71.09375 55.28125 71.09375 36.53125 
Q 71.09375 17.671875 61.125 8.828125 
Q 51.171875 0 30.078125 0 
L 9.8125 0 
z
" id="DejaVuSans-44"/>
     <path d="M 9.8125 72.90625 
L 55.90625 72.90625 
L 55.90625 64.59375 
L 19.671875 64.59375 
L 19.671875 43.015625 
L 54.390625 43.015625 
L 54.390625 34.71875 
L 19.671875 34.71875 
L 19.671875 8.296875 
L 56.78125 8.296875 
L 56.78125 0 
L 9.8125 0 
z
" id="DejaVuSans-45"/>
     <path d="M 59.515625 10.40625 
L 59.515625 29.984375 
L 43.40625 29.984375 
L 43.40625 38.09375 
L 69.28125 38.09375 
L 69.28125 6.78125 
Q 63.578125 2.734375 56.6875 0.65625 
Q 49.8125 -1.421875 42 -1.421875 
Q 24.90625 -1.421875 15.25 8.5625 
Q 5.609375 18.5625 5.609375 36.375 
Q 5.609375 54.25 15.25 64.234375 
Q 24.90625 74.21875 42 74.21875 
Q 49.125 74.21875 55.546875 72.453125 
Q 61.96875 70.703125 67.390625 67.28125 
L 67.390625 56.78125 
Q 61.921875 61.421875 55.765625 63.765625 
Q 49.609375 66.109375 42.828125 66.109375 
Q 29.4375 66.109375 22.71875 58.640625 
Q 16.015625 51.171875 16.015625 36.375 
Q 16.015625 21.625 22.71875 14.15625 
Q 29.4375 6.6875 42.828125 6.6875 
Q 48.046875 6.6875 52.140625 7.59375 
Q 56.25 8.5 59.515625 10.40625 
z
" id="DejaVuSans-47"/>
     <path d="M 10.59375 45.40625 
L 73.1875 45.40625 
L 73.1875 37.203125 
L 10.59375 37.203125 
z
M 10.59375 25.484375 
L 73.1875 25.484375 
L 73.1875 17.1875 
L 10.59375 17.1875 
z
" id="DejaVuSans-3d"/>
    </defs>
    <g style="fill:#262626;" transform="translate(164.575781 20.877187)scale(0.18 -0.18)">
     <use xlink:href="#DejaVuSans-25"/>
     <use x="95.019531" xlink:href="#DejaVuSans-44"/>
     <use x="172.021484" xlink:href="#DejaVuSans-45"/>
     <use x="235.205078" xlink:href="#DejaVuSans-47"/>
     <use x="312.695312" xlink:href="#DejaVuSans-20"/>
     <use x="344.482422" xlink:href="#DejaVuSans-3d"/>
     <use x="428.271484" xlink:href="#DejaVuSans-20"/>
     <use x="460.058594" xlink:href="#DejaVuSans-31"/>
     <use x="523.681641" xlink:href="#DejaVuSans-30"/>
     <use x="587.304688" xlink:href="#DejaVuSans-25"/>
    </g>
   </g>
   <g id="legend_1">
    <g id="text_14">
     <!-- Method -->
     <defs>
      <path d="M 9.8125 72.90625 
L 24.515625 72.90625 
L 43.109375 23.296875 
L 61.8125 72.90625 
L 76.515625 72.90625 
L 76.515625 0 
L 66.890625 0 
L 66.890625 64.015625 
L 48.09375 14.015625 
L 38.1875 14.015625 
L 19.390625 64.015625 
L 19.390625 0 
L 9.8125 0 
z
" id="DejaVuSans-4d"/>
      <path d="M 54.890625 33.015625 
L 54.890625 0 
L 45.90625 0 
L 45.90625 32.71875 
Q 45.90625 40.484375 42.875 44.328125 
Q 39.84375 48.1875 33.796875 48.1875 
Q 26.515625 48.1875 22.3125 43.546875 
Q 18.109375 38.921875 18.109375 30.90625 
L 18.109375 0 
L 9.078125 0 
L 9.078125 75.984375 
L 18.109375 75.984375 
L 18.109375 46.1875 
Q 21.34375 51.125 25.703125 53.5625 
Q 30.078125 56 35.796875 56 
Q 45.21875 56 50.046875 50.171875 
Q 54.890625 44.34375 54.890625 33.015625 
z
" id="DejaVuSans-68"/>
      <path d="M 45.40625 46.390625 
L 45.40625 75.984375 
L 54.390625 75.984375 
L 54.390625 0 
L 45.40625 0 
L 45.40625 8.203125 
Q 42.578125 3.328125 38.25 0.953125 
Q 33.9375 -1.421875 27.875 -1.421875 
Q 17.96875 -1.421875 11.734375 6.484375 
Q 5.515625 14.40625 5.515625 27.296875 
Q 5.515625 40.1875 11.734375 48.09375 
Q 17.96875 56 27.875 56 
Q 33.9375 56 38.25 53.625 
Q 42.578125 51.265625 45.40625 46.390625 
z
M 14.796875 27.296875 
Q 14.796875 17.390625 18.875 11.75 
Q 22.953125 6.109375 30.078125 6.109375 
Q 37.203125 6.109375 41.296875 11.75 
Q 45.40625 17.390625 45.40625 27.296875 
Q 45.40625 37.203125 41.296875 42.84375 
Q 37.203125 48.484375 30.078125 48.484375 
Q 22.953125 48.484375 18.875 42.84375 
Q 14.796875 37.203125 14.796875 27.296875 
z
" id="DejaVuSans-64"/>
     </defs>
     <g style="fill:#262626;" transform="translate(271.878281 204.894375)scale(0.18 -0.18)">
      <use xlink:href="#DejaVuSans-4d"/>
      <use x="86.279297" xlink:href="#DejaVuSans-65"/>
      <use x="147.802734" xlink:href="#DejaVuSans-74"/>
      <use x="187.011719" xlink:href="#DejaVuSans-68"/>
      <use x="250.390625" xlink:href="#DejaVuSans-6f"/>
      <use x="311.572266" xlink:href="#DejaVuSans-64"/>
     </g>
    </g>
    <g id="line2d_5">
     <path d="M 195.496406 223.652812 
L 228.496406 223.652812 
" style="fill:none;stroke:#0e3b59;stroke-linecap:round;stroke-width:2.5;"/>
    </g>
    <g id="line2d_6"/>
    <g id="text_15">
     <!-- Hydra ($0.91 \pm 0.03$) -->
     <defs>
      <path d="M 9.8125 72.90625 
L 19.671875 72.90625 
L 19.671875 43.015625 
L 55.515625 43.015625 
L 55.515625 72.90625 
L 65.375 72.90625 
L 65.375 0 
L 55.515625 0 
L 55.515625 34.71875 
L 19.671875 34.71875 
L 19.671875 0 
L 9.8125 0 
z
" id="DejaVuSans-48"/>
      <path d="M 32.171875 -5.078125 
Q 28.375 -14.84375 24.75 -17.8125 
Q 21.140625 -20.796875 15.09375 -20.796875 
L 7.90625 -20.796875 
L 7.90625 -13.28125 
L 13.1875 -13.28125 
Q 16.890625 -13.28125 18.9375 -11.515625 
Q 21 -9.765625 23.484375 -3.21875 
L 25.09375 0.875 
L 2.984375 54.6875 
L 12.5 54.6875 
L 29.59375 11.921875 
L 46.6875 54.6875 
L 56.203125 54.6875 
z
" id="DejaVuSans-79"/>
      <path d="M 31 75.875 
Q 24.46875 64.65625 21.28125 53.65625 
Q 18.109375 42.671875 18.109375 31.390625 
Q 18.109375 20.125 21.3125 9.0625 
Q 24.515625 -2 31 -13.1875 
L 23.1875 -13.1875 
Q 15.875 -1.703125 12.234375 9.375 
Q 8.59375 20.453125 8.59375 31.390625 
Q 8.59375 42.28125 12.203125 53.3125 
Q 15.828125 64.359375 23.1875 75.875 
z
" id="DejaVuSans-28"/>
      <path d="M 10.984375 1.515625 
L 10.984375 10.5 
Q 14.703125 8.734375 18.5 7.8125 
Q 22.3125 6.890625 25.984375 6.890625 
Q 35.75 6.890625 40.890625 13.453125 
Q 46.046875 20.015625 46.78125 33.40625 
Q 43.953125 29.203125 39.59375 26.953125 
Q 35.25 24.703125 29.984375 24.703125 
Q 19.046875 24.703125 12.671875 31.3125 
Q 6.296875 37.9375 6.296875 49.421875 
Q 6.296875 60.640625 12.9375 67.421875 
Q 19.578125 74.21875 30.609375 74.21875 
Q 43.265625 74.21875 49.921875 64.515625 
Q 56.59375 54.828125 56.59375 36.375 
Q 56.59375 19.140625 48.40625 8.859375 
Q 40.234375 -1.421875 26.421875 -1.421875 
Q 22.703125 -1.421875 18.890625 -0.6875 
Q 15.09375 0.046875 10.984375 1.515625 
z
M 30.609375 32.421875 
Q 37.25 32.421875 41.125 36.953125 
Q 45.015625 41.5 45.015625 49.421875 
Q 45.015625 57.28125 41.125 61.84375 
Q 37.25 66.40625 30.609375 66.40625 
Q 23.96875 66.40625 20.09375 61.84375 
Q 16.21875 57.28125 16.21875 49.421875 
Q 16.21875 41.5 20.09375 36.953125 
Q 23.96875 32.421875 30.609375 32.421875 
z
" id="DejaVuSans-39"/>
      <path d="M 46 62.703125 
L 46 43.796875 
L 73.1875 43.796875 
L 73.1875 35.5 
L 46 35.5 
L 46 16.609375 
L 37.796875 16.609375 
L 37.796875 35.5 
L 10.59375 35.5 
L 10.59375 43.796875 
L 37.796875 43.796875 
L 37.796875 62.703125 
z
M 10.59375 8.296875 
L 73.1875 8.296875 
L 73.1875 0 
L 10.59375 0 
z
" id="DejaVuSans-b1"/>
      <path d="M 40.578125 39.3125 
Q 47.65625 37.796875 51.625 33 
Q 55.609375 28.21875 55.609375 21.1875 
Q 55.609375 10.40625 48.1875 4.484375 
Q 40.765625 -1.421875 27.09375 -1.421875 
Q 22.515625 -1.421875 17.65625 -0.515625 
Q 12.796875 0.390625 7.625 2.203125 
L 7.625 11.71875 
Q 11.71875 9.328125 16.59375 8.109375 
Q 21.484375 6.890625 26.8125 6.890625 
Q 36.078125 6.890625 40.9375 10.546875 
Q 45.796875 14.203125 45.796875 21.1875 
Q 45.796875 27.640625 41.28125 31.265625 
Q 36.765625 34.90625 28.71875 34.90625 
L 20.21875 34.90625 
L 20.21875 43.015625 
L 29.109375 43.015625 
Q 36.375 43.015625 40.234375 45.921875 
Q 44.09375 48.828125 44.09375 54.296875 
Q 44.09375 59.90625 40.109375 62.90625 
Q 36.140625 65.921875 28.71875 65.921875 
Q 24.65625 65.921875 20.015625 65.03125 
Q 15.375 64.15625 9.8125 62.3125 
L 9.8125 71.09375 
Q 15.4375 72.65625 20.34375 73.4375 
Q 25.25 74.21875 29.59375 74.21875 
Q 40.828125 74.21875 47.359375 69.109375 
Q 53.90625 64.015625 53.90625 55.328125 
Q 53.90625 49.265625 50.4375 45.09375 
Q 46.96875 40.921875 40.578125 39.3125 
z
" id="DejaVuSans-33"/>
      <path d="M 8.015625 75.875 
L 15.828125 75.875 
Q 23.140625 64.359375 26.78125 53.3125 
Q 30.421875 42.28125 30.421875 31.390625 
Q 30.421875 20.453125 26.78125 9.375 
Q 23.140625 -1.703125 15.828125 -13.1875 
L 8.015625 -13.1875 
Q 14.5 -2 17.703125 9.0625 
Q 20.90625 20.125 20.90625 31.390625 
Q 20.90625 42.671875 17.703125 53.65625 
Q 14.5 64.65625 8.015625 75.875 
z
" id="DejaVuSans-29"/>
     </defs>
     <g style="fill:#262626;" transform="translate(241.696406 229.427812)scale(0.165 -0.165)">
      <use transform="translate(0 0.015625)" xlink:href="#DejaVuSans-48"/>
      <use transform="translate(75.195312 0.015625)" xlink:href="#DejaVuSans-79"/>
      <use transform="translate(134.375 0.015625)" xlink:href="#DejaVuSans-64"/>
      <use transform="translate(197.851562 0.015625)" xlink:href="#DejaVuSans-72"/>
      <use transform="translate(238.964844 0.015625)" xlink:href="#DejaVuSans-61"/>
      <use transform="translate(300.244141 0.015625)" xlink:href="#DejaVuSans-20"/>
      <use transform="translate(332.03125 0.015625)" xlink:href="#DejaVuSans-28"/>
      <use transform="translate(371.044922 0.015625)" xlink:href="#DejaVuSans-30"/>
      <use transform="translate(434.667969 0.015625)" xlink:href="#DejaVuSans-2e"/>
      <use transform="translate(466.455078 0.015625)" xlink:href="#DejaVuSans-39"/>
      <use transform="translate(530.078125 0.015625)" xlink:href="#DejaVuSans-31"/>
      <use transform="translate(613.183594 0.015625)" xlink:href="#DejaVuSans-b1"/>
      <use transform="translate(716.455078 0.015625)" xlink:href="#DejaVuSans-30"/>
      <use transform="translate(780.078125 0.015625)" xlink:href="#DejaVuSans-2e"/>
      <use transform="translate(811.865234 0.015625)" xlink:href="#DejaVuSans-30"/>
      <use transform="translate(875.488281 0.015625)" xlink:href="#DejaVuSans-33"/>
      <use transform="translate(939.111328 0.015625)" xlink:href="#DejaVuSans-29"/>
     </g>
    </g>
    <g id="line2d_7">
     <path d="M 195.496406 247.905234 
L 228.496406 247.905234 
" style="fill:none;stroke:#7096a0;stroke-linecap:round;stroke-width:2.5;"/>
    </g>
    <g id="line2d_8"/>
    <g id="text_16">
     <!-- ssGSEA ($0.65 \pm 0.02$) -->
     <defs>
      <path d="M 53.515625 70.515625 
L 53.515625 60.890625 
Q 47.90625 63.578125 42.921875 64.890625 
Q 37.9375 66.21875 33.296875 66.21875 
Q 25.25 66.21875 20.875 63.09375 
Q 16.5 59.96875 16.5 54.203125 
Q 16.5 49.359375 19.40625 46.890625 
Q 22.3125 44.4375 30.421875 42.921875 
L 36.375 41.703125 
Q 47.40625 39.59375 52.65625 34.296875 
Q 57.90625 29 57.90625 20.125 
Q 57.90625 9.515625 50.796875 4.046875 
Q 43.703125 -1.421875 29.984375 -1.421875 
Q 24.8125 -1.421875 18.96875 -0.25 
Q 13.140625 0.921875 6.890625 3.21875 
L 6.890625 13.375 
Q 12.890625 10.015625 18.65625 8.296875 
Q 24.421875 6.59375 29.984375 6.59375 
Q 38.421875 6.59375 43.015625 9.90625 
Q 47.609375 13.234375 47.609375 19.390625 
Q 47.609375 24.75 44.3125 27.78125 
Q 41.015625 30.8125 33.5 32.328125 
L 27.484375 33.5 
Q 16.453125 35.6875 11.515625 40.375 
Q 6.59375 45.0625 6.59375 53.421875 
Q 6.59375 63.09375 13.40625 68.65625 
Q 20.21875 74.21875 32.171875 74.21875 
Q 37.3125 74.21875 42.625 73.28125 
Q 47.953125 72.359375 53.515625 70.515625 
z
" id="DejaVuSans-53"/>
      <path d="M 34.1875 63.1875 
L 20.796875 26.90625 
L 47.609375 26.90625 
z
M 28.609375 72.90625 
L 39.796875 72.90625 
L 67.578125 0 
L 57.328125 0 
L 50.6875 18.703125 
L 17.828125 18.703125 
L 11.1875 0 
L 0.78125 0 
z
" id="DejaVuSans-41"/>
      <path d="M 33.015625 40.375 
Q 26.375 40.375 22.484375 35.828125 
Q 18.609375 31.296875 18.609375 23.390625 
Q 18.609375 15.53125 22.484375 10.953125 
Q 26.375 6.390625 33.015625 6.390625 
Q 39.65625 6.390625 43.53125 10.953125 
Q 47.40625 15.53125 47.40625 23.390625 
Q 47.40625 31.296875 43.53125 35.828125 
Q 39.65625 40.375 33.015625 40.375 
z
M 52.59375 71.296875 
L 52.59375 62.3125 
Q 48.875 64.0625 45.09375 64.984375 
Q 41.3125 65.921875 37.59375 65.921875 
Q 27.828125 65.921875 22.671875 59.328125 
Q 17.53125 52.734375 16.796875 39.40625 
Q 19.671875 43.65625 24.015625 45.921875 
Q 28.375 48.1875 33.59375 48.1875 
Q 44.578125 48.1875 50.953125 41.515625 
Q 57.328125 34.859375 57.328125 23.390625 
Q 57.328125 12.15625 50.6875 5.359375 
Q 44.046875 -1.421875 33.015625 -1.421875 
Q 20.359375 -1.421875 13.671875 8.265625 
Q 6.984375 17.96875 6.984375 36.375 
Q 6.984375 53.65625 15.1875 63.9375 
Q 23.390625 74.21875 37.203125 74.21875 
Q 40.921875 74.21875 44.703125 73.484375 
Q 48.484375 72.75 52.59375 71.296875 
z
" id="DejaVuSans-36"/>
     </defs>
     <g style="fill:#262626;" transform="translate(241.696406 253.680234)scale(0.165 -0.165)">
      <use transform="translate(0 0.125)" xlink:href="#DejaVuSans-73"/>
      <use transform="translate(52.099609 0.125)" xlink:href="#DejaVuSans-73"/>
      <use transform="translate(104.199219 0.125)" xlink:href="#DejaVuSans-47"/>
      <use transform="translate(181.689453 0.125)" xlink:href="#DejaVuSans-53"/>
      <use transform="translate(245.166016 0.125)" xlink:href="#DejaVuSans-45"/>
      <use transform="translate(308.349609 0.125)" xlink:href="#DejaVuSans-41"/>
      <use transform="translate(376.757812 0.125)" xlink:href="#DejaVuSans-20"/>
      <use transform="translate(408.544922 0.125)" xlink:href="#DejaVuSans-28"/>
      <use transform="translate(447.558594 0.125)" xlink:href="#DejaVuSans-30"/>
      <use transform="translate(511.181641 0.125)" xlink:href="#DejaVuSans-2e"/>
      <use transform="translate(542.96875 0.125)" xlink:href="#DejaVuSans-36"/>
      <use transform="translate(606.591797 0.125)" xlink:href="#DejaVuSans-35"/>
      <use transform="translate(689.697266 0.125)" xlink:href="#DejaVuSans-b1"/>
      <use transform="translate(792.96875 0.125)" xlink:href="#DejaVuSans-30"/>
      <use transform="translate(856.591797 0.125)" xlink:href="#DejaVuSans-2e"/>
      <use transform="translate(888.378906 0.125)" xlink:href="#DejaVuSans-30"/>
      <use transform="translate(952.001953 0.125)" xlink:href="#DejaVuSans-32"/>
      <use transform="translate(1015.625 0.125)" xlink:href="#DejaVuSans-29"/>
     </g>
    </g>
    <g id="line2d_9">
     <path d="M 195.496406 272.124141 
L 228.496406 272.124141 
" style="fill:none;stroke:#b0b7a7;stroke-linecap:round;stroke-width:2.5;"/>
    </g>
    <g id="line2d_10"/>
    <g id="text_17">
     <!-- GSVA ($0.60 \pm 0.01$) -->
     <defs>
      <path d="M 28.609375 0 
L 0.78125 72.90625 
L 11.078125 72.90625 
L 34.1875 11.53125 
L 57.328125 72.90625 
L 67.578125 72.90625 
L 39.796875 0 
z
" id="DejaVuSans-56"/>
     </defs>
     <g style="fill:#262626;" transform="translate(241.696406 277.899141)scale(0.165 -0.165)">
      <use transform="translate(0 0.125)" xlink:href="#DejaVuSans-47"/>
      <use transform="translate(77.490234 0.125)" xlink:href="#DejaVuSans-53"/>
      <use transform="translate(140.966797 0.125)" xlink:href="#DejaVuSans-56"/>
      <use transform="translate(209.375 0.125)" xlink:href="#DejaVuSans-41"/>
      <use transform="translate(277.783203 0.125)" xlink:href="#DejaVuSans-20"/>
      <use transform="translate(309.570312 0.125)" xlink:href="#DejaVuSans-28"/>
      <use transform="translate(348.583984 0.125)" xlink:href="#DejaVuSans-30"/>
      <use transform="translate(412.207031 0.125)" xlink:href="#DejaVuSans-2e"/>
      <use transform="translate(443.994141 0.125)" xlink:href="#DejaVuSans-36"/>
      <use transform="translate(507.617188 0.125)" xlink:href="#DejaVuSans-30"/>
      <use transform="translate(590.722656 0.125)" xlink:href="#DejaVuSans-b1"/>
      <use transform="translate(693.994141 0.125)" xlink:href="#DejaVuSans-30"/>
      <use transform="translate(757.617188 0.125)" xlink:href="#DejaVuSans-2e"/>
      <use transform="translate(789.404297 0.125)" xlink:href="#DejaVuSans-30"/>
      <use transform="translate(853.027344 0.125)" xlink:href="#DejaVuSans-31"/>
      <use transform="translate(916.650391 0.125)" xlink:href="#DejaVuSans-29"/>
     </g>
    </g>
   </g>
  </g>
  <g id="axes_2">
   <g id="patch_5">
    <path d="M 498.008906 298.677187 
L 800.258906 298.677187 
L 800.258906 26.877187 
L 498.008906 26.877187 
z
" style="fill:#ffffff;"/>
   </g>
   <g id="matplotlib.axis_3">
    <g id="xtick_6">
     <g id="text_18">
      <!-- 0.00 -->
      <g style="fill:#262626;" transform="translate(507.5657 320.714609)scale(0.165 -0.165)">
       <use xlink:href="#DejaVuSans-30"/>
       <use x="63.623047" xlink:href="#DejaVuSans-2e"/>
       <use x="95.410156" xlink:href="#DejaVuSans-30"/>
       <use x="159.033203" xlink:href="#DejaVuSans-30"/>
      </g>
     </g>
    </g>
    <g id="xtick_7">
     <g id="text_19">
      <!-- 0.25 -->
      <g style="fill:#262626;" transform="translate(571.070373 320.714609)scale(0.165 -0.165)">
       <use xlink:href="#DejaVuSans-30"/>
       <use x="63.623047" xlink:href="#DejaVuSans-2e"/>
       <use x="95.410156" xlink:href="#DejaVuSans-32"/>
       <use x="159.033203" xlink:href="#DejaVuSans-35"/>
      </g>
     </g>
    </g>
    <g id="xtick_8">
     <g id="text_20">
      <!-- 0.50 -->
      <g style="fill:#262626;" transform="translate(634.575046 320.714609)scale(0.165 -0.165)">
       <use xlink:href="#DejaVuSans-30"/>
       <use x="63.623047" xlink:href="#DejaVuSans-2e"/>
       <use x="95.410156" xlink:href="#DejaVuSans-35"/>
       <use x="159.033203" xlink:href="#DejaVuSans-30"/>
      </g>
     </g>
    </g>
    <g id="xtick_9">
     <g id="text_21">
      <!-- 0.75 -->
      <g style="fill:#262626;" transform="translate(698.079719 320.714609)scale(0.165 -0.165)">
       <use xlink:href="#DejaVuSans-30"/>
       <use x="63.623047" xlink:href="#DejaVuSans-2e"/>
       <use x="95.410156" xlink:href="#DejaVuSans-37"/>
       <use x="159.033203" xlink:href="#DejaVuSans-35"/>
      </g>
     </g>
    </g>
    <g id="xtick_10">
     <g id="text_22">
      <!-- 1.00 -->
      <g style="fill:#262626;" transform="translate(761.584392 320.714609)scale(0.165 -0.165)">
       <use xlink:href="#DejaVuSans-31"/>
       <use x="63.623047" xlink:href="#DejaVuSans-2e"/>
       <use x="95.410156" xlink:href="#DejaVuSans-30"/>
       <use x="159.033203" xlink:href="#DejaVuSans-30"/>
      </g>
     </g>
    </g>
    <g id="text_23">
     <!-- False Positive Rate -->
     <g style="fill:#262626;" transform="translate(564.164063 341.823281)scale(0.18 -0.18)">
      <use xlink:href="#DejaVuSans-46"/>
      <use x="57.378906" xlink:href="#DejaVuSans-61"/>
      <use x="118.658203" xlink:href="#DejaVuSans-6c"/>
      <use x="146.441406" xlink:href="#DejaVuSans-73"/>
      <use x="198.541016" xlink:href="#DejaVuSans-65"/>
      <use x="260.064453" xlink:href="#DejaVuSans-20"/>
      <use x="291.851562" xlink:href="#DejaVuSans-50"/>
      <use x="352.107422" xlink:href="#DejaVuSans-6f"/>
      <use x="413.289062" xlink:href="#DejaVuSans-73"/>
      <use x="465.388672" xlink:href="#DejaVuSans-69"/>
      <use x="493.171875" xlink:href="#DejaVuSans-74"/>
      <use x="532.380859" xlink:href="#DejaVuSans-69"/>
      <use x="560.164062" xlink:href="#DejaVuSans-76"/>
      <use x="619.34375" xlink:href="#DejaVuSans-65"/>
      <use x="680.867188" xlink:href="#DejaVuSans-20"/>
      <use x="712.654297" xlink:href="#DejaVuSans-52"/>
      <use x="782.105469" xlink:href="#DejaVuSans-61"/>
      <use x="843.384766" xlink:href="#DejaVuSans-74"/>
      <use x="882.59375" xlink:href="#DejaVuSans-65"/>
     </g>
    </g>
   </g>
   <g id="matplotlib.axis_4">
    <g id="ytick_6">
     <g id="text_24">
      <!-- 0.00 -->
      <g style="fill:#262626;" transform="translate(451.770625 292.244964)scale(0.165 -0.165)">
       <use xlink:href="#DejaVuSans-30"/>
       <use x="63.623047" xlink:href="#DejaVuSans-2e"/>
       <use x="95.410156" xlink:href="#DejaVuSans-30"/>
       <use x="159.033203" xlink:href="#DejaVuSans-30"/>
      </g>
     </g>
    </g>
    <g id="ytick_7">
     <g id="text_25">
      <!-- 0.25 -->
      <g style="fill:#262626;" transform="translate(451.770625 228.740291)scale(0.165 -0.165)">
       <use xlink:href="#DejaVuSans-30"/>
       <use x="63.623047" xlink:href="#DejaVuSans-2e"/>
       <use x="95.410156" xlink:href="#DejaVuSans-32"/>
       <use x="159.033203" xlink:href="#DejaVuSans-35"/>
      </g>
     </g>
    </g>
    <g id="ytick_8">
     <g id="text_26">
      <!-- 0.50 -->
      <g style="fill:#262626;" transform="translate(451.770625 165.235618)scale(0.165 -0.165)">
       <use xlink:href="#DejaVuSans-30"/>
       <use x="63.623047" xlink:href="#DejaVuSans-2e"/>
       <use x="95.410156" xlink:href="#DejaVuSans-35"/>
       <use x="159.033203" xlink:href="#DejaVuSans-30"/>
      </g>
     </g>
    </g>
    <g id="ytick_9">
     <g id="text_27">
      <!-- 0.75 -->
      <g style="fill:#262626;" transform="translate(451.770625 101.730945)scale(0.165 -0.165)">
       <use xlink:href="#DejaVuSans-30"/>
       <use x="63.623047" xlink:href="#DejaVuSans-2e"/>
       <use x="95.410156" xlink:href="#DejaVuSans-37"/>
       <use x="159.033203" xlink:href="#DejaVuSans-35"/>
      </g>
     </g>
    </g>
    <g id="ytick_10">
     <g id="text_28">
      <!-- 1.00 -->
      <g style="fill:#262626;" transform="translate(451.770625 38.226272)scale(0.165 -0.165)">
       <use xlink:href="#DejaVuSans-31"/>
       <use x="63.623047" xlink:href="#DejaVuSans-2e"/>
       <use x="95.410156" xlink:href="#DejaVuSans-30"/>
       <use x="159.033203" xlink:href="#DejaVuSans-30"/>
      </g>
     </g>
    </g>
    <g id="text_29">
     <!-- True Positive Rate -->
     <g style="fill:#262626;" transform="translate(444.027188 244.760156)rotate(-90)scale(0.18 -0.18)">
      <use xlink:href="#DejaVuSans-54"/>
      <use x="60.865234" xlink:href="#DejaVuSans-72"/>
      <use x="101.978516" xlink:href="#DejaVuSans-75"/>
      <use x="165.357422" xlink:href="#DejaVuSans-65"/>
      <use x="226.880859" xlink:href="#DejaVuSans-20"/>
      <use x="258.667969" xlink:href="#DejaVuSans-50"/>
      <use x="318.923828" xlink:href="#DejaVuSans-6f"/>
      <use x="380.105469" xlink:href="#DejaVuSans-73"/>
      <use x="432.205078" xlink:href="#DejaVuSans-69"/>
      <use x="459.988281" xlink:href="#DejaVuSans-74"/>
      <use x="499.197266" xlink:href="#DejaVuSans-69"/>
      <use x="526.980469" xlink:href="#DejaVuSans-76"/>
      <use x="586.160156" xlink:href="#DejaVuSans-65"/>
      <use x="647.683594" xlink:href="#DejaVuSans-20"/>
      <use x="679.470703" xlink:href="#DejaVuSans-52"/>
      <use x="748.921875" xlink:href="#DejaVuSans-61"/>
      <use x="810.201172" xlink:href="#DejaVuSans-74"/>
      <use x="849.410156" xlink:href="#DejaVuSans-65"/>
     </g>
    </g>
   </g>
   <g id="line2d_11">
    <path clip-path="url(#pf9a17aa169)" d="M 525.934841 41.504317 
L 528.475028 38.979805 
L 531.015215 37.570738 
L 533.555402 37.072819 
L 536.095588 36.811956 
L 538.635775 36.398638 
L 541.175962 36.013741 
L 543.716149 35.900262 
L 546.256336 35.68823 
L 548.796523 35.550637 
L 551.33671 35.372999 
L 553.876897 35.243931 
L 556.417084 35.215706 
L 558.957271 35.184346 
L 561.497458 35.066142 
L 564.037645 34.966527 
L 566.577831 34.854525 
L 569.118018 34.854525 
L 571.658205 34.663038 
L 574.198392 34.59152 
L 576.738579 34.59152 
L 579.278766 34.413606 
L 581.818953 34.338974 
L 584.35914 34.338974 
L 586.899327 34.31075 
L 589.439514 34.248718 
L 591.979701 34.248718 
L 594.519888 33.970891 
L 597.060074 33.921083 
L 599.600261 33.85595 
L 602.140448 33.746112 
L 604.680635 33.696177 
L 607.220822 33.674466 
L 609.761009 33.674466 
L 612.301196 33.652755 
L 614.841383 33.631044 
L 617.38157 33.631044 
L 619.921757 33.578123 
L 622.461944 33.556412 
L 625.002131 33.484894 
L 627.542317 33.441472 
L 630.082504 33.369953 
L 632.622691 33.348242 
L 635.162878 33.307922 
L 637.703065 33.226777 
L 640.243252 33.226777 
L 642.783439 33.183355 
L 645.323626 33.133547 
L 647.863813 33.062029 
L 650.404 33.012221 
L 652.944187 32.99051 
L 655.484374 32.99051 
L 658.02456 32.99051 
L 660.564747 32.99051 
L 663.104934 32.940702 
L 665.645121 32.918991 
L 668.185308 32.918991 
L 670.725495 32.866071 
L 673.265682 32.866071 
L 675.805869 32.866071 
L 678.346056 32.866071 
L 680.886243 32.866071 
L 683.42643 32.791439 
L 685.966617 32.791439 
L 688.506803 32.769728 
L 691.04699 32.769728 
L 693.587177 32.69821 
L 696.127364 32.676499 
L 698.667551 32.601867 
L 701.207738 32.601867 
L 703.747925 32.55206 
L 706.288112 32.55206 
L 708.828299 32.55206 
L 711.368486 32.55206 
L 713.908673 32.530349 
L 716.44886 32.530349 
L 718.989046 32.530349 
L 721.529233 32.530349 
L 724.06942 32.530349 
L 726.609607 32.530349 
L 729.149794 32.530349 
L 731.689981 32.530349 
L 734.230168 32.530349 
L 736.770355 32.530349 
L 739.310542 32.530349 
L 741.850729 32.530349 
L 744.390916 32.480541 
L 746.931103 32.480541 
L 749.471289 32.480541 
L 752.011476 32.430733 
L 754.551663 32.430733 
L 757.09185 32.430733 
L 759.632037 32.430733 
L 762.172224 32.430733 
L 764.712411 32.328005 
L 767.252598 32.275085 
L 769.792785 32.275085 
L 772.332972 32.222164 
L 774.873159 32.222164 
L 777.413346 32.169244 
L 779.953532 31.957561 
" style="fill:none;stroke:#0e3b59;stroke-linecap:round;stroke-width:2.5;"/>
   </g>
   <g id="line2d_12">
    <path clip-path="url(#pf9a17aa169)" d="M 525.934841 218.665763 
L 528.475028 190.928755 
L 531.015215 174.560255 
L 533.555402 163.261066 
L 536.095588 152.732771 
L 538.635775 144.289768 
L 541.175962 137.996808 
L 543.716149 131.50389 
L 546.256336 125.874611 
L 548.796523 121.369028 
L 551.33671 116.361153 
L 553.876897 111.9889 
L 556.417084 108.893442 
L 558.957271 105.314054 
L 561.497458 101.981812 
L 564.037645 98.827109 
L 566.577831 96.019446 
L 569.118018 92.699018 
L 571.658205 90.147239 
L 574.198392 87.768444 
L 576.738579 85.651601 
L 579.278766 83.282819 
L 581.818953 81.407422 
L 584.35914 79.990586 
L 586.899327 77.793197 
L 589.439514 75.685068 
L 591.979701 73.365129 
L 594.519888 71.386602 
L 597.060074 69.406117 
L 599.600261 67.996485 
L 602.140448 66.713604 
L 604.680635 65.692158 
L 607.220822 64.459783 
L 609.761009 63.14725 
L 612.301196 61.890294 
L 614.841383 60.745169 
L 617.38157 59.549554 
L 619.921757 58.356929 
L 622.461944 57.081665 
L 625.002131 56.019213 
L 627.542317 55.07318 
L 630.082504 53.863536 
L 632.622691 53.141803 
L 635.162878 52.358008 
L 637.703065 51.254845 
L 640.243252 50.394158 
L 642.783439 49.346548 
L 645.323626 48.856407 
L 647.863813 48.414821 
L 650.404 47.629231 
L 652.944187 46.787472 
L 655.484374 46.239734 
L 658.02456 45.660267 
L 660.564747 45.237839 
L 663.104934 44.809433 
L 665.645121 44.009752 
L 668.185308 43.351962 
L 670.725495 42.914795 
L 673.265682 42.302416 
L 675.805869 41.659744 
L 678.346056 41.059712 
L 680.886243 40.739303 
L 683.42643 40.545957 
L 685.966617 40.280482 
L 688.506803 39.805936 
L 691.04699 39.167964 
L 693.587177 38.723852 
L 696.127364 38.14526 
L 698.667551 37.697042 
L 701.207738 37.289739 
L 703.747925 36.943592 
L 706.288112 36.536505 
L 708.828299 36.226522 
L 711.368486 35.797008 
L 713.908673 35.30689 
L 716.44886 35.043464 
L 718.989046 34.715879 
L 721.529233 34.52063 
L 724.06942 34.397555 
L 726.609607 34.283348 
L 729.149794 34.163191 
L 731.689981 34.025288 
L 734.230168 33.891249 
L 736.770355 33.569237 
L 739.310542 33.40972 
L 741.850729 33.309874 
L 744.390916 33.262834 
L 746.931103 33.144964 
L 749.471289 33.008822 
L 752.011476 32.964257 
L 754.551663 32.896172 
L 757.09185 32.805156 
L 759.632037 32.638526 
L 762.172224 32.5452 
L 764.712411 32.412066 
L 767.252598 32.304102 
L 769.792785 32.158947 
L 772.332972 32.099509 
L 774.873159 32.075317 
L 777.413346 32.046119 
L 779.953532 31.957561 
" style="fill:none;stroke:#7096a0;stroke-linecap:round;stroke-width:2.5;"/>
   </g>
   <g id="line2d_13">
    <path clip-path="url(#pf9a17aa169)" d="M 525.934841 256.643774 
L 528.475028 239.543666 
L 531.015215 224.991504 
L 533.555402 214.00667 
L 536.095588 206.858915 
L 538.635775 199.744971 
L 541.175962 193.859213 
L 543.716149 187.426661 
L 546.256336 182.320574 
L 548.796523 175.854455 
L 551.33671 170.287503 
L 553.876897 166.505133 
L 556.417084 162.534214 
L 558.957271 158.508438 
L 561.497458 153.849622 
L 564.037645 149.661144 
L 566.577831 145.647139 
L 569.118018 141.35146 
L 571.658205 137.177561 
L 574.198392 132.778954 
L 576.738579 129.306857 
L 579.278766 125.987165 
L 581.818953 123.086291 
L 584.35914 119.820498 
L 586.899327 115.9356 
L 589.439514 112.39548 
L 591.979701 109.757869 
L 594.519888 107.622685 
L 597.060074 103.76428 
L 599.600261 101.656806 
L 602.140448 98.888511 
L 604.680635 95.263205 
L 607.220822 93.187826 
L 609.761009 90.791817 
L 612.301196 88.582118 
L 614.841383 86.891515 
L 617.38157 84.211608 
L 619.921757 81.103318 
L 622.461944 79.134312 
L 625.002131 76.763611 
L 627.542317 74.93616 
L 630.082504 73.277082 
L 632.622691 71.601899 
L 635.162878 69.627465 
L 637.703065 67.611202 
L 640.243252 65.991886 
L 642.783439 64.021349 
L 645.323626 62.741727 
L 647.863813 61.004313 
L 650.404 58.946116 
L 652.944187 57.247012 
L 655.484374 55.722112 
L 658.02456 54.234501 
L 660.564747 53.144189 
L 663.104934 52.004544 
L 665.645121 50.943306 
L 668.185308 49.795724 
L 670.725495 49.021272 
L 673.265682 47.927831 
L 675.805869 47.00146 
L 678.346056 46.005469 
L 680.886243 45.216301 
L 683.42643 44.467123 
L 685.966617 43.703056 
L 688.506803 43.077564 
L 691.04699 42.015276 
L 693.587177 41.584028 
L 696.127364 40.966975 
L 698.667551 40.162643 
L 701.207738 39.750109 
L 703.747925 39.106619 
L 706.288112 38.325897 
L 708.828299 38.026494 
L 711.368486 37.687285 
L 713.908673 37.263781 
L 716.44886 36.61069 
L 718.989046 36.236088 
L 721.529233 35.874246 
L 724.06942 35.438292 
L 726.609607 35.156905 
L 729.149794 34.809107 
L 731.689981 34.585283 
L 734.230168 34.396166 
L 736.770355 34.079994 
L 739.310542 33.836108 
L 741.850729 33.63902 
L 744.390916 33.344962 
L 746.931103 33.031712 
L 749.471289 32.671514 
L 752.011476 32.49973 
L 754.551663 32.418351 
L 757.09185 32.343986 
L 759.632037 32.115597 
L 762.172224 32.058605 
L 764.712411 32.035721 
L 767.252598 32.007497 
L 769.792785 31.985786 
L 772.332972 31.985786 
L 774.873159 31.957561 
L 777.413346 31.957561 
L 779.953532 31.957561 
" style="fill:none;stroke:#b0b7a7;stroke-linecap:round;stroke-width:2.5;"/>
   </g>
   <g id="line2d_14">
    <path clip-path="url(#pf9a17aa169)" d="M 525.934841 285.976253 
L 779.953532 31.957561 
" style="fill:none;stroke:#c44e52;stroke-dasharray:5.55,2.4;stroke-dashoffset:0;stroke-width:1.5;"/>
   </g>
   <g id="patch_6">
    <path d="M 498.008906 298.677187 
L 498.008906 26.877187 
" style="fill:none;stroke:#262626;stroke-linecap:square;stroke-linejoin:miter;stroke-width:1.25;"/>
   </g>
   <g id="patch_7">
    <path d="M 498.008906 298.677187 
L 800.258906 298.677187 
" style="fill:none;stroke:#262626;stroke-linecap:square;stroke-linejoin:miter;stroke-width:1.25;"/>
   </g>
   <g id="text_30">
    <!-- %DEG = 25% -->
    <g style="fill:#262626;" transform="translate(587.725781 20.877187)scale(0.18 -0.18)">
     <use xlink:href="#DejaVuSans-25"/>
     <use x="95.019531" xlink:href="#DejaVuSans-44"/>
     <use x="172.021484" xlink:href="#DejaVuSans-45"/>
     <use x="235.205078" xlink:href="#DejaVuSans-47"/>
     <use x="312.695312" xlink:href="#DejaVuSans-20"/>
     <use x="344.482422" xlink:href="#DejaVuSans-3d"/>
     <use x="428.271484" xlink:href="#DejaVuSans-20"/>
     <use x="460.058594" xlink:href="#DejaVuSans-32"/>
     <use x="523.681641" xlink:href="#DejaVuSans-35"/>
     <use x="587.304688" xlink:href="#DejaVuSans-25"/>
    </g>
   </g>
   <g id="legend_2">
    <g id="text_31">
     <!-- Method -->
     <g style="fill:#262626;" transform="translate(695.028281 204.894375)scale(0.18 -0.18)">
      <use xlink:href="#DejaVuSans-4d"/>
      <use x="86.279297" xlink:href="#DejaVuSans-65"/>
      <use x="147.802734" xlink:href="#DejaVuSans-74"/>
      <use x="187.011719" xlink:href="#DejaVuSans-68"/>
      <use x="250.390625" xlink:href="#DejaVuSans-6f"/>
      <use x="311.572266" xlink:href="#DejaVuSans-64"/>
     </g>
    </g>
    <g id="line2d_15">
     <path d="M 618.646406 223.652812 
L 651.646406 223.652812 
" style="fill:none;stroke:#0e3b59;stroke-linecap:round;stroke-width:2.5;"/>
    </g>
    <g id="line2d_16"/>
    <g id="text_32">
     <!-- Hydra ($0.95 \pm 0.02$) -->
     <g style="fill:#262626;" transform="translate(664.846406 229.427812)scale(0.165 -0.165)">
      <use transform="translate(0 0.015625)" xlink:href="#DejaVuSans-48"/>
      <use transform="translate(75.195312 0.015625)" xlink:href="#DejaVuSans-79"/>
      <use transform="translate(134.375 0.015625)" xlink:href="#DejaVuSans-64"/>
      <use transform="translate(197.851562 0.015625)" xlink:href="#DejaVuSans-72"/>
      <use transform="translate(238.964844 0.015625)" xlink:href="#DejaVuSans-61"/>
      <use transform="translate(300.244141 0.015625)" xlink:href="#DejaVuSans-20"/>
      <use transform="translate(332.03125 0.015625)" xlink:href="#DejaVuSans-28"/>
      <use transform="translate(371.044922 0.015625)" xlink:href="#DejaVuSans-30"/>
      <use transform="translate(434.667969 0.015625)" xlink:href="#DejaVuSans-2e"/>
      <use transform="translate(466.455078 0.015625)" xlink:href="#DejaVuSans-39"/>
      <use transform="translate(530.078125 0.015625)" xlink:href="#DejaVuSans-35"/>
      <use transform="translate(613.183594 0.015625)" xlink:href="#DejaVuSans-b1"/>
      <use transform="translate(716.455078 0.015625)" xlink:href="#DejaVuSans-30"/>
      <use transform="translate(780.078125 0.015625)" xlink:href="#DejaVuSans-2e"/>
      <use transform="translate(811.865234 0.015625)" xlink:href="#DejaVuSans-30"/>
      <use transform="translate(875.488281 0.015625)" xlink:href="#DejaVuSans-32"/>
      <use transform="translate(939.111328 0.015625)" xlink:href="#DejaVuSans-29"/>
     </g>
    </g>
    <g id="line2d_17">
     <path d="M 618.646406 247.905234 
L 651.646406 247.905234 
" style="fill:none;stroke:#7096a0;stroke-linecap:round;stroke-width:2.5;"/>
    </g>
    <g id="line2d_18"/>
    <g id="text_33">
     <!-- ssGSEA ($0.79 \pm 0.02$) -->
     <g style="fill:#262626;" transform="translate(664.846406 253.680234)scale(0.165 -0.165)">
      <use transform="translate(0 0.125)" xlink:href="#DejaVuSans-73"/>
      <use transform="translate(52.099609 0.125)" xlink:href="#DejaVuSans-73"/>
      <use transform="translate(104.199219 0.125)" xlink:href="#DejaVuSans-47"/>
      <use transform="translate(181.689453 0.125)" xlink:href="#DejaVuSans-53"/>
      <use transform="translate(245.166016 0.125)" xlink:href="#DejaVuSans-45"/>
      <use transform="translate(308.349609 0.125)" xlink:href="#DejaVuSans-41"/>
      <use transform="translate(376.757812 0.125)" xlink:href="#DejaVuSans-20"/>
      <use transform="translate(408.544922 0.125)" xlink:href="#DejaVuSans-28"/>
      <use transform="translate(447.558594 0.125)" xlink:href="#DejaVuSans-30"/>
      <use transform="translate(511.181641 0.125)" xlink:href="#DejaVuSans-2e"/>
      <use transform="translate(542.859375 0.125)" xlink:href="#DejaVuSans-37"/>
      <use transform="translate(606.482422 0.125)" xlink:href="#DejaVuSans-39"/>
      <use transform="translate(689.587891 0.125)" xlink:href="#DejaVuSans-b1"/>
      <use transform="translate(792.859375 0.125)" xlink:href="#DejaVuSans-30"/>
      <use transform="translate(856.482422 0.125)" xlink:href="#DejaVuSans-2e"/>
      <use transform="translate(888.269531 0.125)" xlink:href="#DejaVuSans-30"/>
      <use transform="translate(951.892578 0.125)" xlink:href="#DejaVuSans-32"/>
      <use transform="translate(1015.515625 0.125)" xlink:href="#DejaVuSans-29"/>
     </g>
    </g>
    <g id="line2d_19">
     <path d="M 618.646406 272.124141 
L 651.646406 272.124141 
" style="fill:none;stroke:#b0b7a7;stroke-linecap:round;stroke-width:2.5;"/>
    </g>
    <g id="line2d_20"/>
    <g id="text_34">
     <!-- GSVA ($0.73 \pm 0.02$) -->
     <g style="fill:#262626;" transform="translate(664.846406 277.899141)scale(0.165 -0.165)">
      <use transform="translate(0 0.125)" xlink:href="#DejaVuSans-47"/>
      <use transform="translate(77.490234 0.125)" xlink:href="#DejaVuSans-53"/>
      <use transform="translate(140.966797 0.125)" xlink:href="#DejaVuSans-56"/>
      <use transform="translate(209.375 0.125)" xlink:href="#DejaVuSans-41"/>
      <use transform="translate(277.783203 0.125)" xlink:href="#DejaVuSans-20"/>
      <use transform="translate(309.570312 0.125)" xlink:href="#DejaVuSans-28"/>
      <use transform="translate(348.583984 0.125)" xlink:href="#DejaVuSans-30"/>
      <use transform="translate(412.207031 0.125)" xlink:href="#DejaVuSans-2e"/>
      <use transform="translate(443.884766 0.125)" xlink:href="#DejaVuSans-37"/>
      <use transform="translate(507.507812 0.125)" xlink:href="#DejaVuSans-33"/>
      <use transform="translate(590.613281 0.125)" xlink:href="#DejaVuSans-b1"/>
      <use transform="translate(693.884766 0.125)" xlink:href="#DejaVuSans-30"/>
      <use transform="translate(757.507812 0.125)" xlink:href="#DejaVuSans-2e"/>
      <use transform="translate(789.294922 0.125)" xlink:href="#DejaVuSans-30"/>
      <use transform="translate(852.917969 0.125)" xlink:href="#DejaVuSans-32"/>
      <use transform="translate(916.541016 0.125)" xlink:href="#DejaVuSans-29"/>
     </g>
    </g>
   </g>
  </g>
 </g>
 <defs>
  <clipPath id="p6f3e2a54a0">
   <rect height="271.8" width="302.25" x="74.858906" y="26.877187"/>
  </clipPath>
  <clipPath id="pf9a17aa169">
   <rect height="271.8" width="302.25" x="498.008906" y="26.877187"/>
  </clipPath>
 </defs>
</svg>
